<?xml version="1.0" encoding="utf-8"?>
<!-- Generator: Adobe Illustrator 21.1.0, SVG Export Plug-In . SVG Version: 6.00 Build 0)  -->
<svg version="1.1" id="Ebene_1" xmlns="http://www.w3.org/2000/svg" xmlns:xlink="http://www.w3.org/1999/xlink" x="0px" y="0px"
	 viewBox="0 0 800 800" style="enable-background:new 0 0 800 800;" xml:space="preserve">
<style type="text/css">
	.st0{fill:#FFFFFF;}
</style>
<g>
	<path class="st0" d="M12.1,86.8c3.2-0.9,6.6-3.1,5.5-6c0.3-9.9-0.3-19.9-0.3-29.8c-0.1-10.1,0.1-20.2-0.2-30.4
		C17,15.5,6.9,13.7,0,15.2v71.6C3.9,88,8.5,87.8,12.1,86.8z"/>
	<path class="st0" d="M23.8,29.5c-1,4.1,5.5,5.8,8.3,6.2c20.5,2.5,41.6,4,62.2,5c3.3,0.2,10.8-0.8,11.7-4.9c1-4.2-5.7-5.9-8.5-6.2
		C77,27.1,56,25.7,35.3,24.8C32.1,24.6,24.8,25.4,23.8,29.5z"/>
	<path class="st0" d="M43.1,105.5c-0.1,7.9,22.5,7.9,23.9,0c2.8-16.3,2.1-34.5,0.4-50.9c-0.8-7.9-23.9-7.8-23.6-0.2
		c0.4,8.5,0.8,17.1,0.6,25.6C44.2,88.6,43.1,97,43.1,105.5z"/>
	<path class="st0" d="M80.2,0.6c0-0.2,0-0.4,0-0.6H56.4c0,0.2,0,0.3,0.1,0.5C57.8,8.3,79.5,8.7,80.2,0.6z"/>
	<path class="st0" d="M131.3,56.6c-13.7,0-27.3,0.5-41,0.3c-3.4,0-11.6,0.7-11.8,5.5c-0.2,4.7,8.9,5.6,11.7,5.7
		c14.7,0.5,29.5,0.6,44.2-0.4c0.9-0.1,2-0.3,3.2-0.6c0.2,8.8,0.1,17.7,0.8,26.5c0.7,7.9,23.4,8,23.9,0c0.7-10.7-0.3-21.8-0.9-32.6
		c-0.6-10.8-1.5-21.6-2.8-32.3c-1-7.9-24-7.7-23.5-0.2c0.7,9.6,1.5,19.2,2,28.8C135,56.8,132.7,56.6,131.3,56.6z"/>
	<path class="st0" d="M134.9,5.6c0-1.9,0.1-3.7,0-5.6h-24.5c0.1,1.9,0.2,3.7,0.4,5.6C111.6,13.6,134.7,13.6,134.9,5.6z"/>
	<path class="st0" d="M111.4,88.9c-3.4-0.2-11.5-0.1-13.1,4c-3.5,9-3.5,18.8-2.9,28.2c0.6,10.1,1.4,20.3,2.4,30.4
		c0.8,7.9,23.9,7.8,23.5,0.2c-0.9-19.1-4.5-38.4,0.2-57.2C122.7,90.4,113.4,89,111.4,88.9z"/>
	<path class="st0" d="M31.8,113.1c2.4-7.7-13.6-8.8-20.4-5.2c-0.3,0-0.7,0-1,0c-1.5,0-3-0.1-4.5-0.2c-2-0.1-3.9-0.4-5.9-0.6v11.7
		c3.5,0.3,7,0.4,10.4,0.5C16.1,119.5,29.6,120.3,31.8,113.1z"/>
	<path class="st0" d="M13.9,140.9c-1,4.1,5.5,5.7,8.3,6.2c20.5,3.5,42.9,2.5,63.3-1c3.2-0.5,10.5-2.3,8.4-7
		c-1.9-4.4-11.2-4.5-14.8-4c-18.1,2.7-35.5,2.4-53.6,1.2C22.2,136.1,14.9,137,13.9,140.9z"/>
	<path class="st0" d="M60.8,214.6c0.6,8.1,24.5,7.8,24.2-0.1c-0.6-16.3-0.4-32.6-0.5-48.9c-0.1-7.8-22.8-8-23.6-0.2
		c-0.7,6.5-1,13.1-1.1,19.8c-6.1,0.5-12.2,0.6-18.4,0.8c-3.3,0.1-10.5,0.4-11.5,4.6c-1,4,5.5,5.8,8.3,6.1c7.2,0.8,14.5,0.6,21.7,0.1
		C60,202.9,60.3,208.8,60.8,214.6z"/>
	<path class="st0" d="M14.8,228.7l0.5-0.6c1.6-1.8,0.2-3.4-1.8-4.6c-0.1-1.5,0.1-3.3,0.1-4.3c-0.1-2.6-0.2-5.2-0.2-7.8
		c-0.1-4.9-0.3-9.7-0.4-14.6c-0.3-10-0.5-20.1-1.1-30.2c-0.2-3.9-6.1-5.9-12-5.9v72C5.3,233.3,11.2,232.8,14.8,228.7z"/>
	<path class="st0" d="M129.3,178.7c-0.6-7.8-23.5-8-23.5-0.2c0,11.6,0.8,23.2,1.8,34.8c1,11.4,1.8,23.2,4,34.4c1,4.8,8,5.7,12,5.7
		c2.9,0,12.4-0.9,12-5.7c-1-11.5-2.9-23-3.9-34.5C130.7,201.7,130.2,190.2,129.3,178.7z"/>
	<path class="st0" d="M145.3,126.2c-3.4,0.1-11.7,0.7-11.9,5.5c-0.2,4.8,8.9,5.5,11.8,5.7c4.2,0.2,8.5,0.4,12.7,0.6
		c-1,19.9-1,40-1,59.8c0,4.7,9.1,5.9,12.1,5.7c0.2,0,0.4,0,0.7,0c2.9-0.2,10.3-0.5,11.6-4.2c0.1-0.4,0.3-0.7,0.4-1.1
		c0.5-1.5,0.3-2.8-0.5-3.8c0.5-18.6,0.9-37.4,0.4-55.9c2.6,0,5.1,0,7.7,0.1c3.4,0,11.9-0.9,12-5.7c0.1-4.9-9.1-5.6-12.1-5.7
		C174.7,126.5,159.9,125.9,145.3,126.2z"/>
	<path class="st0" d="M198.9,50.6c-0.7-6-1.4-11.9-1.9-17.9c0.9,0.1,1.8,0.2,2.3,0.2c14.1,0.6,28.5,0.7,42.6,0.1
		c3.4-0.2,11.7-0.7,11.9-5.6c0.2-4.8-9-5.5-11.9-5.7c-14-0.6-28.5-0.5-42.5,0.1c-0.9,0-2.1,0.1-3.3,0.2c-0.5-7.4-0.9-14.7-1.2-22.1
		H171c0,16.9,1.2,34,3.7,50.7C175.9,58.9,199.9,58.1,198.9,50.6z"/>
	<path class="st0" d="M204.4,87.5c-5.1-0.4-10.1-1.6-15.1-2.2c-4.9-0.6-16,0.1-15.8,7.2c0.2,5.4,11.2,7.2,18.1,5.1
		c17.2,2.5,34.8,2.1,51.7-1.7c3.2-0.7,7.6-3.5,4.9-7c-2.8-3.6-10.1-3.9-14-3.3C224.3,87.1,214.5,88.3,204.4,87.5z"/>
	<path class="st0" d="M242.1,46.7c-0.2-7.8-23.2-8-23.6-0.2c-0.3,5.9-1.1,12.6-0.3,18.5c1,7.9,10.9,8.9,17.4,8
		c2.9-0.4,9.5-1.9,8.5-6.1c-0.3-1.2-1.1-2.1-2.2-2.8c0-1.7,0.3-6.2,0.3-7C242.2,53.7,242.2,50.2,242.1,46.7z"/>
	<path class="st0" d="M244.6,158.6c0.2-16.4-0.2-32.6,0.6-48.9c0.4-7.6-22.8-8.1-23.6-0.2c-1.8,16-2.8,33.1-1,49.1
		C221.4,166.6,244.5,166.6,244.6,158.6z"/>
	<path class="st0" d="M266.3,177c-16.9-0.1-34,0.7-51,1.5c-1.5,0.1-15.6,1.9-11.5,7c0.7,0.8,1.3,1.7,2,2.5c3.1,4.1,9.5,4.6,14.2,4
		c1.5-0.2,5.1-1,7.1-2.5c14.1-0.2,28.2-0.6,42.3-1.5c3-0.2,9.5-2.1,8.6-6.2C277,177.7,269.5,177,266.3,177z"/>
	<path class="st0" d="M203.7,207.5c-0.7,6.7-1.3,13.3-1.8,20c-2.3-0.2-4.5-0.1-5.9,0.2c-9.2,1.6-18.2,2.2-27.5,1.4
		c-4-0.4-12.5-0.7-14.6,3.9c-2.2,4.5,5.3,6.6,8.3,6.9c12.9,1.5,26.1,1.2,39-1.1c-0.1,1.2-0.2,2.5-0.2,3.7
		c-0.5,7.7,23.4,8.2,24.1-0.1c1.1-11.6,1.9-23.2,2.5-34.9C227.8,200,204.6,199.5,203.7,207.5z"/>
	<path class="st0" d="M160.6,260.5c-1.1,11-2.1,22-2.7,33c-0.4,7.7,23.3,8.1,24.1-0.1c1-10.9,1.8-21.9,2.4-32.9
		C184.8,253,161.4,252.5,160.6,260.5z"/>
	<path class="st0" d="M68.2,287.6c0.1,7.9,23.5,8,24,0c1-16.2,0.4-32.7-0.6-48.9c-0.5-7.9-23.6-7.9-23.5-0.2
		C68.4,254.8,67.9,271.2,68.2,287.6z"/>
	<path class="st0" d="M793.6,20.5c-0.5,11.2-0.4,22.4-0.4,33.5c0,5.2,0.1,10.5,0.1,15.7c0,4.4-1.4,12,2.4,15c1.2,1,2.7,1.6,4.2,2.1
		V15.2C796.4,16.1,793.7,17.8,793.6,20.5z"/>
	<path class="st0" d="M778.6,109.3c-2.7,3.4,1.5,6.1,4.7,7c5.4,1.4,11,2.2,16.7,2.6v-11.7c-2.5-0.3-5-0.7-7.6-0.9
		C788.3,105.9,781.5,105.6,778.6,109.3z"/>
	<path class="st0" d="M788.4,166.4c0,12.1,0.4,24.2,0.7,36.2c0.1,5.9,0.3,11.7,0.4,17.6c0.2,6.3,0.4,10.4,7.7,11.9
		c0.9,0.2,1.9,0.3,2.8,0.5v-72C794.2,160.6,788.4,162.5,788.4,166.4z"/>
	<path class="st0" d="M271.8,100.8c4.3,3.3,11.3,3.5,16.3,2.1c3.2-0.9,6.6-3.1,5.5-6c0.3-9.9-0.3-19.9-0.3-29.8
		c-0.1-10.1,0.1-20.2-0.2-30.4c-0.2-7.8-23.2-8-23.5-0.2c-0.5,11.2-0.4,22.4-0.4,33.5c0,5.2,0.1,10.5,0.1,15.7
		C269.4,90.1,267.9,97.7,271.8,100.8z"/>
	<path class="st0" d="M299.8,45.5c-1,4.1,5.5,5.8,8.3,6.2c20.5,2.5,41.6,4,62.2,5c3.3,0.2,10.8-0.8,11.7-4.9c1-4.2-5.7-5.9-8.5-6.2
		c-20.5-2.4-41.5-3.9-62.2-4.8C308.1,40.6,300.8,41.4,299.8,45.5z"/>
	<path class="st0" d="M319.1,121.5c-0.1,7.9,22.5,7.9,23.9,0c2.8-16.3,2.1-34.5,0.4-50.9c-0.8-7.9-23.9-7.8-23.6-0.2
		c0.4,8.5,0.8,17.1,0.6,25.6C320.2,104.6,319.1,113,319.1,121.5z"/>
	<path class="st0" d="M356.2,16.6c0.5-5.4,0.2-11.1,0.1-16.6h-24.4c-0.2,5.5-0.3,11.2,0.6,16.5C333.8,24.3,355.5,24.7,356.2,16.6z"
		/>
	<path class="st0" d="M407.3,72.6c-13.7,0-27.3,0.5-41,0.3c-3.4,0-11.6,0.7-11.8,5.5c-0.2,4.7,8.9,5.6,11.7,5.7
		c14.7,0.5,29.5,0.6,44.2-0.4c0.9-0.1,2-0.3,3.2-0.6c0.2,8.8,0.1,17.7,0.8,26.5c0.7,7.9,23.4,8,23.9,0c0.7-10.7-0.3-21.8-0.9-32.6
		c-0.6-10.8-1.5-21.6-2.8-32.3c-1-7.9-24-7.7-23.5-0.2c0.7,9.6,1.5,19.2,2,28.8C411,72.8,408.7,72.6,407.3,72.6z"/>
	<path class="st0" d="M410.9,21.6c0.2-7.2-0.2-14.4-0.6-21.6H386c0.1,7.2,0.2,14.5,0.9,21.6C387.6,29.6,410.7,29.6,410.9,21.6z"/>
	<path class="st0" d="M387.4,104.9c-3.4-0.2-11.5-0.1-13.1,4c-3.5,9-3.5,18.8-2.9,28.2c0.6,10.1,1.4,20.3,2.4,30.4
		c0.8,7.9,23.9,7.8,23.5,0.2c-0.9-19.1-4.5-38.4,0.2-57.2C398.7,106.4,389.4,105,387.4,104.9z"/>
	<path class="st0" d="M259.3,132.2c8.7,2.3,18.1,2.9,27.1,3.1c5.7,0.1,19.2,0.9,21.4-6.3c2.4-7.7-13.6-8.8-20.4-5.2
		c-0.3,0-0.7,0-1,0c-1.5,0-3-0.1-4.5-0.2c-4.5-0.3-8.9-1.1-13.4-1.5c-4.1-0.4-10.9-0.6-13.8,3.1
		C251.9,128.7,256.2,131.4,259.3,132.2z"/>
	<path class="st0" d="M289.9,156.9c-1,4.1,5.5,5.7,8.3,6.2c20.5,3.5,42.9,2.5,63.3-1c3.2-0.5,10.5-2.3,8.4-7
		c-1.9-4.4-11.2-4.5-14.8-4c-18.1,2.7-35.5,2.4-53.6,1.2C298.2,152.1,290.9,153,289.9,156.9z"/>
	<path class="st0" d="M336.9,181.4c-0.7,6.5-1,13.1-1.1,19.8c-6.1,0.5-12.2,0.6-18.4,0.8c-3.3,0.1-10.5,0.4-11.5,4.6
		c-1,4,5.5,5.8,8.3,6.1c7.2,0.8,14.5,0.6,21.7,0.1c0.2,6,0.5,11.9,0.9,17.7c0.6,8.1,24.5,7.8,24.2-0.1c-0.6-16.3-0.4-32.6-0.5-48.9
		C360.4,173.8,337.7,173.6,336.9,181.4z"/>
	<path class="st0" d="M268.4,201.4c0,12.1,0.4,24.2,0.7,36.2c0.1,5.9,0.3,11.7,0.4,17.6c0.2,6.3,0.4,10.4,7.7,11.9
		c5.9,1.2,13.4,1.5,17.7-3.4l0.5-0.6c1.6-1.8,0.2-3.4-1.8-4.6c-0.1-1.5,0.1-3.3,0.1-4.3c-0.1-2.6-0.2-5.2-0.2-7.8
		c-0.1-4.9-0.3-9.7-0.4-14.6c-0.3-10-0.5-20.1-1.1-30.2C291.5,193.7,268.4,193.6,268.4,201.4z"/>
	<path class="st0" d="M405.3,194.7c-0.6-7.8-23.5-8-23.5-0.2c0,11.6,0.8,23.2,1.8,34.8c1,11.4,1.8,23.2,4,34.4c1,4.8,8,5.7,12,5.7
		c2.9,0,12.4-0.9,12-5.7c-1-11.5-2.9-23-3.9-34.5C406.7,217.7,406.2,206.2,405.3,194.7z"/>
	<path class="st0" d="M421.3,142.2c-3.4,0.1-11.7,0.7-11.9,5.5c-0.2,4.8,8.9,5.5,11.8,5.7c4.2,0.2,8.5,0.4,12.7,0.6
		c-1,19.9-1,40-1,59.8c0,4.7,9.1,5.9,12.1,5.7c0.2,0,0.4,0,0.7,0c2.9-0.2,10.3-0.5,11.6-4.2c0.1-0.4,0.3-0.7,0.4-1.1
		c0.5-1.5,0.3-2.8-0.5-3.8c0.5-18.6,0.9-37.4,0.4-55.9c2.6,0,5.1,0,7.7,0.1c3.4,0,11.9-0.9,12-5.7c0.1-4.9-9.1-5.6-12.1-5.7
		C450.7,142.5,435.9,141.9,421.3,142.2z"/>
	<path class="st0" d="M474.9,66.6c-0.7-6-1.4-11.9-1.9-17.9c0.9,0.1,1.8,0.2,2.3,0.2c14.1,0.6,28.5,0.7,42.6,0.1
		c3.4-0.2,11.7-0.7,11.9-5.6c0.2-4.8-9-5.5-11.9-5.7c-14-0.6-28.5-0.5-42.5,0.1c-0.9,0-2.1,0.1-3.3,0.2c-0.7-9.5-1.2-18.9-1.4-28.5
		c-0.2-7.8-23.4-8-23.6-0.2c-0.4,19,0.8,38.4,3.6,57.2C451.9,74.9,475.9,74.1,474.9,66.6z"/>
	<path class="st0" d="M480.4,103.5c-5.1-0.4-10.1-1.6-15.1-2.2c-4.9-0.6-16,0.1-15.8,7.2c0.2,5.4,11.2,7.2,18.1,5.1
		c17.2,2.5,34.8,2.1,51.7-1.7c3.2-0.7,7.6-3.5,4.9-7c-2.8-3.6-10.1-3.9-14-3.3C500.3,103.1,490.5,104.3,480.4,103.5z"/>
	<path class="st0" d="M518.1,62.7c-0.2-7.8-23.2-8-23.6-0.2c-0.3,5.9-1.1,12.6-0.3,18.5c1,7.9,10.9,8.9,17.4,8
		c2.9-0.4,9.5-1.9,8.5-6.1c-0.3-1.2-1.1-2.1-2.2-2.8c0-1.7,0.3-6.2,0.3-7C518.2,69.7,518.2,66.2,518.1,62.7z"/>
	<path class="st0" d="M497.6,125.5c-1.8,16-2.8,33.1-1,49.1c0.9,8,24,8,24.1,0c0.2-16.4-0.2-32.6,0.6-48.9
		C521.5,118,498.4,117.5,497.6,125.5z"/>
	<path class="st0" d="M473.8,200.5c0.7,0.8,1.3,1.7,2,2.5c3.1,4.1,9.5,4.6,14.2,4c1.5-0.2,5.1-1,7.1-2.5c14.1-0.2,28.2-0.6,42.3-1.5
		c3-0.2,9.5-2.1,8.6-6.2c-1-4.2-8.5-4.9-11.7-4.9c-16.9-0.1-34,0.7-51,1.5C483.8,193.6,469.7,195.4,473.8,200.5z"/>
	<path class="st0" d="M479.7,223.5c-0.7,6.7-1.3,13.3-1.8,20c-2.3-0.2-4.5-0.1-5.9,0.2c-9.2,1.6-18.2,2.2-27.5,1.4
		c-4-0.4-12.5-0.7-14.6,3.9c-2.2,4.5,5.3,6.6,8.3,6.9c12.9,1.5,26.1,1.2,39-1.1c-0.1,1.2-0.2,2.5-0.2,3.7
		c-0.5,7.7,23.4,8.2,24.1-0.1c1.1-11.6,1.9-23.2,2.5-34.9C503.8,216,480.6,215.5,479.7,223.5z"/>
	<path class="st0" d="M436.6,276.5c-1.1,11-2.1,22-2.7,33c-0.4,7.7,23.3,8.1,24.1-0.1c1-10.9,1.8-21.9,2.4-32.9
		C460.8,269,437.4,268.5,436.6,276.5z"/>
	<path class="st0" d="M344.2,303.6c0.1,7.9,23.5,8,24,0c1-16.2,0.4-32.7-0.6-48.9c-0.5-7.9-23.6-7.9-23.5-0.2
		C344.4,270.8,343.9,287.2,344.2,303.6z"/>
	<path class="st0" d="M422.3,295.6c0-4.8-9-5.7-12-5.7c-5,0-10,0-15,0.1c-3.3,0.1-11.9,0.7-11.9,5.6c0,4.8,8.8,5.6,11.8,5.7
		c5,0.1,10,0.1,15,0.1C413.6,301.2,422.3,300.4,422.3,295.6z"/>
	<path class="st0" d="M612.3,6.6c3.3,0.2,10.8-0.8,11.7-4.9c0.2-0.7,0.1-1.2-0.1-1.8h-79.4c1.8,1,4.1,1.5,5.5,1.6
		C570.6,4.2,591.7,5.7,612.3,6.6z"/>
	<path class="st0" d="M554.1,72.5c-0.1,7.9,22.5,7.9,23.9,0c2.8-16.3,2.1-34.5,0.4-50.9c-0.8-7.9-23.9-7.8-23.6-0.2
		c0.4,8.5,0.8,17.1,0.6,25.6C555.2,55.6,554.1,64,554.1,72.5z"/>
	<path class="st0" d="M608.3,22.9c-3.4,0-11.6,0.7-11.8,5.5c-0.2,4.7,8.9,5.6,11.7,5.7c14.7,0.5,29.5,0.6,44.2-0.4
		c0.9-0.1,2-0.3,3.2-0.6c0.2,8.8,0.1,17.7,0.8,26.5c0.7,7.9,23.4,8,23.9,0c0.7-10.7-0.3-21.8-0.9-32.6c-0.5-9-1.2-18-2.2-27h-23.6
		c0.6,7.8,1.2,15.5,1.6,23.3c-2.2-0.5-4.5-0.7-5.9-0.7C635.6,22.6,622,23.1,608.3,22.9z"/>
	<path class="st0" d="M550.2,103.1c20.5,3.5,42.9,2.5,63.3-1c0.3-0.1,0.7-0.1,1-0.2c0.4,5.2,0.9,10.4,1.4,15.5
		c0.8,7.9,23.9,7.8,23.5,0.2c-0.9-19.1-4.5-38.4,0.2-57.2c1-4-8.3-5.4-10.3-5.6c-3.4-0.2-11.5-0.1-13.1,4c-3.5,9-3.5,18.8-2.9,28.2
		c0.1,1.3,0.2,2.7,0.3,4c-2.6-0.3-5.1-0.2-6.7,0.1c-18.1,2.7-35.5,2.4-53.6,1.2c-3.2-0.2-10.5,0.7-11.5,4.7
		C540.9,101.1,547.4,102.6,550.2,103.1z"/>
	<path class="st0" d="M548.1,156.8c7.2,0.8,14.5,0.6,21.7,0.1c0.2,6,0.5,11.9,0.9,17.7c0.6,8.1,24.5,7.8,24.2-0.1
		c-0.6-16.3-0.4-32.6-0.5-48.9c-0.1-7.8-22.8-8-23.6-0.2c-0.7,6.5-1,13.1-1.1,19.8c-6.1,0.5-12.2,0.6-18.4,0.8
		c-3.3,0.1-10.5,0.4-11.5,4.6C538.8,154.7,545.3,156.5,548.1,156.8z"/>
	<path class="st0" d="M647.3,144.7c-0.6-7.8-23.5-8-23.5-0.2c0,11.6,0.8,23.2,1.8,34.8c1,11.4,1.8,23.2,4,34.4c1,4.8,8,5.7,12,5.7
		c2.9,0,12.4-0.9,12-5.7c-1-11.5-2.9-23-3.9-34.5C648.7,167.7,648.2,156.2,647.3,144.7z"/>
	<path class="st0" d="M719.3,98.7c0.1-4.9-9.1-5.6-12.1-5.7c-14.6-0.5-29.3-1.1-43.9-0.8c-3.4,0.1-11.7,0.7-11.9,5.5
		c-0.2,4.8,8.9,5.5,11.8,5.7c4.2,0.2,8.5,0.4,12.7,0.6c-1,19.9-1,40-1,59.8c0,4.7,9.1,5.9,12.1,5.7c0.2,0,0.4,0,0.7,0
		c2.9-0.2,10.3-0.5,11.6-4.2c0.1-0.4,0.3-0.7,0.4-1.1c0.5-1.5,0.3-2.8-0.5-3.8c0.5-18.6,0.9-37.4,0.4-55.9c2.6,0,5.1,0,7.7,0.1
		C710.7,104.4,719.2,103.5,719.3,98.7z"/>
	<path class="st0" d="M716.9,16.6c-0.7-5.5-1.3-11.1-1.8-16.6h-24.5c0.5,5.6,1.2,11.1,2,16.7C693.9,24.9,717.9,24.1,716.9,16.6z"/>
	<path class="st0" d="M691.5,58.5c0.2,5.4,11.2,7.2,18.1,5.1c17.2,2.5,34.8,2.1,51.7-1.7c3.2-0.7,7.6-3.5,4.9-7
		c-2.8-3.6-10.1-3.9-14-3.3c-9.9,1.5-19.7,2.7-29.8,1.9c-5.1-0.4-10.1-1.6-15.1-2.2C702.4,50.6,691.3,51.3,691.5,58.5z"/>
	<path class="st0" d="M753.6,39.1c2.9-0.4,9.5-1.9,8.5-6.1c-0.3-1.2-1.1-2.1-2.2-2.8c0-1.7,0.3-6.2,0.3-7c0-3.5,0-7-0.1-10.5
		c-0.2-7.8-23.2-8-23.6-0.2c-0.3,5.9-1.1,12.6-0.3,18.5C737.2,39,747.2,40,753.6,39.1z"/>
	<path class="st0" d="M762.6,124.6c0.2-16.4-0.2-32.6,0.6-48.9c0.4-7.6-22.8-8.1-23.6-0.2c-1.8,16-2.8,33.1-1,49.1
		C739.4,132.6,762.5,132.6,762.6,124.6z"/>
	<path class="st0" d="M790,146.9c-1-4.2-8.5-4.9-11.7-4.9c-16.9-0.1-34,0.7-51,1.5c-1.5,0.1-15.6,1.9-11.5,7c0.7,0.8,1.3,1.7,2,2.5
		c3.1,4.1,9.5,4.6,14.2,4c1.5-0.2,5.1-1,7.1-2.5c14.1-0.2,28.2-0.6,42.3-1.5C784.4,152.9,790.9,151,790,146.9z"/>
	<path class="st0" d="M743,208.5c1.1-11.6,1.9-23.2,2.5-34.9c0.4-7.7-22.9-8.1-23.7-0.1c-0.7,6.7-1.3,13.3-1.8,20
		c-2.3-0.2-4.5-0.1-5.9,0.2c-9.2,1.6-18.2,2.2-27.5,1.4c-4-0.4-12.5-0.7-14.6,3.9c-2.2,4.5,5.3,6.6,8.3,6.9
		c12.9,1.5,26.1,1.2,39-1.1c-0.1,1.2-0.2,2.5-0.2,3.7C718.3,216.3,742.2,216.7,743,208.5z"/>
	<path class="st0" d="M678.6,226.5c-1.1,11-2.1,22-2.7,33c-0.4,7.7,23.3,8.1,24.1-0.1c1-10.9,1.8-21.9,2.4-32.9
		C702.8,219,679.4,218.5,678.6,226.5z"/>
	<path class="st0" d="M582.2,251.6c0.1,7.9,23.5,8,24,0c1-16.2,0.4-32.7-0.6-48.9c-0.5-7.9-23.6-7.9-23.5-0.2
		C582.4,218.8,581.9,235.2,582.2,251.6z"/>
	<path class="st0" d="M652.3,239.9c-5,0-10,0-15,0.1c-3.3,0.1-11.9,0.7-11.9,5.6c0,4.8,8.8,5.6,11.8,5.7c5,0.1,10,0.1,15,0.1
		c3.3,0,12-0.8,12-5.7C664.3,240.7,655.3,239.9,652.3,239.9z"/>
	<path class="st0" d="M48,324.8c1-4.2-5.7-5.9-8.5-6.2c-13-1.5-26.3-2.7-39.5-3.6v12.3c12.1,1,24.3,1.8,36.3,2.3
		C39.6,329.8,47.1,328.9,48,324.8z"/>
	<path class="st0" d="M9,394.6c2.8-16.3,2.1-34.5,0.4-50.9c-0.4-3.3-4.6-5.2-9.3-5.7v62.3C4.5,399.6,8.4,397.7,9,394.6z"/>
	<path class="st0" d="M32.3,345.9c-3.4,0-11.6,0.7-11.8,5.5c-0.2,4.7,8.9,5.6,11.7,5.7c14.7,0.5,29.5,0.6,44.2-0.4
		c0.9-0.1,2-0.3,3.2-0.6c0.2,8.8,0.1,17.7,0.8,26.5c0.7,7.9,23.4,8,23.9,0c0.7-10.7-0.3-21.8-0.9-32.6c-0.6-10.8-1.5-21.6-2.8-32.3
		c-1-7.9-24-7.7-23.5-0.2c0.7,9.6,1.5,19.2,2,28.8c-2.2-0.5-4.5-0.7-5.9-0.7C59.6,345.6,46,346.1,32.3,345.9z"/>
	<path class="st0" d="M39.9,440.4c0.8,7.9,23.9,7.8,23.5,0.2c-0.9-19.1-4.5-38.4,0.2-57.2c1-4-8.3-5.4-10.3-5.6
		c-3.4-0.2-11.5-0.1-13.1,4c-3.5,9-3.5,18.8-2.9,28.2C38.1,420.2,38.9,430.4,39.9,440.4z"/>
	<path class="st0" d="M35.9,428.1c-1.9-4.4-11.2-4.5-14.8-4C14,425.2,7,425.8,0,426.1v12c9.3-0.4,18.6-1.5,27.5-3
		C30.7,434.6,37.9,432.8,35.9,428.1z"/>
	<path class="st0" d="M2.8,503.6c0.6,8.1,24.5,7.8,24.2-0.1c-0.6-16.3-0.4-32.6-0.5-48.9c-0.1-7.8-22.8-8-23.6-0.2
		c-0.7,6.5-1,13.1-1.1,19.8c-0.6,0.1-1.2,0.1-1.8,0.1V486c0.6,0,1.2-0.1,1.8-0.1C2,491.9,2.3,497.8,2.8,503.6z"/>
	<path class="st0" d="M47.8,467.5c0,11.6,0.8,23.2,1.8,34.8c1,11.4,1.8,23.2,4,34.4c1,4.8,8,5.7,12,5.7c2.9,0,12.4-0.9,12-5.7
		c-1-11.5-2.9-23-3.9-34.5c-1-11.5-1.6-23-2.4-34.5C70.8,459.8,47.8,459.7,47.8,467.5z"/>
	<path class="st0" d="M143.3,421.7c0.1-4.9-9.1-5.6-12.1-5.7c-14.6-0.5-29.3-1.1-43.9-0.8c-3.4,0.1-11.7,0.7-11.9,5.5
		c-0.2,4.8,8.9,5.5,11.8,5.7c4.2,0.2,8.5,0.4,12.7,0.6c-1,19.9-1,40-1,59.8c0,4.7,9.1,5.9,12.1,5.7c0.2,0,0.4,0,0.7,0
		c2.9-0.2,10.3-0.5,11.6-4.2c0.1-0.4,0.3-0.7,0.4-1.1c0.5-1.5,0.3-2.8-0.5-3.8c0.5-18.6,0.9-37.4,0.4-55.9c2.6,0,5.1,0,7.7,0.1
		C134.7,427.4,143.2,426.5,143.3,421.7z"/>
	<path class="st0" d="M195.8,316.5c0.2-4.8-9-5.5-11.9-5.7c-14-0.6-28.5-0.5-42.5,0.1c-0.9,0-2.1,0.1-3.3,0.2
		c-0.7-9.5-1.2-18.9-1.4-28.5c-0.2-7.8-23.4-8-23.6-0.2c-0.4,19,0.8,38.4,3.6,57.2c1.2,8.3,25.1,7.4,24.2-0.1
		c-0.7-6-1.4-11.9-1.9-17.9c0.9,0.1,1.8,0.2,2.3,0.2c14.1,0.6,28.5,0.7,42.6,0.1C187.3,321.9,195.6,321.4,195.8,316.5z"/>
	<path class="st0" d="M190.2,377.9c-2.8-3.6-10.1-3.9-14-3.3c-9.9,1.5-19.7,2.7-29.8,1.9c-5.1-0.4-10.1-1.6-15.1-2.2
		c-4.9-0.6-16,0.1-15.8,7.2c0.2,5.4,11.2,7.2,18.1,5.1c17.2,2.5,34.8,2.1,51.7-1.7C188.6,384.2,193,381.4,190.2,377.9z"/>
	<path class="st0" d="M184.1,335.7c-0.2-7.8-23.2-8-23.6-0.2c-0.3,5.9-1.1,12.6-0.3,18.5c1,7.9,10.9,8.9,17.4,8
		c2.9-0.4,9.5-1.9,8.5-6.1c-0.3-1.2-1.1-2.1-2.2-2.8c0-1.7,0.3-6.2,0.3-7C184.2,342.7,184.2,339.2,184.1,335.7z"/>
	<path class="st0" d="M163.6,398.5c-1.8,16-2.8,33.1-1,49.1c0.9,8,24,8,24.1,0c0.2-16.4-0.2-32.6,0.6-48.9
		C187.5,391,164.4,390.5,163.6,398.5z"/>
	<path class="st0" d="M141.8,476c3.1,4.1,9.5,4.6,14.2,4c1.5-0.2,5.1-1,7.1-2.5c14.1-0.2,28.2-0.6,42.3-1.5c0.3,0,0.6-0.1,1-0.1
		c0.1,10.6,0.4,21.1,0.6,31.7c0.1,5.9,0.3,11.7,0.4,17.6c0.2,6.3,0.4,10.4,7.7,11.9c5.9,1.2,13.4,1.5,17.7-3.4l0.5-0.6
		c1.6-1.8,0.2-3.4-1.8-4.6c-0.1-1.5,0.1-3.3,0.1-4.3c-0.1-2.6-0.2-5.2-0.2-7.8c-0.1-4.9-0.3-9.7-0.4-14.6c-0.3-10-0.5-20.1-1.1-30.2
		c-0.3-5.6-12.2-7.3-19-4.9c-2.7-1.4-6.6-1.7-8.7-1.7c-16.9-0.1-34,0.7-51,1.5c-1.5,0.1-15.6,1.9-11.5,7
		C140.5,474.3,141.2,475.2,141.8,476z"/>
	<path class="st0" d="M143.1,527.9c-0.1,1.2-0.2,2.5-0.2,3.7c-0.5,7.7,23.4,8.2,24.1-0.1c1.1-11.6,1.9-23.2,2.5-34.9
		c0.4-7.7-22.9-8.1-23.7-0.1c-0.7,6.7-1.3,13.3-1.8,20c-2.3-0.2-4.5-0.1-5.9,0.2c-9.2,1.6-18.2,2.2-27.5,1.4
		c-4-0.4-12.5-0.7-14.6,3.9c-2.2,4.5,5.3,6.6,8.3,6.9C117,530.4,130.2,530.2,143.1,527.9z"/>
	<path class="st0" d="M124,582.5c1-10.9,1.8-21.9,2.4-32.9c0.4-7.6-23-8.1-23.8-0.1c-1.1,11-2.1,22-2.7,33
		C99.5,590.3,123.3,590.7,124,582.5z"/>
	<path class="st0" d="M10.2,576.6c0.1,7.9,23.5,8,24,0c1-16.2,0.4-32.7-0.6-48.9c-0.5-7.9-23.6-7.9-23.5-0.2
		C10.4,543.8,9.9,560.2,10.2,576.6z"/>
	<path class="st0" d="M765.8,318.5c-1,4.1,5.5,5.8,8.3,6.2c8.6,1.1,17.2,1.9,25.9,2.7V315c-7.6-0.5-15.2-0.9-22.7-1.2
		C774.1,313.6,766.8,314.4,765.8,318.5z"/>
	<path class="st0" d="M785.7,343.5c0.4,8.5,0.8,17.1,0.6,25.6c-0.1,8.5-1.2,17-1.3,25.4c0,4.8,8.1,6.7,14.9,5.7v-62.3
		C793.3,337.1,785.5,339,785.7,343.5z"/>
	<path class="st0" d="M767.4,425.3c-3.2-0.2-10.5,0.7-11.5,4.7c-1,4.1,5.5,5.7,8.3,6.2c11.6,2,23.7,2.5,35.8,2v-12
		C789.2,426.5,778.5,426.1,767.4,425.3z"/>
	<path class="st0" d="M771.8,479.7c-1,4,5.5,5.8,8.3,6.1c6.5,0.7,13.2,0.7,19.9,0.2v-11.7c-5.5,0.4-11.1,0.5-16.7,0.7
		C780,475.2,772.9,475.5,771.8,479.7z"/>
	<path class="st0" d="M76.3,562.9c-5,0-10,0-15,0.1c-3.3,0.1-11.9,0.7-11.9,5.6c0,4.8,8.8,5.6,11.8,5.7c5,0.1,10,0.1,15,0.1
		c3.3,0,12-0.8,12-5.7C88.3,563.7,79.3,562.9,76.3,562.9z"/>
	<path class="st0" d="M732.8,373.8c4.3,3.3,11.3,3.5,16.3,2.1c3.2-0.9,6.6-3.1,5.5-6c0.3-9.9-0.3-19.9-0.3-29.8
		c-0.1-10.1,0.1-20.2-0.2-30.4c-0.2-7.8-23.2-8-23.5-0.2c-0.5,11.2-0.4,22.4-0.4,33.5c0,5.2,0.1,10.5,0.1,15.7
		C730.4,363.1,728.9,370.7,732.8,373.8z"/>
	<path class="st0" d="M773.8,402.1c2.4-7.7-13.6-8.8-20.4-5.2c-0.3,0-0.7,0-1,0c-1.5,0-3-0.1-4.5-0.2c-4.5-0.3-8.9-1.1-13.4-1.5
		c-4.1-0.4-10.9-0.6-13.8,3.1c-2.7,3.4,1.5,6.1,4.7,7c8.7,2.3,18.1,2.9,27.1,3.1C758.1,408.5,771.6,409.3,773.8,402.1z"/>
	<path class="st0" d="M755.7,508.2c-0.1-2.6-0.2-5.2-0.2-7.8c-0.1-4.9-0.3-9.7-0.4-14.6c-0.3-10-0.5-20.1-1.1-30.2
		c-0.4-7.9-23.6-7.9-23.6-0.2c0,12.1,0.4,24.2,0.7,36.2c0.1,5.9,0.3,11.7,0.4,17.6c0.2,6.3,0.4,10.4,7.7,11.9
		c5.9,1.2,13.4,1.5,17.7-3.4l0.5-0.6c1.6-1.8,0.2-3.4-1.8-4.6C755.5,511,755.7,509.2,755.7,508.2z"/>
	<path class="st0" d="M213.8,389.8c4.3,3.3,11.3,3.5,16.3,2.1c3.2-0.9,6.6-3.1,5.5-6c0.3-9.9-0.3-19.9-0.3-29.8
		c-0.1-10.1,0.1-20.2-0.2-30.4c-0.2-7.8-23.2-8-23.5-0.2c-0.5,11.2-0.4,22.4-0.4,33.5c0,5.2,0.1,10.5,0.1,15.7
		C211.4,379.1,209.9,386.7,213.8,389.8z"/>
	<path class="st0" d="M241.8,334.5c-1,4.1,5.5,5.8,8.3,6.2c20.5,2.5,41.6,4,62.2,5c3.3,0.2,10.8-0.8,11.7-4.9c1-4.2-5.7-5.9-8.5-6.2
		c-20.5-2.4-41.5-3.9-62.2-4.8C250.1,329.6,242.8,330.4,241.8,334.5z"/>
	<path class="st0" d="M261.1,410.5c-0.1,7.9,22.5,7.9,23.9,0c2.8-16.3,2.1-34.5,0.4-50.9c-0.8-7.9-23.9-7.8-23.6-0.2
		c0.4,8.5,0.8,17.1,0.6,25.6C262.2,393.6,261.1,402,261.1,410.5z"/>
	<path class="st0" d="M353.2,333.5c0.7,9.6,1.5,19.2,2,28.8c-2.2-0.5-4.5-0.7-5.9-0.7c-13.7,0-27.3,0.5-41,0.3
		c-3.4,0-11.6,0.7-11.8,5.5c-0.2,4.7,8.9,5.6,11.7,5.7c14.7,0.5,29.5,0.6,44.2-0.4c0.9-0.1,2-0.3,3.2-0.6c0.2,8.8,0.1,17.7,0.8,26.5
		c0.7,7.9,23.4,8,23.9,0c0.7-10.7-0.3-21.8-0.9-32.6c-0.6-10.8-1.5-21.6-2.8-32.3C375.6,325.8,352.6,326,353.2,333.5z"/>
	<path class="st0" d="M329.4,393.9c-3.4-0.2-11.5-0.1-13.1,4c-3.5,9-3.5,18.8-2.9,28.2c0.6,10.1,1.4,20.3,2.4,30.4
		c0.8,7.9,23.9,7.8,23.5,0.2c-0.9-19.1-4.5-38.4,0.2-57.2C340.7,395.4,331.4,394,329.4,393.9z"/>
	<path class="st0" d="M201.3,421.2c8.7,2.3,18.1,2.9,27.1,3.1c5.7,0.1,19.2,0.9,21.4-6.3c2.4-7.7-13.6-8.8-20.4-5.2
		c-0.3,0-0.7,0-1,0c-1.5,0-3-0.1-4.5-0.2c-4.5-0.3-8.9-1.1-13.4-1.5c-4.1-0.4-10.9-0.6-13.8,3.1
		C193.9,417.7,198.2,420.4,201.3,421.2z"/>
	<path class="st0" d="M311.9,444.1c-1.9-4.4-11.2-4.5-14.8-4c-18.1,2.7-35.5,2.4-53.6,1.2c-3.2-0.2-10.5,0.7-11.5,4.7
		c-1,4.1,5.5,5.7,8.3,6.2c20.5,3.5,42.9,2.5,63.3-1C306.7,450.6,313.9,448.8,311.9,444.1z"/>
	<path class="st0" d="M278.9,470.4c-0.7,6.5-1,13.1-1.1,19.8c-6.1,0.5-12.2,0.6-18.4,0.8c-3.3,0.1-10.5,0.4-11.5,4.6
		c-1,4,5.5,5.8,8.3,6.1c7.2,0.8,14.5,0.6,21.7,0.1c0.2,6,0.5,11.9,0.9,17.7c0.6,8.1,24.5,7.8,24.2-0.1c-0.6-16.3-0.4-32.6-0.5-48.9
		C302.4,462.8,279.7,462.6,278.9,470.4z"/>
	<path class="st0" d="M329.6,552.7c1,4.8,8,5.7,12,5.7c2.9,0,12.4-0.9,12-5.7c-1-11.5-2.9-23-3.9-34.5c-1-11.5-1.6-23-2.4-34.5
		c-0.6-7.8-23.5-8-23.5-0.2c0,11.6,0.8,23.2,1.8,34.8C326.6,529.6,327.4,541.4,329.6,552.7z"/>
	<path class="st0" d="M419.3,437.7c0.1-4.9-9.1-5.6-12.1-5.7c-14.6-0.5-29.3-1.1-43.9-0.8c-3.4,0.1-11.7,0.7-11.9,5.5
		c-0.2,4.8,8.9,5.5,11.8,5.7c4.2,0.2,8.5,0.4,12.7,0.6c-1,19.9-1,40-1,59.8c0,4.7,9.1,5.9,12.1,5.7c0.2,0,0.4,0,0.7,0
		c2.9-0.2,10.3-0.5,11.6-4.2c0.1-0.4,0.3-0.7,0.4-1.1c0.5-1.5,0.3-2.8-0.5-3.8c0.5-18.6,0.9-37.4,0.4-55.9c2.6,0,5.1,0,7.7,0.1
		C410.7,443.4,419.2,442.5,419.3,437.7z"/>
	<path class="st0" d="M466.2,393.9c-2.8-3.6-10.1-3.9-14-3.3c-9.9,1.5-19.7,2.7-29.8,1.9c-5.1-0.4-10.1-1.6-15.1-2.2
		c-4.9-0.6-16,0.1-15.8,7.2c0.2,5.4,11.2,7.2,18.1,5.1c17.2,2.5,34.8,2.1,51.7-1.7C464.6,400.2,469,397.4,466.2,393.9z"/>
	<path class="st0" d="M460.1,351.7c-0.2-7.8-23.2-8-23.6-0.2c-0.3,5.9-1.1,12.6-0.3,18.5c1,7.9,10.9,8.9,17.4,8
		c2.9-0.4,9.5-1.9,8.5-6.1c-0.3-1.2-1.1-2.1-2.2-2.8c0-1.7,0.3-6.2,0.3-7C460.2,358.7,460.2,355.2,460.1,351.7z"/>
	<path class="st0" d="M439.6,414.5c-1.8,16-2.8,33.1-1,49.1c0.9,8,24,8,24.1,0c0.2-16.4-0.2-32.6,0.6-48.9
		C463.5,407,440.4,406.5,439.6,414.5z"/>
	<path class="st0" d="M417.8,492c3.1,4.1,9.5,4.6,14.2,4c1.5-0.2,5.1-1,7.1-2.5c14.1-0.2,28.2-0.6,42.3-1.5c3-0.2,9.5-2.1,8.6-6.2
		c-1-4.2-8.5-4.9-11.7-4.9c-16.9-0.1-34,0.7-51,1.5c-1.5,0.1-15.6,1.9-11.5,7C416.5,490.3,417.2,491.2,417.8,492z"/>
	<path class="st0" d="M419.1,543.9c-0.1,1.2-0.2,2.5-0.2,3.7c-0.5,7.7,23.4,8.2,24.1-0.1c1.1-11.6,1.9-23.2,2.5-34.9
		c0.4-7.7-22.9-8.1-23.7-0.1c-0.7,6.7-1.3,13.3-1.8,20c-2.3-0.2-4.5-0.1-5.9,0.2c-9.2,1.6-18.2,2.2-27.5,1.4
		c-4-0.4-12.5-0.7-14.6,3.9c-2.2,4.5,5.3,6.6,8.3,6.9C393,546.4,406.2,546.2,419.1,543.9z"/>
	<path class="st0" d="M400,598.5c1-10.9,1.8-21.9,2.4-32.9c0.4-7.6-23-8.1-23.8-0.1c-1.1,11-2.1,22-2.7,33
		C375.5,606.3,399.3,606.7,400,598.5z"/>
	<path class="st0" d="M310.2,592.6c1-16.2,0.4-32.7-0.6-48.9c-0.5-7.9-23.6-7.9-23.5-0.2c0.3,16.4-0.1,32.8,0.1,49.1
		C286.3,600.5,309.7,600.6,310.2,592.6z"/>
	<path class="st0" d="M352.3,578.9c-5,0-10,0-15,0.1c-3.3,0.1-11.9,0.7-11.9,5.6c0,4.8,8.8,5.6,11.8,5.7c5,0.1,10,0.1,15,0.1
		c3.3,0,12-0.8,12-5.7C364.3,579.7,355.3,578.9,352.3,578.9z"/>
	<path class="st0" d="M520,309.5c-2.2-5.4-15.9-6.2-21.2-2.7c-1.7-0.3-3.5-0.7-5.3-0.9c-6.7-0.7-13.7-0.5-19.8,2.5
		c-4.1,2-4.2,5.7-0.1,7.8c4.4,2.2,9.8,2.1,14.5,0.8c1,0.2,2.1,0.3,3.1,0.5c1.9,0.4,3.8,0.7,5.7,1c0.2,5.8,0.4,11.7,0.3,17.5
		c-0.1,8.5-1.2,17-1.3,25.4c-0.1,7.9,22.5,7.9,23.9,0c2.7-15.4,2.2-32.4,0.7-48C521.8,312.2,521.2,310.8,520,309.5z"/>
	<path class="st0" d="M550.3,311.9c-3.4,0-11.6,0.7-11.8,5.5c-0.2,4.7,8.9,5.6,11.7,5.7c14.7,0.5,29.5,0.6,44.2-0.4
		c0.9-0.1,2-0.3,3.2-0.6c0.2,8.8,0.1,17.7,0.8,26.5c0.7,7.9,23.4,8,23.9,0c0.7-10.7-0.3-21.8-0.9-32.6c-0.6-10.8-1.5-21.6-2.8-32.3
		c-1-7.9-24-7.7-23.5-0.2c0.7,9.6,1.5,19.2,2,28.8c-2.2-0.5-4.5-0.7-5.9-0.7C577.6,311.6,564,312.1,550.3,311.9z"/>
	<path class="st0" d="M495.4,381.3c-3.2-0.2-10.5,0.7-11.5,4.7c-1,4.1,5.5,5.7,8.3,6.2c20.5,3.5,42.9,2.5,63.3-1
		c0.3-0.1,0.7-0.1,1-0.2c0.4,5.2,0.9,10.4,1.4,15.5c0.8,7.9,23.9,7.8,23.5,0.2c-0.9-19.1-4.5-38.4,0.2-57.2c1-4-8.3-5.4-10.3-5.6
		c-3.4-0.2-11.5-0.1-13.1,4c-3.5,9-3.5,18.8-2.9,28.2c0.1,1.3,0.2,2.7,0.3,4c-2.6-0.3-5.1-0.2-6.7,0.1
		C531,382.8,513.6,382.6,495.4,381.3z"/>
	<path class="st0" d="M511.8,445.9c0.2,6,0.5,11.9,0.9,17.7c0.6,8.1,24.5,7.8,24.2-0.1c-0.6-16.3-0.4-32.6-0.5-48.9
		c-0.1-7.8-22.8-8-23.6-0.2c-0.7,6.5-1,13.1-1.1,19.8c-6.1,0.5-12.2,0.6-18.4,0.8c-3.3,0.1-10.5,0.4-11.5,4.6c-1,4,5.5,5.8,8.3,6.1
		C497.3,446.6,504.6,446.5,511.8,445.9z"/>
	<path class="st0" d="M583.7,508.3c2.9,0,12.4-0.9,12-5.7c-1-11.5-2.9-23-3.9-34.5c-1-11.5-1.6-23-2.4-34.5
		c-0.6-7.8-23.5-8-23.5-0.2c0,11.6,0.8,23.2,1.8,34.8c1,11.4,1.8,23.2,4,34.4C572.6,507.5,579.6,508.3,583.7,508.3z"/>
	<path class="st0" d="M605.3,381.2c-3.4,0.1-11.7,0.7-11.9,5.5c-0.2,4.8,8.9,5.5,11.8,5.7c4.2,0.2,8.5,0.4,12.7,0.6
		c-1,19.9-1,40-1,59.8c0,4.7,9.1,5.9,12.1,5.7c0.2,0,0.4,0,0.7,0c2.9-0.2,10.3-0.5,11.6-4.2c0.1-0.4,0.3-0.7,0.4-1.1
		c0.5-1.5,0.3-2.8-0.5-3.8c0.5-18.6,0.9-37.4,0.4-55.9c2.6,0,5.1,0,7.7,0.1c3.4,0,11.9-0.9,12-5.7c0.1-4.9-9.1-5.6-12.1-5.7
		C634.7,381.5,619.9,380.9,605.3,381.2z"/>
	<path class="st0" d="M694.2,340.6c-9.9,1.5-19.7,2.7-29.8,1.9c-5.1-0.4-10.1-1.6-15.1-2.2c-4.9-0.6-16,0.1-15.8,7.2
		c0.2,5.4,11.2,7.2,18.1,5.1c17.2,2.5,34.8,2.1,51.7-1.7c3.2-0.7,7.6-3.5,4.9-7C705.5,340.3,698.2,340,694.2,340.6z"/>
	<path class="st0" d="M702.1,301.7c-0.2-7.8-23.2-8-23.6-0.2c-0.3,5.9-1.1,12.6-0.3,18.5c1,7.9,10.9,8.9,17.4,8
		c2.9-0.4,9.5-1.9,8.5-6.1c-0.3-1.2-1.1-2.1-2.2-2.8c0-1.7,0.3-6.2,0.3-7C702.2,308.7,702.2,305.2,702.1,301.7z"/>
	<path class="st0" d="M704.6,413.6c0.2-16.4-0.2-32.6,0.6-48.9c0.4-7.6-22.8-8.1-23.6-0.2c-1.8,16-2.8,33.1-1,49.1
		C681.4,421.6,704.5,421.6,704.6,413.6z"/>
	<path class="st0" d="M657.8,439.5c0.7,0.8,1.3,1.7,2,2.5c3.1,4.1,9.5,4.6,14.2,4c1.5-0.2,5.1-1,7.1-2.5c14.1-0.2,28.2-0.6,42.3-1.5
		c3-0.2,9.5-2.1,8.6-6.2c-1-4.2-8.5-4.9-11.7-4.9c-16.9-0.1-34,0.7-51,1.5C667.8,432.6,653.7,434.4,657.8,439.5z"/>
	<path class="st0" d="M660.8,497.6c-0.5,7.7,23.4,8.2,24.1-0.1c1.1-11.6,1.9-23.2,2.5-34.9c0.4-7.7-22.9-8.1-23.7-0.1
		c-0.7,6.7-1.3,13.3-1.8,20c-2.3-0.2-4.5-0.1-5.9,0.2c-9.2,1.6-18.2,2.2-27.5,1.4c-4-0.4-12.5-0.7-14.6,3.9
		c-2.2,4.5,5.3,6.6,8.3,6.9c12.9,1.5,26.1,1.2,39-1.1C661,495.1,660.9,496.3,660.8,497.6z"/>
	<path class="st0" d="M642,548.5c1-10.9,1.8-21.9,2.4-32.9c0.4-7.6-23-8.1-23.8-0.1c-1.1,11-2.1,22-2.7,33
		C617.5,556.3,641.3,556.7,642,548.5z"/>
	<path class="st0" d="M548.2,540.6c1-16.2,0.4-32.7-0.6-48.9c-0.5-7.9-23.6-7.9-23.5-0.2c0.3,16.4-0.1,32.8,0.1,49.1
		C524.3,548.5,547.7,548.6,548.2,540.6z"/>
	<path class="st0" d="M579.2,540.2c5,0.1,10,0.1,15,0.1c3.3,0,12-0.8,12-5.7c0-4.8-9-5.7-12-5.7c-5,0-10,0-15,0.1
		c-3.3,0.1-11.9,0.7-11.9,5.6C567.4,539.3,576.2,540.1,579.2,540.2z"/>
	<path class="st0" d="M15.5,1.7c1.4,0.1,2.8,0.2,4.1,0.4c0.1,0.1,0.2,0.2,0.3,0.3c4.3,3.4,11.4,3.5,16.5,2c2.2-0.6,5.3-2.3,5.8-4.4
		H0v0.3C2.7,0.5,5.3,0.8,8,1C10.5,1.2,13,1.4,15.5,1.7z"/>
	<path class="st0" d="M797.3,0c0.9,0.1,1.8,0.2,2.7,0.3V0H797.3z"/>
	<path class="st0" d="M240.2,4.6c0.2-1.5,0.4-3.1,0.6-4.6h-24.2c-0.1,1.5-0.1,3-0.2,4.5C216.2,12.3,239.1,12.5,240.2,4.6z"/>
	<path class="st0" d="M267.2,4.6c12,0.8,24,1.3,36.1,1.8c3.4,0.2,11.9-1,12-5.7c0-0.3,0-0.5-0.1-0.8h-59.6
		C256.7,3.8,264.6,4.4,267.2,4.6z"/>
	<path class="st0" d="M516.2,21.2c6.5-3.2,4.8-9.9,4.7-16c0-1.7-0.1-3.4-0.1-5.2h-24.2c0,0.8,0,1.5,0,2.3c0,1.1,0.5,7.9,0.6,10.8
		c-2.3,1.2-4.3,2.9-2.6,5.1C499.3,23.9,509.9,24.4,516.2,21.2z"/>
	<path class="st0" d="M80.5,753.6c0.1-7.7-22.9-8.1-23.5-0.2c-0.6,7.9-0.8,15.7-0.9,23.6c-0.1,7.5-0.8,15.5,0.4,22.9h23.9
		c0.6-7.6-0.1-15.4-0.1-23C80.2,769.2,80.4,761.4,80.5,753.6z"/>
	<path class="st0" d="M188.3,769.1c-18-0.5-36-0.6-53.9-0.6c-0.2,0-0.5,0-0.8,0c-0.3-8.3-0.7-16.6-1.1-24.8
		c-0.4-7.8-23.5-7.9-23.4-0.3c0.2,10.4,0.5,20.8,0.7,31.1c0.2,8.4,0.1,17,0.6,25.4h24.5c-0.1-6.8-0.5-13.6-0.9-20.4
		c0.1,0,0.1,0,0.2,0c18,0.5,36,0.8,54,0.8c3.4,0,11.9-0.8,12-5.7C200.4,769.9,191.2,769.2,188.3,769.1z"/>
	<path class="st0" d="M171.1,793.5c0,2.2-0.1,4.3-0.1,6.5h23.9c-0.1-2.1-0.2-4.2-0.2-6.4C194.5,785.8,171.3,785.6,171.1,793.5z"/>
	<path class="st0" d="M343.9,763.7c-2.8-0.9-6.1-1.2-7.6-1.2c-20-0.8-40-1.6-59.9-2.2c-3.4-0.1-11.7,0.8-11.9,5.5
		c-0.2,4.8,8.9,5.5,11.8,5.7c18.8,0.9,37.6,1.6,56.5,2.3c-0.4,6.4-0.6,12.9-0.6,19.3c0,2.3-0.1,4.6-0.2,6.9h24.4
		c-0.1-2.3-0.1-4.7-0.1-7c0-7.8,0.3-15.6,0.4-23.4C356.6,765.5,350.1,763.5,343.9,763.7z"/>
	<path class="st0" d="M464.3,785.1c-18-0.5-36-0.6-53.9-0.6c-0.2,0-0.5,0-0.8,0c-0.3-8.3-0.7-16.6-1.1-24.8
		c-0.4-7.8-23.5-7.9-23.4-0.3c0.2,10.4,0.5,20.8,0.7,31.1c0.1,3.1,0.1,6.3,0.2,9.4h24.3c-0.1-1.5-0.2-2.9-0.2-4.4c0.1,0,0.1,0,0.2,0
		c18,0.5,36,0.8,54,0.8c3.4,0,11.9-0.8,12-5.7C476.4,785.9,467.2,785.2,464.3,785.1z"/>
	<path class="st0" d="M615.5,795.6c-20.5-2.4-41.5-3.9-62.2-4.8c-3.3-0.1-10.6,0.7-11.6,4.7c-0.5,2.1,0.9,3.5,2.8,4.5H624
		C623,797.1,617.9,795.8,615.5,795.6z"/>
	<path class="st0" d="M575,719.4c-0.6,7.9-0.8,15.7-0.9,23.6c-0.1,7.6-0.8,15.9,0.4,23.4c1.3,7.8,23,8.2,23.7,0.1
		c0.7-7.7-0.1-15.8-0.1-23.6c0-7.8,0.3-15.6,0.4-23.4C598.6,711.9,575.6,711.5,575,719.4z"/>
	<path class="st0" d="M653.2,794.5c0.1,1.8,0.3,3.7,0.4,5.5h23.6c-0.2-1.8-0.4-3.5-0.6-5.3C675.6,786.8,652.6,787,653.2,794.5z"/>
	<path class="st0" d="M652.2,745.7c18,0.5,36,0.8,54,0.8c3.4,0,11.9-0.8,12-5.7c0.2-4.8-9.1-5.6-12-5.7c-18-0.5-36-0.6-53.9-0.6
		c-0.2,0-0.5,0-0.8,0c-0.3-8.3-0.7-16.6-1.1-24.8c-0.4-7.8-23.5-7.9-23.4-0.3c0.2,10.4,0.5,20.8,0.7,31.1c0.3,10.3,0,20.8,1,31
		c0.8,8,23.8,8,24,0c0.2-8.6-0.4-17.3-0.8-25.9C652.1,745.7,652.2,745.7,652.2,745.7z"/>
	<path class="st0" d="M760,787.8c-14-0.6-28.5-0.5-42.5,0.1c-0.9,0-2.1,0.1-3.3,0.2c-0.7-9.5-1.2-18.9-1.4-28.5
		c-0.2-7.8-23.4-8-23.6-0.2c-0.3,13.5,0.3,27,1.6,40.5h24.5c0-0.4-0.1-0.8-0.1-1.3c0.9,0.1,1.8,0.2,2.3,0.2
		c14.1,0.6,28.5,0.7,42.6,0.1c3.4-0.2,11.7-0.7,11.9-5.6C772,788.7,762.9,787.9,760,787.8z"/>
	<path class="st0" d="M40.7,796.6c-5.9-4.7-13.4-5.5-20.7-6.1c-6.7-0.6-13.3-1.2-20-1.7V800h42.2C42.5,798.9,42.2,797.8,40.7,796.6z
		"/>
	<path class="st0" d="M782.8,792.4c-2.2,4.5,5.3,6.6,8.2,6.9c2.1,0.2,4.1,0.4,6.2,0.6h2.7v-11.2c-0.9-0.1-1.7-0.1-2.6-0.2
		C793.4,788.3,785,787.9,782.8,792.4z"/>
	<path class="st0" d="M217.5,765.4c0.4,11.6-0.4,23-0.9,34.6h24.2c1.2-11.3,0.7-23-0.1-34.3C240.2,757.9,217.3,757.9,217.5,765.4z"
		/>
	<path class="st0" d="M303.2,795.1c-12-0.6-24-1.2-36-1.6c-3.4-0.1-11.6,0.8-11.8,5.5c0,0.4,0,0.7,0.1,1.1h59.6
		C314.4,795.8,306,795.2,303.2,795.1z"/>
	<path class="st0" d="M496.2,764.5c-0.1,8.6,0.1,17.3,0.2,25.9c0,3.2,0.1,6.4,0.2,9.6h24.2c-0.2-11.8-0.5-23.6-1-35.3
		C519.4,756.8,496.3,756.7,496.2,764.5z"/>
	<path class="st0" d="M11.9,290.7c0.9-5,1.4-10.2,1.6-15.4c10.9,1.2,22.2,1.1,32.9-0.2c3-0.4,9.5-1.9,8.5-6.1
		c-0.9-4.1-8.4-5-11.6-4.9c-10.1,0.4-19.8,0.4-29.8-0.2c-0.1-3.1-0.4-6.2-0.8-9.2c-0.5-4-6.8-6-12.8-5.9v47.7
		C5.6,296.4,11.3,294.5,11.9,290.7z"/>
	<path class="st0" d="M789.4,254.5c0.5,12.2-0.1,24.1-1.3,36.2c-0.4,3.9,5.8,6,12,5.8v-47.7C794.5,248.9,789.2,250.8,789.4,254.5z"
		/>
	<path class="st0" d="M41.2,244.1c3.6-0.1,11.3-0.7,11.8-5.5c0.6-5.5,0.1-11.4-0.1-17c-0.2-4.7-8.3-5.7-11.7-5.7
		c-3.2,0-11.6,0.7-11.8,5.5c-0.2,5.6-0.7,11.5-0.1,17C30.1,243.2,37.5,244.2,41.2,244.1z"/>
	<path class="st0" d="M240.8,256.5c-0.3,5.9-0.5,11.8-0.7,17.7c-7.4-0.6-14.5-1.8-21.8-3.8c-4.7-1.3-12.2-1.7-16.2,1.9
		c-4,3.6,0.8,6.6,4.2,7.7c10.5,3.5,22.2,5.6,33.5,5.8c-0.1,4.3-0.2,8.5-0.2,12.8c-0.2,7.9,24,8.1,24.1-0.1c0.3-14,0.8-27.9,0.6-41.9
		C264.3,248.9,241.3,248.6,240.8,256.5z"/>
	<path class="st0" d="M290.1,290.6c-3,0.3-10.5,2.4-8.3,6.9c2.2,4.5,10.7,4.3,14.6,4c5.3-0.5,10.4,0,15.7,0.8
		c4.1,0.7,12.6,0.4,14.8-4c2.4-4.7-5.6-6.5-8.4-7C309,289.8,299.5,289.6,290.1,290.6z"/>
	<path class="st0" d="M537.7,225.5c-2.8,18.3-5.3,36.7-7.7,55.1c-1,7.3,23,8.3,24.1,0c2.5-18.2,4.9-36.5,7-54.8
		C561.9,218.4,539,217.5,537.7,225.5z"/>
	<path class="st0" d="M663.2,304.6c1.6-9.2,1.7-18.7,0.3-27.9c-1.2-7.9-24.1-7.7-23.5-0.2c0.7,9.5,0.4,18.7-0.8,28.1
		C638.2,311.9,661.7,312.7,663.2,304.6z"/>
	<path class="st0" d="M767.1,241.6c2.8-3.5-1.6-6.1-4.8-7c-12.3-3.5-25.3-4.8-38-5.4c-3.4-0.1-11.7,0.8-11.9,5.5
		c-0.2,4.8,8.9,5.5,11.8,5.7c1.9,0.1,3.7,0.3,5.5,0.5c-0.2,0.5-0.4,0.9-0.4,1.5c-0.6,11.9-2,24.2-1.2,36.1c0.5,7.9,22.8,8,23.7,0.1
		c1.3-11.1,0.9-22.7,0.9-33.9c0.1,0,0.3,0.1,0.4,0.1C757.1,245.6,764.4,245.2,767.1,241.6z"/>
	<path class="st0" d="M63.8,658.6c0.6,8.1,24.5,7.8,24.2-0.1c-0.6-16.3-0.4-32.6-0.5-48.9c-0.1-7.8-22.8-8-23.6-0.2
		c-0.7,6.5-1,13.1-1.1,19.8c-6.1,0.5-12.2,0.6-18.4,0.8c-3.3,0.1-10.5,0.4-11.5,4.6c-1,4,5.5,5.8,8.3,6.1c7.2,0.8,14.5,0.6,21.7,0.1
		C63,646.8,63.3,652.8,63.8,658.6z"/>
	<path class="st0" d="M17.8,672.7l0.5-0.6c1.6-1.8,0.2-3.4-1.8-4.6c-0.1-1.5,0.1-3.3,0.1-4.3c-0.1-2.6-0.2-5.2-0.2-7.8
		c-0.1-4.9-0.3-9.7-0.4-14.6c-0.3-10-0.5-20.1-1.1-30.2c-0.3-4.6-8.3-6.5-15-5.8v71.3c0.1,0,0.1,0,0.2,0
		C6,677.3,13.5,677.6,17.8,672.7z"/>
	<path class="st0" d="M114.6,691.6c1,4.8,8,5.7,12,5.7c2.9,0,12.4-0.9,12-5.7c-1-11.5-2.9-23-3.9-34.5c-1-11.5-1.6-23-2.4-34.5
		c-0.6-7.8-23.5-8-23.5-0.2c0,11.6,0.8,23.2,1.8,34.8C111.6,668.6,112.4,680.4,114.6,691.6z"/>
	<path class="st0" d="M148.3,570.1c-3.4,0.1-11.7,0.7-11.9,5.5c-0.2,4.8,8.9,5.5,11.8,5.7c4.2,0.2,8.5,0.4,12.7,0.6
		c-1,19.9-1,40-1,59.8c0,4.7,9.1,5.9,12.1,5.7c0.2,0,0.4,0,0.7,0c2.9-0.2,10.3-0.5,11.6-4.2c0.1-0.4,0.3-0.7,0.4-1.1
		c0.6-1.5,0.3-2.8-0.5-3.8c0.5-18.6,0.9-37.4,0.4-55.9c2.6,0,5.1,0,7.7,0.1c3.4,0,11.9-0.9,12-5.7c0.1-4.9-9.1-5.6-12.1-5.7
		C177.7,570.5,162.9,569.9,148.3,570.1z"/>
	<path class="st0" d="M281,625.9c-1-4.2-8.5-4.9-11.7-4.9c-16.9-0.1-34,0.7-51,1.5c-1.5,0.1-15.6,1.9-11.5,7c0.7,0.8,1.3,1.7,2,2.5
		c3.1,4.1,9.5,4.6,14.2,4c1.5-0.2,5.1-1,7.1-2.5c14.1-0.2,28.2-0.6,42.3-1.5C275.4,631.9,281.9,630,281,625.9z"/>
	<path class="st0" d="M228,686.5c1.1-11.6,1.9-23.2,2.5-34.9c0.4-7.7-22.9-8.1-23.7-0.1c-0.7,6.7-1.3,13.3-1.8,20
		c-2.3-0.2-4.5-0.1-5.9,0.2c-9.2,1.6-18.2,2.2-27.5,1.4c-4-0.4-12.5-0.7-14.6,3.9c-2.2,4.5,5.3,6.6,8.3,6.9
		c12.9,1.5,26.1,1.2,39-1.1c-0.1,1.2-0.2,2.5-0.2,3.7C203.3,694.2,227.2,694.7,228,686.5z"/>
	<path class="st0" d="M163.6,704.5c-1.1,11-2.1,22-2.7,33c-0.4,7.7,23.3,8.1,24.1-0.1c1-10.9,1.8-21.9,2.4-32.9
		C187.8,697,164.4,696.5,163.6,704.5z"/>
	<path class="st0" d="M71.1,682.4c0.3,16.4-0.1,32.8,0.1,49.1c0.1,7.9,23.5,8,24,0c1-16.2,0.4-32.7-0.6-48.9
		C94,674.8,70.9,674.7,71.1,682.4z"/>
	<path class="st0" d="M339.8,674.6c0.6,8.1,24.5,7.8,24.2-0.1c-0.6-16.3-0.4-32.6-0.5-48.9c-0.1-7.8-22.8-8-23.6-0.2
		c-0.7,6.5-1,13.1-1.1,19.8c-6.1,0.5-12.2,0.6-18.4,0.8c-3.3,0.1-10.5,0.4-11.5,4.6c-1,4,5.5,5.8,8.3,6.1c7.2,0.8,14.5,0.6,21.7,0.1
		C339,662.8,339.3,668.8,339.8,674.6z"/>
	<path class="st0" d="M272.5,699.2c0.2,6.3,0.4,10.4,7.7,11.9c5.9,1.2,13.4,1.5,17.7-3.4l0.5-0.6c1.6-1.8,0.2-3.4-1.8-4.6
		c-0.1-1.5,0.1-3.3,0.1-4.3c-0.1-2.6-0.2-5.2-0.2-7.8c-0.1-4.9-0.3-9.7-0.4-14.6c-0.3-10-0.5-20.1-1.1-30.2
		c-0.4-7.9-23.6-7.9-23.6-0.2c0,12.1,0.4,24.2,0.7,36.2C272.2,687.5,272.3,693.3,272.5,699.2z"/>
	<path class="st0" d="M390.6,707.6c1,4.8,8,5.7,12,5.7c2.9,0,12.4-0.9,12-5.7c-1-11.5-2.9-23-3.9-34.5c-1-11.5-1.6-23-2.4-34.5
		c-0.6-7.8-23.5-8-23.5-0.2c0,11.6,0.8,23.2,1.8,34.8C387.6,684.6,388.4,696.4,390.6,707.6z"/>
	<path class="st0" d="M424.3,586.1c-3.4,0.1-11.7,0.7-11.9,5.5c-0.2,4.8,8.9,5.5,11.8,5.7c4.2,0.2,8.5,0.4,12.7,0.6
		c-1,19.9-1,40-1,59.8c0,4.7,9.1,5.9,12.1,5.7c0.2,0,0.4,0,0.7,0c2.9-0.2,10.3-0.5,11.6-4.2c0.1-0.4,0.3-0.7,0.4-1.1
		c0.6-1.5,0.3-2.8-0.5-3.8c0.5-18.6,0.9-37.4,0.4-55.9c2.6,0,5.1,0,7.7,0.1c3.4,0,11.9-0.9,12-5.7c0.1-4.9-9.1-5.6-12.1-5.7
		C453.7,586.5,438.9,585.9,424.3,586.1z"/>
	<path class="st0" d="M551,640.9c-1-4.2-8.5-4.9-11.7-4.9c-16.9-0.1-34,0.7-51,1.5c-1.5,0.1-15.6,1.9-11.5,7c0.7,0.8,1.3,1.7,2,2.5
		c3.1,4.1,9.5,4.6,14.2,4c1.5-0.2,5.1-1,7.1-2.5c14.1-0.2,28.2-0.6,42.3-1.5C545.4,646.9,551.9,645,551,640.9z"/>
	<path class="st0" d="M504,702.5c1.1-11.6,1.9-23.2,2.5-34.9c0.4-7.7-22.9-8.1-23.7-0.1c-0.7,6.7-1.3,13.3-1.8,20
		c-2.3-0.2-4.5-0.1-5.9,0.2c-9.2,1.6-18.2,2.2-27.5,1.4c-4-0.4-12.5-0.7-14.6,3.9c-2.2,4.5,5.3,6.6,8.3,6.9
		c12.9,1.5,26.1,1.2,39-1.1c-0.1,1.2-0.2,2.5-0.2,3.7C479.3,710.2,503.2,710.7,504,702.5z"/>
	<path class="st0" d="M347.1,698.4c0.3,16.4-0.1,32.8,0.1,49.1c0.1,7.9,23.5,8,24,0c1-16.2,0.4-32.7-0.6-48.9
		C370,690.8,346.9,690.7,347.1,698.4z"/>
	<path class="st0" d="M632.6,657.6c1,4.8,8,5.7,12,5.7c2.9,0,12.4-0.9,12-5.7c-1-11.5-2.9-23-3.9-34.5c-1-11.5-1.6-23-2.4-34.5
		c-0.6-7.8-23.5-8-23.5-0.2c0,11.6,0.8,23.2,1.8,34.8C629.6,634.6,630.4,646.4,632.6,657.6z"/>
	<path class="st0" d="M721.8,652.5c-0.5,7.7,23.4,8.2,24.1-0.1c1.1-11.6,1.9-23.2,2.5-34.9c0.4-7.7-22.9-8.1-23.7-0.1
		c-0.7,6.7-1.3,13.3-1.8,20c-2.3-0.2-4.5-0.1-5.9,0.2c-9.2,1.6-18.2,2.2-27.5,1.4c-4-0.4-12.5-0.7-14.6,3.9
		c-2.2,4.5,5.3,6.6,8.3,6.9c12.9,1.5,26.1,1.2,39-1.1C722,650.1,721.9,651.3,721.8,652.5z"/>
	<path class="st0" d="M681.6,670.5c-1.1,11-2.1,22-2.7,33c-0.4,7.7,23.3,8.1,24.1-0.1c1-10.9,1.8-21.9,2.4-32.9
		C705.8,663,682.4,662.5,681.6,670.5z"/>
	<path class="st0" d="M609.2,695.5c1-16.2,0.4-32.7-0.6-48.9c-0.5-7.9-23.6-7.9-23.5-0.2c0.3,16.4-0.1,32.8,0.1,49.1
		C585.3,703.4,608.7,703.6,609.2,695.5z"/>
	<path class="st0" d="M640.3,683.9c-3.3,0.1-11.9,0.7-11.9,5.6c0,4.8,8.8,5.6,11.8,5.7c5,0.1,10,0.1,15,0.1c3.3,0,12-0.8,12-5.7
		c0-4.8-9-5.7-12-5.7C650.3,683.8,645.3,683.8,640.3,683.9z"/>
	<path class="st0" d="M57.9,713c-0.9-4.1-8.4-5-11.6-4.9c-10.1,0.4-19.8,0.4-29.8-0.2c-0.1-3.1-0.4-6.2-0.8-9.2
		c-0.6-4.7-9.2-6.6-15.8-5.7v47.4c6.5,0.6,14.1-1.2,14.9-5.7c0.9-5,1.4-10.2,1.6-15.4c10.9,1.2,22.2,1.1,32.9-0.2
		C52.3,718.7,58.9,717.2,57.9,713z"/>
	<path class="st0" d="M791.4,610.4c0,6.9,0.1,13.9,0.3,20.8c-1.4-0.2-2.6-0.3-3.4-0.2c-0.8,0-1.6,0-2.3,0c0.3,0-1.8-0.2-2.1-0.2
		c-0.4,0-0.6-0.1-0.7-0.1c-0.1,0-0.4-0.1-0.7-0.2c-1.1-0.3-2.1-0.5-3.2-0.8c-4.7-1.4-11.9-1.6-16,1.8c-4.2,3.5,1,6.5,4.1,7.6
		c6.7,2.4,13.8,3.3,20.9,3.2c0.9,0,2.2-0.1,3.7-0.3c0,1.6,0.1,3.1,0.1,4.7c0.1,5.9,0.3,11.7,0.4,17.6c0.1,6.2,0.4,10.4,7.5,11.9
		v-71.3C795.3,605.3,791.4,607.2,791.4,610.4z"/>
	<path class="st0" d="M792.4,698.4c0.5,12.2-0.1,24.1-1.3,36.2c-0.4,3.3,3.9,5.3,9,5.7V693C795.7,693.6,792.3,695.4,792.4,698.4z"/>
	<path class="st0" d="M44.2,688.1c3.6-0.1,11.3-0.7,11.8-5.5c0.6-5.5,0.1-11.4-0.1-17c-0.2-4.7-8.3-5.7-11.7-5.7
		c-3.2,0-11.6,0.7-11.8,5.5c-0.2,5.6-0.7,11.5-0.1,17C33.1,687.2,40.5,688.2,44.2,688.1z"/>
	<path class="st0" d="M266.8,742.5c0.3-14,0.8-27.9,0.6-41.9c-0.1-7.8-23.1-8-23.5-0.2c-0.3,5.9-0.5,11.8-0.7,17.7
		c-7.4-0.6-14.5-1.8-21.8-3.8c-4.7-1.3-12.2-1.7-16.2,1.9c-4,3.6,0.8,6.6,4.2,7.7c10.5,3.5,22.2,5.6,33.5,5.8
		c-0.1,4.3-0.2,8.5-0.2,12.8C242.5,750.4,266.6,750.6,266.8,742.5z"/>
	<path class="st0" d="M557.1,724.5c2.5-18.2,4.9-36.5,7-54.8c0.8-7.3-22.1-8.2-23.4-0.3c-2.8,18.3-5.3,36.7-7.7,55.1
		C532,731.9,556,732.8,557.1,724.5z"/>
	<path class="st0" d="M770.1,685.6c2.8-3.5-1.6-6.1-4.8-7c-12.3-3.5-25.3-4.8-38-5.4c-3.4-0.1-11.7,0.8-11.9,5.5
		c-0.2,4.8,8.9,5.5,11.8,5.7c1.9,0.1,3.7,0.3,5.5,0.5c-0.2,0.5-0.4,0.9-0.4,1.5c-0.6,11.9-2,24.2-1.2,36.1c0.5,7.9,22.8,8,23.7,0.1
		c1.3-11.1,0.9-22.7,0.9-33.9c0.1,0,0.3,0.1,0.4,0.1C760.1,689.6,767.4,689.1,770.1,685.6z"/>
	<path class="st0" d="M418.9,328.7c-0.4-7.7-23-8-23.3-0.3c-0.5,11.4-0.3,22.8-0.4,34.1c0,7.9,24.1,8,24.1,0
		C419.3,351.3,419.5,340,418.9,328.7z"/>
	<path class="st0" d="M187.3,557.7c12.6,0.6,25.3,0.6,37.9,0.9l7.1,0.1c-0.3,0.5-0.5,1.1-0.6,1.7c-1,11-0.5,22.2-0.5,33.2
		c0,7.9,24,8,24.1,0c0.1-10.9,0.7-22-0.3-32.8c-0.1-0.8-0.3-1.4-0.8-2.1c3.1-0.4,6.1-1.1,8.8-2.7c3.9-2.2,4.5-5.7,0.1-7.9
		c-4.6-2.3-11.3-2.4-16.1-0.4c-1.2,0-2.5-0.1-3.7-0.1c-2.7-0.1-5.3-0.1-8-0.2c-5.3-0.1-10.6-0.2-16-0.3c-10.6-0.2-21.3-0.7-31.9-0.5
		c-3.4,0-11.6,0.7-11.8,5.4C175.4,556.7,184.4,557.5,187.3,557.7z"/>
	<path class="st0" d="M309.9,696.4c-1.6,13.2-3.1,26.7-3.7,40.1c-0.3,7.7,22.8,8.1,23.8,0.1c1.7-13.2,2.5-26.6,3.2-39.9
		C333.5,689.2,310.8,688.6,309.9,696.4z"/>
	<path class="st0" d="M475.5,513.5c-0.4,11.3-0.4,22.8-0.2,34.1c0.1,7.9,23.9,8,24,0c0.1-11.3,0.2-22.6-0.2-33.9
		C498.7,505.9,475.8,505.6,475.5,513.5z"/>
	<path class="st0" d="M461.3,568.4c15.7,0.6,31.6-0.1,47.2-2.3c3.2-0.5,10.4-2.3,8.4-6.9c-1.9-4.5-11-4.4-14.7-4
		c-13.6,1.5-27.1,2.2-40.8,2c-3.4-0.1-11.7,0.8-11.9,5.5C449.3,567.5,458.4,568.3,461.3,568.4z"/>
	<path class="st0" d="M499.9,582.4c0.7,9.1,1.3,18.2,1.3,27.3c0,4.9,9,5.5,12.1,5.7c4.5,0.2,15.2-1.6,12.4-8.3
		c-0.1-0.3-0.2-0.5-0.4-0.7c-0.2-8-0.6-15.9-1.8-23.8C522.3,574.7,499.4,574.9,499.9,582.4z"/>
	<path class="st0" d="M619.2,576.8c0.2-4.8-9.1-5.6-12-5.7c-11.2-0.4-22.4-0.4-33.6-0.6c-11.2-0.2-22.5-1-33.5,1.5
		c-3.6,0.8-8,4.1-4.3,7.6c3.9,3.7,11.3,3.1,16,2.1c1.9-0.4,4-0.4,6.1-0.3c0.5,8.9,0.9,17.9,1,26.8c0.1,4.9,0.1,9.9,0,14.8
		c-0.1,4.1-1.4,9.2,2.2,12.1c5.2,4.3,15.4,3.7,20.7,0c0.1-0.1,0.2-0.1,0.3-0.2c1-0.7,1.5-1.7,1.6-2.9c0-0.1,0-0.3-0.1-0.4
		c-0.1-0.8-0.4-1.5-0.9-2.1c0-1.5,0.2-3.8,0.3-4.7c0-2,0.1-4,0.1-5.9c0-4.6,0-9.2-0.1-13.8c-0.2-7.7-0.6-15.5-1.3-23.2
		c8.5,0.2,17,0.4,25.4,0.5C610.6,582.5,619.1,581.6,619.2,576.8z"/>
	<path class="st0" d="M492.7,744.5c-4.7-2.3-12.1-2.5-16.9,0c-3.8,1.9-8.3,2-12.8,1.8c0.1-0.2,0.1-0.4,0.1-0.7
		c0.5-6.4,0.2-12.9,0.1-19.3c0-4.8,0.8-10.7-3.8-13.7c-4.6-3-10.8-3.6-16.1-2.1c-3.2,0.9-8.5,4.2-4.3,7.6c1.5,1.2,0.2,10,0.2,12.1
		c-0.1,5.1-0.3,10.3,0,15.4c0,0.1,0,0.3,0.1,0.4c-3,0-6,0-9,0.1c-3.4,0.1-11.6,0.7-11.8,5.4c-0.2,4.7,8.8,5.6,11.7,5.7
		c10.5,0.3,20.9,0.2,31.4,0.2c10.3,0,21.9,0.6,31-4.9C496.6,750.1,497.2,746.7,492.7,744.5z"/>
	<path class="st0" d="M667.2,538.5c7.4-0.2,14.8-0.3,22.2-0.6c-0.4,12.2-0.4,24.5-0.2,36.6c0.1,8,24,8,24.1,0
		c0.2-12.6,0.2-25.2-0.2-37.8c0.4,0,0.9-0.1,1.3-0.1c3-0.2,9.5-2,8.5-6.1c-1-4.1-8.4-4.9-11.6-4.9c-15.7,0.1-31.4,1.2-47.1,2.1
		c-2.9,0.2-9.3,1.9-8.4,5.9C656.7,537.6,664.1,538.6,667.2,538.5z"/>
	<path class="st0" d="M712.3,602.7c3.4-1.1,8.2-4,4.3-7.6c-3.8-3.5-11.5-3.3-16.2-2.1c-7.4,1.9-14.3,2.8-21.9,1.9
		c-4-0.4-12.5-0.6-14.6,3.8c-2.2,4.6,5.3,6.5,8.2,6.9C685.3,607.6,699.6,607,712.3,602.7z"/>
	<path class="st0" d="M797.7,540c-4-3.7-11.6-3.1-16.4-2c-10.1,2.2-20.3,3.8-30.5,4.7c-4.7,0.4-12.9-0.3-16.2,3.8
		c-5.2,6.6,10.5,8,13.7,7.6c1.1-0.1,2.1-0.2,3.2-0.3c0.3,13.7,1.3,28.5,4.3,41.9c1.1,4.8,7.8,5.7,11.9,5.7c2.9,0,12.3-0.9,11.9-5.6
		c-0.5-7-1.8-14-2.5-21c-0.8-7-1.2-14-2.1-21c-0.1-0.9-0.5-1.7-1.2-2.5c6.5-0.9,13-2,19.5-3.5C797,546.8,801.5,543.5,797.7,540z"/>
	<path class="st0" d="M24.7,765.8c2.2-4.6-5.4-6.6-8.4-7c-5.4-0.7-10.9-1.3-16.4-2v11.7c3.3,0.4,6.7,0.8,10,1.2
		C14,770.2,22.6,770.3,24.7,765.8z"/>
	<path class="st0" d="M769,760.9c-3.3,3.8,5.9,6.6,8,6.9c3.4,0.5,7.2,0.4,10.4-0.9c0.5,0.1,1,0.1,1.5,0.2c2.2,0.3,4.5,0.6,6.7,0.9
		c1.5,0.2,3,0.4,4.4,0.5v-11.7c-2.9-0.3-5.8-0.7-8.6-1C783.5,755,774.6,754.5,769,760.9z"/>
	<path class="st0" d="M749.2,755.6c-3.8-1-7.9-1.1-11.7-0.1c-0.6-0.1-1.1-0.2-1.6-0.3c-2.8-0.4-6.2-0.4-8.9,0.4
		c-1.9,0.6-4.3,1.3-5.4,3.2c-0.9,1.7,0,3,1.1,4.2c3.5,4,10.4,4.8,15.3,4.9c4.9,0.1,11.9-1,15.5-4.7c1.2-1.3,2.1-2.5,1.2-4.3
		C753.7,757.2,750.9,756.1,749.2,755.6z"/>
</g>
</svg>
