<?xml version="1.0" encoding="utf-8"?>
<!-- Generator: Adobe Illustrator 21.1.0, SVG Export Plug-In . SVG Version: 6.00 Build 0)  -->
<svg version="1.1" id="Ebene_1" xmlns="http://www.w3.org/2000/svg" xmlns:xlink="http://www.w3.org/1999/xlink" x="0px" y="0px"
	 viewBox="0 0 800 800" style="enable-background:new 0 0 800 800;" xml:space="preserve">
<style type="text/css">
	.st0{fill:#FFFFFF;}
</style>
<g>
	<path class="st0" d="M0.1,735.9c0.1,6.8,0.4,13.6,0.4,20.3c0,9.5,0,19.1-0.2,28.6c-0.1,5.1-0.1,10.1-0.2,15.2H2
		c0.2-13.3,0.4-26.5,0.4-39.8c0-6.4,0.1-12.8,0-19.2c2.3,15.4,4,30.9,4.5,46.5c0.1,4.1,0.2,8.3,0.2,12.5H9c0-12.7-0.6-25.4-1.9-38
		c-0.9-8.5-1.9-17-3.5-25.5c2.6,6.6,4.8,13.3,6.2,20.3c1.7,8.3,2.6,16.8,3.5,25.3c0.6,5.9,1.1,11.9,1.4,17.9h2
		c-0.2-5-0.6-10-1.1-14.9c-0.8-8.6-1.8-17.1-3.3-25.6c-1-5.7-2.3-11.6-4.2-17.2c8.4,13.5,12,29.5,13,45.2c0.2,4.1,0.4,8.4,0.3,12.6
		h2c0.1-4.6-0.1-9.3-0.4-13.8c-0.9-13.6-3.8-27-10.1-39c8.7,11.4,13.7,25.3,14.5,39.6c0.2,4.4,0.1,8.8-0.5,13.2h2
		c0.5-4.5,0.7-9.1,0.4-13.6c-0.7-12.2-4.3-24.3-10.9-34.5c7.1,8.1,12.1,17.1,14.1,27.9c1.2,6.6,1.3,13.5,0.2,20.1h2.9
		c1.2-7.7,0.9-15.6-0.8-23.2c-2.6-11.5-8.6-21.1-16.8-29.5c-4.4-4.6-9-9-12-14.7c-2.7-5-3.2-16.9-3.1-17.5c0.6-4.8,0.5-9.7,0.3-14.5
		c0.4-20.1,0.3-40.3-0.6-60.4c0.2-6.5,0.5-19.7,0.5-19.9c0.2-15.4,3.9-30.5,11-44.2c5.9-11.3,14.9-20.8,19.1-33
		c3.7-10.5,4.1-22.1,1.6-33c-2.6-11.5-8.6-21.1-16.8-29.5c-4.4-4.6-9-9-12-14.7c-0.2-0.4-0.4-0.9-0.6-1.3c-2-4.2-2.8-9-2.6-13.7
		c1.5-34.3,0.4-96.8,0.4-97.4c0.2-15.4,3.9-30.5,11-44.2c5.9-11.3,14.9-20.8,19.1-33c3.7-10.5,4.1-22.1,1.6-33
		c-2.6-11.5-8.6-21.1-16.8-29.5c-4.4-4.6-9-9-12-14.7c0,0,0-0.1,0-0.1c-2.3-4.3-3.1-9.1-2.8-13.9c1-15.7-0.6-31.7-0.8-47.4
		c0-0.8,0-1.6,0-2.3c0.1-12.1,0.4-24.3,0.4-36.4c0.1-3.8,0.2-7.7,0.3-11.5C3,87.4,3.1,87.2,3.1,87c0.2-15.4,3.9-30.5,11-44.2
		c5.9-11.3,14.9-20.8,19.1-33C34.2,6.6,35,3.3,35.5,0h-2.9c-0.8,4.9-2.3,9.8-4.5,14.3c-1.8,3.7-4,7.1-6.2,10.5
		c2.1-4.6,3.7-9.6,5-14.4C27.7,7,28.3,3.5,28.7,0h-2c-0.4,3.3-1,6.6-1.8,9.9c-1.6,6.3-4.2,12.1-7,17.8c1.6-5.1,3.3-10.3,4.2-15.6
		c0.7-4,1-8,1.1-12.1h-2c-0.1,4.5-0.5,9-1.5,13.4c-1.2,5.5-3.3,10.9-4.8,16.3c1-5.8,1.5-11.6,1.7-17.2c0.1-4.2,0.1-8.3-0.1-12.5h-2
		c0.5,11.1,0,22.1-2.3,33c-1.5,7-3.9,13.7-7,20.1c1.5-10.8,2.4-21.8,3-32.6C8.8,13.6,9,6.8,9,0H7.1c0,15-0.9,30.1-2.8,45
		c-0.8,6.8-2,13.4-3.2,20.1c0.3-15.9,0.4-31.8,0.6-47.8C1.9,11.6,1.9,5.8,2,0H0.1C0.1,2.6,0,5.2,0,7.8v195.3c0-0.2,0-0.4,0.1-0.5
		c0.1,6.8,0.4,13.6,0.4,20.3c0,9.5,0,19.1-0.2,28.6c-0.1,7.7-0.2,15.3-0.3,23l0,195.3c0-0.2,0-0.4,0.1-0.5
		c0.1,6.8,0.4,13.6,0.4,20.3c0,9.5,0,19.1-0.2,28.6c-0.1,7.7-0.2,15.3-0.3,23v195.3C0,736.2,0,736.1,0.1,735.9z M32.4,246.5
		c2.2,11.5,0.8,23.8-4.3,34.4c-1.8,3.7-4,7.1-6.2,10.5c2.1-4.6,3.7-9.6,5-14.4c2-7.8,2.8-15.9,2.4-24c-0.7-12.2-4.3-24.3-10.9-34.5
		C25.3,226.7,30.4,235.7,32.4,246.5z M27.2,253.5c0.4,7.7-0.4,15.5-2.3,23.1c-1.6,6.3-4.2,12.1-7,17.8c1.6-5.1,3.3-10.3,4.2-15.6
		c1.5-8.5,1.3-17.4,0.8-25.9c-0.9-13.6-3.8-27-10.1-39C21.5,225.3,26.5,239.1,27.2,253.5z M21,254.1c0.5,8.6,0.6,17.5-1.2,26
		c-1.2,5.5-3.3,10.9-4.8,16.3c1-5.8,1.5-11.6,1.7-17.2c0.3-9.2-0.3-18.3-1.2-27.4c-0.8-8.6-1.8-17.1-3.3-25.6
		c-1-5.7-2.3-11.6-4.2-17.2C16.5,222.4,20.1,238.4,21,254.1z M9.8,223.5c1.7,8.3,2.6,16.8,3.5,25.3c1.7,16.9,2.6,34.1-0.9,50.8
		c-1.5,7-3.9,13.7-7,20.1c1.5-10.8,2.4-21.8,3-32.6c1.1-19.5,0.6-39-1.3-58.5c-0.9-8.5-1.9-17-3.5-25.5
		C6.2,209.8,8.4,216.4,9.8,223.5z M1.8,284c0.3-19,0.6-38.1,0.6-57.1c0-6.4,0.1-12.8,0-19.2c2.3,15.4,4,30.9,4.5,46.5
		c0.6,19.2-0.3,38.4-2.6,57.5c-0.8,6.8-2,13.4-3.2,20.1C1.4,315.9,1.5,300,1.8,284z M32.4,513.2c2.2,11.5,0.8,23.8-4.3,34.4
		c-1.8,3.7-4,7.1-6.2,10.5c2.1-4.6,3.7-9.6,5-14.4c2-7.8,2.8-15.9,2.4-24c-0.7-12.2-4.3-24.3-10.9-34.5
		C25.3,493.3,30.4,502.4,32.4,513.2z M27.2,520.1c0.4,7.7-0.4,15.5-2.3,23.1c-1.6,6.3-4.2,12.1-7,17.8c1.6-5.1,3.3-10.3,4.2-15.6
		c1.5-8.5,1.3-17.4,0.8-25.9c-0.9-13.6-3.8-27-10.1-39C21.5,491.9,26.5,505.8,27.2,520.1z M21,520.8c0.5,8.6,0.6,17.5-1.2,26
		c-1.2,5.5-3.3,10.9-4.8,16.3c1-5.8,1.5-11.6,1.7-17.2c0.3-9.2-0.3-18.3-1.2-27.4c-0.8-8.6-1.8-17.1-3.3-25.6
		c-1-5.7-2.3-11.6-4.2-17.2C16.5,489,20.1,505.1,21,520.8z M9.8,490.2c1.7,8.3,2.6,16.8,3.5,25.3c1.7,16.9,2.6,34.1-0.9,50.8
		c-1.5,7-3.9,13.7-7,20.1c1.5-10.8,2.4-21.8,3-32.6c1.1-19.5,0.6-39-1.3-58.5c-0.9-8.5-1.9-17-3.5-25.5
		C6.2,476.5,8.4,483.1,9.8,490.2z M1.8,550.7c0.3-19,0.6-38.1,0.6-57.1c0-6.4,0.1-12.8,0-19.2c2.3,15.4,4,30.9,4.5,46.5
		c0.6,19.2-0.3,38.4-2.6,57.5c-0.8,6.8-2,13.4-3.2,20.1C1.4,582.5,1.5,566.6,1.8,550.7z"/>
	<path class="st0" d="M799.5,41.7c-0.1,6-0.2,12-0.3,18c-1.1-5.1-1.7-10.3-1.9-15.5c-0.4-8.8-0.4-17.5-0.4-26.3
		c0-6,0.1-11.9,0.2-17.9h-1.9c-0.3,14.3-0.5,28.6,0.1,42.8c0.1,3.1,0.3,6.2,0.7,9.2c-3.3-12.5-6.2-25.2-6.6-38
		c-0.2-4.7-0.3-9.3-0.3-14.1h-1.8c0,12.8,0.7,25.5,3.6,38c0.8,3.7,1.7,7.4,2.6,11c0,0,0-0.1-0.1-0.1c-1.5-3.6-3.2-7.1-5.1-10.5
		c-3.4-7.2-4.6-15.3-5.6-23.2c-0.7-5.1-1.1-10.1-1.4-15.2h-1.9c0.2,4.9,0.7,9.9,1.3,14.8c0.7,5.1,1.3,10.6,2.7,15.8
		c-0.4-0.6-0.8-1.1-1.1-1.7c-4.9-9-7.2-18.8-8-28.9h-2c0.4,6.2,1.4,12.5,3.2,18.4c-0.8-1.3-1.5-2.7-2.2-4.1
		c-2.2-4.5-3.7-9.3-4.5-14.3h-2.9c0.5,3.3,1.3,6.6,2.4,9.8c4.2,12.2,13.2,21.7,19.1,33c7.1,13.7,10.7,28.8,11,44.2
		c0,0.1,0,0.1,0,0.2c-0.1,1.7-0.1,3.5-0.1,5.2c-0.4,12.7-0.4,25.4-0.2,38.1c0,2.2,0,4.5,0,6.7c-0.2,19.1-0.3,38.1-0.4,57.2
		c-0.5,1.7-1.2,3.3-2.1,4.9c-3,5.6-7.6,10.1-12,14.7c-8.1,8.4-14.1,18-16.8,29.5c-2.5,10.9-2,22.4,1.6,33
		c4.2,12.2,13.2,21.7,19.1,33c0.4,0.8,0.8,1.6,1.2,2.3c6.1,12.6,9,26.5,9,40.5c0,20.6,1,76.2,0.7,106.5c-0.6,2.5-1.5,4.9-2.7,7.2
		c-3,5.6-7.6,10.1-12,14.7c-8.1,8.4-14.1,18-16.8,29.5c-2.5,10.8-2,22.4,1.6,33c4.2,12.2,13.8,21.4,19.1,33
		c11.7,25.6,10.2,56.6,10.7,67c-0.1,7.3,0,14.7,0,21.9c0.1,8.3,0.2,16.5,0.5,24.8c0.2,4.6,0.5,9.1,0.6,13.7
		c-0.1,3.9-0.2,7.8-0.3,11.6c0,0.5-0.8,12.5-3.4,17.5c-3,5.6-7.6,10.1-12,14.7c-8.1,8.4-14.1,18-16.8,29.5c-1.7,7.6-2,15.5-0.8,23.2
		h2.9c-1.1-6.7-1-13.5,0.2-20.1c2-10.6,6.8-19.5,13.6-27.4c-7.1,10.2-10.6,22.7-10.6,35.3c0,4,0.1,8.1,0.3,12.3h2
		c-0.3-3.7-0.4-7.5-0.4-11.3c0-14.2,4.1-27.3,12.6-38.4c-5.2,10.9-6.7,23.7-7.1,35.4c-0.2,4.8-0.1,9.5,0.1,14.3h1.9
		c-0.2-4.4-0.2-8.9-0.1-13.3c0.5-16.3,3.2-32.6,13.3-45.6c-4.6,13.2-6.2,27.6-6.8,41.4c-0.3,5.8-0.5,11.6-0.5,17.4h1.8
		c-0.1-13.1,0.5-26.3,2.6-39.2c1.4-8.4,3.6-16.5,6.6-24.4c-2.5,16.2-2.3,32.9-2.7,49.2c-0.1,4.8-0.3,9.5-0.4,14.3h1.9
		c0.2-12.3,0.6-24.6,0.9-36.9c0.3-8.9,0.8-17.8,2-26.7V541.1c-0.2,11.3-0.3,22.6-0.5,33.9c-0.1,6-0.2,12-0.3,18
		c-1.1-5.1-1.7-10.3-1.9-15.5c-0.4-8.8-0.4-17.5-0.4-26.3c0.1-18.3,0.6-36.6,1.2-54.8c0.3-8.9,0.8-17.8,2-26.7l0-195.3
		c-0.2,11.3-0.3,22.6-0.5,33.9c-0.1,6-0.2,12-0.3,18c-1.1-5.1-1.7-10.3-1.9-15.5c-0.4-8.8-0.4-17.5-0.4-26.3
		c0.1-18.3,0.6-36.6,1.2-54.8c0.3-8.9,0.8-17.8,2-26.7V7.8C799.8,19.1,799.7,30.4,799.5,41.7z M773.2,547.6
		c-5.1-10.6-6.5-22.9-4.3-34.4c2-10.6,6.8-19.5,13.6-27.4c-7.1,10.2-10.6,22.7-10.6,35.3c-0.1,9.9,0.5,20.8,3.5,30.7
		C774.7,550.4,773.9,549,773.2,547.6z M782.3,562.2c-6.8-12.3-8.4-26.1-8.4-40.2c0-14.2,4.1-27.3,12.6-38.4
		c-5.2,10.9-6.7,23.7-7.1,35.4c-0.3,9.7,0.1,19.4,1.4,29c0.7,5.1,1.3,10.6,2.7,15.8C783.1,563.3,782.7,562.8,782.3,562.2z
		 M793.4,582.2c-1.5-3.6-3.2-7.1-5.1-10.5c-3.4-7.2-4.6-15.3-5.6-23.2c-1.3-9.4-1.7-19-1.5-28.5c0.5-16.3,3.2-32.6,13.3-45.6
		c-4.6,13.2-6.2,27.6-6.8,41.4c-0.8,18.5-1,37.2,3.1,55.4c0.8,3.7,1.7,7.4,2.6,11C793.5,582.3,793.4,582.3,793.4,582.2z M795.5,519
		c-0.5,19-1,38.1-0.2,57.2c0.1,3.1,0.3,6.2,0.7,9.2c-3.3-12.5-6.2-25.2-6.6-38c-0.6-17.6-0.5-35.8,2.3-53.2
		c1.4-8.4,3.6-16.5,6.6-24.4C795.8,486,796,502.6,795.5,519z M773.2,281c-5.1-10.6-6.5-22.9-4.3-34.4c2-10.6,6.8-19.5,13.6-27.4
		c-7.1,10.2-10.6,22.7-10.6,35.3c-0.1,9.9,0.5,20.8,3.5,30.7C774.7,283.7,773.9,282.4,773.2,281z M782.3,295.5
		c-6.8-12.3-8.4-26.1-8.4-40.2c0-14.2,4.1-27.3,12.6-38.4c-5.2,10.9-6.7,23.7-7.1,35.4c-0.3,9.7,0.1,19.4,1.4,29
		c0.7,5.1,1.3,10.6,2.7,15.8C783.1,296.7,782.7,296.1,782.3,295.5z M793.4,315.5c-1.5-3.6-3.2-7.1-5.1-10.5
		c-3.4-7.2-4.6-15.3-5.6-23.2c-1.3-9.4-1.7-19-1.5-28.5c0.5-16.3,3.2-32.6,13.3-45.6c-4.6,13.2-6.2,27.6-6.8,41.4
		c-0.8,18.5-1,37.2,3.1,55.4c0.8,3.7,1.7,7.4,2.6,11C793.5,315.6,793.4,315.6,793.4,315.5z M795.5,252.3c-0.5,19-1,38.1-0.2,57.2
		c0.1,3.1,0.3,6.2,0.7,9.2c-3.3-12.5-6.2-25.2-6.6-38c-0.6-17.6-0.5-35.8,2.3-53.2c1.4-8.4,3.6-16.5,6.6-24.4
		C795.8,219.3,796,236,795.5,252.3z"/>
	<path class="st0" d="M100,34.4c-0.1,3.8-1.4,25.8-4.6,33c-2.6,5.8-7.6,10.1-12,14.7c-8.1,8.4-14.1,18-16.8,29.5
		c-2.5,10.9-2,22.4,1.6,33c4.2,12.2,13.2,21.7,19.1,33c0.4,0.8,0.8,1.6,1.2,2.3c6.1,12.6,9,26.5,9,40.5c0,20.6,1,76.2,0.7,106.5
		c-0.6,2.5-1.5,4.9-2.7,7.2c-3,5.6-7.6,10.1-12,14.7c-8.1,8.4-14.1,18-16.8,29.5c-2.5,10.8-2,22.4,1.6,33
		c4.2,12.2,13.8,21.4,19.1,33c11.7,25.6,10.2,56.6,10.7,67c-0.1,7.3,0,14.7,0,21.9c0.1,8.3,0.2,16.5,0.5,24.8
		c0.2,4.6,0.5,9.1,0.6,13.7c-0.1,3.9-0.2,7.8-0.3,11.6c0,0.5-0.8,12.5-3.4,17.5c-3,5.6-7.6,10.1-12,14.7c-8.1,8.4-14.1,18-16.8,29.5
		c-2.5,10.8-2,22.4,1.6,33c4.2,12.2,13.2,21.7,19.1,33c4.6,8.9,7.8,18.5,9.5,28.3c0.7,4.4,1.7,29.9,2,35.9c-0.1,7.2,0,14.4,0,21.5
		c0,1.1,0,2.2,0,3.4h5.2c-0.1-9.3-0.3-18.5-0.7-27.8c0.2-6.3,0.5-19.4,0.5-19.6c0.1-3.2,0.5-9.4,0.7-13c0.1-1,0.2-2,0.4-2.9
		c1.8-9,4.8-17.7,9-25.9c5.9-11.3,14.9-20.8,19.1-33c3.7-10.5,4.1-22.1,1.6-33c-2.6-11.5-8.6-21.1-16.8-29.5c-4.4-4.6-9-9-12-14.7
		c-2.7-5-3.2-16.9-3.1-17.5c0.6-4.8,0.5-9.7,0.3-14.5c0.4-20.1,0.3-40.3-0.6-60.4c0.2-6.5,0.5-19.7,0.5-19.9
		c0.2-15.4,3.9-30.5,11-44.2c5.9-11.3,14.9-20.8,19.1-33c3.7-10.5,4.1-22.1,1.6-33c-2.6-11.5-8.6-21.1-16.8-29.5
		c-4.4-4.6-9-9-12-14.7c-0.2-0.4-0.4-0.9-0.6-1.3c-2-4.2-2.8-9-2.6-13.7c1.5-34.3,0.4-96.8,0.4-97.4c0.2-15.4,3.9-30.5,11-44.2
		c5.9-11.3,14.9-20.8,19.1-33c3.7-10.5,4.1-22.1,1.6-33c-2.6-11.5-8.6-21.1-16.8-29.5c-4.4-4.6-9-9-12-14.7c0,0,0-0.1,0-0.1
		c-2.2-3.1-1.7-31-1.9-35.8c0.2-10.5,0.3-21,0.1-31.5h-5.2c0.1,7,0.2,14,0.5,20.9C99.6,25.4,99.9,29.9,100,34.4z M73.2,682.4
		c-5.1-10.6-6.5-22.9-4.3-34.4c2-10.6,6.8-19.5,13.6-27.4c-7.1,10.2-10.6,22.7-10.6,35.3c-0.1,9.9,0.5,20.8,3.5,30.7
		C74.7,685.2,73.9,683.8,73.2,682.4z M82.3,696.9c-6.8-12.3-8.4-26.1-8.4-40.2c0-14.2,4.1-27.3,12.6-38.4
		c-5.2,10.9-6.7,23.7-7.1,35.4c-0.3,9.7,0.1,19.4,1.4,29c0.7,5.1,1.3,10.6,2.7,15.8C83.1,698.1,82.7,697.5,82.3,696.9z M93.4,717
		c-1.5-3.6-3.2-7.1-5.1-10.5c-3.4-7.2-4.6-15.3-5.6-23.2c-1.3-9.4-1.7-19-1.5-28.5c0.5-16.3,3.2-32.6,13.3-45.6
		c-4.6,13.2-6.2,27.6-6.8,41.4c-0.8,18.5-1,37.2,3.1,55.4c0.8,3.7,1.7,7.4,2.6,11C93.5,717.1,93.4,717,93.4,717z M89.4,682.1
		c-0.6-17.6-0.5-35.8,2.3-53.2c1.4-8.4,3.6-16.5,6.6-24.4c-2.5,16.2-2.3,32.9-2.7,49.2c-0.5,19-1,38.1-0.2,57.2
		c0.1,3.1,0.3,6.2,0.7,9.2C92.7,707.6,89.8,695,89.4,682.1z M132.4,647.9c2.2,11.5,0.8,23.8-4.3,34.4c-1.8,3.7-4,7.1-6.2,10.5
		c2.1-4.6,3.7-9.6,5-14.4c2-7.8,2.8-15.9,2.4-24c-0.7-12.2-4.3-24.3-10.9-34.5C125.3,628.1,130.4,637.1,132.4,647.9z M127.2,654.9
		c0.4,7.7-0.4,15.5-2.3,23.1c-1.6,6.3-4.2,12.1-7,17.8c1.6-5.1,3.3-10.3,4.2-15.6c1.5-8.5,1.3-17.4,0.8-25.9
		c-0.9-13.6-3.8-27-10.1-39C121.5,626.7,126.5,640.5,127.2,654.9z M121,655.5c0.5,8.6,0.6,17.5-1.2,26c-1.2,5.5-3.3,10.9-4.8,16.3
		c1-5.8,1.5-11.6,1.7-17.2c0.3-9.2-0.3-18.3-1.2-27.4c-0.8-8.6-1.8-17.1-3.3-25.6c-1-5.7-2.3-11.6-4.2-17.2
		C116.5,623.8,120.1,639.8,121,655.5z M109.8,624.9c1.7,8.3,2.6,16.8,3.5,25.3c1.7,16.9,2.6,34.1-0.9,50.9c-1.5,7-3.9,13.7-7,20.1
		c1.5-10.8,2.4-21.8,3-32.6c1.1-19.5,0.6-39-1.3-58.5c-0.9-8.5-1.9-17-3.5-25.5C106.2,611.2,108.4,617.9,109.8,624.9z M101.1,733.2
		c0.3-15.9,0.4-31.8,0.6-47.8c0.3-19,0.6-38.1,0.6-57.1c0-6.4,0.1-12.8,0-19.2c2.3,15.4,4,30.9,4.5,46.5c0.6,19.2-0.3,38.4-2.6,57.5
		C103.5,719.9,102.3,726.5,101.1,733.2z M100.5,624.3c0,9.5,0,19.1-0.2,28.6c-0.2,19-0.5,37.9-0.8,56.9c-0.1,6-0.2,12-0.3,18
		c-1.1-5.1-1.7-10.3-1.9-15.5c-0.4-8.8-0.4-17.5-0.4-26.3c0.1-18.3,0.6-36.6,1.2-54.8c0.3-9.1,0.8-18.2,2-27.2
		C100.2,610.7,100.5,617.5,100.5,624.3z M73.2,415.7c-5.1-10.6-6.5-22.9-4.3-34.4c2-10.6,6.8-19.5,13.6-27.4
		c-7.1,10.2-10.6,22.7-10.6,35.3c-0.1,9.9,0.5,20.8,3.5,30.7C74.7,418.5,73.9,417.1,73.2,415.7z M82.3,430.3
		c-6.8-12.3-8.4-26.1-8.4-40.2c0-14.2,4.1-27.3,12.6-38.4c-5.2,10.9-6.7,23.7-7.1,35.4c-0.3,9.7,0.1,19.4,1.4,29
		c0.7,5.1,1.3,10.6,2.7,15.8C83.1,431.4,82.7,430.8,82.3,430.3z M93.4,450.3c-1.5-3.6-3.2-7.1-5.1-10.5c-3.4-7.2-4.6-15.3-5.6-23.2
		c-1.3-9.4-1.7-19-1.5-28.5c0.5-16.3,3.2-32.6,13.3-45.6c-4.6,13.2-6.2,27.6-6.8,41.4c-0.8,18.5-1,37.2,3.1,55.4
		c0.8,3.7,1.7,7.4,2.6,11C93.5,450.4,93.4,450.3,93.4,450.3z M89.4,415.5c-0.6-17.6-0.5-35.8,2.3-53.2c1.4-8.4,3.6-16.5,6.6-24.4
		c-2.5,16.2-2.3,32.9-2.7,49.2c-0.5,19-1,38.1-0.2,57.2c0.1,3.1,0.3,6.2,0.7,9.2C92.7,441,89.8,428.3,89.4,415.5z M132.4,381.3
		c2.2,11.5,0.8,23.8-4.3,34.4c-1.8,3.7-4,7.1-6.2,10.5c2.1-4.6,3.7-9.6,5-14.4c2-7.8,2.8-15.9,2.4-24c-0.7-12.2-4.3-24.3-10.9-34.5
		C125.3,361.4,130.4,370.5,132.4,381.3z M127.2,388.2c0.4,7.7-0.4,15.5-2.3,23.1c-1.6,6.3-4.2,12.1-7,17.8
		c1.6-5.1,3.3-10.3,4.2-15.6c1.5-8.5,1.3-17.4,0.8-25.9c-0.9-13.6-3.8-27-10.1-39C121.5,360,126.5,373.9,127.2,388.2z M121,388.9
		c0.5,8.6,0.6,17.5-1.2,26c-1.2,5.5-3.3,10.9-4.8,16.3c1-5.8,1.5-11.6,1.7-17.2c0.3-9.2-0.3-18.3-1.2-27.4
		c-0.8-8.6-1.8-17.1-3.3-25.6c-1-5.7-2.3-11.6-4.2-17.2C116.5,357.1,120.1,373.1,121,388.9z M109.8,358.3c1.7,8.3,2.6,16.8,3.5,25.3
		c1.7,16.9,2.6,34.1-0.9,50.8c-1.5,7-3.9,13.7-7,20.1c1.5-10.8,2.4-21.8,3-32.6c1.1-19.5,0.6-39-1.3-58.5c-0.9-8.5-1.9-17-3.5-25.5
		C106.2,344.6,108.4,351.2,109.8,358.3z M101.1,466.5c0.3-15.9,0.4-31.8,0.6-47.8c0.3-19,0.6-38.1,0.6-57.1c0-6.4,0.1-12.8,0-19.2
		c2.3,15.4,4,30.9,4.5,46.5c0.6,19.2-0.3,38.4-2.6,57.5C103.5,453.2,102.3,459.9,101.1,466.5z M100.5,357.6c0,9.5,0,19.1-0.2,28.6
		c-0.2,19-0.5,37.9-0.8,56.9c-0.1,6-0.2,12-0.3,18c-1.1-5.1-1.7-10.3-1.9-15.5c-0.4-8.8-0.4-17.5-0.4-26.3
		c0.1-18.3,0.6-36.6,1.2-54.8c0.3-9.1,0.8-18.2,2-27.2C100.2,344.1,100.5,350.9,100.5,357.6z M73.2,149c-5.1-10.6-6.5-22.9-4.3-34.4
		c2-10.6,6.8-19.5,13.6-27.4c-7.1,10.2-10.6,22.7-10.6,35.3c-0.1,9.9,0.5,20.8,3.5,30.7C74.7,151.8,73.9,150.5,73.2,149z
		 M82.3,163.6c-6.8-12.3-8.4-26.1-8.4-40.2c0-14.2,4.1-27.3,12.6-38.4c-5.2,10.9-6.7,23.7-7.1,35.4c-0.3,9.7,0.1,19.4,1.4,29
		c0.7,5.1,1.3,10.6,2.7,15.8C83.1,164.7,82.7,164.2,82.3,163.6z M93.4,183.6c-1.5-3.6-3.2-7.1-5.1-10.5c-3.4-7.2-4.6-15.3-5.6-23.2
		c-1.3-9.4-1.7-19-1.5-28.5c0.5-16.3,3.2-32.6,13.3-45.6c-4.6,13.2-6.2,27.6-6.8,41.4c-0.8,18.5-1,37.2,3.1,55.4
		c0.8,3.7,1.7,7.4,2.6,11C93.5,183.7,93.4,183.7,93.4,183.6z M89.4,148.8c-0.6-17.6-0.5-35.8,2.3-53.2c1.4-8.4,3.6-16.5,6.6-24.4
		c-2.5,16.2-2.3,32.9-2.7,49.2c-0.5,19-1,38.1-0.2,57.2c0.1,3.1,0.3,6.2,0.7,9.2C92.7,174.3,89.8,161.7,89.4,148.8z M132.4,114.6
		c2.2,11.5,0.8,23.8-4.3,34.4c-1.8,3.7-4,7.1-6.2,10.5c2.1-4.6,3.7-9.6,5-14.4c2-7.8,2.8-15.9,2.4-24c-0.7-12.2-4.3-24.3-10.9-34.5
		C125.3,94.7,130.4,103.8,132.4,114.6z M127.2,121.6c0.4,7.7-0.4,15.5-2.3,23.1c-1.6,6.3-4.2,12.1-7,17.8c1.6-5.1,3.3-10.3,4.2-15.6
		c1.5-8.5,1.3-17.4,0.8-25.9c-0.9-13.6-3.8-27-10.1-39C121.5,93.3,126.5,107.2,127.2,121.6z M121,122.2c0.5,8.6,0.6,17.5-1.2,26
		c-1.2,5.5-3.3,10.9-4.8,16.3c1-5.8,1.5-11.6,1.7-17.2c0.3-9.2-0.3-18.3-1.2-27.4c-0.8-8.6-1.8-17.1-3.3-25.6
		c-1-5.7-2.3-11.6-4.2-17.2C116.5,90.5,120.1,106.5,121,122.2z M109.8,91.6c1.7,8.3,2.6,16.8,3.5,25.3c1.7,16.9,2.6,34.1-0.9,50.8
		c-1.5,7-3.9,13.7-7,20.1c1.5-10.8,2.4-21.8,3-32.6c1.1-19.5,0.6-39-1.3-58.5c-0.9-8.5-1.9-17-3.5-25.5
		C106.2,77.9,108.4,84.5,109.8,91.6z M101.1,199.9c0.3-15.9,0.4-31.8,0.6-47.8c0.3-19,0.6-38.1,0.6-57.1c0-6.4,0.1-12.8,0-19.2
		c2.3,15.4,4,30.9,4.5,46.5c0.6,19.2-0.3,38.4-2.6,57.5C103.5,186.5,102.3,193.2,101.1,199.9z M100.5,91c0,9.5,0,19.1-0.2,28.6
		c-0.2,19-0.5,37.9-0.8,56.9c-0.1,6-0.2,12-0.3,18c-1.1-5.1-1.7-10.3-1.9-15.5c-0.4-8.8-0.4-17.5-0.4-26.3
		c0.1-18.3,0.6-36.6,1.2-54.8c0.3-9.1,0.8-18.2,2-27.2C100.2,77.4,100.5,84.2,100.5,91z"/>
	<path class="st0" d="M187.3,42.7c7.1,13.7,10.7,28.8,11,44.2c0,0.1,0,0.1,0,0.2c-0.1,1.7-0.1,3.5-0.1,5.2
		c-0.4,12.7-0.4,25.4-0.2,38.1c0,2.2,0,4.5,0,6.7c-0.2,19.1-0.3,38.1-0.4,57.2c-0.5,1.7-1.2,3.3-2.1,4.9c-3,5.6-7.6,10.1-12,14.7
		c-8.1,8.4-14.1,18-16.8,29.5c-2.5,10.9-2,22.4,1.6,33c4.2,12.2,13.2,21.7,19.1,33c0.4,0.8,0.8,1.6,1.2,2.3c6.1,12.6,9,26.5,9,40.5
		c0,20.6,1,76.2,0.7,106.5c-0.6,2.5-1.5,4.9-2.7,7.2c-3,5.6-7.6,10.1-12,14.7c-8.1,8.4-14.1,18-16.8,29.5c-2.5,10.8-2,22.4,1.6,33
		c4.2,12.2,13.8,21.4,19.1,33c11.7,25.6,10.2,56.6,10.7,67c-0.1,7.3,0,14.7,0,21.9c0.1,8.3,0.2,16.5,0.5,24.8
		c0.2,4.6,0.5,9.1,0.6,13.7c-0.1,3.9-0.2,7.8-0.3,11.6c0,0.5-0.8,12.5-3.4,17.5c-3,5.6-7.6,10.1-12,14.7c-8.1,8.4-14.1,18-16.8,29.5
		c-1.7,7.6-2,15.5-0.8,23.2h2.9c-1.1-6.7-1-13.5,0.2-20.1c2-10.6,6.8-19.5,13.6-27.4c-7.1,10.2-10.6,22.7-10.6,35.3
		c0,4,0.1,8.1,0.3,12.3h2c-0.3-3.7-0.4-7.5-0.4-11.3c0-14.2,4.1-27.3,12.6-38.4c-5.2,10.9-6.7,23.7-7.1,35.4
		c-0.2,4.8-0.1,9.5,0.1,14.3h1.9c-0.2-4.4-0.2-8.9-0.1-13.3c0.5-16.3,3.2-32.6,13.3-45.6c-4.6,13.2-6.2,27.6-6.8,41.4
		c-0.3,5.8-0.5,11.6-0.5,17.4h1.8c-0.1-13.1,0.5-26.3,2.6-39.2c1.4-8.4,3.6-16.5,6.6-24.4c-2.5,16.2-2.3,32.9-2.7,49.2
		c-0.1,4.8-0.3,9.5-0.4,14.3h1.9c0.2-12.3,0.6-24.6,0.9-36.9c0.3-9.1,0.8-18.2,2-27.2c0.1,6.8,0.4,13.6,0.4,20.3
		c0,9.5,0,19.1-0.2,28.6c-0.1,5.1-0.1,10.1-0.2,15.2h1.9c0.2-13.3,0.4-26.5,0.4-39.8c0-6.4,0.1-12.8,0-19.2
		c2.3,15.4,4,30.9,4.5,46.5c0.1,4.1,0.2,8.3,0.2,12.5h1.9c0-12.7-0.6-25.4-1.9-38c-0.9-8.5-1.9-17-3.5-25.5
		c2.6,6.6,4.8,13.3,6.2,20.3c1.7,8.3,2.6,16.8,3.5,25.3c0.6,5.9,1.1,11.9,1.4,17.9h2c-0.2-5-0.6-10-1.1-14.9
		c-0.8-8.6-1.8-17.1-3.3-25.6c-1-5.7-2.3-11.6-4.2-17.2c8.4,13.5,12,29.5,13,45.2c0.2,4.1,0.4,8.4,0.3,12.6h2
		c0.1-4.6-0.1-9.3-0.4-13.8c-0.9-13.6-3.8-27-10.1-39c8.7,11.4,13.7,25.3,14.5,39.6c0.2,4.4,0.1,8.8-0.5,13.2h2
		c0.5-4.5,0.7-9.1,0.4-13.6c-0.7-12.2-4.3-24.3-10.9-34.5c7.1,8.1,12.1,17.1,14.1,27.9c1.2,6.6,1.3,13.5,0.2,20.1h2.9
		c1.2-7.7,0.9-15.6-0.8-23.2c-2.6-11.5-8.6-21.1-16.8-29.5c-4.4-4.6-9-9-12-14.7c-2.7-5-3.2-16.9-3.1-17.5c0.6-4.8,0.5-9.7,0.3-14.5
		c0.4-20.1,0.3-40.3-0.6-60.4c0.2-6.5,0.5-19.7,0.5-19.9c0.2-15.4,3.9-30.5,11-44.2c5.9-11.3,14.9-20.8,19.1-33
		c3.7-10.5,4.1-22.1,1.6-33c-2.6-11.5-8.6-21.1-16.8-29.5c-4.4-4.6-9-9-12-14.7c-0.2-0.4-0.4-0.9-0.6-1.3c-2-4.2-2.8-9-2.6-13.7
		c1.5-34.3,0.4-96.8,0.4-97.4c0.2-15.4,3.9-30.5,11-44.2c5.9-11.3,14.9-20.8,19.1-33c3.7-10.5,4.1-22.1,1.6-33
		c-2.6-11.5-8.6-21.1-16.8-29.5c-4.4-4.6-9-9-12-14.7c0,0,0-0.1,0-0.1c-2.3-4.3-3.1-9.1-2.8-13.9c1-15.7-0.6-31.7-0.8-47.4
		c0-0.8,0-1.6,0-2.3c0.1-12.1,0.4-24.3,0.4-36.4c0.1-3.8,0.2-7.7,0.3-11.5c0.1-0.2,0.1-0.4,0.1-0.6c0.2-15.4,3.9-30.5,11-44.2
		c5.9-11.3,14.9-20.8,19.1-33c1.1-3.2,1.9-6.5,2.4-9.8h-2.9c-0.8,4.9-2.3,9.8-4.5,14.3c-1.8,3.7-4,7.1-6.2,10.5
		c2.1-4.6,3.7-9.6,5-14.4c0.9-3.4,1.5-6.9,1.9-10.4h-2c-0.4,3.3-1,6.6-1.8,9.9c-1.6,6.3-4.2,12.1-7,17.8c1.6-5.1,3.3-10.3,4.2-15.6
		c0.7-4,1-8,1.1-12.1h-2c-0.1,4.5-0.5,9-1.5,13.4c-1.2,5.5-3.3,10.9-4.8,16.3c1-5.8,1.5-11.6,1.7-17.2c0.1-4.2,0.1-8.3-0.1-12.5h-2
		c0.5,11.1,0,22.1-2.3,33c-1.5,7-3.9,13.7-7,20.1c1.5-10.8,2.4-21.8,3-32.6C208.8,13.6,209,6.8,209,0h-1.9c0,15-0.9,30.1-2.8,45
		c-0.8,6.8-2,13.4-3.2,20.1c0.3-15.9,0.4-31.8,0.6-47.8c0.1-5.8,0.2-11.6,0.3-17.4h-1.9c-0.2,13.9-0.4,27.8-0.6,41.7
		c-0.1,6-0.2,12-0.3,18c-1.1-5.1-1.7-10.3-1.9-15.5c-0.4-8.8-0.4-17.5-0.4-26.3c0-6,0.1-11.9,0.2-17.9h-1.9
		c-0.3,14.3-0.5,28.6,0.1,42.8c0.1,3.1,0.3,6.2,0.7,9.2c-3.3-12.5-6.2-25.2-6.6-38c-0.2-4.7-0.3-9.3-0.3-14.1h-1.8
		c0,12.8,0.7,25.5,3.6,38c0.8,3.7,1.7,7.4,2.6,11c0,0,0-0.1-0.1-0.1c-1.5-3.6-3.2-7.1-5.1-10.5c-3.4-7.2-4.6-15.3-5.6-23.2
		c-0.7-5.1-1.1-10.1-1.4-15.2h-1.9c0.2,4.9,0.7,9.9,1.3,14.8c0.7,5.1,1.3,10.6,2.7,15.8c-0.4-0.6-0.8-1.1-1.1-1.7
		c-4.9-9-7.2-18.8-8-28.9h-2c0.4,6.2,1.4,12.5,3.2,18.4c-0.8-1.3-1.5-2.7-2.2-4.1c-2.2-4.5-3.7-9.3-4.5-14.3h-2.9
		c0.5,3.3,1.3,6.6,2.4,9.8C172.5,21.9,181.5,31.4,187.3,42.7z M173.2,547.6c-5.1-10.6-6.5-22.9-4.3-34.4c2-10.6,6.8-19.5,13.6-27.4
		c-7.1,10.2-10.6,22.7-10.6,35.3c-0.1,9.9,0.5,20.8,3.5,30.7C174.7,550.4,173.9,549,173.2,547.6z M182.3,562.2
		c-6.8-12.3-8.4-26.1-8.4-40.2c0-14.2,4.1-27.3,12.6-38.4c-5.2,10.9-6.7,23.7-7.1,35.4c-0.3,9.7,0.1,19.4,1.4,29
		c0.7,5.1,1.3,10.6,2.7,15.8C183.1,563.3,182.7,562.8,182.3,562.2z M193.4,582.2c-1.5-3.6-3.2-7.1-5.1-10.5
		c-3.4-7.2-4.6-15.3-5.6-23.2c-1.3-9.4-1.7-19-1.5-28.5c0.5-16.3,3.2-32.6,13.3-45.6c-4.6,13.2-6.2,27.6-6.8,41.4
		c-0.8,18.5-1,37.2,3.1,55.4c0.8,3.7,1.7,7.4,2.6,11C193.5,582.3,193.4,582.3,193.4,582.2z M189.4,547.4
		c-0.6-17.6-0.5-35.8,2.3-53.2c1.4-8.4,3.6-16.5,6.6-24.4c-2.5,16.2-2.3,32.9-2.7,49.2c-0.5,19-1,38.1-0.2,57.2
		c0.1,3.1,0.3,6.2,0.7,9.2C192.7,572.9,189.8,560.2,189.4,547.4z M232.4,513.2c2.2,11.5,0.8,23.8-4.3,34.4c-1.8,3.7-4,7.1-6.2,10.5
		c2.1-4.6,3.7-9.6,5-14.4c2-7.8,2.8-15.9,2.4-24c-0.7-12.2-4.3-24.3-10.9-34.5C225.3,493.3,230.4,502.4,232.4,513.2z M227.2,520.1
		c0.4,7.7-0.4,15.5-2.3,23.1c-1.6,6.3-4.2,12.1-7,17.8c1.6-5.1,3.3-10.3,4.2-15.6c1.5-8.5,1.3-17.4,0.8-25.9
		c-0.9-13.6-3.8-27-10.1-39C221.5,491.9,226.5,505.8,227.2,520.1z M221,520.8c0.5,8.6,0.6,17.5-1.2,26c-1.2,5.5-3.3,10.9-4.8,16.3
		c1-5.8,1.5-11.6,1.7-17.2c0.3-9.2-0.3-18.3-1.2-27.4c-0.8-8.6-1.8-17.1-3.3-25.6c-1-5.7-2.3-11.6-4.2-17.2
		C216.5,489,220.1,505.1,221,520.8z M209.8,490.2c1.7,8.3,2.6,16.8,3.5,25.3c1.7,16.9,2.6,34.1-0.9,50.8c-1.5,7-3.9,13.7-7,20.1
		c1.5-10.8,2.4-21.8,3-32.6c1.1-19.5,0.6-39-1.3-58.5c-0.9-8.5-1.9-17-3.5-25.5C206.2,476.5,208.4,483.1,209.8,490.2z M201.1,598.5
		c0.3-15.9,0.4-31.8,0.6-47.8c0.3-19,0.6-38.1,0.6-57.1c0-6.4,0.1-12.8,0-19.2c2.3,15.4,4,30.9,4.5,46.5c0.6,19.2-0.3,38.4-2.6,57.5
		C203.5,585.1,202.3,591.8,201.1,598.5z M200.5,489.6c0,9.5,0,19.1-0.2,28.6c-0.2,19-0.5,37.9-0.8,56.9c-0.1,6-0.2,12-0.3,18
		c-1.1-5.1-1.7-10.3-1.9-15.5c-0.4-8.8-0.4-17.5-0.4-26.3c0.1-18.3,0.6-36.6,1.2-54.8c0.3-9.1,0.8-18.2,2-27.2
		C200.2,476,200.5,482.8,200.5,489.6z M173.2,281c-5.1-10.6-6.5-22.9-4.3-34.4c2-10.6,6.8-19.5,13.6-27.4
		c-7.1,10.2-10.6,22.7-10.6,35.3c-0.1,9.9,0.5,20.8,3.5,30.7C174.7,283.7,173.9,282.4,173.2,281z M182.3,295.5
		c-6.8-12.3-8.4-26.1-8.4-40.2c0-14.2,4.1-27.3,12.6-38.4c-5.2,10.9-6.7,23.7-7.1,35.4c-0.3,9.7,0.1,19.4,1.4,29
		c0.7,5.1,1.3,10.6,2.7,15.8C183.1,296.7,182.7,296.1,182.3,295.5z M193.4,315.5c-1.5-3.6-3.2-7.1-5.1-10.5
		c-3.4-7.2-4.6-15.3-5.6-23.2c-1.3-9.4-1.7-19-1.5-28.5c0.5-16.3,3.2-32.6,13.3-45.6c-4.6,13.2-6.2,27.6-6.8,41.4
		c-0.8,18.5-1,37.2,3.1,55.4c0.8,3.7,1.7,7.4,2.6,11C193.5,315.6,193.4,315.6,193.4,315.5z M189.4,280.7
		c-0.6-17.6-0.5-35.8,2.3-53.2c1.4-8.4,3.6-16.5,6.6-24.4c-2.5,16.2-2.3,32.9-2.7,49.2c-0.5,19-1,38.1-0.2,57.2
		c0.1,3.1,0.3,6.2,0.7,9.2C192.7,306.2,189.8,293.6,189.4,280.7z M232.4,246.5c2.2,11.5,0.8,23.8-4.3,34.4c-1.8,3.7-4,7.1-6.2,10.5
		c2.1-4.6,3.7-9.6,5-14.4c2-7.8,2.8-15.9,2.4-24c-0.7-12.2-4.3-24.3-10.9-34.5C225.3,226.7,230.4,235.7,232.4,246.5z M227.2,253.5
		c0.4,7.7-0.4,15.5-2.3,23.1c-1.6,6.3-4.2,12.1-7,17.8c1.6-5.1,3.3-10.3,4.2-15.6c1.5-8.5,1.3-17.4,0.8-25.9
		c-0.9-13.6-3.8-27-10.1-39C221.5,225.3,226.5,239.1,227.2,253.5z M221,254.1c0.5,8.6,0.6,17.5-1.2,26c-1.2,5.5-3.3,10.9-4.8,16.3
		c1-5.8,1.5-11.6,1.7-17.2c0.3-9.2-0.3-18.3-1.2-27.4c-0.8-8.6-1.8-17.1-3.3-25.6c-1-5.7-2.3-11.6-4.2-17.2
		C216.5,222.4,220.1,238.4,221,254.1z M209.8,223.5c1.7,8.3,2.6,16.8,3.5,25.3c1.7,16.9,2.6,34.1-0.9,50.8c-1.5,7-3.9,13.7-7,20.1
		c1.5-10.8,2.4-21.8,3-32.6c1.1-19.5,0.6-39-1.3-58.5c-0.9-8.5-1.9-17-3.5-25.5C206.2,209.8,208.4,216.4,209.8,223.5z M201.1,331.8
		c0.3-15.9,0.4-31.8,0.6-47.8c0.3-19,0.6-38.1,0.6-57.1c0-6.4,0.1-12.8,0-19.2c2.3,15.4,4,30.9,4.5,46.5c0.6,19.2-0.3,38.4-2.6,57.5
		C203.5,318.4,202.3,325.1,201.1,331.8z M200.5,222.9c0,9.5,0,19.1-0.2,28.6c-0.2,19-0.5,37.9-0.8,56.9c-0.1,6-0.2,12-0.3,18
		c-1.1-5.1-1.7-10.3-1.9-15.5c-0.4-8.8-0.4-17.5-0.4-26.3c0.1-18.3,0.6-36.6,1.2-54.8c0.3-9.1,0.8-18.2,2-27.2
		C200.2,209.3,200.5,216.1,200.5,222.9z"/>
	<path class="st0" d="M300,34.4c-0.1,3.8-1.4,25.8-4.6,33c-2.6,5.8-7.6,10.1-12,14.7c-8.1,8.4-14.1,18-16.8,29.5
		c-2.5,10.9-2,22.4,1.6,33c4.2,12.2,13.2,21.7,19.1,33c0.4,0.8,0.8,1.6,1.2,2.3c6.1,12.6,9,26.5,9,40.5c0,20.6,1,76.2,0.7,106.5
		c-0.6,2.5-1.5,4.9-2.7,7.2c-3,5.6-7.6,10.1-12,14.7c-8.1,8.4-14.1,18-16.8,29.5c-2.5,10.8-2,22.4,1.6,33
		c4.2,12.2,13.8,21.4,19.1,33c11.7,25.6,10.2,56.6,10.7,67c-0.1,7.3,0,14.7,0,21.9c0.1,8.3,0.2,16.5,0.5,24.8
		c0.2,4.6,0.5,9.1,0.6,13.7c-0.1,3.9-0.2,7.8-0.3,11.6c0,0.5-0.8,12.5-3.4,17.5c-3,5.6-7.6,10.1-12,14.7c-8.1,8.4-14.1,18-16.8,29.5
		c-2.5,10.8-2,22.4,1.6,33c4.2,12.2,13.2,21.7,19.1,33c4.6,8.9,7.8,18.5,9.5,28.3c0.7,4.4,1.7,29.9,2,35.9c-0.1,7.2,0,14.4,0,21.5
		c0,1.1,0,2.2,0,3.4h5.2c-0.1-9.3-0.3-18.5-0.7-27.8c0.2-6.3,0.5-19.4,0.5-19.6c0.1-3.2,0.5-9.4,0.7-13c0.1-1,0.2-2,0.4-2.9
		c1.8-9,4.8-17.7,9-25.9c5.9-11.3,14.9-20.8,19.1-33c3.7-10.5,4.1-22.1,1.6-33c-2.6-11.5-8.6-21.1-16.8-29.5c-4.4-4.6-9-9-12-14.7
		c-2.7-5-3.2-16.9-3.1-17.5c0.6-4.8,0.5-9.7,0.3-14.5c0.4-20.1,0.3-40.3-0.6-60.4c0.2-6.5,0.5-19.7,0.5-19.9
		c0.2-15.4,3.9-30.5,11-44.2c5.9-11.3,14.9-20.8,19.1-33c3.7-10.5,4.1-22.1,1.6-33c-2.6-11.5-8.6-21.1-16.8-29.5
		c-4.4-4.6-9-9-12-14.7c-0.2-0.4-0.4-0.9-0.6-1.3c-2-4.2-2.8-9-2.6-13.7c1.5-34.3,0.4-96.8,0.4-97.4c0.2-15.4,3.9-30.5,11-44.2
		c5.9-11.3,14.9-20.8,19.1-33c3.7-10.5,4.1-22.1,1.6-33c-2.6-11.5-8.6-21.1-16.8-29.5c-4.4-4.6-9-9-12-14.7c0,0,0-0.1,0-0.1
		c-2.2-3.1-1.7-31-1.9-35.8c0.2-10.5,0.3-21,0.1-31.5h-5.2c0.1,7,0.2,14,0.5,20.9C299.6,25.4,299.9,29.9,300,34.4z M273.2,682.4
		c-5.1-10.6-6.5-22.9-4.3-34.4c2-10.6,6.8-19.5,13.6-27.4c-7.1,10.2-10.6,22.7-10.6,35.3c-0.1,9.9,0.5,20.8,3.5,30.7
		C274.7,685.2,273.9,683.8,273.2,682.4z M282.3,696.9c-6.8-12.3-8.4-26.1-8.4-40.2c0-14.2,4.1-27.3,12.6-38.4
		c-5.2,10.9-6.7,23.7-7.1,35.4c-0.3,9.7,0.1,19.4,1.4,29c0.7,5.1,1.3,10.6,2.7,15.8C283.1,698.1,282.7,697.5,282.3,696.9z
		 M293.4,717c-1.5-3.6-3.2-7.1-5.1-10.5c-3.4-7.2-4.6-15.3-5.6-23.2c-1.3-9.4-1.7-19-1.5-28.5c0.5-16.3,3.2-32.6,13.3-45.6
		c-4.6,13.2-6.2,27.6-6.8,41.4c-0.8,18.5-1,37.2,3.1,55.4c0.8,3.7,1.7,7.4,2.6,11C293.5,717.1,293.4,717,293.4,717z M289.4,682.1
		c-0.6-17.6-0.5-35.8,2.3-53.2c1.4-8.4,3.6-16.5,6.6-24.4c-2.5,16.2-2.3,32.9-2.7,49.2c-0.5,19-1,38.1-0.2,57.2
		c0.1,3.1,0.3,6.2,0.7,9.2C292.7,707.6,289.8,695,289.4,682.1z M332.4,647.9c2.2,11.5,0.8,23.8-4.3,34.4c-1.8,3.7-4,7.1-6.2,10.5
		c2.1-4.6,3.7-9.6,5-14.4c2-7.8,2.8-15.9,2.4-24c-0.7-12.2-4.3-24.3-10.9-34.5C325.3,628.1,330.4,637.1,332.4,647.9z M327.2,654.9
		c0.4,7.7-0.4,15.5-2.3,23.1c-1.6,6.3-4.2,12.1-7,17.8c1.6-5.1,3.3-10.3,4.2-15.6c1.5-8.5,1.3-17.4,0.8-25.9
		c-0.9-13.6-3.8-27-10.1-39C321.5,626.7,326.5,640.5,327.2,654.9z M321,655.5c0.5,8.6,0.6,17.5-1.2,26c-1.2,5.5-3.3,10.9-4.8,16.3
		c1-5.8,1.5-11.6,1.7-17.2c0.3-9.2-0.3-18.3-1.2-27.4c-0.8-8.6-1.8-17.1-3.3-25.6c-1-5.7-2.3-11.6-4.2-17.2
		C316.5,623.8,320.1,639.8,321,655.5z M309.8,624.9c1.7,8.3,2.6,16.8,3.5,25.3c1.7,16.9,2.6,34.1-0.9,50.9c-1.5,7-3.9,13.7-7,20.1
		c1.5-10.8,2.4-21.8,3-32.6c1.1-19.5,0.6-39-1.3-58.5c-0.9-8.5-1.9-17-3.5-25.5C306.2,611.2,308.4,617.9,309.8,624.9z M301.1,733.2
		c0.3-15.9,0.4-31.8,0.6-47.8c0.3-19,0.6-38.1,0.6-57.1c0-6.4,0.1-12.8,0-19.2c2.3,15.4,4,30.9,4.5,46.5c0.6,19.2-0.3,38.4-2.6,57.5
		C303.5,719.9,302.3,726.5,301.1,733.2z M300.5,624.3c0,9.5,0,19.1-0.2,28.6c-0.2,19-0.5,37.9-0.8,56.9c-0.1,6-0.2,12-0.3,18
		c-1.1-5.1-1.7-10.3-1.9-15.5c-0.4-8.8-0.4-17.5-0.4-26.3c0.1-18.3,0.6-36.6,1.2-54.8c0.3-9.1,0.8-18.2,2-27.2
		C300.2,610.7,300.5,617.5,300.5,624.3z M273.2,415.7c-5.1-10.6-6.5-22.9-4.3-34.4c2-10.6,6.8-19.5,13.6-27.4
		c-7.1,10.2-10.6,22.7-10.6,35.3c-0.1,9.9,0.5,20.8,3.5,30.7C274.7,418.5,273.9,417.1,273.2,415.7z M282.3,430.3
		c-6.8-12.3-8.4-26.1-8.4-40.2c0-14.2,4.1-27.3,12.6-38.4c-5.2,10.9-6.7,23.7-7.1,35.4c-0.3,9.7,0.1,19.4,1.4,29
		c0.7,5.1,1.3,10.6,2.7,15.8C283.1,431.4,282.7,430.8,282.3,430.3z M293.4,450.3c-1.5-3.6-3.2-7.1-5.1-10.5
		c-3.4-7.2-4.6-15.3-5.6-23.2c-1.3-9.4-1.7-19-1.5-28.5c0.5-16.3,3.2-32.6,13.3-45.6c-4.6,13.2-6.2,27.6-6.8,41.4
		c-0.8,18.5-1,37.2,3.1,55.4c0.8,3.7,1.7,7.4,2.6,11C293.5,450.4,293.4,450.3,293.4,450.3z M289.4,415.5
		c-0.6-17.6-0.5-35.8,2.3-53.2c1.4-8.4,3.6-16.5,6.6-24.4c-2.5,16.2-2.3,32.9-2.7,49.2c-0.5,19-1,38.1-0.2,57.2
		c0.1,3.1,0.3,6.2,0.7,9.2C292.7,441,289.8,428.3,289.4,415.5z M332.4,381.3c2.2,11.5,0.8,23.8-4.3,34.4c-1.8,3.7-4,7.1-6.2,10.5
		c2.1-4.6,3.7-9.6,5-14.4c2-7.8,2.8-15.9,2.4-24c-0.7-12.2-4.3-24.3-10.9-34.5C325.3,361.4,330.4,370.5,332.4,381.3z M327.2,388.2
		c0.4,7.7-0.4,15.5-2.3,23.1c-1.6,6.3-4.2,12.1-7,17.8c1.6-5.1,3.3-10.3,4.2-15.6c1.5-8.5,1.3-17.4,0.8-25.9
		c-0.9-13.6-3.8-27-10.1-39C321.5,360,326.5,373.9,327.2,388.2z M321,388.9c0.5,8.6,0.6,17.5-1.2,26c-1.2,5.5-3.3,10.9-4.8,16.3
		c1-5.8,1.5-11.6,1.7-17.2c0.3-9.2-0.3-18.3-1.2-27.4c-0.8-8.6-1.8-17.1-3.3-25.6c-1-5.7-2.3-11.6-4.2-17.2
		C316.5,357.1,320.1,373.1,321,388.9z M309.8,358.3c1.7,8.3,2.6,16.8,3.5,25.3c1.7,16.9,2.6,34.1-0.9,50.8c-1.5,7-3.9,13.7-7,20.1
		c1.5-10.8,2.4-21.8,3-32.6c1.1-19.5,0.6-39-1.3-58.5c-0.9-8.5-1.9-17-3.5-25.5C306.2,344.6,308.4,351.2,309.8,358.3z M301.1,466.5
		c0.3-15.9,0.4-31.8,0.6-47.8c0.3-19,0.6-38.1,0.6-57.1c0-6.4,0.1-12.8,0-19.2c2.3,15.4,4,30.9,4.5,46.5c0.6,19.2-0.3,38.4-2.6,57.5
		C303.5,453.2,302.3,459.9,301.1,466.5z M300.5,357.6c0,9.5,0,19.1-0.2,28.6c-0.2,19-0.5,37.9-0.8,56.9c-0.1,6-0.2,12-0.3,18
		c-1.1-5.1-1.7-10.3-1.9-15.5c-0.4-8.8-0.4-17.5-0.4-26.3c0.1-18.3,0.6-36.6,1.2-54.8c0.3-9.1,0.8-18.2,2-27.2
		C300.2,344.1,300.5,350.9,300.5,357.6z M273.2,149c-5.1-10.6-6.5-22.9-4.3-34.4c2-10.6,6.8-19.5,13.6-27.4
		c-7.1,10.2-10.6,22.7-10.6,35.3c-0.1,9.9,0.5,20.8,3.5,30.7C274.7,151.8,273.9,150.5,273.2,149z M282.3,163.6
		c-6.8-12.3-8.4-26.1-8.4-40.2c0-14.2,4.1-27.3,12.6-38.4c-5.2,10.9-6.7,23.7-7.1,35.4c-0.3,9.7,0.1,19.4,1.4,29
		c0.7,5.1,1.3,10.6,2.7,15.8C283.1,164.7,282.7,164.2,282.3,163.6z M293.4,183.6c-1.5-3.6-3.2-7.1-5.1-10.5
		c-3.4-7.2-4.6-15.3-5.6-23.2c-1.3-9.4-1.7-19-1.5-28.5c0.5-16.3,3.2-32.6,13.3-45.6c-4.6,13.2-6.2,27.6-6.8,41.4
		c-0.8,18.5-1,37.2,3.1,55.4c0.8,3.7,1.7,7.4,2.6,11C293.5,183.7,293.4,183.7,293.4,183.6z M289.4,148.8
		c-0.6-17.6-0.5-35.8,2.3-53.2c1.4-8.4,3.6-16.5,6.6-24.4c-2.5,16.2-2.3,32.9-2.7,49.2c-0.5,19-1,38.1-0.2,57.2
		c0.1,3.1,0.3,6.2,0.7,9.2C292.7,174.3,289.8,161.7,289.4,148.8z M332.4,114.6c2.2,11.5,0.8,23.8-4.3,34.4c-1.8,3.7-4,7.1-6.2,10.5
		c2.1-4.6,3.7-9.6,5-14.4c2-7.8,2.8-15.9,2.4-24c-0.7-12.2-4.3-24.3-10.9-34.5C325.3,94.7,330.4,103.8,332.4,114.6z M327.2,121.6
		c0.4,7.7-0.4,15.5-2.3,23.1c-1.6,6.3-4.2,12.1-7,17.8c1.6-5.1,3.3-10.3,4.2-15.6c1.5-8.5,1.3-17.4,0.8-25.9
		c-0.9-13.6-3.8-27-10.1-39C321.5,93.3,326.5,107.2,327.2,121.6z M321,122.2c0.5,8.6,0.6,17.5-1.2,26c-1.2,5.5-3.3,10.9-4.8,16.3
		c1-5.8,1.5-11.6,1.7-17.2c0.3-9.2-0.3-18.3-1.2-27.4c-0.8-8.6-1.8-17.1-3.3-25.6c-1-5.7-2.3-11.6-4.2-17.2
		C316.5,90.5,320.1,106.5,321,122.2z M309.8,91.6c1.7,8.3,2.6,16.8,3.5,25.3c1.7,16.9,2.6,34.1-0.9,50.8c-1.5,7-3.9,13.7-7,20.1
		c1.5-10.8,2.4-21.8,3-32.6c1.1-19.5,0.6-39-1.3-58.5c-0.9-8.5-1.9-17-3.5-25.5C306.2,77.9,308.4,84.5,309.8,91.6z M301.1,199.9
		c0.3-15.9,0.4-31.8,0.6-47.8c0.3-19,0.6-38.1,0.6-57.1c0-6.4,0.1-12.8,0-19.2c2.3,15.4,4,30.9,4.5,46.5c0.6,19.2-0.3,38.4-2.6,57.5
		C303.5,186.5,302.3,193.2,301.1,199.9z M300.5,91c0,9.5,0,19.1-0.2,28.6c-0.2,19-0.5,37.9-0.8,56.9c-0.1,6-0.2,12-0.3,18
		c-1.1-5.1-1.7-10.3-1.9-15.5c-0.4-8.8-0.4-17.5-0.4-26.3c0.1-18.3,0.6-36.6,1.2-54.8c0.3-9.1,0.8-18.2,2-27.2
		C300.2,77.4,300.5,84.2,300.5,91z"/>
	<path class="st0" d="M432.6,800h2.9c1.2-7.7,0.9-15.6-0.8-23.2c-2.6-11.5-8.6-21.1-16.8-29.5c-4.4-4.6-9-9-12-14.7
		c-2.7-5-3.2-16.9-3.1-17.5c0.6-4.8,0.5-9.7,0.3-14.5c0.4-20.1,0.3-40.3-0.6-60.4c0.2-6.5,0.5-19.7,0.5-19.9
		c0.2-15.4,3.9-30.5,11-44.2c5.9-11.3,14.9-20.8,19.1-33c3.7-10.5,4.1-22.1,1.6-33c-2.6-11.5-8.6-21.1-16.8-29.5
		c-4.4-4.6-9-9-12-14.7c-0.2-0.4-0.4-0.9-0.6-1.3c-2-4.2-2.8-9-2.6-13.7c1.5-34.3,0.4-96.8,0.4-97.4c0.2-15.4,3.9-30.5,11-44.2
		c5.9-11.3,14.9-20.8,19.1-33c3.7-10.5,4.1-22.1,1.6-33c-2.6-11.5-8.6-21.1-16.8-29.5c-4.4-4.6-9-9-12-14.7c0,0,0-0.1,0-0.1
		c-2.3-4.3-3.1-9.1-2.8-13.9c1-15.7-0.6-31.7-0.8-47.4c0-0.8,0-1.6,0-2.3c0.1-12.1,0.4-24.3,0.4-36.4c0.1-3.8,0.2-7.7,0.3-11.5
		c0.1-0.2,0.1-0.4,0.1-0.6c0.2-15.4,3.9-30.5,11-44.2c5.9-11.3,14.9-20.8,19.1-33c1.1-3.2,1.9-6.5,2.4-9.8h-2.9
		c-0.8,4.9-2.3,9.8-4.5,14.3c-1.8,3.7-4,7.1-6.2,10.5c2.1-4.6,3.7-9.6,5-14.4c0.9-3.4,1.5-6.9,1.9-10.4h-2c-0.4,3.3-1,6.6-1.8,9.9
		c-1.6,6.3-4.2,12.1-7,17.8c1.6-5.1,3.3-10.3,4.2-15.6c0.7-4,1-8,1.1-12.1h-2c-0.1,4.5-0.5,9-1.5,13.4c-1.2,5.5-3.3,10.9-4.8,16.3
		c1-5.8,1.5-11.6,1.7-17.2c0.1-4.2,0.1-8.3-0.1-12.5h-2c0.5,11.1,0,22.1-2.3,33c-1.5,7-3.9,13.7-7,20.1c1.5-10.8,2.4-21.8,3-32.6
		C408.8,13.6,409,6.8,409,0h-1.9c0,15-0.9,30.1-2.8,45c-0.8,6.8-2,13.4-3.2,20.1c0.3-15.9,0.4-31.8,0.6-47.8
		c0.1-5.8,0.2-11.6,0.3-17.4h-1.9c-0.2,13.9-0.4,27.8-0.6,41.7c-0.1,6-0.2,12-0.3,18c-1.1-5.1-1.7-10.3-1.9-15.5
		c-0.4-8.8-0.4-17.5-0.4-26.3c0-6,0.1-11.9,0.2-17.9h-1.9c-0.3,14.3-0.5,28.6,0.1,42.8c0.1,3.1,0.3,6.2,0.7,9.2
		c-3.3-12.5-6.2-25.2-6.6-38c-0.2-4.7-0.3-9.3-0.3-14.1h-1.8c0,12.8,0.7,25.5,3.6,38c0.8,3.7,1.7,7.4,2.6,11c0,0,0-0.1-0.1-0.1
		c-1.5-3.6-3.2-7.1-5.1-10.5c-3.4-7.2-4.6-15.3-5.6-23.2c-0.7-5.1-1.1-10.1-1.4-15.2h-1.9c0.2,4.9,0.7,9.9,1.3,14.8
		c0.7,5.1,1.3,10.6,2.7,15.8c-0.4-0.6-0.8-1.1-1.1-1.7c-4.9-9-7.2-18.8-8-28.9h-2c0.4,6.2,1.4,12.5,3.2,18.4
		c-0.8-1.3-1.5-2.7-2.2-4.1c-2.2-4.5-3.7-9.3-4.5-14.3h-2.9c0.5,3.3,1.3,6.6,2.4,9.8c4.2,12.2,13.2,21.7,19.1,33
		c7.1,13.7,10.7,28.8,11,44.2c0,0.1,0,0.1,0,0.2c-0.1,1.7-0.1,3.5-0.1,5.2c-0.4,12.7-0.4,25.4-0.2,38.1c0,2.2,0,4.5,0,6.7
		c-0.2,19.1-0.3,38.1-0.4,57.2c-0.5,1.7-1.2,3.3-2.1,4.9c-3,5.6-7.6,10.1-12,14.7c-8.1,8.4-14.1,18-16.8,29.5
		c-2.5,10.9-2,22.4,1.6,33c4.2,12.2,13.2,21.7,19.1,33c0.4,0.8,0.8,1.6,1.2,2.3c6.1,12.6,9,26.5,9,40.5c0,20.6,1,76.2,0.7,106.5
		c-0.6,2.5-1.5,4.9-2.7,7.2c-3,5.6-7.6,10.1-12,14.7c-8.1,8.4-14.1,18-16.8,29.5c-2.5,10.8-2,22.4,1.6,33
		c4.2,12.2,13.8,21.4,19.1,33c11.7,25.6,10.2,56.6,10.7,67c-0.1,7.3,0,14.7,0,21.9c0.1,8.3,0.2,16.5,0.5,24.8
		c0.2,4.6,0.5,9.1,0.6,13.7c-0.1,3.9-0.2,7.8-0.3,11.6c0,0.5-0.8,12.5-3.4,17.5c-3,5.6-7.6,10.1-12,14.7c-8.1,8.4-14.1,18-16.8,29.5
		c-1.7,7.6-2,15.5-0.8,23.2h2.9c-1.1-6.7-1-13.5,0.2-20.1c2-10.6,6.8-19.5,13.6-27.4c-7.1,10.2-10.6,22.7-10.6,35.3
		c0,4,0.1,8.1,0.3,12.3h2c-0.3-3.7-0.4-7.5-0.4-11.3c0-14.2,4.1-27.3,12.6-38.4c-5.2,10.9-6.7,23.7-7.1,35.4
		c-0.2,4.8-0.1,9.5,0.1,14.3h1.9c-0.2-4.4-0.2-8.9-0.1-13.3c0.5-16.3,3.2-32.6,13.3-45.6c-4.6,13.2-6.2,27.6-6.8,41.4
		c-0.3,5.8-0.5,11.6-0.5,17.4h1.8c-0.1-13.1,0.5-26.3,2.6-39.2c1.4-8.4,3.6-16.5,6.6-24.4c-2.5,16.2-2.3,32.9-2.7,49.2
		c-0.1,4.8-0.3,9.5-0.4,14.3h1.9c0.2-12.3,0.6-24.6,0.9-36.9c0.3-9.1,0.8-18.2,2-27.2c0.1,6.8,0.4,13.6,0.4,20.3
		c0,9.5,0,19.1-0.2,28.6c-0.1,5.1-0.1,10.1-0.2,15.2h1.9c0.2-13.3,0.4-26.5,0.4-39.8c0-6.4,0.1-12.8,0-19.2
		c2.3,15.4,4,30.9,4.5,46.5c0.1,4.1,0.2,8.3,0.2,12.5h1.9c0-12.7-0.6-25.4-1.9-38c-0.9-8.5-1.9-17-3.5-25.5
		c2.6,6.6,4.8,13.3,6.2,20.3c1.7,8.3,2.6,16.8,3.5,25.3c0.6,5.9,1.1,11.9,1.4,17.9h2c-0.2-5-0.6-10-1.1-14.9
		c-0.8-8.6-1.8-17.1-3.3-25.6c-1-5.7-2.3-11.6-4.2-17.2c8.4,13.5,12,29.5,13,45.2c0.2,4.1,0.4,8.4,0.3,12.6h2
		c0.1-4.6-0.1-9.3-0.4-13.8c-0.9-13.6-3.8-27-10.1-39c8.7,11.4,13.7,25.3,14.5,39.6c0.2,4.4,0.1,8.8-0.5,13.2h2
		c0.5-4.5,0.7-9.1,0.4-13.6c-0.7-12.2-4.3-24.3-10.9-34.5c7.1,8.1,12.1,17.1,14.1,27.9C433.6,786.5,433.7,793.3,432.6,800z
		 M432.4,246.5c2.2,11.5,0.8,23.8-4.3,34.4c-1.8,3.7-4,7.1-6.2,10.5c2.1-4.6,3.7-9.6,5-14.4c2-7.8,2.8-15.9,2.4-24
		c-0.7-12.2-4.3-24.3-10.9-34.5C425.3,226.7,430.4,235.7,432.4,246.5z M427.2,253.5c0.4,7.7-0.4,15.5-2.3,23.1
		c-1.6,6.3-4.2,12.1-7,17.8c1.6-5.1,3.3-10.3,4.2-15.6c1.5-8.5,1.3-17.4,0.8-25.9c-0.9-13.6-3.8-27-10.1-39
		C421.5,225.3,426.5,239.1,427.2,253.5z M421,254.1c0.5,8.6,0.6,17.5-1.2,26c-1.2,5.5-3.3,10.9-4.8,16.3c1-5.8,1.5-11.6,1.7-17.2
		c0.3-9.2-0.3-18.3-1.2-27.4c-0.8-8.6-1.8-17.1-3.3-25.6c-1-5.7-2.3-11.6-4.2-17.2C416.5,222.4,420.1,238.4,421,254.1z M409.8,223.5
		c1.7,8.3,2.6,16.8,3.5,25.3c1.7,16.9,2.6,34.1-0.9,50.8c-1.5,7-3.9,13.7-7,20.1c1.5-10.8,2.4-21.8,3-32.6c1.1-19.5,0.6-39-1.3-58.5
		c-0.9-8.5-1.9-17-3.5-25.5C406.2,209.8,408.4,216.4,409.8,223.5z M373.2,281c-5.1-10.6-6.5-22.9-4.3-34.4
		c2-10.6,6.8-19.5,13.6-27.4c-7.1,10.2-10.6,22.7-10.6,35.3c-0.1,9.9,0.5,20.8,3.5,30.7C374.7,283.7,373.9,282.4,373.2,281z
		 M382.3,295.5c-6.8-12.3-8.4-26.1-8.4-40.2c0-14.2,4.1-27.3,12.6-38.4c-5.2,10.9-6.7,23.7-7.1,35.4c-0.3,9.7,0.1,19.4,1.4,29
		c0.7,5.1,1.3,10.6,2.7,15.8C383.1,296.7,382.7,296.1,382.3,295.5z M393.4,315.5c-1.5-3.6-3.2-7.1-5.1-10.5
		c-3.4-7.2-4.6-15.3-5.6-23.2c-1.3-9.4-1.7-19-1.5-28.5c0.5-16.3,3.2-32.6,13.3-45.6c-4.6,13.2-6.2,27.6-6.8,41.4
		c-0.8,18.5-1,37.2,3.1,55.4c0.8,3.7,1.7,7.4,2.6,11C393.5,315.6,393.4,315.6,393.4,315.5z M389.4,280.7
		c-0.6-17.6-0.5-35.8,2.3-53.2c1.4-8.4,3.6-16.5,6.6-24.4c-2.5,16.2-2.3,32.9-2.7,49.2c-0.5,19-1,38.1-0.2,57.2
		c0.1,3.1,0.3,6.2,0.7,9.2C392.7,306.2,389.8,293.6,389.4,280.7z M397.2,310.9c-0.4-8.8-0.4-17.5-0.4-26.3
		c0.1-18.3,0.6-36.6,1.2-54.8c0.3-9.1,0.8-18.2,2-27.2c0.1,6.8,0.4,13.6,0.4,20.3c0,9.5,0,19.1-0.2,28.6c-0.2,19-0.5,37.9-0.8,56.9
		c-0.1,6-0.2,12-0.3,18C398,321.3,397.5,316.1,397.2,310.9z M401.8,284c0.3-19,0.6-38.1,0.6-57.1c0-6.4,0.1-12.8,0-19.2
		c2.3,15.4,4,30.9,4.5,46.5c0.6,19.2-0.3,38.4-2.6,57.5c-0.8,6.8-2,13.4-3.2,20.1C401.4,315.9,401.5,300,401.8,284z M432.4,513.2
		c2.2,11.5,0.8,23.8-4.3,34.4c-1.8,3.7-4,7.1-6.2,10.5c2.1-4.6,3.7-9.6,5-14.4c2-7.8,2.8-15.9,2.4-24c-0.7-12.2-4.3-24.3-10.9-34.5
		C425.3,493.3,430.4,502.4,432.4,513.2z M427.2,520.1c0.4,7.7-0.4,15.5-2.3,23.1c-1.6,6.3-4.2,12.1-7,17.8
		c1.6-5.1,3.3-10.3,4.2-15.6c1.5-8.5,1.3-17.4,0.8-25.9c-0.9-13.6-3.8-27-10.1-39C421.5,491.9,426.5,505.8,427.2,520.1z M421,520.8
		c0.5,8.6,0.6,17.5-1.2,26c-1.2,5.5-3.3,10.9-4.8,16.3c1-5.8,1.5-11.6,1.7-17.2c0.3-9.2-0.3-18.3-1.2-27.4
		c-0.8-8.6-1.8-17.1-3.3-25.6c-1-5.7-2.3-11.6-4.2-17.2C416.5,489,420.1,505.1,421,520.8z M409.8,490.2c1.7,8.3,2.6,16.8,3.5,25.3
		c1.7,16.9,2.6,34.1-0.9,50.8c-1.5,7-3.9,13.7-7,20.1c1.5-10.8,2.4-21.8,3-32.6c1.1-19.5,0.6-39-1.3-58.5c-0.9-8.5-1.9-17-3.5-25.5
		C406.2,476.5,408.4,483.1,409.8,490.2z M373.2,547.6c-5.1-10.6-6.5-22.9-4.3-34.4c2-10.6,6.8-19.5,13.6-27.4
		c-7.1,10.2-10.6,22.7-10.6,35.3c-0.1,9.9,0.5,20.8,3.5,30.7C374.7,550.4,373.9,549,373.2,547.6z M382.3,562.2
		c-6.8-12.3-8.4-26.1-8.4-40.2c0-14.2,4.1-27.3,12.6-38.4c-5.2,10.9-6.7,23.7-7.1,35.4c-0.3,9.7,0.1,19.4,1.4,29
		c0.7,5.1,1.3,10.6,2.7,15.8C383.1,563.3,382.7,562.8,382.3,562.2z M393.4,582.2c-1.5-3.6-3.2-7.1-5.1-10.5
		c-3.4-7.2-4.6-15.3-5.6-23.2c-1.3-9.4-1.7-19-1.5-28.5c0.5-16.3,3.2-32.6,13.3-45.6c-4.6,13.2-6.2,27.6-6.8,41.4
		c-0.8,18.5-1,37.2,3.1,55.4c0.8,3.7,1.7,7.4,2.6,11C393.5,582.3,393.4,582.3,393.4,582.2z M389.4,547.4
		c-0.6-17.6-0.5-35.8,2.3-53.2c1.4-8.4,3.6-16.5,6.6-24.4c-2.5,16.2-2.3,32.9-2.7,49.2c-0.5,19-1,38.1-0.2,57.2
		c0.1,3.1,0.3,6.2,0.7,9.2C392.7,572.9,389.8,560.2,389.4,547.4z M397.2,577.5c-0.4-8.8-0.4-17.5-0.4-26.3
		c0.1-18.3,0.6-36.6,1.2-54.8c0.3-9.1,0.8-18.2,2-27.2c0.1,6.8,0.4,13.6,0.4,20.3c0,9.5,0,19.1-0.2,28.6c-0.2,19-0.5,37.9-0.8,56.9
		c-0.1,6-0.2,12-0.3,18C398,587.9,397.5,582.8,397.2,577.5z M401.8,550.7c0.3-19,0.6-38.1,0.6-57.1c0-6.4,0.1-12.8,0-19.2
		c2.3,15.4,4,30.9,4.5,46.5c0.6,19.2-0.3,38.4-2.6,57.5c-0.8,6.8-2,13.4-3.2,20.1C401.4,582.5,401.5,566.6,401.8,550.7z"/>
	<path class="st0" d="M503.9,752.7c0.1-3.2,0.5-9.4,0.7-13c0.1-1,0.2-2,0.4-2.9c1.8-9,4.8-17.7,9-25.9c5.9-11.3,14.9-20.8,19.1-33
		c3.7-10.5,4.1-22.1,1.6-33c-2.6-11.5-8.6-21.1-16.8-29.5c-4.4-4.6-9-9-12-14.7c-2.7-5-3.2-16.9-3.1-17.5c0.6-4.8,0.5-9.7,0.3-14.5
		c0.4-20.1,0.3-40.3-0.6-60.4c0.2-6.5,0.5-19.7,0.5-19.9c0.2-15.4,3.9-30.5,11-44.2c5.9-11.3,14.9-20.8,19.1-33
		c3.7-10.5,4.1-22.1,1.6-33c-2.6-11.5-8.6-21.1-16.8-29.5c-4.4-4.6-9-9-12-14.7c-0.2-0.4-0.4-0.9-0.6-1.3c-2-4.2-2.8-9-2.6-13.7
		c1.5-34.3,0.4-96.8,0.4-97.4c0.2-15.4,3.9-30.5,11-44.2c5.9-11.3,14.9-20.8,19.1-33c3.7-10.5,4.1-22.1,1.6-33
		c-2.6-11.5-8.6-21.1-16.8-29.5c-4.4-4.6-9-9-12-14.7c0,0,0-0.1,0-0.1c-2.2-3.1-1.7-31-1.9-35.8c0.2-10.5,0.3-21,0.1-31.5h-5.2
		c0.1,7,0.2,14,0.5,20.9c0.2,4.5,0.5,9,0.6,13.4c-0.1,3.8-1.4,25.8-4.6,33c-2.6,5.8-7.6,10.1-12,14.7c-8.1,8.4-14.1,18-16.8,29.5
		c-2.5,10.9-2,22.4,1.6,33c4.2,12.2,13.2,21.7,19.1,33c0.4,0.8,0.8,1.6,1.2,2.3c6.1,12.6,9,26.5,9,40.5c0,20.6,1,76.2,0.7,106.5
		c-0.6,2.5-1.5,4.9-2.7,7.2c-3,5.6-7.6,10.1-12,14.7c-8.1,8.4-14.1,18-16.8,29.5c-2.5,10.8-2,22.4,1.6,33
		c4.2,12.2,13.8,21.4,19.1,33c11.7,25.6,10.2,56.6,10.7,67c-0.1,7.3,0,14.7,0,21.9c0.1,8.3,0.2,16.5,0.5,24.8
		c0.2,4.6,0.5,9.1,0.6,13.7c-0.1,3.9-0.2,7.8-0.3,11.6c0,0.5-0.8,12.5-3.4,17.5c-3,5.6-7.6,10.1-12,14.7c-8.1,8.4-14.1,18-16.8,29.5
		c-2.5,10.8-2,22.4,1.6,33c4.2,12.2,13.2,21.7,19.1,33c4.6,8.9,7.8,18.5,9.5,28.3c0.7,4.4,1.7,29.9,2,35.9c-0.1,7.2,0,14.4,0,21.5
		c0,1.1,0,2.2,0,3.4h5.2c-0.1-9.3-0.3-18.5-0.7-27.8C503.6,765.9,503.9,752.9,503.9,752.7z M532.4,114.6c2.2,11.5,0.8,23.8-4.3,34.4
		c-1.8,3.7-4,7.1-6.2,10.5c2.1-4.6,3.7-9.6,5-14.4c2-7.8,2.8-15.9,2.4-24c-0.7-12.2-4.3-24.3-10.9-34.5
		C525.3,94.7,530.4,103.8,532.4,114.6z M527.2,121.6c0.4,7.7-0.4,15.5-2.3,23.1c-1.6,6.3-4.2,12.1-7,17.8c1.6-5.1,3.3-10.3,4.2-15.6
		c1.5-8.5,1.3-17.4,0.8-25.9c-0.9-13.6-3.8-27-10.1-39C521.5,93.3,526.5,107.2,527.2,121.6z M521,122.2c0.5,8.6,0.6,17.5-1.2,26
		c-1.2,5.5-3.3,10.9-4.8,16.3c1-5.8,1.5-11.6,1.7-17.2c0.3-9.2-0.3-18.3-1.2-27.4c-0.8-8.6-1.8-17.1-3.3-25.6
		c-1-5.7-2.3-11.6-4.2-17.2C516.5,90.5,520.1,106.5,521,122.2z M509.8,91.6c1.7,8.3,2.6,16.8,3.5,25.3c1.7,16.9,2.6,34.1-0.9,50.8
		c-1.5,7-3.9,13.7-7,20.1c1.5-10.8,2.4-21.8,3-32.6c1.1-19.5,0.6-39-1.3-58.5c-0.9-8.5-1.9-17-3.5-25.5
		C506.2,77.9,508.4,84.5,509.8,91.6z M473.2,149c-5.1-10.6-6.5-22.9-4.3-34.4c2-10.6,6.8-19.5,13.6-27.4
		c-7.1,10.2-10.6,22.7-10.6,35.3c-0.1,9.9,0.5,20.8,3.5,30.7C474.7,151.8,473.9,150.5,473.2,149z M482.3,163.6
		c-6.8-12.3-8.4-26.1-8.4-40.2c0-14.2,4.1-27.3,12.6-38.4c-5.2,10.9-6.7,23.7-7.1,35.4c-0.3,9.7,0.1,19.4,1.4,29
		c0.7,5.1,1.3,10.6,2.7,15.8C483.1,164.7,482.7,164.2,482.3,163.6z M493.4,183.6c-1.5-3.6-3.2-7.1-5.1-10.5
		c-3.4-7.2-4.6-15.3-5.6-23.2c-1.3-9.4-1.7-19-1.5-28.5c0.5-16.3,3.2-32.6,13.3-45.6c-4.6,13.2-6.2,27.6-6.8,41.4
		c-0.8,18.5-1,37.2,3.1,55.4c0.8,3.7,1.7,7.4,2.6,11C493.5,183.7,493.4,183.7,493.4,183.6z M489.4,148.8
		c-0.6-17.6-0.5-35.8,2.3-53.2c1.4-8.4,3.6-16.5,6.6-24.4c-2.5,16.2-2.3,32.9-2.7,49.2c-0.5,19-1,38.1-0.2,57.2
		c0.1,3.1,0.3,6.2,0.7,9.2C492.7,174.3,489.8,161.7,489.4,148.8z M497.2,179c-0.4-8.8-0.4-17.5-0.4-26.3c0.1-18.3,0.6-36.6,1.2-54.8
		c0.3-9.1,0.8-18.2,2-27.2c0.1,6.8,0.4,13.6,0.4,20.3c0,9.5,0,19.1-0.2,28.6c-0.2,19-0.5,37.9-0.8,56.9c-0.1,6-0.2,12-0.3,18
		C498,189.4,497.5,184.2,497.2,179z M501.8,152.1c0.3-19,0.6-38.1,0.6-57.1c0-6.4,0.1-12.8,0-19.2c2.3,15.4,4,30.9,4.5,46.5
		c0.6,19.2-0.3,38.4-2.6,57.5c-0.8,6.8-2,13.4-3.2,20.1C501.4,184,501.5,168,501.8,152.1z M532.4,381.3c2.2,11.5,0.8,23.8-4.3,34.4
		c-1.8,3.7-4,7.1-6.2,10.5c2.1-4.6,3.7-9.6,5-14.4c2-7.8,2.8-15.9,2.4-24c-0.7-12.2-4.3-24.3-10.9-34.5
		C525.3,361.4,530.4,370.5,532.4,381.3z M527.2,388.2c0.4,7.7-0.4,15.5-2.3,23.1c-1.6,6.3-4.2,12.1-7,17.8
		c1.6-5.1,3.3-10.3,4.2-15.6c1.5-8.5,1.3-17.4,0.8-25.9c-0.9-13.6-3.8-27-10.1-39C521.5,360,526.5,373.9,527.2,388.2z M521,388.9
		c0.5,8.6,0.6,17.5-1.2,26c-1.2,5.5-3.3,10.9-4.8,16.3c1-5.8,1.5-11.6,1.7-17.2c0.3-9.2-0.3-18.3-1.2-27.4
		c-0.8-8.6-1.8-17.1-3.3-25.6c-1-5.7-2.3-11.6-4.2-17.2C516.5,357.1,520.1,373.1,521,388.9z M509.8,358.3c1.7,8.3,2.6,16.8,3.5,25.3
		c1.7,16.9,2.6,34.1-0.9,50.8c-1.5,7-3.9,13.7-7,20.1c1.5-10.8,2.4-21.8,3-32.6c1.1-19.5,0.6-39-1.3-58.5c-0.9-8.5-1.9-17-3.5-25.5
		C506.2,344.6,508.4,351.2,509.8,358.3z M473.2,415.7c-5.1-10.6-6.5-22.9-4.3-34.4c2-10.6,6.8-19.5,13.6-27.4
		c-7.1,10.2-10.6,22.7-10.6,35.3c-0.1,9.9,0.5,20.8,3.5,30.7C474.7,418.5,473.9,417.1,473.2,415.7z M482.3,430.3
		c-6.8-12.3-8.4-26.1-8.4-40.2c0-14.2,4.1-27.3,12.6-38.4c-5.2,10.9-6.7,23.7-7.1,35.4c-0.3,9.7,0.1,19.4,1.4,29
		c0.7,5.1,1.3,10.6,2.7,15.8C483.1,431.4,482.7,430.8,482.3,430.3z M493.4,450.3c-1.5-3.6-3.2-7.1-5.1-10.5
		c-3.4-7.2-4.6-15.3-5.6-23.2c-1.3-9.4-1.7-19-1.5-28.5c0.5-16.3,3.2-32.6,13.3-45.6c-4.6,13.2-6.2,27.6-6.8,41.4
		c-0.8,18.5-1,37.2,3.1,55.4c0.8,3.7,1.7,7.4,2.6,11C493.5,450.4,493.4,450.3,493.4,450.3z M489.4,415.5
		c-0.6-17.6-0.5-35.8,2.3-53.2c1.4-8.4,3.6-16.5,6.6-24.4c-2.5,16.2-2.3,32.9-2.7,49.2c-0.5,19-1,38.1-0.2,57.2
		c0.1,3.1,0.3,6.2,0.7,9.2C492.7,441,489.8,428.3,489.4,415.5z M497.2,445.6c-0.4-8.8-0.4-17.5-0.4-26.3c0.1-18.3,0.6-36.6,1.2-54.8
		c0.3-9.1,0.8-18.2,2-27.2c0.1,6.8,0.4,13.6,0.4,20.3c0,9.5,0,19.1-0.2,28.6c-0.2,19-0.5,37.9-0.8,56.9c-0.1,6-0.2,12-0.3,18
		C498,456,497.5,450.8,497.2,445.6z M501.8,418.8c0.3-19,0.6-38.1,0.6-57.1c0-6.4,0.1-12.8,0-19.2c2.3,15.4,4,30.9,4.5,46.5
		c0.6,19.2-0.3,38.4-2.6,57.5c-0.8,6.8-2,13.4-3.2,20.1C501.4,450.6,501.5,434.7,501.8,418.8z M532.4,647.9
		c2.2,11.5,0.8,23.8-4.3,34.4c-1.8,3.7-4,7.1-6.2,10.5c2.1-4.6,3.7-9.6,5-14.4c2-7.8,2.8-15.9,2.4-24c-0.7-12.2-4.3-24.3-10.9-34.5
		C525.3,628.1,530.4,637.1,532.4,647.9z M527.2,654.9c0.4,7.7-0.4,15.5-2.3,23.1c-1.6,6.3-4.2,12.1-7,17.8
		c1.6-5.1,3.3-10.3,4.2-15.6c1.5-8.5,1.3-17.4,0.8-25.9c-0.9-13.6-3.8-27-10.1-39C521.5,626.7,526.5,640.5,527.2,654.9z M521,655.5
		c0.5,8.6,0.6,17.5-1.2,26c-1.2,5.5-3.3,10.9-4.8,16.3c1-5.8,1.5-11.6,1.7-17.2c0.3-9.2-0.3-18.3-1.2-27.4
		c-0.8-8.6-1.8-17.1-3.3-25.6c-1-5.7-2.3-11.6-4.2-17.2C516.5,623.8,520.1,639.8,521,655.5z M509.8,624.9c1.7,8.3,2.6,16.8,3.5,25.3
		c1.7,16.9,2.6,34.1-0.9,50.9c-1.5,7-3.9,13.7-7,20.1c1.5-10.8,2.4-21.8,3-32.6c1.1-19.5,0.6-39-1.3-58.5c-0.9-8.5-1.9-17-3.5-25.5
		C506.2,611.2,508.4,617.9,509.8,624.9z M473.2,682.4c-5.1-10.6-6.5-22.9-4.3-34.4c2-10.6,6.8-19.5,13.6-27.4
		c-7.1,10.2-10.6,22.7-10.6,35.3c-0.1,9.9,0.5,20.8,3.5,30.7C474.7,685.2,473.9,683.8,473.2,682.4z M482.3,696.9
		c-6.8-12.3-8.4-26.1-8.4-40.2c0-14.2,4.1-27.3,12.6-38.4c-5.2,10.9-6.7,23.7-7.1,35.4c-0.3,9.7,0.1,19.4,1.4,29
		c0.7,5.1,1.3,10.6,2.7,15.8C483.1,698.1,482.7,697.5,482.3,696.9z M493.4,717c-1.5-3.6-3.2-7.1-5.1-10.5
		c-3.4-7.2-4.6-15.3-5.6-23.2c-1.3-9.4-1.7-19-1.5-28.5c0.5-16.3,3.2-32.6,13.3-45.6c-4.6,13.2-6.2,27.6-6.8,41.4
		c-0.8,18.5-1,37.2,3.1,55.4c0.8,3.7,1.7,7.4,2.6,11C493.5,717.1,493.4,717,493.4,717z M489.4,682.1c-0.6-17.6-0.5-35.8,2.3-53.2
		c1.4-8.4,3.6-16.5,6.6-24.4c-2.5,16.2-2.3,32.9-2.7,49.2c-0.5,19-1,38.1-0.2,57.2c0.1,3.1,0.3,6.2,0.7,9.2
		C492.7,707.6,489.8,695,489.4,682.1z M497.2,712.3c-0.4-8.8-0.4-17.5-0.4-26.3c0.1-18.3,0.6-36.6,1.2-54.8c0.3-9.1,0.8-18.2,2-27.2
		c0.1,6.8,0.4,13.6,0.4,20.3c0,9.5,0,19.1-0.2,28.6c-0.2,19-0.5,37.9-0.8,56.9c-0.1,6-0.2,12-0.3,18
		C498,722.7,497.5,717.5,497.2,712.3z M501.8,685.5c0.3-19,0.6-38.1,0.6-57.1c0-6.4,0.1-12.8,0-19.2c2.3,15.4,4,30.9,4.5,46.5
		c0.6,19.2-0.3,38.4-2.6,57.5c-0.8,6.8-2,13.4-3.2,20.1C501.4,717.3,501.5,701.4,501.8,685.5z"/>
	<path class="st0" d="M634.7,776.8c-2.6-11.5-8.6-21.1-16.8-29.5c-4.4-4.6-9-9-12-14.7c-2.7-5-3.2-16.9-3.1-17.5
		c0.6-4.8,0.5-9.7,0.3-14.5c0.4-20.1,0.3-40.3-0.6-60.4c0.2-6.5,0.5-19.7,0.5-19.9c0.2-15.4,3.9-30.5,11-44.2
		c5.9-11.3,14.9-20.8,19.1-33c3.7-10.5,4.1-22.1,1.6-33c-2.6-11.5-8.6-21.1-16.8-29.5c-4.4-4.6-9-9-12-14.7
		c-0.2-0.4-0.4-0.9-0.6-1.3c-2-4.2-2.8-9-2.6-13.7c1.5-34.3,0.4-96.8,0.4-97.4c0.2-15.4,3.9-30.5,11-44.2
		c5.9-11.3,14.9-20.8,19.1-33c3.7-10.5,4.1-22.1,1.6-33c-2.6-11.5-8.6-21.1-16.8-29.5c-4.4-4.6-9-9-12-14.7c0,0,0-0.1,0-0.1
		c-2.3-4.3-3.1-9.1-2.8-13.9c1-15.7-0.6-31.7-0.8-47.4c0-0.8,0-1.6,0-2.3c0.1-12.1,0.4-24.3,0.4-36.4c0.1-3.8,0.2-7.7,0.3-11.5
		c0.1-0.2,0.1-0.4,0.1-0.6c0.2-15.4,3.9-30.5,11-44.2c5.9-11.3,14.9-20.8,19.1-33c1.1-3.2,1.9-6.5,2.4-9.8h-2.9
		c-0.8,4.9-2.3,9.8-4.5,14.3c-1.8,3.7-4,7.1-6.2,10.5c2.1-4.6,3.7-9.6,5-14.4c0.9-3.4,1.5-6.9,1.9-10.4h-2c-0.4,3.3-1,6.6-1.8,9.9
		c-1.6,6.3-4.2,12.1-7,17.8c1.6-5.1,3.3-10.3,4.2-15.6c0.7-4,1-8,1.1-12.1h-2c-0.1,4.5-0.5,9-1.5,13.4c-1.2,5.5-3.3,10.9-4.8,16.3
		c1-5.8,1.5-11.6,1.7-17.2c0.1-4.2,0.1-8.3-0.1-12.5h-2c0.5,11.1,0,22.1-2.3,33c-1.5,7-3.9,13.7-7,20.1c1.5-10.8,2.4-21.8,3-32.6
		C608.8,13.6,609,6.8,609,0h-1.9c0,15-0.9,30.1-2.8,45c-0.8,6.8-2,13.4-3.2,20.1c0.3-15.9,0.4-31.8,0.6-47.8
		c0.1-5.8,0.2-11.6,0.3-17.4h-1.9c-0.2,13.9-0.4,27.8-0.6,41.7c-0.1,6-0.2,12-0.3,18c-1.1-5.1-1.7-10.3-1.9-15.5
		c-0.4-8.8-0.4-17.5-0.4-26.3c0-6,0.1-11.9,0.2-17.9h-1.9c-0.3,14.3-0.5,28.6,0.1,42.8c0.1,3.1,0.3,6.2,0.7,9.2
		c-3.3-12.5-6.2-25.2-6.6-38c-0.2-4.7-0.3-9.3-0.3-14.1h-1.8c0,12.8,0.7,25.5,3.6,38c0.8,3.7,1.7,7.4,2.6,11c0,0,0-0.1-0.1-0.1
		c-1.5-3.6-3.2-7.1-5.1-10.5c-3.4-7.2-4.6-15.3-5.6-23.2c-0.7-5.1-1.1-10.1-1.4-15.2h-1.9c0.2,4.9,0.7,9.9,1.3,14.8
		c0.7,5.1,1.3,10.6,2.7,15.8c-0.4-0.6-0.8-1.1-1.1-1.7c-4.9-9-7.2-18.8-8-28.9h-2c0.4,6.2,1.4,12.5,3.2,18.4
		c-0.8-1.3-1.5-2.7-2.2-4.1c-2.2-4.5-3.7-9.3-4.5-14.3h-2.9c0.5,3.3,1.3,6.6,2.4,9.8c4.2,12.2,13.2,21.7,19.1,33
		c7.1,13.7,10.7,28.8,11,44.2c0,0.1,0,0.1,0,0.2c-0.1,1.7-0.1,3.5-0.1,5.2c-0.4,12.7-0.4,25.4-0.2,38.1c0,2.2,0,4.5,0,6.7
		c-0.2,19.1-0.3,38.1-0.4,57.2c-0.5,1.7-1.2,3.3-2.1,4.9c-3,5.6-7.6,10.1-12,14.7c-8.1,8.4-14.1,18-16.8,29.5
		c-2.5,10.9-2,22.4,1.6,33c4.2,12.2,13.2,21.7,19.1,33c0.4,0.8,0.8,1.6,1.2,2.3c6.1,12.6,9,26.5,9,40.5c0,20.6,1,76.2,0.7,106.5
		c-0.6,2.5-1.5,4.9-2.7,7.2c-3,5.6-7.6,10.1-12,14.7c-8.1,8.4-14.1,18-16.8,29.5c-2.5,10.8-2,22.4,1.6,33
		c4.2,12.2,13.8,21.4,19.1,33c11.7,25.6,10.2,56.6,10.7,67c-0.1,7.3,0,14.7,0,21.9c0.1,8.3,0.2,16.5,0.5,24.8
		c0.2,4.6,0.5,9.1,0.6,13.7c-0.1,3.9-0.2,7.8-0.3,11.6c0,0.5-0.8,12.5-3.4,17.5c-3,5.6-7.6,10.1-12,14.7c-8.1,8.4-14.1,18-16.8,29.5
		c-1.7,7.6-2,15.5-0.8,23.2h2.9c-1.1-6.7-1-13.5,0.2-20.1c2-10.6,6.8-19.5,13.6-27.4c-7.1,10.2-10.6,22.7-10.6,35.3
		c0,4,0.1,8.1,0.3,12.3h2c-0.3-3.7-0.4-7.5-0.4-11.3c0-14.2,4.1-27.3,12.6-38.4c-5.2,10.9-6.7,23.7-7.1,35.4
		c-0.2,4.8-0.1,9.5,0.1,14.3h1.9c-0.2-4.4-0.2-8.9-0.1-13.3c0.5-16.3,3.2-32.6,13.3-45.6c-4.6,13.2-6.2,27.6-6.8,41.4
		c-0.3,5.8-0.5,11.6-0.5,17.4h1.8c-0.1-13.1,0.5-26.3,2.6-39.2c1.4-8.4,3.6-16.5,6.6-24.4c-2.5,16.2-2.3,32.9-2.7,49.2
		c-0.1,4.8-0.3,9.5-0.4,14.3h1.9c0.2-12.3,0.6-24.6,0.9-36.9c0.3-9.1,0.8-18.2,2-27.2c0.1,6.8,0.4,13.6,0.4,20.3
		c0,9.5,0,19.1-0.2,28.6c-0.1,5.1-0.1,10.1-0.2,15.2h1.9c0.2-13.3,0.4-26.5,0.4-39.8c0-6.4,0.1-12.8,0-19.2
		c2.3,15.4,4,30.9,4.5,46.5c0.1,4.1,0.2,8.3,0.2,12.5h1.9c0-12.7-0.6-25.4-1.9-38c-0.9-8.5-1.9-17-3.5-25.5
		c2.6,6.6,4.8,13.3,6.2,20.3c1.7,8.3,2.6,16.8,3.5,25.3c0.6,5.9,1.1,11.9,1.4,17.9h2c-0.2-5-0.6-10-1.1-14.9
		c-0.8-8.6-1.8-17.1-3.3-25.6c-1-5.7-2.3-11.6-4.2-17.2c8.4,13.5,12,29.5,13,45.2c0.2,4.1,0.4,8.4,0.3,12.6h2
		c0.1-4.6-0.1-9.3-0.4-13.8c-0.9-13.6-3.8-27-10.1-39c8.7,11.4,13.7,25.3,14.5,39.6c0.2,4.4,0.1,8.8-0.5,13.2h2
		c0.5-4.5,0.7-9.1,0.4-13.6c-0.7-12.2-4.3-24.3-10.9-34.5c7.1,8.1,12.1,17.1,14.1,27.9c1.2,6.6,1.3,13.5,0.2,20.1h2.9
		C636.7,792.3,636.4,784.4,634.7,776.8z M632.4,246.5c2.2,11.5,0.8,23.8-4.3,34.4c-1.8,3.7-4,7.1-6.2,10.5c2.1-4.6,3.7-9.6,5-14.4
		c2-7.8,2.8-15.9,2.4-24c-0.7-12.2-4.3-24.3-10.9-34.5C625.3,226.7,630.4,235.7,632.4,246.5z M627.2,253.5
		c0.4,7.7-0.4,15.5-2.3,23.1c-1.6,6.3-4.2,12.1-7,17.8c1.6-5.1,3.3-10.3,4.2-15.6c1.5-8.5,1.3-17.4,0.8-25.9
		c-0.9-13.6-3.8-27-10.1-39C621.5,225.3,626.5,239.1,627.2,253.5z M621,254.1c0.5,8.6,0.6,17.5-1.2,26c-1.2,5.5-3.3,10.9-4.8,16.3
		c1-5.8,1.5-11.6,1.7-17.2c0.3-9.2-0.3-18.3-1.2-27.4c-0.8-8.6-1.8-17.1-3.3-25.6c-1-5.7-2.3-11.6-4.2-17.2
		C616.5,222.4,620.1,238.4,621,254.1z M609.8,223.5c1.7,8.3,2.6,16.8,3.5,25.3c1.7,16.9,2.6,34.1-0.9,50.8c-1.5,7-3.9,13.7-7,20.1
		c1.5-10.8,2.4-21.8,3-32.6c1.1-19.5,0.6-39-1.3-58.5c-0.9-8.5-1.9-17-3.5-25.5C606.2,209.8,608.4,216.4,609.8,223.5z M573.2,281
		c-5.1-10.6-6.5-22.9-4.3-34.4c2-10.6,6.8-19.5,13.6-27.4c-7.1,10.2-10.6,22.7-10.6,35.3c-0.1,9.9,0.5,20.8,3.5,30.7
		C574.7,283.7,573.9,282.4,573.2,281z M582.3,295.5c-6.8-12.3-8.4-26.1-8.4-40.2c0-14.2,4.1-27.3,12.6-38.4
		c-5.2,10.9-6.7,23.7-7.1,35.4c-0.3,9.7,0.1,19.4,1.4,29c0.7,5.1,1.3,10.6,2.7,15.8C583.1,296.7,582.7,296.1,582.3,295.5z
		 M593.4,315.5c-1.5-3.6-3.2-7.1-5.1-10.5c-3.4-7.2-4.6-15.3-5.6-23.2c-1.3-9.4-1.7-19-1.5-28.5c0.5-16.3,3.2-32.6,13.3-45.6
		c-4.6,13.2-6.2,27.6-6.8,41.4c-0.8,18.5-1,37.2,3.1,55.4c0.8,3.7,1.7,7.4,2.6,11C593.5,315.6,593.4,315.6,593.4,315.5z
		 M589.4,280.7c-0.6-17.6-0.5-35.8,2.3-53.2c1.4-8.4,3.6-16.5,6.6-24.4c-2.5,16.2-2.3,32.9-2.7,49.2c-0.5,19-1,38.1-0.2,57.2
		c0.1,3.1,0.3,6.2,0.7,9.2C592.7,306.2,589.8,293.6,589.4,280.7z M597.2,310.9c-0.4-8.8-0.4-17.5-0.4-26.3
		c0.1-18.3,0.6-36.6,1.2-54.8c0.3-9.1,0.8-18.2,2-27.2c0.1,6.8,0.4,13.6,0.4,20.3c0,9.5,0,19.1-0.2,28.6c-0.2,19-0.5,37.9-0.8,56.9
		c-0.1,6-0.2,12-0.3,18C598,321.3,597.5,316.1,597.2,310.9z M601.8,284c0.3-19,0.6-38.1,0.6-57.1c0-6.4,0.1-12.8,0-19.2
		c2.3,15.4,4,30.9,4.5,46.5c0.6,19.2-0.3,38.4-2.6,57.5c-0.8,6.8-2,13.4-3.2,20.1C601.4,315.9,601.5,300,601.8,284z M632.4,513.2
		c2.2,11.5,0.8,23.8-4.3,34.4c-1.8,3.7-4,7.1-6.2,10.5c2.1-4.6,3.7-9.6,5-14.4c2-7.8,2.8-15.9,2.4-24c-0.7-12.2-4.3-24.3-10.9-34.5
		C625.3,493.3,630.4,502.4,632.4,513.2z M627.2,520.1c0.4,7.7-0.4,15.5-2.3,23.1c-1.6,6.3-4.2,12.1-7,17.8
		c1.6-5.1,3.3-10.3,4.2-15.6c1.5-8.5,1.3-17.4,0.8-25.9c-0.9-13.6-3.8-27-10.1-39C621.5,491.9,626.5,505.8,627.2,520.1z M621,520.8
		c0.5,8.6,0.6,17.5-1.2,26c-1.2,5.5-3.3,10.9-4.8,16.3c1-5.8,1.5-11.6,1.7-17.2c0.3-9.2-0.3-18.3-1.2-27.4
		c-0.8-8.6-1.8-17.1-3.3-25.6c-1-5.7-2.3-11.6-4.2-17.2C616.5,489,620.1,505.1,621,520.8z M609.8,490.2c1.7,8.3,2.6,16.8,3.5,25.3
		c1.7,16.9,2.6,34.1-0.9,50.8c-1.5,7-3.9,13.7-7,20.1c1.5-10.8,2.4-21.8,3-32.6c1.1-19.5,0.6-39-1.3-58.5c-0.9-8.5-1.9-17-3.5-25.5
		C606.2,476.5,608.4,483.1,609.8,490.2z M573.2,547.6c-5.1-10.6-6.5-22.9-4.3-34.4c2-10.6,6.8-19.5,13.6-27.4
		c-7.1,10.2-10.6,22.7-10.6,35.3c-0.1,9.9,0.5,20.8,3.5,30.7C574.7,550.4,573.9,549,573.2,547.6z M582.3,562.2
		c-6.8-12.3-8.4-26.1-8.4-40.2c0-14.2,4.1-27.3,12.6-38.4c-5.2,10.9-6.7,23.7-7.1,35.4c-0.3,9.7,0.1,19.4,1.4,29
		c0.7,5.1,1.3,10.6,2.7,15.8C583.1,563.3,582.7,562.8,582.3,562.2z M593.4,582.2c-1.5-3.6-3.2-7.1-5.1-10.5
		c-3.4-7.2-4.6-15.3-5.6-23.2c-1.3-9.4-1.7-19-1.5-28.5c0.5-16.3,3.2-32.6,13.3-45.6c-4.6,13.2-6.2,27.6-6.8,41.4
		c-0.8,18.5-1,37.2,3.1,55.4c0.8,3.7,1.7,7.4,2.6,11C593.5,582.3,593.4,582.3,593.4,582.2z M589.4,547.4
		c-0.6-17.6-0.5-35.8,2.3-53.2c1.4-8.4,3.6-16.5,6.6-24.4c-2.5,16.2-2.3,32.9-2.7,49.2c-0.5,19-1,38.1-0.2,57.2
		c0.1,3.1,0.3,6.2,0.7,9.2C592.7,572.9,589.8,560.2,589.4,547.4z M597.2,577.5c-0.4-8.8-0.4-17.5-0.4-26.3
		c0.1-18.3,0.6-36.6,1.2-54.8c0.3-9.1,0.8-18.2,2-27.2c0.1,6.8,0.4,13.6,0.4,20.3c0,9.5,0,19.1-0.2,28.6c-0.2,19-0.5,37.9-0.8,56.9
		c-0.1,6-0.2,12-0.3,18C598,587.9,597.5,582.8,597.2,577.5z M601.8,550.7c0.3-19,0.6-38.1,0.6-57.1c0-6.4,0.1-12.8,0-19.2
		c2.3,15.4,4,30.9,4.5,46.5c0.6,19.2-0.3,38.4-2.6,57.5c-0.8,6.8-2,13.4-3.2,20.1C601.4,582.5,601.5,566.6,601.8,550.7z"/>
	<path class="st0" d="M703.9,752.7c0.1-3.2,0.5-9.4,0.7-13c0.1-1,0.2-2,0.4-2.9c1.8-9,4.8-17.7,9-25.9c5.9-11.3,14.9-20.8,19.1-33
		c3.7-10.5,4.1-22.1,1.6-33c-2.6-11.5-8.6-21.1-16.8-29.5c-4.4-4.6-9-9-12-14.7c-2.7-5-3.2-16.9-3.1-17.5c0.6-4.8,0.5-9.7,0.3-14.5
		c0.4-20.1,0.3-40.3-0.6-60.4c0.2-6.5,0.5-19.7,0.5-19.9c0.2-15.4,3.9-30.5,11-44.2c5.9-11.3,14.9-20.8,19.1-33
		c3.7-10.5,4.1-22.1,1.6-33c-2.6-11.5-8.6-21.1-16.8-29.5c-4.4-4.6-9-9-12-14.7c-0.2-0.4-0.4-0.9-0.6-1.3c-2-4.2-2.8-9-2.6-13.7
		c1.5-34.3,0.4-96.8,0.4-97.4c0.2-15.4,3.9-30.5,11-44.2c5.9-11.3,14.9-20.8,19.1-33c3.7-10.5,4.1-22.1,1.6-33
		c-2.6-11.5-8.6-21.1-16.8-29.5c-4.4-4.6-9-9-12-14.7c0,0,0-0.1,0-0.1c-2.2-3.1-1.7-31-1.9-35.8c0.2-10.5,0.3-21,0.1-31.5h-5.2
		c0.1,7,0.2,14,0.5,20.9c0.2,4.5,0.5,9,0.6,13.4c-0.1,3.8-1.4,25.8-4.6,33c-2.6,5.8-7.6,10.1-12,14.7c-8.1,8.4-14.1,18-16.8,29.5
		c-2.5,10.9-2,22.4,1.6,33c4.2,12.2,13.2,21.7,19.1,33c0.4,0.8,0.8,1.6,1.2,2.3c6.1,12.6,9,26.5,9,40.5c0,20.6,1,76.2,0.7,106.5
		c-0.6,2.5-1.5,4.9-2.7,7.2c-3,5.6-7.6,10.1-12,14.7c-8.1,8.4-14.1,18-16.8,29.5c-2.5,10.8-2,22.4,1.6,33
		c4.2,12.2,13.8,21.4,19.1,33c11.7,25.6,10.2,56.6,10.7,67c-0.1,7.3,0,14.7,0,21.9c0.1,8.3,0.2,16.5,0.5,24.8
		c0.2,4.6,0.5,9.1,0.6,13.7c-0.1,3.9-0.2,7.8-0.3,11.6c0,0.5-0.8,12.5-3.4,17.5c-3,5.6-7.6,10.1-12,14.7c-8.1,8.4-14.1,18-16.8,29.5
		c-2.5,10.8-2,22.4,1.6,33c4.2,12.2,13.2,21.7,19.1,33c4.6,8.9,7.8,18.5,9.5,28.3c0.7,4.4,1.7,29.9,2,35.9c-0.1,7.2,0,14.4,0,21.5
		c0,1.1,0,2.2,0,3.4h5.2c-0.1-9.3-0.3-18.5-0.7-27.8C703.6,765.9,703.9,752.9,703.9,752.7z M732.4,114.6c2.2,11.5,0.8,23.8-4.3,34.4
		c-1.8,3.7-4,7.1-6.2,10.5c2.1-4.6,3.7-9.6,5-14.4c2-7.8,2.8-15.9,2.4-24c-0.7-12.2-4.3-24.3-10.9-34.5
		C725.3,94.7,730.4,103.8,732.4,114.6z M727.2,121.6c0.4,7.7-0.4,15.5-2.3,23.1c-1.6,6.3-4.2,12.1-7,17.8c1.6-5.1,3.3-10.3,4.2-15.6
		c1.5-8.5,1.3-17.4,0.8-25.9c-0.9-13.6-3.8-27-10.1-39C721.5,93.3,726.5,107.2,727.2,121.6z M721,122.2c0.5,8.6,0.6,17.5-1.2,26
		c-1.2,5.5-3.3,10.9-4.8,16.3c1-5.8,1.5-11.6,1.7-17.2c0.3-9.2-0.3-18.3-1.2-27.4c-0.8-8.6-1.8-17.1-3.3-25.6
		c-1-5.7-2.3-11.6-4.2-17.2C716.5,90.5,720.1,106.5,721,122.2z M709.8,91.6c1.7,8.3,2.6,16.8,3.5,25.3c1.7,16.9,2.6,34.1-0.9,50.8
		c-1.5,7-3.9,13.7-7,20.1c1.5-10.8,2.4-21.8,3-32.6c1.1-19.5,0.6-39-1.3-58.5c-0.9-8.5-1.9-17-3.5-25.5
		C706.2,77.9,708.4,84.5,709.8,91.6z M673.2,149c-5.1-10.6-6.5-22.9-4.3-34.4c2-10.6,6.8-19.5,13.6-27.4
		c-7.1,10.2-10.6,22.7-10.6,35.3c-0.1,9.9,0.5,20.8,3.5,30.7C674.7,151.8,673.9,150.5,673.2,149z M682.3,163.6
		c-6.8-12.3-8.4-26.1-8.4-40.2c0-14.2,4.1-27.3,12.6-38.4c-5.2,10.9-6.7,23.7-7.1,35.4c-0.3,9.7,0.1,19.4,1.4,29
		c0.7,5.1,1.3,10.6,2.7,15.8C683.1,164.7,682.7,164.2,682.3,163.6z M693.4,183.6c-1.5-3.6-3.2-7.1-5.1-10.5
		c-3.4-7.2-4.6-15.3-5.6-23.2c-1.3-9.4-1.7-19-1.5-28.5c0.5-16.3,3.2-32.6,13.3-45.6c-4.6,13.2-6.2,27.6-6.8,41.4
		c-0.8,18.5-1,37.2,3.1,55.4c0.8,3.7,1.7,7.4,2.6,11C693.5,183.7,693.4,183.7,693.4,183.6z M689.4,148.8
		c-0.6-17.6-0.5-35.8,2.3-53.2c1.4-8.4,3.6-16.5,6.6-24.4c-2.5,16.2-2.3,32.9-2.7,49.2c-0.5,19-1,38.1-0.2,57.2
		c0.1,3.1,0.3,6.2,0.7,9.2C692.7,174.3,689.8,161.7,689.4,148.8z M697.2,179c-0.4-8.8-0.4-17.5-0.4-26.3c0.1-18.3,0.6-36.6,1.2-54.8
		c0.3-9.1,0.8-18.2,2-27.2c0.1,6.8,0.4,13.6,0.4,20.3c0,9.5,0,19.1-0.2,28.6c-0.2,19-0.5,37.9-0.8,56.9c-0.1,6-0.2,12-0.3,18
		C698,189.4,697.5,184.2,697.2,179z M701.8,152.1c0.3-19,0.6-38.1,0.6-57.1c0-6.4,0.1-12.8,0-19.2c2.3,15.4,4,30.9,4.5,46.5
		c0.6,19.2-0.3,38.4-2.6,57.5c-0.8,6.8-2,13.4-3.2,20.1C701.4,184,701.5,168,701.8,152.1z M732.4,381.3c2.2,11.5,0.8,23.8-4.3,34.4
		c-1.8,3.7-4,7.1-6.2,10.5c2.1-4.6,3.7-9.6,5-14.4c2-7.8,2.8-15.9,2.4-24c-0.7-12.2-4.3-24.3-10.9-34.5
		C725.3,361.4,730.4,370.5,732.4,381.3z M727.2,388.2c0.4,7.7-0.4,15.5-2.3,23.1c-1.6,6.3-4.2,12.1-7,17.8
		c1.6-5.1,3.3-10.3,4.2-15.6c1.5-8.5,1.3-17.4,0.8-25.9c-0.9-13.6-3.8-27-10.1-39C721.5,360,726.5,373.9,727.2,388.2z M721,388.9
		c0.5,8.6,0.6,17.5-1.2,26c-1.2,5.5-3.3,10.9-4.8,16.3c1-5.8,1.5-11.6,1.7-17.2c0.3-9.2-0.3-18.3-1.2-27.4
		c-0.8-8.6-1.8-17.1-3.3-25.6c-1-5.7-2.3-11.6-4.2-17.2C716.5,357.1,720.1,373.1,721,388.9z M709.8,358.3c1.7,8.3,2.6,16.8,3.5,25.3
		c1.7,16.9,2.6,34.1-0.9,50.8c-1.5,7-3.9,13.7-7,20.1c1.5-10.8,2.4-21.8,3-32.6c1.1-19.5,0.6-39-1.3-58.5c-0.9-8.5-1.9-17-3.5-25.5
		C706.2,344.6,708.4,351.2,709.8,358.3z M673.2,415.7c-5.1-10.6-6.5-22.9-4.3-34.4c2-10.6,6.8-19.5,13.6-27.4
		c-7.1,10.2-10.6,22.7-10.6,35.3c-0.1,9.9,0.5,20.8,3.5,30.7C674.7,418.5,673.9,417.1,673.2,415.7z M682.3,430.3
		c-6.8-12.3-8.4-26.1-8.4-40.2c0-14.2,4.1-27.3,12.6-38.4c-5.2,10.9-6.7,23.7-7.1,35.4c-0.3,9.7,0.1,19.4,1.4,29
		c0.7,5.1,1.3,10.6,2.7,15.8C683.1,431.4,682.7,430.8,682.3,430.3z M693.4,450.3c-1.5-3.6-3.2-7.1-5.1-10.5
		c-3.4-7.2-4.6-15.3-5.6-23.2c-1.3-9.4-1.7-19-1.5-28.5c0.5-16.3,3.2-32.6,13.3-45.6c-4.6,13.2-6.2,27.6-6.8,41.4
		c-0.8,18.5-1,37.2,3.1,55.4c0.8,3.7,1.7,7.4,2.6,11C693.5,450.4,693.4,450.3,693.4,450.3z M689.4,415.5
		c-0.6-17.6-0.5-35.8,2.3-53.2c1.4-8.4,3.6-16.5,6.6-24.4c-2.5,16.2-2.3,32.9-2.7,49.2c-0.5,19-1,38.1-0.2,57.2
		c0.1,3.1,0.3,6.2,0.7,9.2C692.7,441,689.8,428.3,689.4,415.5z M697.2,445.6c-0.4-8.8-0.4-17.5-0.4-26.3c0.1-18.3,0.6-36.6,1.2-54.8
		c0.3-9.1,0.8-18.2,2-27.2c0.1,6.8,0.4,13.6,0.4,20.3c0,9.5,0,19.1-0.2,28.6c-0.2,19-0.5,37.9-0.8,56.9c-0.1,6-0.2,12-0.3,18
		C698,456,697.5,450.8,697.2,445.6z M701.8,418.8c0.3-19,0.6-38.1,0.6-57.1c0-6.4,0.1-12.8,0-19.2c2.3,15.4,4,30.9,4.5,46.5
		c0.6,19.2-0.3,38.4-2.6,57.5c-0.8,6.8-2,13.4-3.2,20.1C701.4,450.6,701.5,434.7,701.8,418.8z M732.4,647.9
		c2.2,11.5,0.8,23.8-4.3,34.4c-1.8,3.7-4,7.1-6.2,10.5c2.1-4.6,3.7-9.6,5-14.4c2-7.8,2.8-15.9,2.4-24c-0.7-12.2-4.3-24.3-10.9-34.5
		C725.3,628.1,730.4,637.1,732.4,647.9z M727.2,654.9c0.4,7.7-0.4,15.5-2.3,23.1c-1.6,6.3-4.2,12.1-7,17.8
		c1.6-5.1,3.3-10.3,4.2-15.6c1.5-8.5,1.3-17.4,0.8-25.9c-0.9-13.6-3.8-27-10.1-39C721.5,626.7,726.5,640.5,727.2,654.9z M721,655.5
		c0.5,8.6,0.6,17.5-1.2,26c-1.2,5.5-3.3,10.9-4.8,16.3c1-5.8,1.5-11.6,1.7-17.2c0.3-9.2-0.3-18.3-1.2-27.4
		c-0.8-8.6-1.8-17.1-3.3-25.6c-1-5.7-2.3-11.6-4.2-17.2C716.5,623.8,720.1,639.8,721,655.5z M709.8,624.9c1.7,8.3,2.6,16.8,3.5,25.3
		c1.7,16.9,2.6,34.1-0.9,50.9c-1.5,7-3.9,13.7-7,20.1c1.5-10.8,2.4-21.8,3-32.6c1.1-19.5,0.6-39-1.3-58.5c-0.9-8.5-1.9-17-3.5-25.5
		C706.2,611.2,708.4,617.9,709.8,624.9z M673.2,682.4c-5.1-10.6-6.5-22.9-4.3-34.4c2-10.6,6.8-19.5,13.6-27.4
		c-7.1,10.2-10.6,22.7-10.6,35.3c-0.1,9.9,0.5,20.8,3.5,30.7C674.7,685.2,673.9,683.8,673.2,682.4z M682.3,696.9
		c-6.8-12.3-8.4-26.1-8.4-40.2c0-14.2,4.1-27.3,12.6-38.4c-5.2,10.9-6.7,23.7-7.1,35.4c-0.3,9.7,0.1,19.4,1.4,29
		c0.7,5.1,1.3,10.6,2.7,15.8C683.1,698.1,682.7,697.5,682.3,696.9z M693.4,717c-1.5-3.6-3.2-7.1-5.1-10.5
		c-3.4-7.2-4.6-15.3-5.6-23.2c-1.3-9.4-1.7-19-1.5-28.5c0.5-16.3,3.2-32.6,13.3-45.6c-4.6,13.2-6.2,27.6-6.8,41.4
		c-0.8,18.5-1,37.2,3.1,55.4c0.8,3.7,1.7,7.4,2.6,11C693.5,717.1,693.4,717,693.4,717z M689.4,682.1c-0.6-17.6-0.5-35.8,2.3-53.2
		c1.4-8.4,3.6-16.5,6.6-24.4c-2.5,16.2-2.3,32.9-2.7,49.2c-0.5,19-1,38.1-0.2,57.2c0.1,3.1,0.3,6.2,0.7,9.2
		C692.7,707.6,689.8,695,689.4,682.1z M697.2,712.3c-0.4-8.8-0.4-17.5-0.4-26.3c0.1-18.3,0.6-36.6,1.2-54.8c0.3-9.1,0.8-18.2,2-27.2
		c0.1,6.8,0.4,13.6,0.4,20.3c0,9.5,0,19.1-0.2,28.6c-0.2,19-0.5,37.9-0.8,56.9c-0.1,6-0.2,12-0.3,18
		C698,722.7,697.5,717.5,697.2,712.3z M701.8,685.5c0.3-19,0.6-38.1,0.6-57.1c0-6.4,0.1-12.8,0-19.2c2.3,15.4,4,30.9,4.5,46.5
		c0.6,19.2-0.3,38.4-2.6,57.5c-0.8,6.8-2,13.4-3.2,20.1C701.4,717.3,701.5,701.4,701.8,685.5z"/>
</g>
</svg>
