<?xml version="1.0" encoding="utf-8"?>
<!-- Generator: Adobe Illustrator 21.1.0, SVG Export Plug-In . SVG Version: 6.00 Build 0)  -->
<svg version="1.1" id="Ebene_1" xmlns="http://www.w3.org/2000/svg" xmlns:xlink="http://www.w3.org/1999/xlink" x="0px" y="0px"
	 viewBox="0 0 800 800" style="enable-background:new 0 0 800 800;" xml:space="preserve">
<style type="text/css">
	.st0{fill:#FFFFFF;}
</style>
<path class="st0" d="M800,2.2V0h-49.4c-0.1,0.3-0.3,0.6-0.4,0.9c-6.9,5.7-16.5,11.4-24,16.2c-4.1,2.7-8.4,5.2-12.7,7.5
	c-3.9,2.1-8.4,5.1-12.8,6.4c0.1-10.3-0.6-20.8-1-31.1H696c0.3,10.4,0.3,20.9,1.1,31.2c-1.3-0.6-2.1-1.9-3.6-3.3
	c-1.3-1.3-2.7-2.4-4.1-3.5c-4-3-8.3-5.6-12.5-8.2c-8.5-5.4-17-10.9-25.6-16.1h-5.5h-91.5h-4.8c-14.1,14.1-31.6,23.2-49.5,31.8
	c0.1-10.6-0.2-21.2-0.5-31.8h-4.2c0.2,10.7,0.5,21.3,1.2,32c-7.6-5.3-15.2-10.6-22.6-16C466.8,10.7,459.8,5,452.5,0h-5.2h-95.4h-1.7
	c-0.1,0-0.1,0.1-0.2,0.1c-8.3,5-16.4,10.3-24.6,15.5c-4.4,2.8-8.7,5.5-13.1,8.3c-3.8,2.4-7.7,5.5-11.7,7.5
	c1.1-10.4,1.2-20.9,1.3-31.4h-3.9c-0.2,10.8-1,21.6-1.1,32.4c-4.8,0.2-8.5-4.2-12.2-7.2c-3.8-3-7.7-6.1-11.5-9.1
	c-6.7-5.3-13.3-11.2-20.3-16.1h-4.9h-97.3c-0.2,0.3-0.4,0.8-0.5,1.3c-0.2,0.1-0.5,0.2-0.7,0.4c-9,7.7-18.4,14.5-29.1,19.6
	c-6.5,3.2-14.8,5-20.5,9.8c1.2-10.2,1.1-20.8,1.2-31.1h-3.9c-0.3,10.4-1.3,20.9-1,31.3c-6.5-6-14.7-9.5-22.3-14.1
	c-5.1-3.1-9-6.9-13.1-11.1c-2.2-2.3-4.5-4.5-7.2-6.1h-6.4H0v2.2c3,0,6.1,0.1,9.1,0.2C8.3,7.6,6.8,12.9,5.8,17.9
	C4.3,25.3,2.6,35,1.3,42.4c-0.4-1.8-0.9-3.8-1.3-5.8v17.9v99.2c0.6-2.8,1.3-5.6,1.8-8.2c1.1,6.6,2.2,14.7,3.4,21.3
	c1.5,8.8,3.8,17.9,4.4,26.9c0.1,1.5,0.1,3,0,4.5c-3.2-0.1-6.4-0.1-9.6-0.2v4.2c3,0,6.1,0.1,9.1,0.2c-0.8,5.3-2.3,10.6-3.3,15.6
	c-1.5,7.4-3.2,17.1-4.5,24.5c-0.4-1.8-0.9-3.8-1.3-5.8V250v103.7c0.6-2.8,1.3-5.6,1.8-8.2c1.1,6.6,2.2,14.7,3.4,21.3
	c1.5,8.8,3.8,17.9,4.4,26.9c0.1,1.5,0.1,3,0,4.5c-3.2-0.1-6.4-0.1-9.6-0.2v4.2c3,0,6.1,0.1,9.1,0.2c-0.8,5.3-2.3,10.6-3.3,15.6
	c-1.5,7.4-3.2,17.1-4.5,24.5c-0.4-1.8-0.9-3.8-1.3-5.8V451v102.8c0.6-2.8,1.3-5.6,1.8-8.2c1.1,6.6,2.2,14.7,3.4,21.3
	c1.5,8.8,3.8,17.9,4.4,26.9c0.1,1.5,0.1,3,0,4.5c-3.2-0.1-6.4-0.1-9.6-0.2v4.2c3,0,6.1,0.1,9.1,0.2c-0.8,5.3-2.3,10.6-3.3,15.6
	c-1.5,7.4-3.2,17.1-4.5,24.5c-0.4-1.8-0.9-3.8-1.3-5.8v89.6c0.3-10.5,0.6-21,1-31.4c0.5-12.7,1.7-25.5,1.7-38.2
	c16.7-16.2,33.7-32.7,46.2-52.4c7,6.3,14.8,11.9,22.4,17.4c4.5,3.2,9,6.3,13.5,9.3c2.8,1.9,6.1,4.6,9.4,6.3
	c-15.4,19.9-31.2,40.3-43.5,62.2c0,0-0.1,0.2-0.2,0.3c-0.2,0.1-0.3,0.1-0.5,0.3C34.2,712.3,18.1,723.3,0,731.8v2.2v19.8
	c0.6-2.8,1.3-5.6,1.8-8.2c1.1,6.6,2.2,14.7,3.4,21.3c1.5,8.8,3.8,17.9,4.4,26.9c0.1,1.5,0.1,3,0,4.5c-3.2-0.1-6.4-0.1-9.6-0.2v2
	h47.1h6.4c-1.3-0.8-2.8-1.4-4.3-1.7c-0.1,0-0.2,0-0.2,0c-6-11.5-29.4-47.2-47.3-62.9c0.7-0.4,1.5-0.8,2.1-1.1
	c2.6-1.2,5.3-2.5,7.9-3.9c4.9-2.6,9.8-5.3,14.5-8.3c8.6-5.4,17-11.3,24.5-18.2c15.2,17.4,31.1,34.1,46.7,51.2
	c-0.4,12.5,0,28.9-0.2,41c0,1.3-0.1,2.6-0.1,3.8h3.9c0-1,0-1.9,0.1-2.9c0.3-12.4,1.1-27,0.3-39.6c0.3-0.1,0.6-0.3,0.8-0.5
	c17.1-16.6,34.6-33.4,47.2-53.7c15.7,10.5,31.1,21,45.4,33.5c-15.5,20-31.5,40.5-43.8,62.6c0,0.1-0.2,0.3-0.3,0.6h97.3h4.9
	c-0.8-0.6-1.6-1.1-2.4-1.6c-0.5-0.3-1-0.3-1.4-0.1c-6-11.4-28.8-46.2-46.5-62.2c17.4-8.3,33.8-19.2,47.9-32.4
	c15.2,17.4,31.2,34.2,46.8,51.3c0,0.1,0,0.3,0,0.4c0.6,13.4,0.9,26.8,0.8,40.2c0,1.5,0,3-0.1,4.4h3.9c0-1.5,0-3,0-4.4
	c0.1-12.7,0-25.4-0.6-38c0.4-0.1,0.7-0.3,1-0.5c17-16.5,34.5-33.3,47.1-53.6c7.7,5.8,16,10.9,23.9,16.2c4.9,3.3,9.8,6.6,14.7,9.8
	c2.3,1.5,5.1,4.3,8,5.8c-15.9,20.5-32.3,41.5-45,64.1c0,0.1-0.1,0.2-0.2,0.4c0.4-0.1,0.8,0,1.2,0.2h95.4h5.2c-1-0.6-1.9-1.3-2.9-1.9
	c-0.3-0.2-0.6-0.3-0.8-0.2c-6.3-11.9-29.1-46.6-46.7-62.2c0.3,0,0.6-0.1,0.9-0.1c2.3-1.2,4.6-3.3,6.3-4.5c4.9-3.2,9.8-6.5,14.7-9.7
	c8.8-5.9,17.7-11.7,26.5-17.6c15.3,17.4,31.3,34.2,46.8,51.4c-0.1,11.5-2.2,32.2-2,41.8c0,1,0,2.1,0.1,3.1h4.1
	c0-1.4-0.1-2.7-0.1-4.1c-0.3-8.6,1.9-27,2.4-38.6c0.1-0.1,0.3-0.2,0.4-0.3c17.1-16.6,34.6-33.5,47.3-53.8
	c13.6,12.5,29.5,22.9,45.6,31.9c0.3,0,0.7,0,1,0c-15.6,20.2-31.8,40.8-44.4,63c-0.3,0.1-0.5,0.3-0.8,0.5c-0.4,0.5-0.9,0.9-1.3,1.3
	h4.8h91.5h5.5c-0.7-0.4-1.3-0.8-2-1.2c-5.6-11-29.6-47.7-47.7-63.5c0.3,0,0.6,0,0.9,0c15.6-11.2,31.7-21.4,48.1-31.5
	c15.2,17.4,31.2,34.1,46.7,51.2c-0.2,12.2-1.7,31.8-1.3,43.9c0,0.4,0,0.7,0,1.1h3.8c0-0.4,0-0.7,0-1.1c-0.3-10.6,1.5-28.8,1.3-41.3
	c0.4-0.1,0.8-0.3,1-0.6c16.8-16.3,34-32.9,46.6-52.7c11.5,5.8,32.1,22.9,37.2,26.4c2.1,1.4,5.7,5,8.8,6.2
	c-15.5,20-31.4,40.5-43.8,62.5c0,0.1-0.2,0.3-0.3,0.6H800v-2c-0.8,0-1.7,0-2.5,0c-2,0-4,0-6-0.1c-0.1-1.2-0.1-2.3-0.1-3.5
	c0.1-8.6,2.9-17.1,5-25.4c1.2-4.7,2.4-10.1,3.6-15.2v-19.8v-2.2c0,0-0.1,0-0.2,0.1c0-1.9,0.1-3.7,0.2-5.6v-89.6
	c-1.3-5.9-2.8-12.5-4.1-17.8c-1.4-5.5-3.1-11.1-3.9-16.7c1.9,0,3.7,0,5.6,0.1c0.8,0,1.6,0,2.5,0V598c-0.8,0-1.7,0-2.5,0
	c-2,0-4,0-6-0.1c-0.1-1.2-0.1-2.3-0.1-3.5c0.1-8.6,2.9-17.1,5-25.4c1.2-4.7,2.4-10.1,3.6-15.2V451v-14.4c-1.3-5.9-2.8-12.5-4.1-17.8
	c-1.4-5.5-3.1-11.1-3.9-16.7c1.9,0,3.7,0,5.6,0.1c0.8,0,1.6,0,2.5,0V398c-0.8,0-1.7,0-2.5,0c-2,0-4,0-6-0.1
	c-0.1-1.2-0.1-2.3-0.1-3.5c0.1-8.6,2.9-17.1,5-25.4c1.2-4.7,2.4-10.1,3.6-15.2V250v-13.4c-1.3-5.9-2.8-12.5-4.1-17.8
	c-1.4-5.5-3.1-11.1-3.9-16.7c1.9,0,3.7,0,5.6,0.1c0.8,0,1.6,0,2.5,0V198c-0.8,0-1.7,0-2.5,0c-2,0-4,0-6-0.1
	c-0.1-1.2-0.1-2.3-0.1-3.5c0.1-8.6,2.9-17.1,5-25.4c1.2-4.7,2.4-10.1,3.6-15.2V54.5V36.6c-1.3-5.9-2.8-12.5-4.1-17.8
	c-1.4-5.5-3.1-11.1-3.9-16.7c1.9,0,3.7,0,5.6,0.1C798.4,2.1,799.2,2.2,800,2.2z M13.6,798.2c0.1-1.5,0.1-3,0-4.5
	c-0.5-8.4-2.6-16.9-4-25.1c-0.8-4.6-2.6-13.4-3.3-18c7.8,13.2,15.7,31.2,21.4,45.6c0.3,0.9,0.7,1.7,1,2.4
	C23.7,798.4,18.7,798.3,13.6,798.2z M44.8,798.9c-3.4-0.1-8.3-0.1-11.6-0.2c-0.4-1-1-2-1.2-2.8c-6.7-17.3-17.9-38.3-27.8-54
	C19.5,757,36.3,779,44.8,798.9z M767.8,1.7c12,17.7,21.2,32,29.2,46.8c-14.7-16.3-27.8-31.4-43.2-47.1
	C758.6,2.3,762.8,1.9,767.8,1.7z M727.5,21.1c6-3.9,19.4-13.1,24.1-16.3c15.2,17.3,31.1,34,46.6,51c0,0,0,0.1,0,0.1
	c-1.1,13.3-0.4,27-0.4,40.4c0,12.2-0.1,24.4,0,36.5c-3.2-0.2-6-2-8.9-3.3c-2.9-1.4-29.5-19.1-38.6-27.7c0,0,0,0,0,0
	c1.1-1.8-27.8-48.2-48.8-66.6C710.5,32.2,719.6,26.2,727.5,21.1z M701.7,230.5c-0.4-12.4-0.6-24.8-0.5-37.1
	c0.1-12.2,0.9-24.4,1.2-36.6c16.3-15.8,33-32,45.5-51.1c9.2,8.9,37.7,27.1,40.6,28.4c1.9,0.9,4,2.1,6.1,3
	c-15.1,19.5-30.7,39.5-42.9,61C736.5,208,716.8,220.3,701.7,230.5z M748.3,305c14.4,11.2,30,24.1,46.3,32
	c-15.2,19.7-30.9,39.8-43.2,61.5c-15.9,9.9-34.4,22-50.2,31.9c1.3-12.9,2-25.8,2.2-38.8c0.1-11.5,0.3-23.4-1-34.9
	C718.9,340.8,735.8,324.5,748.3,305z M798.6,495.1c0,12.4-0.4,24.9-1.1,37.3c-0.7-0.2-1.3-0.4-2-0.8c-3.6-2-6.9-5.5-10.2-8
	c-4-3-8-5.9-12.1-8.8c-8.3-5.8-16.6-11.6-24.8-17.4c-6.7-12.4-29.7-47.2-47.2-62.3c15.5-9.7,34.1-21.2,49.7-31
	c15.3,17.4,31.3,34.2,46.9,51.4C797.5,468.6,798.6,481.9,798.6,495.1z M750.5,600.1c-15.7,9.8-34.2,21.3-49.8,31.1
	c0.8-13.1,0.6-26.3,1-39.4c0.3-11.7,0.9-23.5,0.8-35.2c17-16.5,34.3-33.2,46.9-53.4c8,5.6,16,11.2,24,16.8c5.4,3.8,10.8,7.7,16,11.9
	c1.8,1.4,3.7,3.2,5.8,4.3c-15.6,20.2-31.8,40.9-44.3,63.2C750.9,599.5,750.7,599.8,750.5,600.1z M713.5,693.7
	c-0.5-8.4-2.6-16.9-4-25.1c-0.8-4.6-2.6-13.4-3.3-18c7.8,13.2,15.7,31.2,21.4,45.6c0.3,0.9,0.7,1.7,1,2.4c-5-0.1-10.1-0.2-15.1-0.3
	C713.6,696.7,713.6,695.2,713.5,693.7z M709.5,693.7c0.1,1.5,0.1,3,0,4.5c-4-0.1-8.1-0.1-12.1-0.2c-2,0-4,0-6-0.1
	c-0.1-1.2-0.1-2.3-0.1-3.5c0.1-8.6,2.9-17.1,5-25.4c1.8-7.3,3.8-16.1,5.5-23.4c1.1,6.6,2.2,14.7,3.4,21.3
	C706.6,675.7,708.9,684.8,709.5,693.7z M687.3,697.9c-4.1,0-8.3-0.1-12.4-0.1c-1.3,0-2.6,0-3.9-0.1c4.7-9.5,9.4-19,14.3-28.4
	c4.3-8.3,9-16.5,13.2-24.8c-2.4,8.4-4.4,16.9-6.5,25.3c-2,8.1-4.5,16.2-4.7,24.6C687.2,695.6,687.2,696.7,687.3,697.9z M666.5,697.4
	c0,0.1,0,0.1-0.1,0.2c-3.5-0.1-7.1-0.1-10.5,0.3c6.8-9.5,13-19.3,19.8-28.8c5.6-7.9,13.8-19.4,19.7-27
	C685.6,658.7,674.9,680.2,666.5,697.4z M602.1,535.8c16.3-10.4,32.6-20.9,48.9-31.4c15.6,17.7,31.9,34.8,47.7,52.3
	c-0.7,11.7-0.6,23.4-0.9,35.1c-0.3,13-1.1,26-1,39c-6.4-5.2-13.1-10.1-20-14.6c-4-2.5-8.1-5-12.3-7.2c-2.3-1.3-4.7-2.5-7.1-3.7
	c-2.2-1.1-5.4-2.1-7.1-4.1C648.6,595.5,622,553.5,602.1,535.8z M601.3,642.4c-1.7-7.1-3.6-16.5-5.5-23.6c-1.4-5.5-3.1-11.1-3.9-16.7
	c1.9,0,3.7,0,5.6,0.1c3.9,0.1,7.7,0.1,11.6,0.2c-0.8,5.3-2.3,10.6-3.3,15.6C604.3,625.3,602.6,635,601.3,642.4z M513.5,693.7
	c-0.5-8.4-2.6-16.9-4-25.1c-0.8-4.6-2.6-13.4-3.3-18c7.8,13.2,15.7,31.2,21.4,45.6c0.3,0.9,0.7,1.7,1,2.4c-5-0.1-10.1-0.2-15.1-0.3
	C513.6,696.7,513.6,695.2,513.5,693.7z M509.5,693.7c0.1,1.5,0.1,3,0,4.5c-4-0.1-8.1-0.1-12.1-0.2c-2,0-4,0-6-0.1
	c-0.1-1.2-0.1-2.3-0.1-3.5c0.1-8.6,2.9-17.1,5-25.4c1.8-7.3,3.8-16.1,5.5-23.4c1.1,6.6,2.2,14.7,3.4,21.3
	C506.6,675.7,508.9,684.8,509.5,693.7z M448.9,598.1c-6-11.4-28.2-45.2-45.7-61.4c15.9-10.8,32.1-21.2,47.8-32.4
	c15.2,17.3,31.1,34,46.6,51c0.1,12.5,0.7,25,0.6,37.5c-0.1,13.2-0.7,26.4-1.1,39.7c-1.1-0.1-2-0.9-3.6-2c-2.1-1.5-4.2-3.1-6.3-4.6
	l-12.6-9.3c-8.4-6.2-16.6-12.6-25.3-18.3C449.1,598.2,449,598.1,448.9,598.1z M350.9,599.4c0,0,0,0.1-0.1,0.2
	c-0.1,0-0.2,0.1-0.2,0.1c-16.3,10.9-32.2,22-49.2,31.9c-0.5-12.4-0.7-24.9-0.6-37.3c0.1-12.4,1.2-24.8,1.2-37.2c0,0,0,0,0.1,0
	c17.1-16.6,34.6-33.5,47.3-53.8c7.4,5.5,15.7,10,23.4,15.1c8,5.3,15.7,11,23,17.1C380,555.9,363.6,576.8,350.9,599.4z M313.5,693.7
	c-0.5-8.4-2.6-16.9-4-25.1c-0.8-4.6-2.6-13.4-3.3-18c7.8,13.2,15.7,31.2,21.4,45.6c0.3,0.9,0.7,1.7,1,2.4c-5-0.1-10.1-0.2-15.1-0.3
	C313.6,696.7,313.6,695.2,313.5,693.7z M309.5,693.7c0.1,1.5,0.1,3,0,4.5c-4-0.1-8.1-0.1-12.1-0.2c-2,0-4,0-6-0.1
	c-0.1-1.2-0.1-2.3-0.1-3.5c0.1-8.6,2.9-17.1,5-25.4c1.8-7.3,3.8-16.1,5.5-23.4c1.1,6.6,2.2,14.7,3.4,21.3
	C306.6,675.7,308.9,684.8,309.5,693.7z M287.3,697.9c-4.1,0-8.3-0.1-12.4-0.1c-1.3,0-2.6,0-3.9-0.1c4.7-9.5,9.4-19,14.3-28.4
	c4.3-8.3,9-16.5,13.2-24.8c-2.4,8.4-4.4,16.9-6.5,25.3c-2,8.1-4.5,16.2-4.7,24.6C287.2,695.6,287.2,696.7,287.3,697.9z M266.5,697.4
	c0,0.1,0,0.1-0.1,0.2c-3.5-0.1-7.1-0.1-10.5,0.3c6.8-9.5,13-19.3,19.8-28.8c5.6-7.9,13.8-19.4,19.7-27
	C285.6,658.7,274.9,680.2,266.5,697.4z M203.5,537c16.7-9.6,32.3-20.8,46.8-33.5c15.6,17.9,32.1,35.1,48.1,52.7
	c-1.5,12.2-1.4,24.8-1.5,37c-0.2,13,0,25.9,0.6,38.9c-14.5-11.8-30.2-23.1-47.2-31.1C247.9,594.4,222.9,555.1,203.5,537z
	 M150.9,599.4c-0.1,0.2-1.2,2-1,3.2c-0.1,0-0.2,0.1-0.2,0.1l-26.7,17c-3.9,2.5-7.8,5-11.7,7.5c-3,1.9-7.3,6-11.3,6.8
	c0,0-0.1,0-0.1-0.1c-0.1-0.1-0.1-0.1-0.2-0.1c0.6-13,1.2-26,1.9-39c0.6-12.9,1.9-26,1.8-38.9c16.5-16,33.3-32.4,45.7-51.9
	c15.7,10.5,31.4,20.5,46.2,32.4C179.5,556.5,163.4,577.2,150.9,599.4z M113.5,693.7c-0.5-8.4-2.6-16.9-4-25.1
	c-0.8-4.6-2.6-13.4-3.3-18c7.8,13.2,15.7,31.2,21.4,45.6c0.3,0.9,0.7,1.7,1,2.4c-5-0.1-10.1-0.2-15.1-0.3
	C113.6,696.7,113.6,695.2,113.5,693.7z M109.5,693.7c0.1,1.5,0.1,3,0,4.5c-4-0.1-8.1-0.1-12.1-0.2c-2,0-4,0-6-0.1
	c-0.1-1.2-0.1-2.3-0.1-3.5c0.1-8.6,2.9-17.1,5-25.4c1.8-7.3,3.8-16.1,5.5-23.4c1.1,6.6,2.2,14.7,3.4,21.3
	C106.6,675.7,108.9,684.8,109.5,693.7z M87.3,697.9c-4.1,0-8.3-0.1-12.4-0.1c-1.3,0-2.6,0-3.9-0.1c4.7-9.5,9.4-19,14.3-28.4
	c4.3-8.3,9-16.5,13.2-24.8c-2.4,8.4-4.4,16.9-6.5,25.3c-2,8.1-4.5,16.2-4.7,24.6C87.2,695.6,87.2,696.7,87.3,697.9z M53.7,301.5
	c4.8,0.8,9,0.4,14,0.3c12,17.7,21.2,32,29.2,46.8C82.1,332.3,69.1,317.2,53.7,301.5C53.7,301.5,53.7,301.5,53.7,301.5z M54.6,101.6
	c4.4,0.6,8.4,0.2,13.1,0.1c12,17.7,21.2,32,29.2,46.8c-14.5-16-27.3-30.8-42.3-46.2C54.6,102.2,54.6,101.9,54.6,101.6z M73.9,101.9
	c0.3,0,0.6,0,1,0c4.3,0,8.6,0.1,12.8,0.1c0.7,5.4,2.1,10.8,3.5,16.1c1.3,5.1,5.7,20.7,7,25.8C92.2,132.7,82,111.7,73.9,101.9z
	 M95.7,118.8c-1.4-5.5-3.1-11.1-3.9-16.7c1.9,0,3.7,0,5.6,0.1c3.9,0.1,7.7,0.1,11.6,0.2c-0.8,5.3-2.3,10.6-3.3,15.6
	c-1.5,7.4-3.2,17.1-4.5,24.5C99.5,135.3,97.6,125.9,95.7,118.8z M133.1,98.7c-0.4-1-1-2-1.2-2.8c-6.7-17.3-17.9-38.3-27.8-54
	c15.3,15.2,32.1,37.1,40.7,57C141.3,98.8,136.4,98.8,133.1,98.7z M144.5,102.9c-11.2,16.6-25,31-39.2,45.1
	c4.8-8.8,19.8-32.4,23.1-37c1-1.4,4.2-6.4,5-8c3.3,0.1,6.6,0.2,10,0.3C143.8,103.2,144.2,103,144.5,102.9z M127.6,96.1
	c0.3,0.9,0.7,1.7,1,2.4c-5-0.1-10.1-0.2-15.1-0.3c0.1-1.5,0.1-3,0-4.5c-0.5-8.4-2.6-16.9-4-25.1c-0.8-4.6-2.6-13.4-3.3-18
	C114,63.8,121.9,81.8,127.6,96.1z M113,102.4c5.1,0.1,10.2,0.2,15.4,0.3c-1.2,2.2-20.8,32.7-23.8,38.5c1.7-7.2,3.6-16,5.1-23.2
	C110.7,113,112.2,107.7,113,102.4z M103,156.2c16.4-15.9,33.1-32.1,45.4-51.4c15.2,11,31.3,20.8,46.7,31.5
	c-15.6,20.2-31.8,40.9-44.2,63.1l-29.3,18.7c-7.5,4.8-15.6,9.2-21.5,16c-0.3-0.3-0.5-0.5-0.8-0.8C98.7,207.6,101.6,181.9,103,156.2z
	 M298.5,156.5c1,5.6,0.5,11.3,0.3,17c-0.3,7-0.5,13.9-0.8,20.9c-0.5,13-1.3,26.1-1.4,39.1c-15.9-10.6-31.2-22-46.7-33.2
	c-3.8-8.6-28.6-47.2-47.5-64.2c16-10.8,32.2-21.3,47.9-32.4C266,121.5,282.5,138.8,298.5,156.5z M349.3,103.3
	c8.7,5.3,17.9,9.7,26.8,14.8c7.8,4.4,15.1,9.5,19.9,17.1c-15.9,20.5-32.4,41.6-45.1,64.2c0,0,0,0,0,0.1c-0.6-0.9-1.7-1.4-2.7-0.7
	c-15.6,11.8-31,23.3-47.5,33.7c0.8-13.3,0.9-26.7,1.4-40.1c0.3-7.3,0.5-14.6,0.8-21.9c0.1-4.6,0.3-9.2-0.6-13.6
	C319.3,140.4,336.7,123.6,349.3,103.3z M548.8,104.2c15.2,11,30.7,21.5,45.5,33.1c-15.3,19.7-30.9,39.9-43.2,61.6
	c-17.1,10.6-34,21.3-50.8,32.2c-0.3-24.5,0.4-49,0.7-73.5c0.4-0.1,0.8-0.3,1.1-0.6C519,140.7,536.2,124.1,548.8,104.2z M601.8,145.6
	c1.1,6.6,2.2,14.7,3.4,21.3c1.5,8.8,3.8,17.9,4.4,26.9c0.1,1.5,0.1,3,0,4.5c-4-0.1-8.1-0.1-12.1-0.2c-2,0-4,0-6-0.1
	c-0.1-1.2-0.1-2.3-0.1-3.5c0.1-8.6,2.9-17.1,5-25.4C598.2,161.7,600.2,152.9,601.8,145.6z M667.7,101.7c12,17.7,21.2,32,29.2,46.8
	c-14.4-15.9-27.2-30.7-42.2-46c0.3-0.3,0.5-0.6,0.6-0.9C659.5,102.2,663.2,101.8,667.7,101.7z M655.9,97.9
	c6.8-9.5,13-19.3,19.8-28.8c5.6-7.9,13.8-19.4,19.7-27c-9.8,16.6-20.5,38.2-28.9,55.4c0,0.1,0,0.1-0.1,0.2
	C662.9,97.5,659.4,97.5,655.9,97.9z M733.1,98.7c-0.4-1-1-2-1.2-2.8c-6.7-17.3-17.9-38.3-27.8-54c15.3,15.2,32.1,37.1,40.7,57
	C741.3,98.8,736.4,98.8,733.1,98.7z M744.5,102.9c-11.2,16.6-25,31-39.2,45.1c4.8-8.8,19.8-32.4,23.1-37c1-1.4,4.2-6.4,5-8
	c3.3,0.1,6.6,0.2,10,0.3C743.8,103.2,744.2,103,744.5,102.9z M727.6,96.1c0.3,0.9,0.7,1.7,1,2.4c-5-0.1-10.1-0.2-15.1-0.3
	c0.1-1.5,0.1-3,0-4.5c-0.5-8.4-2.6-16.9-4-25.1c-0.8-4.6-2.6-13.4-3.3-18C714,63.8,721.9,81.8,727.6,96.1z M713,102.4
	c5.1,0.1,10.2,0.2,15.4,0.3c-1.2,2.2-20.8,32.7-23.8,38.5c1.7-7.2,3.6-16,5.1-23.2C710.7,113,712.2,107.7,713,102.4z M705.7,117.9
	c-1.5,7.4-3.2,17.1-4.5,24.5c-1.7-7.1-3.6-16.5-5.5-23.6c-1.4-5.5-3.1-11.1-3.9-16.7c1.9,0,3.7,0,5.6,0.1c3.9,0.1,7.7,0.1,11.6,0.2
	C708.2,107.6,706.7,112.9,705.7,117.9z M698.2,143.9c-6-11.2-16.2-32.2-24.3-42c0.3,0,0.6,0,1,0c4.3,0,8.6,0.1,12.8,0.1
	c0.7,5.4,2.1,10.8,3.5,16.1C692.5,123.2,696.9,138.8,698.2,143.9z M698.7,156.7c-2.4,24.9-2,50.5-0.9,75.5
	c-17.2-9.1-32.9-20.4-47.9-32.7c-0.1-0.1-0.3-0.2-0.4-0.3c-5.1-10.4-29.4-47.7-47.8-63.8c14.8-12.8,34.4-18.5,49.9-30.3
	C667,122.6,683.1,139.5,698.7,156.7z M713.5,293.7c-0.5-8.4-2.6-16.9-4-25.1c-0.8-4.6-2.6-13.4-3.3-18c7.8,13.2,15.7,31.2,21.4,45.6
	c0.3,0.9,0.7,1.7,1,2.4c-5-0.1-10.1-0.2-15.1-0.3C713.6,296.7,713.6,295.2,713.5,293.7z M713,302.4c5.1,0.1,10.2,0.2,15.4,0.3
	c-1.2,2.2-20.8,32.7-23.8,38.5c1.7-7.2,3.6-16,5.1-23.2C710.7,313,712.2,307.7,713,302.4z M733.4,302.9c3.3,0.1,6.6,0.2,10,0.3
	c0.5,0,0.8-0.1,1.1-0.3c-11.2,16.6-25,31-39.2,45.1c4.8-8.8,19.8-32.4,23.1-37C729.4,309.5,732.6,304.5,733.4,302.9z M705.7,317.9
	c-1.5,7.4-3.2,17.1-4.5,24.5c-1.7-7.1-3.6-16.5-5.5-23.6c-1.4-5.5-3.1-11.1-3.9-16.7c1.9,0,3.7,0,5.6,0.1c3.9,0.1,7.7,0.1,11.6,0.2
	C708.2,307.6,706.7,312.9,705.7,317.9z M701.2,542.4c-1.7-7.1-3.6-16.5-5.5-23.6c-1.4-5.5-3.1-11.1-3.9-16.7c1.9,0,3.7,0,5.6,0.1
	c3.9,0.1,7.7,0.1,11.6,0.2c-0.8,5.3-2.3,10.6-3.3,15.6C704.2,525.3,702.5,535,701.2,542.4z M650.8,499.4c0,0.1-0.1,0.2-0.3,0.5
	c0,0,0,0,0,0c-16.3,10.5-32.5,20.9-48.7,31.4c1.3-12.8,1.8-25.8,2.1-38.7c0.2-12.1,0.4-24.4-0.5-36.6c16.7-16.2,33.8-32.8,46.2-52.7
	c15.7,10.3,31.5,20.4,46.7,31.5C680.2,455.5,663.5,476.6,650.8,499.4z M613.7,593.7c-0.5-8.4-2.6-16.9-4-25.1
	c-0.8-4.6-2.6-13.4-3.3-18c7.8,13.2,15.7,31.2,21.4,45.6c0.3,0.9,0.7,1.7,1,2.4c-5-0.1-10.1-0.2-15.1-0.3
	C613.7,596.7,613.8,595.2,613.7,593.7z M609.6,593.7c0.1,1.5,0.1,3,0,4.5c-4-0.1-8.1-0.1-12.1-0.2c-2,0-4,0-6-0.1
	c-0.1-1.2-0.1-2.3-0.1-3.5c0.1-8.6,2.9-17.1,5-25.4c1.8-7.3,3.8-16.1,5.5-23.4c1.1,6.6,2.2,14.7,3.4,21.3
	C606.7,575.7,609.1,584.8,609.6,593.7z M587.5,597.9c-4.1,0-8.3-0.1-12.4-0.1c-1.3,0-2.6,0-3.9-0.1c4.7-9.5,9.4-19,14.3-28.4
	c4.3-8.3,9-16.5,13.2-24.8c-2.4,8.4-4.4,16.9-6.5,25.3c-2,8.1-4.5,16.2-4.7,24.6C587.3,595.6,587.4,596.7,587.5,597.9z M502.3,436.1
	c3-1.3,5.8-3.2,8.4-4.8c4.9-2.9,9.8-5.9,14.6-9c8.8-5.7,17.2-11.9,25.4-18.4c15.8,18,32.4,35.4,48.5,53.1c0.1,0.1,0.3,0.2,0.4,0.3
	c0.1,11.7,0.6,23.5,0.3,35.2c-0.3,13.5-1.3,26.8-2.3,40.3c-16.1-11.3-31.9-23.3-48.4-33.8C544,488.5,520.5,452.4,502.3,436.1z
	 M413.7,593.7c-0.5-8.4-2.6-16.9-4-25.1c-0.8-4.6-2.6-13.4-3.3-18c7.8,13.2,15.7,31.2,21.4,45.6c0.3,0.9,0.7,1.7,1,2.4
	c-5-0.1-10.1-0.2-15.1-0.3C413.7,596.7,413.8,595.2,413.7,593.7z M409.6,593.7c0.1,1.5,0.1,3,0,4.5c-4-0.1-8.1-0.1-12.1-0.2
	c-2,0-4,0-6-0.1c-0.1-1.2-0.1-2.3-0.1-3.5c0.1-8.6,2.9-17.1,5-25.4c1.8-7.3,3.8-16.1,5.5-23.4c1.1,6.6,2.2,14.7,3.4,21.3
	C406.7,575.7,409.1,584.8,409.6,593.7z M387.5,597.9c-4.1,0-8.3-0.1-12.4-0.1c-1.3,0-2.6,0-3.9-0.1c4.7-9.5,9.4-19,14.3-28.4
	c4.3-8.3,9-16.5,13.2-24.8c-2.4,8.4-4.4,16.9-6.5,25.3c-2,8.1-4.5,16.2-4.7,24.6C387.3,595.6,387.4,596.7,387.5,597.9z M366.6,597.4
	c0,0.1,0,0.1-0.1,0.2c-3.5-0.1-7.1-0.1-10.5,0.3c6.8-9.5,13-19.3,19.8-28.8c5.6-7.9,13.8-19.4,19.7-27
	C385.7,558.7,375.1,580.2,366.6,597.4z M303.5,437.2c2.5-1.3,4.8-3,7-4.3c5-2.9,9.9-5.8,14.8-8.8c9.3-5.7,18.5-11.7,27.6-17.8
	c15.1,17.1,30.8,33.6,46.1,50.4c-0.4,12.2,0,24.4-0.1,36.6c-0.1,13-0.5,26-0.5,39.1c-6.8-5.7-13.9-11-21.2-16
	c-8.7-5.9-17.7-12.4-27.2-16.9c-0.2-0.1-0.3-0.1-0.5-0.2C344.6,489.5,321.7,454.1,303.5,437.2z M213.7,593.7
	c-0.5-8.4-2.6-16.9-4-25.1c-0.8-4.6-2.6-13.4-3.3-18c7.8,13.2,15.7,31.2,21.4,45.6c0.3,0.9,0.7,1.7,1,2.4c-5-0.1-10.1-0.2-15.1-0.3
	C213.7,596.7,213.8,595.2,213.7,593.7z M209.6,593.7c0.1,1.5,0.1,3,0,4.5c-4-0.1-8.1-0.1-12.1-0.2c-2,0-4,0-6-0.1
	c-0.1-1.2-0.1-2.3-0.1-3.5c0.1-8.6,2.9-17.1,5-25.4c1.8-7.3,3.8-16.1,5.5-23.4c1.1,6.6,2.2,14.7,3.4,21.3
	C206.7,575.7,209.1,584.8,209.6,593.7z M187.5,597.9c-4.1,0-8.3-0.1-12.4-0.1c-1.3,0-2.6,0-3.9-0.1c4.7-9.5,9.4-19,14.3-28.4
	c4.3-8.3,9-16.5,13.2-24.8c-2.4,8.4-4.4,16.9-6.5,25.3c-2,8.1-4.5,16.2-4.7,24.6C187.3,595.6,187.4,596.7,187.5,597.9z M101.2,435.1
	c16.7-10,33.2-20.5,49.3-31.5c15.7,18,32.2,35.3,48.3,52.9c-0.8,12.6,0,25.5-0.2,38.2c-0.2,12.8-0.6,25.6-1,38.4
	c-14.8-12.2-30.7-24.2-47.8-32.9C145.9,491.4,120.2,451.5,101.2,435.1z M113.5,493.7c-0.5-8.4-2.6-16.9-4-25.1
	c-0.8-4.6-2.6-13.4-3.3-18c7.8,13.2,15.7,31.2,21.4,45.6c0.3,0.9,0.7,1.7,1,2.4c-5-0.1-10.1-0.2-15.1-0.3
	C113.6,496.7,113.6,495.2,113.5,493.7z M113,502.4c5.1,0.1,10.2,0.2,15.4,0.3c-1.2,2.2-20.8,32.7-23.8,38.5c1.7-7.2,3.6-16,5.1-23.2
	C110.7,513,112.2,507.7,113,502.4z M128.4,510.9c1-1.4,4.2-6.4,5-8c3.3,0.1,6.6,0.2,10,0.3c0.5,0,0.8-0.1,1.1-0.3
	c-11.2,16.6-25,31-39.2,45.1C110.1,539.1,125,515.5,128.4,510.9z M133.1,498.7c-0.4-1-1-2-1.2-2.8c-6.7-17.3-17.9-38.3-27.8-54
	c15.3,15.2,32.1,37.1,40.7,57C141.3,498.8,136.4,498.8,133.1,498.7z M102.3,356.8c16.8-16.3,33.9-32.8,46.5-52.7
	c15.4,10.8,31.2,21.1,46.8,31.5c-15.4,19.8-31.3,40.2-43.7,62c-16.8,11.6-34,22.6-51.6,33.2C103.3,406.5,104.8,381.2,102.3,356.8z
	 M249,204.2c14.5,11.8,30,22.4,45.5,32.8c-15.2,19.6-30.9,39.8-43.1,61.4c0,0,0,0,0,0c-19,7.6-35.9,19.5-49.7,34.5
	c0.3-12.7,0.5-25.4,0.7-38.1c0.2-12.8,0.9-25.6,0.6-38.4C219.5,240.3,236.5,223.8,249,204.2z M301.7,245.6
	c1.1,6.6,2.2,14.7,3.4,21.3c1.5,8.8,3.8,17.9,4.4,26.9c0.1,1.5,0.1,3,0,4.5c-4-0.1-8.1-0.1-12.1-0.2c-2,0-4,0-6-0.1
	c-0.1-1.2-0.1-2.3-0.1-3.5c0.1-8.6,2.9-17.1,5-25.4C298.1,261.7,300.1,252.9,301.7,245.6z M350.2,203.2
	c15.8,18.1,32.4,35.4,48.5,53.2c-0.4,12.5,0.6,25.2,0.7,37.6c0.1,13.1-0.1,26.2-0.4,39.4c-0.2-0.1-0.4-0.1-0.6-0.1
	c-15.4-11.4-31.4-22.4-48.1-31.9c-1.1-4.8-27.6-47-47.7-65.2c16.5-10,32.8-21,47.3-33.6C349.9,202.9,350,203.1,350.2,203.2z
	 M367.8,201.7c12,17.7,21.2,32,29.2,46.8c-14.7-16.3-27.8-31.4-43.2-47.1C358.6,202.3,362.8,201.9,367.8,201.7z M356.1,197.9
	c6.8-9.5,13-19.3,19.8-28.8c5.6-7.9,13.8-19.4,19.7-27c-9.8,16.6-20.5,38.2-28.9,55.4c0,0.1,0,0.1-0.1,0.2
	C363.1,197.5,359.5,197.5,356.1,197.9z M449.3,203.7c5.8,6.2,12.9,11.5,20.1,16c8.7,5.4,18.9,8.6,26.4,15.7
	c-15.7,20.2-31.9,41-44.6,63.3c-0.3,0-0.7,0-1.1,0.3c-16.5,9.4-32.1,20.9-47.2,32.6c0.3-12.8,0.4-25.6,0.4-38.4
	c-0.1-12,0.3-24.3-0.8-36.3C419.4,240.4,436.7,223.7,449.3,203.7z M649.5,203.4c13.8,12.8,29.6,23.3,46.1,32.2
	c-15.7,20.3-32.1,41.2-44.7,63.6c-0.4,0-0.7,0.2-1.1,0.5c-15.2,12.3-31.3,23.1-48.6,32.3c1.5-25,2.3-50.4,1.5-75.4
	C619.6,240.2,636.9,223.5,649.5,203.4z M698.4,356.4c0.1,12.1,1.1,24.1,0.9,36.2c-0.2,12.7-1,25.4-2.2,38.1
	c-15.4-11.2-31.1-22.2-47.6-31.6c-0.1,0-0.1-0.1-0.2-0.1c-5.3-10.5-28.9-46.8-47-63.1c17.1-9,33.4-19.7,48.4-31.9
	C666.3,321.8,682.6,338.9,698.4,356.4z M687.3,497.9c-4.1,0-8.3-0.1-12.4-0.1c-1.3,0-2.6,0-3.9-0.1c4.7-9.5,9.4-19,14.3-28.4
	c4.3-8.3,9-16.5,13.2-24.8c-2.4,8.4-4.4,16.9-6.5,25.3c-2,8.1-4.5,16.2-4.7,24.6C687.2,495.6,687.2,496.7,687.3,497.9z M666.5,497.4
	c0,0.1,0,0.1-0.1,0.2c-3.5-0.1-7.1-0.1-10.5,0.3c6.8-9.5,13-19.3,19.8-28.8c5.6-7.9,13.8-19.4,19.7-27
	C685.6,458.7,674.9,480.2,666.5,497.4z M601.3,442.4c-1.7-7.1-3.6-16.5-5.5-23.6c-1.4-5.5-3.1-11.1-3.9-16.7c1.9,0,3.7,0,5.6,0.1
	c3.9,0.1,7.7,0.1,11.6,0.2c-0.8,5.3-2.3,10.6-3.3,15.6C604.3,425.3,602.6,435,601.3,442.4z M551.1,399.1c-0.4,0-0.8,0.2-1.2,0.5
	c-15,12-31.4,24.4-48.8,32.6c-0.3,0.1-0.5,0.2-0.8,0.3c0.2-12.6,0.2-25.1,0.5-37.7c0.3-12.5,1-25,1.1-37.5c0.1-0.1,0.2-0.1,0.3-0.2
	c16.9-16.4,34.1-33,46.8-53c6.8,6.4,15.4,11.4,23.5,15.7c8.3,4.4,17.3,8.4,23.1,16C579.9,356,563.6,376.8,551.1,399.1z M513.5,493.7
	c-0.5-8.4-2.6-16.9-4-25.1c-0.8-4.6-2.6-13.4-3.3-18c7.8,13.2,15.7,31.2,21.4,45.6c0.3,0.9,0.7,1.7,1,2.4c-5-0.1-10.1-0.2-15.1-0.3
	C513.6,496.7,513.6,495.2,513.5,493.7z M509.5,493.7c0.1,1.5,0.1,3,0,4.5c-4-0.1-8.1-0.1-12.1-0.2c-2,0-4,0-6-0.1
	c-0.1-1.2-0.1-2.3-0.1-3.5c0.1-8.6,2.9-17.1,5-25.4c1.8-7.3,3.8-16.1,5.5-23.4c1.1,6.6,2.2,14.7,3.4,21.3
	C506.6,475.7,508.9,484.8,509.5,493.7z M487.3,497.9c-4.1,0-8.3-0.1-12.4-0.1c-1.3,0-2.6,0-3.9-0.1c4.7-9.5,9.4-19,14.3-28.4
	c4.3-8.3,9-16.5,13.2-24.8c-2.4,8.4-4.4,16.9-6.5,25.3c-2,8.1-4.5,16.2-4.7,24.6C487.2,495.6,487.2,496.7,487.3,497.9z M455.9,497.9
	c6.8-9.5,13-19.3,19.8-28.8c5.6-7.9,13.8-19.4,19.7-27c-9.8,16.6-20.5,38.2-28.9,55.4c0,0.1,0,0.1-0.1,0.2
	C462.9,497.5,459.4,497.5,455.9,497.9z M402.9,336.5c15.3-11.8,31.3-22.2,47.3-33c15.6,17.9,32,35.1,48,52.6
	c-1,12.8-1.1,25.8-1.4,38.7c-0.3,12.7-0.6,25.5-0.5,38.2c-4-0.4-7.5-3.4-11-5.8c-4-2.7-8-5.5-11.9-8.4c-8.1-6-15.7-12.6-23.6-18.9
	C445.6,390.9,421.6,353.5,402.9,336.5z M401.3,442.4c-1.7-7.1-3.6-16.5-5.5-23.6c-1.4-5.5-3.1-11.1-3.9-16.7c1.9,0,3.7,0,5.6,0.1
	c3.9,0.1,7.7,0.1,11.6,0.2c-0.8,5.3-2.3,10.6-3.3,15.6C404.3,425.3,402.6,435,401.3,442.4z M313.5,493.7c-0.5-8.4-2.6-16.9-4-25.1
	c-0.8-4.6-2.6-13.4-3.3-18c7.8,13.2,15.7,31.2,21.4,45.6c0.3,0.9,0.7,1.7,1,2.4c-5-0.1-10.1-0.2-15.1-0.3
	C313.6,496.7,313.6,495.2,313.5,493.7z M309.5,493.7c0.1,1.5,0.1,3,0,4.5c-4-0.1-8.1-0.1-12.1-0.2c-2,0-4,0-6-0.1
	c-0.1-1.2-0.1-2.3-0.1-3.5c0.1-8.6,2.9-17.1,5-25.4c1.8-7.3,3.8-16.1,5.5-23.4c1.1,6.6,2.2,14.7,3.4,21.3
	C306.6,475.7,308.9,484.8,309.5,493.7z M287.3,497.9c-4.1,0-8.3-0.1-12.4-0.1c-1.3,0-2.6,0-3.9-0.1c4.7-9.5,9.4-19,14.3-28.4
	c4.3-8.3,9-16.5,13.2-24.8c-2.4,8.4-4.4,16.9-6.5,25.3c-2,8.1-4.5,16.2-4.7,24.6C287.2,495.6,287.2,496.7,287.3,497.9z M203.5,337
	c13-14.5,28.8-25.9,46.7-33.6c15.7,18,32.3,35.3,48.3,53c-1.7,25.7-1.2,51.8-1.6,77.5c0,0,0,0,0,0c-0.1,0.2-0.2,0.3-0.4,0.5
	c-1.3-0.3-2.5-1.2-4.2-2.5c-2.1-1.5-4.3-3-6.4-4.6c-4.3-3.1-8.5-6.1-12.7-9.2c-7.6-5.5-14.9-11.7-22.8-16.8
	C248.8,395.8,223.2,355.4,203.5,337z M167.8,401.7c12,17.7,21.2,32,29.2,46.8c-14.7-16.3-27.8-31.4-43.2-47.1
	C158.6,402.3,162.8,401.9,167.8,401.7z M201.8,345.6c1.1,6.6,2.2,14.7,3.4,21.3c1.5,8.8,3.8,17.9,4.4,26.9c0.1,1.5,0.1,3,0,4.5
	c-4-0.1-8.1-0.1-12.1-0.2c-2,0-4,0-6-0.1c-0.1-1.2-0.1-2.3-0.1-3.5c0.1-8.6,2.9-17.1,5-25.4C198.2,361.7,200.2,352.9,201.8,345.6z
	 M213.7,393.7c-0.5-8.4-2.6-16.9-4-25.1c-0.8-4.6-2.6-13.4-3.3-18c7.8,13.2,15.7,31.2,21.4,45.6c0.3,0.9,0.7,1.7,1,2.4
	c-5-0.1-10.1-0.2-15.1-0.3C213.7,396.7,213.8,395.2,213.7,393.7z M192,369.8c-2,8.1-4.5,16.2-4.7,24.6c0,1.2,0,2.3,0.1,3.5
	c-4.1,0-8.3-0.1-12.4-0.1c-1.3,0-2.6,0-3.9-0.1c4.7-9.5,9.4-19,14.3-28.4c4.3-8.3,9-16.5,13.2-24.8
	C196.1,352.9,194.1,361.4,192,369.8z M166.6,397.4c0,0.1,0,0.1-0.1,0.2c-3.5-0.1-7.1-0.1-10.5,0.3c6.8-9.5,13-19.3,19.8-28.8
	c5.6-7.9,13.8-19.4,19.7-27C185.7,358.7,175.1,380.2,166.6,397.4z M174.1,401.9c0.3,0,0.6,0,1,0c4.3,0,8.6,0.1,12.8,0.1
	c0.7,5.4,2.1,10.8,3.5,16.1c1.3,5.1,5.7,20.7,7,25.8C192.4,432.7,182.2,411.7,174.1,401.9z M195.9,418.8c-1.4-5.5-3.1-11.1-3.9-16.7
	c1.9,0,3.7,0,5.6,0.1c3.9,0.1,7.7,0.1,11.6,0.2c-0.8,5.3-2.3,10.6-3.3,15.6c-1.5,7.4-3.2,17.1-4.5,24.5
	C199.6,435.3,197.7,425.9,195.9,418.8z M209.8,418c1-5,2.6-10.3,3.4-15.6c5.1,0.1,10.2,0.2,15.4,0.3c-1.2,2.2-20.8,32.7-23.8,38.5
	C206.4,434,208.2,425.3,209.8,418z M228.5,410.9c1-1.4,4.2-6.4,5-8c3.3,0.1,6.6,0.2,10,0.3c0.5,0,0.8-0.1,1.1-0.3
	c-11.2,16.6-25,31-39.2,45.1C210.2,439.1,225.2,415.5,228.5,410.9z M233.2,398.7c-0.4-1-1-2-1.2-2.8c-6.7-17.3-17.9-38.3-27.8-54
	c15.3,15.2,32.1,37.1,40.7,57C241.5,398.8,236.6,398.8,233.2,398.7z M333.1,298.7c-0.4-1-1-2-1.2-2.8c-6.7-17.3-17.9-38.3-27.8-54
	c15.3,15.2,32.1,37.1,40.7,57C341.3,298.8,336.4,298.8,333.1,298.7z M344.5,302.9c-11.2,16.6-25,31-39.2,45.1
	c4.8-8.8,19.8-32.4,23.1-37c1-1.4,4.2-6.4,5-8c3.3,0.1,6.6,0.2,10,0.3C343.8,303.2,344.2,303,344.5,302.9z M327.6,296.1
	c0.3,0.9,0.7,1.7,1,2.4c-5-0.1-10.1-0.2-15.1-0.3c0.1-1.5,0.1-3,0-4.5c-0.5-8.4-2.6-16.9-4-25.1c-0.8-4.6-2.6-13.4-3.3-18
	C314,263.8,321.9,281.8,327.6,296.1z M313,302.4c5.1,0.1,10.2,0.2,15.4,0.3c-1.2,2.2-20.8,32.7-23.8,38.5c1.7-7.2,3.6-16,5.1-23.2
	C310.7,313,312.2,307.7,313,302.4z M305.7,317.9c-1.5,7.4-3.2,17.1-4.5,24.5c-1.7-7.1-3.6-16.5-5.5-23.6c-1.4-5.5-3.1-11.1-3.9-16.7
	c1.9,0,3.7,0,5.6,0.1c3.9,0.1,7.7,0.1,11.6,0.2C308.2,307.6,306.7,312.9,305.7,317.9z M298.2,343.9c-6-11.2-16.2-32.2-24.3-42
	c0.3,0,0.6,0,1,0c4.3,0,8.6,0.1,12.8,0.1c0.7,5.4,2.1,10.8,3.5,16.1C292.5,323.2,296.9,338.8,298.2,343.9z M296.9,348.6
	c-14.7-16.3-27.8-31.4-43.2-47.1c4.9,0.8,9,0.4,14.1,0.3C279.7,319.4,288.9,333.7,296.9,348.6z M266.5,497.4c0,0.1,0,0.1-0.1,0.2
	c-3.5-0.1-7.1-0.1-10.5,0.3c6.8-9.5,13-19.3,19.8-28.8c5.6-7.9,13.8-19.4,19.7-27C285.6,458.7,274.9,480.2,266.5,497.4z
	 M300.9,433.6C300.9,433.6,300.9,433.6,300.9,433.6c0.5-25.5,2-51.2,1.3-76.7c16.6-16.1,33.6-32.5,46.2-52.2
	c15.9,10.1,31.7,20.2,46.9,31.3c-15.7,20.3-31.9,41-44.5,63.4c-0.2,0.3-1.6,2.5-0.9,3.7c-7.5,5.1-15.2,10-22.9,14.9
	c-4.3,2.7-8.7,5.4-13.1,8C309.9,428.4,305.5,431.7,300.9,433.6z M401.8,345.6c1.1,6.6,2.2,14.7,3.4,21.3c1.5,8.8,3.8,17.9,4.4,26.9
	c0.1,1.5,0.1,3,0,4.5c-4-0.1-8.1-0.1-12.1-0.2c-2,0-4,0-6-0.1c-0.1-1.2-0.1-2.3-0.1-3.5c0.1-8.6,2.9-17.1,5-25.4
	C398.2,361.7,400.2,352.9,401.8,345.6z M413.7,393.7c-0.5-8.4-2.6-16.9-4-25.1c-0.8-4.6-2.6-13.4-3.3-18
	c7.8,13.2,15.7,31.2,21.4,45.6c0.3,0.9,0.7,1.7,1,2.4c-5-0.1-10.1-0.2-15.1-0.3C413.7,396.7,413.8,395.2,413.7,393.7z M392,369.8
	c-2,8.1-4.5,16.2-4.7,24.6c0,1.2,0,2.3,0.1,3.5c-4.1,0-8.3-0.1-12.4-0.1c-1.3,0-2.6,0-3.9-0.1c4.7-9.5,9.4-19,14.3-28.4
	c4.3-8.3,9-16.5,13.2-24.8C396.1,352.9,394.1,361.4,392,369.8z M366.6,397.4c0,0.1,0,0.1-0.1,0.2c-3.5-0.1-7.1-0.1-10.5,0.3
	c6.8-9.5,13-19.3,19.8-28.8c5.6-7.9,13.8-19.4,19.7-27C385.7,358.7,375.1,380.2,366.6,397.4z M355.4,401.7c4.2,0.5,8,0.1,12.4,0
	c12,17.7,21.2,32,29.2,46.8c-14.1-15.6-26.7-30.1-41.2-45C356,402.9,355.8,402.2,355.4,401.7z M374.1,401.9c0.3,0,0.6,0,1,0
	c4.3,0,8.6,0.1,12.8,0.1c0.7,5.4,2.1,10.8,3.5,16.1c1.3,5.1,5.7,20.7,7,25.8C392.4,432.7,382.2,411.7,374.1,401.9z M409.8,418
	c1-5,2.6-10.3,3.4-15.6c5.1,0.1,10.2,0.2,15.4,0.3c-1.2,2.2-20.8,32.7-23.8,38.5C406.4,434,408.2,425.3,409.8,418z M428.5,410.9
	c1-1.4,4.2-6.4,5-8c3.3,0.1,6.6,0.2,10,0.3c0.5,0,0.8-0.1,1.1-0.3c-11.2,16.6-25,31-39.2,45.1C410.2,439.1,425.2,415.5,428.5,410.9z
	 M433.2,398.7c-0.4-1-1-2-1.2-2.8c-6.7-17.3-17.9-38.3-27.8-54c15.3,15.2,32.1,37.1,40.7,57C441.5,398.8,436.6,398.8,433.2,398.7z
	 M467.7,301.7c12,17.7,21.2,32,29.2,46.8c-14.7-16.3-27.8-31.4-43.2-47.1C458.5,302.3,462.6,301.9,467.7,301.7z M455.9,297.9
	c6.8-9.5,13-19.3,19.8-28.8c5.6-7.9,13.8-19.4,19.7-27c-9.8,16.6-20.5,38.2-28.9,55.4c0,0.1,0,0.1-0.1,0.2
	C462.9,297.5,459.4,297.5,455.9,297.9z M533.1,298.7c-0.4-1-1-2-1.2-2.8c-6.7-17.3-17.9-38.3-27.8-54c15.3,15.2,32.1,37.1,40.7,57
	C541.3,298.8,536.4,298.8,533.1,298.7z M544.5,302.9c-11.2,16.6-25,31-39.2,45.1c4.8-8.8,19.8-32.4,23.1-37c1-1.4,4.2-6.4,5-8
	c3.3,0.1,6.6,0.2,10,0.3C543.8,303.2,544.2,303,544.5,302.9z M527.6,296.1c0.3,0.9,0.7,1.7,1,2.4c-5-0.1-10.1-0.2-15.1-0.3
	c0.1-1.5,0.1-3,0-4.5c-0.5-8.4-2.6-16.9-4-25.1c-0.8-4.6-2.6-13.4-3.3-18C514,263.8,521.9,281.8,527.6,296.1z M513,302.4
	c5.1,0.1,10.2,0.2,15.4,0.3c-1.2,2.2-20.8,32.7-23.8,38.5c1.7-7.2,3.6-16,5.1-23.2C510.7,313,512.2,307.7,513,302.4z M505.7,317.9
	c-1.5,7.4-3.2,17.1-4.5,24.5c-1.7-7.1-3.6-16.5-5.5-23.6c-1.4-5.5-3.1-11.1-3.9-16.7c1.9,0,3.7,0,5.6,0.1c3.9,0.1,7.7,0.1,11.6,0.2
	C508.2,307.6,506.7,312.9,505.7,317.9z M498.2,343.9c-6-11.2-16.2-32.2-24.3-42c0.3,0,0.6,0,1,0c4.3,0,8.6,0.1,12.8,0.1
	c0.7,5.4,2.1,10.8,3.5,16.1C492.5,323.2,496.9,338.8,498.2,343.9z M601.8,345.6c1.1,6.6,2.2,14.7,3.4,21.3
	c1.5,8.8,3.8,17.9,4.4,26.9c0.1,1.5,0.1,3,0,4.5c-4-0.1-8.1-0.1-12.1-0.2c-2,0-4,0-6-0.1c-0.1-1.2-0.1-2.3-0.1-3.5
	c0.1-8.6,2.9-17.1,5-25.4C598.2,361.7,600.2,352.9,601.8,345.6z M613.7,393.7c-0.5-8.4-2.6-16.9-4-25.1c-0.8-4.6-2.6-13.4-3.3-18
	c7.8,13.2,15.7,31.2,21.4,45.6c0.3,0.9,0.7,1.7,1,2.4c-5-0.1-10.1-0.2-15.1-0.3C613.7,396.7,613.8,395.2,613.7,393.7z M592,369.8
	c-2,8.1-4.5,16.2-4.7,24.6c0,1.2,0,2.3,0.1,3.5c-4.1,0-8.3-0.1-12.4-0.1c-1.3,0-2.6,0-3.9-0.1c4.7-9.5,9.4-19,14.3-28.4
	c4.3-8.3,9-16.5,13.2-24.8C596.1,352.9,594.1,361.4,592,369.8z M566.6,397.4c0,0.1,0,0.1-0.1,0.2c-3.5-0.1-7.1-0.1-10.5,0.3
	c6.8-9.5,13-19.3,19.8-28.8c5.6-7.9,13.8-19.4,19.7-27C585.7,358.7,575.1,380.2,566.6,397.4z M567.8,401.7
	c12,17.7,21.2,32,29.2,46.8c-14.7-16.3-27.8-31.4-43.2-47.1C558.6,402.3,562.8,401.9,567.8,401.7z M574.1,401.9c0.3,0,0.6,0,1,0
	c4.3,0,8.6,0.1,12.8,0.1c0.7,5.4,2.1,10.8,3.5,16.1c1.3,5.1,5.7,20.7,7,25.8C592.4,432.7,582.2,411.7,574.1,401.9z M609.8,418
	c1-5,2.6-10.3,3.4-15.6c5.1,0.1,10.2,0.2,15.4,0.3c-1.2,2.2-20.8,32.7-23.8,38.5C606.4,434,608.2,425.3,609.8,418z M628.5,410.9
	c1-1.4,4.2-6.4,5-8c3.3,0.1,6.6,0.2,10,0.3c0.5,0,0.8-0.1,1.1-0.3c-11.2,16.6-25,31-39.2,45.1C610.2,439.1,625.2,415.5,628.5,410.9z
	 M633.2,398.7c-0.4-1-1-2-1.2-2.8c-6.7-17.3-17.9-38.3-27.8-54c15.3,15.2,32.1,37.1,40.7,57C641.5,398.8,636.6,398.8,633.2,398.7z
	 M653.6,301.5c4.9,0.8,9,0.4,14.1,0.3c12,17.7,21.2,32,29.2,46.8C682.1,332.3,669,317.1,653.6,301.5z M666.5,297.4
	c0,0.1,0,0.1-0.1,0.2c-3.5-0.1-7.1-0.1-10.5,0.3c6.8-9.5,13-19.3,19.8-28.8c5.6-7.9,13.8-19.4,19.7-27
	C685.6,258.7,674.9,280.2,666.5,297.4z M605.4,247.9c4.8-8.8,19.8-32.4,23.1-37c1-1.4,4.2-6.4,5-8c3.3,0.1,6.6,0.2,10,0.3
	c0.5,0,0.8-0.1,1.1-0.3C633.4,219.5,619.7,233.9,605.4,247.9z M633.2,198.7c-0.4-1-1-2-1.2-2.8c-6.7-17.3-17.9-38.3-27.8-54
	c15.3,15.2,32.1,37.1,40.7,57C641.5,198.8,636.6,198.8,633.2,198.7z M627.7,196.1c0.3,0.9,0.7,1.7,1,2.4c-5-0.1-10.1-0.2-15.1-0.3
	c0.1-1.5,0.1-3,0-4.5c-0.5-8.4-2.6-16.9-4-25.1c-0.8-4.6-2.6-13.4-3.3-18C614.2,163.8,622.1,181.8,627.7,196.1z M613.2,202.4
	c5.1,0.1,10.2,0.2,15.4,0.3c-1.2,2.2-20.8,32.7-23.8,38.5c1.7-7.2,3.6-16,5.1-23.2C610.8,213,612.3,207.7,613.2,202.4z M605.8,217.9
	c-1.5,7.4-3.2,17.1-4.5,24.5c-1.7-7.1-3.6-16.5-5.5-23.6c-1.4-5.5-3.1-11.1-3.9-16.7c1.9,0,3.7,0,5.6,0.1c3.9,0.1,7.7,0.1,11.6,0.2
	C608.3,207.6,606.8,212.9,605.8,217.9z M598.3,243.9c-6-11.2-16.2-32.2-24.3-42c0.3,0,0.6,0,1,0c4.3,0,8.6,0.1,12.8,0.1
	c0.7,5.4,2.1,10.8,3.5,16.1C592.7,223.2,597,238.8,598.3,243.9z M597,248.6c-14.7-16.2-27.7-31.3-43-46.8c0.1-0.1,0.1-0.1,0.2-0.2
	c4.7,0.7,8.8,0.3,13.7,0.2C579.9,219.4,589,233.7,597,248.6z M599,256.8c-0.6,24.9-0.9,49.8-1.8,74.7c-5.3-6-12.3-9.8-19.4-13.5
	c-10-5.2-18.7-11.6-28-17.7c-3.8-8.5-29.4-48.5-48.5-65.1c16.4-10.6,32.9-21,49.4-31.3C566.5,221.9,582.9,239.1,599,256.8z
	 M501.7,245.6c1.1,6.6,2.2,14.7,3.4,21.3c1.5,8.8,3.8,17.9,4.4,26.9c0.1,1.5,0.1,3,0,4.5c-4-0.1-8.1-0.1-12.1-0.2c-2,0-4,0-6-0.1
	c-0.1-1.2-0.1-2.3-0.1-3.5c0.1-8.6,2.9-17.1,5-25.4C498.1,261.7,500.1,252.9,501.7,245.6z M498.4,244.5c-2.4,8.4-4.4,16.9-6.5,25.3
	c-2,8.1-4.5,16.2-4.7,24.6c0,1.2,0,2.3,0.1,3.5c-4.1,0-8.3-0.1-12.4-0.1c-1.3,0-2.6,0-3.9-0.1c4.7-9.5,9.4-19,14.3-28.4
	C489.5,261,494.2,252.9,498.4,244.5z M405.4,247.9c4.8-8.8,19.8-32.4,23.1-37c1-1.4,4.2-6.4,5-8c3.3,0.1,6.6,0.2,10,0.3
	c0.5,0,0.8-0.1,1.1-0.3C433.4,219.5,419.7,233.9,405.4,247.9z M433.2,198.7c-0.4-1-1-2-1.2-2.8c-6.7-17.3-17.9-38.3-27.8-54
	c15.3,15.2,32.1,37.1,40.7,57C441.5,198.8,436.6,198.8,433.2,198.7z M427.7,196.1c0.3,0.9,0.7,1.7,1,2.4c-5-0.1-10.1-0.2-15.1-0.3
	c0.1-1.5,0.1-3,0-4.5c-0.5-8.4-2.6-16.9-4-25.1c-0.8-4.6-2.6-13.4-3.3-18C414.2,163.8,422.1,181.8,427.7,196.1z M413.2,202.4
	c5.1,0.1,10.2,0.2,15.4,0.3c-1.2,2.2-20.8,32.7-23.8,38.5c1.7-7.2,3.6-16,5.1-23.2C410.8,213,412.3,207.7,413.2,202.4z M405.8,217.9
	c-1.5,7.4-3.2,17.1-4.5,24.5c-1.7-7.1-3.6-16.5-5.5-23.6c-1.4-5.5-3.1-11.1-3.9-16.7c1.9,0,3.7,0,5.6,0.1c3.9,0.1,7.7,0.1,11.6,0.2
	C408.3,207.6,406.8,212.9,405.8,217.9z M398.3,243.9c-6-11.2-16.2-32.2-24.3-42c0.3,0,0.6,0,1,0c4.3,0,8.6,0.1,12.8,0.1
	c0.7,5.4,2.1,10.8,3.5,16.1C392.7,223.2,397,238.8,398.3,243.9z M291.9,269.8c-2,8.1-4.5,16.2-4.7,24.6c0,1.2,0,2.3,0.1,3.5
	c-4.1,0-8.3-0.1-12.4-0.1c-1.3,0-2.6,0-3.9-0.1c4.7-9.5,9.4-19,14.3-28.4c4.3-8.3,9-16.5,13.2-24.8C296,252.9,294,261.4,291.9,269.8
	z M266.5,297.4c0,0.1,0,0.1-0.1,0.2c-3.5-0.1-7.1-0.1-10.5,0.3c6.8-9.5,13-19.3,19.8-28.8c5.6-7.9,13.8-19.4,19.7-27
	C285.6,258.7,274.9,280.2,266.5,297.4z M205.4,247.9c4.8-8.8,19.8-32.4,23.1-37c1-1.4,4.2-6.4,5-8c3.3,0.1,6.6,0.2,10,0.3
	c0.5,0,0.8-0.1,1.1-0.3C233.4,219.5,219.7,233.9,205.4,247.9z M233.2,198.7c-0.4-1-1-2-1.2-2.8c-6.7-17.3-17.9-38.3-27.8-54
	c15.3,15.2,32.1,37.1,40.7,57C241.5,198.8,236.6,198.8,233.2,198.7z M227.7,196.1c0.3,0.9,0.7,1.7,1,2.4c-5-0.1-10.1-0.2-15.1-0.3
	c0.1-1.5,0.1-3,0-4.5c-0.5-8.4-2.6-16.9-4-25.1c-0.8-4.6-2.6-13.4-3.3-18C214.2,163.8,222.1,181.8,227.7,196.1z M213.2,202.4
	c5.1,0.1,10.2,0.2,15.4,0.3c-1.2,2.2-20.8,32.7-23.8,38.5c1.7-7.2,3.6-16,5.1-23.2C210.8,213,212.3,207.7,213.2,202.4z M205.8,217.9
	c-1.5,7.4-3.2,17.1-4.5,24.5c-1.7-7.1-3.6-16.5-5.5-23.6c-1.4-5.5-3.1-11.1-3.9-16.7c1.9,0,3.7,0,5.6,0.1c3.9,0.1,7.7,0.1,11.6,0.2
	C208.3,207.6,206.8,212.9,205.8,217.9z M198.3,243.9c-6-11.2-16.2-32.2-24.3-42c0.3,0,0.6,0,1,0c4.3,0,8.6,0.1,12.8,0.1
	c0.7,5.4,2.1,10.8,3.5,16.1C192.7,223.2,197,238.8,198.3,243.9z M197,248.6c-14.6-16.1-27.6-31.1-42.8-46.6c0.1-0.1,0.1-0.3,0.2-0.4
	c4.6,0.7,8.6,0.3,13.4,0.2C179.9,219.4,189,233.7,197,248.6z M199.2,257C199.2,257,199.2,257.1,199.2,257
	c-0.8,12.6-0.6,25.2-0.9,37.8c-0.3,12.4-0.5,24.8-0.8,37.2c-15.8-10.6-31.6-21.4-47.7-31.6c-3.5-8.1-27.8-46.1-46.7-63.6
	c6.3-7.4,15.8-12.1,23.8-17.2c8-5.1,16.1-10.2,24.1-15.3C166.7,222.1,183.2,239.4,199.2,257z M144.7,298.9
	c-3.4-0.1-8.3-0.1-11.6-0.2c-0.4-1-1-2-1.2-2.8c-6.7-17.3-17.9-38.3-27.8-54C119.3,257,136.1,279,144.7,298.9z M144.5,302.9
	c-11.2,16.6-25,31-39.2,45.1c4.8-8.8,19.8-32.4,23.1-37c1-1.4,4.2-6.4,5-8c3.3,0.1,6.6,0.2,10,0.3
	C143.8,303.2,144.2,303,144.5,302.9z M127.6,296.1c0.3,0.9,0.7,1.7,1,2.4c-5-0.1-10.1-0.2-15.1-0.3c0.1-1.5,0.1-3,0-4.5
	c-0.5-8.4-2.6-16.9-4-25.1c-0.8-4.6-2.6-13.4-3.3-18C114,263.8,121.9,281.8,127.6,296.1z M113,302.4c5.1,0.1,10.2,0.2,15.4,0.3
	c-1.2,2.2-20.8,32.7-23.8,38.5c1.7-7.2,3.6-16,5.1-23.2C110.7,313,112.2,307.7,113,302.4z M166.6,597.4c0,0.1,0,0.1-0.1,0.2
	c-3.5-0.1-7.1-0.1-10.5,0.3c6.8-9.5,13-19.3,19.8-28.8c5.6-7.9,13.8-19.4,19.7-27C185.7,558.7,175.1,580.2,166.6,597.4z
	 M201.5,533.4c0.6-12.9,0.8-25.8,1-38.7c0.2-12.5,1-25.5,0-38c16.6-16.1,33.6-32.5,46.1-52.1c7.5,6.6,16,12.3,24,18.2
	c4.7,3.5,9.5,6.9,14.3,10.4c2,1.5,4.3,3.5,6.8,4.7c-14.7,19-29.8,38.5-41.8,59.3c-0.5,0-1,0.1-1.5,0.6
	C235.5,511.4,219.1,523.3,201.5,533.4z M267.7,501.7c12,17.7,21.2,32,29.2,46.8c-14.7-16.3-27.8-31.4-43.2-47.1
	C258.5,502.3,262.6,501.9,267.7,501.7z M273.9,501.9c0.3,0,0.6,0,1,0c4.3,0,8.6,0.1,12.8,0.1c0.7,5.4,2.1,10.8,3.5,16.1
	c1.3,5.1,5.7,20.7,7,25.8C292.2,532.7,282,511.7,273.9,501.9z M295.7,518.8c-1.4-5.5-3.1-11.1-3.9-16.7c1.9,0,3.7,0,5.6,0.1
	c3.9,0.1,7.7,0.1,11.6,0.2c-0.8,5.3-2.3,10.6-3.3,15.6c-1.5,7.4-3.2,17.1-4.5,24.5C299.5,535.3,297.6,525.9,295.7,518.8z M309.6,518
	c1-5,2.6-10.3,3.4-15.6c5.1,0.1,10.2,0.2,15.4,0.3c-1.2,2.2-20.8,32.7-23.8,38.5C306.2,534,308.1,525.3,309.6,518z M328.4,510.9
	c1-1.4,4.2-6.4,5-8c3.3,0.1,6.6,0.2,10,0.3c0.5,0,0.8-0.1,1.1-0.3c-11.2,16.6-25,31-39.2,45.1C310.1,539.1,325,515.5,328.4,510.9z
	 M333.1,498.7c-0.4-1-1-2-1.2-2.8c-6.7-17.3-17.9-38.3-27.8-54c15.3,15.2,32.1,37.1,40.7,57C341.3,498.8,336.4,498.8,333.1,498.7z
	 M402.7,493.3c0.1-12.2,0.5-24.5,0.1-36.7c16.8-16.2,33.8-32.8,46.4-52.6c7.4,7,15.6,13.3,23.8,19.3c4.7,3.4,9.4,6.7,14.2,9.9
	c2.3,1.5,4.7,3.2,7.3,3.9c-15.4,19.9-31.3,40.4-43.7,62.3c0,0,0,0,0,0c-16.4,10.5-32.4,22-48.5,33
	C402.7,519.4,402.6,506.3,402.7,493.3z M454.6,501.6c4.4,0.6,8.4,0.2,13.1,0.1c12,17.7,21.2,32,29.2,46.8
	c-14.6-16.1-27.5-31.1-42.8-46.6C454.3,501.9,454.5,501.7,454.6,501.6z M473.9,501.9c0.3,0,0.6,0,1,0c4.3,0,8.6,0.1,12.8,0.1
	c0.7,5.4,2.1,10.8,3.5,16.1c1.3,5.1,5.7,20.7,7,25.8C492.2,532.7,482,511.7,473.9,501.9z M495.7,518.8c-1.4-5.5-3.1-11.1-3.9-16.7
	c1.9,0,3.7,0,5.6,0.1c3.9,0.1,7.7,0.1,11.6,0.2c-0.8,5.3-2.3,10.6-3.3,15.6c-1.5,7.4-3.2,17.1-4.5,24.5
	C499.5,535.3,497.6,525.9,495.7,518.8z M509.6,518c1-5,2.6-10.3,3.4-15.6c5.1,0.1,10.2,0.2,15.4,0.3c-1.2,2.2-20.8,32.7-23.8,38.5
	C506.2,534,508.1,525.3,509.6,518z M528.4,510.9c1-1.4,4.2-6.4,5-8c3.3,0.1,6.6,0.2,10,0.3c0.5,0,0.8-0.1,1.1-0.3
	c-11.2,16.6-25,31-39.2,45.1C510.1,539.1,525,515.5,528.4,510.9z M533.1,498.7c-0.4-1-1-2-1.2-2.8c-6.7-17.3-17.9-38.3-27.8-54
	c15.3,15.2,32.1,37.1,40.7,57C541.3,498.8,536.4,498.8,533.1,498.7z M566.6,597.4c0,0.1,0,0.1-0.1,0.2c-3.5-0.1-7.1-0.1-10.5,0.3
	c6.8-9.5,13-19.3,19.8-28.8c5.6-7.9,13.8-19.4,19.7-27C585.7,558.7,575.1,580.2,566.6,597.4z M667.7,501.7
	c12,17.7,21.2,32,29.2,46.8c-14.7-16.3-27.8-31.4-43.2-47.1C658.5,502.3,662.6,501.9,667.7,501.7z M673.9,501.9c0.3,0,0.6,0,1,0
	c4.3,0,8.6,0.1,12.8,0.1c0.7,5.4,2.1,10.8,3.5,16.1c1.3,5.1,5.7,20.7,7,25.8C692.2,532.7,682,511.7,673.9,501.9z M709.6,518
	c1-5,2.6-10.3,3.4-15.6c5.1,0.1,10.2,0.2,15.4,0.3c-1.2,2.2-20.8,32.7-23.8,38.5C706.2,534,708.1,525.3,709.6,518z M713.5,493.7
	c-0.5-8.4-2.6-16.9-4-25.1c-0.8-4.6-2.6-13.4-3.3-18c7.8,13.2,15.7,31.2,21.4,45.6c0.3,0.9,0.7,1.7,1,2.4c-5-0.1-10.1-0.2-15.1-0.3
	C713.6,496.7,713.6,495.2,713.5,493.7z M728.4,510.9c1-1.4,4.2-6.4,5-8c3.3,0.1,6.6,0.2,10,0.3c0.5,0,0.8-0.1,1.1-0.3
	c-11.2,16.6-25,31-39.2,45.1C710.1,539.1,725,515.5,728.4,510.9z M733.1,498.7c-0.4-1-1-2-1.2-2.8c-6.7-17.3-17.9-38.3-27.8-54
	c15.3,15.2,32.1,37.1,40.7,57C741.3,498.8,736.4,498.8,733.1,498.7z M705.1,466.8c1.5,8.8,3.8,17.9,4.4,26.9c0.1,1.5,0.1,3,0,4.5
	c-4-0.1-8.1-0.1-12.1-0.2c-2,0-4,0-6-0.1c-0.1-1.2-0.1-2.3-0.1-3.5c0.1-8.6,2.9-17.1,5-25.4c1.8-7.3,3.8-16.1,5.5-23.4
	C702.8,452.2,703.9,460.2,705.1,466.8z M698.2,343.9c-6-11.2-16.2-32.2-24.3-42c0.3,0,0.6,0,1,0c4.3,0,8.6,0.1,12.8,0.1
	c0.7,5.4,2.1,10.8,3.5,16.1C692.5,323.2,696.9,338.8,698.2,343.9z M687.2,294.4c0,1.2,0,2.3,0.1,3.5c-4.1,0-8.3-0.1-12.4-0.1
	c-1.3,0-2.6,0-3.9-0.1c4.7-9.5,9.4-19,14.3-28.4c4.3-8.3,9-16.5,13.2-24.8c-2.4,8.4-4.4,16.9-6.5,25.3
	C689.8,277.9,687.4,286,687.2,294.4z M592,169.8c-2,8.1-4.5,16.2-4.7,24.6c0,1.2,0,2.3,0.1,3.5c-4.1,0-8.3-0.1-12.4-0.1
	c-1.3,0-2.6,0-3.9-0.1c4.7-9.5,9.4-19,14.3-28.4c4.3-8.3,9-16.5,13.2-24.8C596.1,152.9,594.1,161.4,592,169.8z M566.6,197.4
	c0,0.1,0,0.1-0.1,0.2c-3.5-0.1-7.1-0.1-10.5,0.3c6.8-9.5,13-19.3,19.8-28.8c5.6-7.9,13.8-19.4,19.7-27
	C585.7,158.7,575.1,180.2,566.6,197.4z M505.3,147.9c4.8-8.8,19.8-32.4,23.1-37c1-1.4,4.2-6.4,5-8c3.3,0.1,6.6,0.2,10,0.3
	c0.5,0,0.8-0.1,1.1-0.3C533.3,119.5,519.5,133.9,505.3,147.9z M533.1,98.7c-0.4-1-1-2-1.2-2.8c-6.7-17.3-17.9-38.3-27.8-54
	c15.3,15.2,32.1,37.1,40.7,57C541.3,98.8,536.4,98.8,533.1,98.7z M527.6,96.1c0.3,0.9,0.7,1.7,1,2.4c-5-0.1-10.1-0.2-15.1-0.3
	c0.1-1.5,0.1-3,0-4.5c-0.5-8.4-2.6-16.9-4-25.1c-0.8-4.6-2.6-13.4-3.3-18C514,63.8,521.9,81.8,527.6,96.1z M513,102.4
	c5.1,0.1,10.2,0.2,15.4,0.3c-1.2,2.2-20.8,32.7-23.8,38.5c1.7-7.2,3.6-16,5.1-23.2C510.7,113,512.2,107.7,513,102.4z M505.7,117.9
	c-1.5,7.4-3.2,17.1-4.5,24.5c-1.7-7.1-3.6-16.5-5.5-23.6c-1.4-5.5-3.1-11.1-3.9-16.7c1.9,0,3.7,0,5.6,0.1c3.9,0.1,7.7,0.1,11.6,0.2
	C508.2,107.6,506.7,112.9,505.7,117.9z M498.2,143.9c-6-11.2-16.2-32.2-24.3-42c0.3,0,0.6,0,1,0c4.3,0,8.6,0.1,12.8,0.1
	c0.7,5.4,2.1,10.8,3.5,16.1C492.5,123.2,496.9,138.8,498.2,143.9z M496.9,148.6c-14.7-16.3-27.8-31.4-43.2-47.1
	c4.9,0.8,9,0.4,14.1,0.3C479.7,119.4,488.9,133.7,496.9,148.6z M450,103.2c15.5,17.8,31.9,34.9,47.8,52.4c-1.8,24.9-1.8,50-1.4,74.9
	c-6.7-5.3-14.8-8.4-22.2-12.6c-9.5-5.5-17.4-12.5-25.3-19.9c-6.1-11.5-28.6-45.9-46.2-61.8c14.5-13,30.2-24.2,47.1-33.9
	C449.7,102.7,449.8,103,450,103.2z M405.2,166.8c1.5,8.8,3.8,17.9,4.4,26.9c0.1,1.5,0.1,3,0,4.5c-4-0.1-8.1-0.1-12.1-0.2
	c-2,0-4,0-6-0.1c-0.1-1.2-0.1-2.3-0.1-3.5c0.1-8.6,2.9-17.1,5-25.4c1.8-7.3,3.8-16.1,5.5-23.4C402.9,152.2,404.1,160.2,405.2,166.8z
	 M392,169.8c-2,8.1-4.5,16.2-4.7,24.6c0,1.2,0,2.3,0.1,3.5c-4.1,0-8.3-0.1-12.4-0.1c-1.3,0-2.6,0-3.9-0.1c4.7-9.5,9.4-19,14.3-28.4
	c4.3-8.3,9-16.5,13.2-24.8C396.1,152.9,394.1,161.4,392,169.8z M305.3,147.9c4.8-8.8,19.8-32.4,23.1-37c1-1.4,4.2-6.4,5-8
	c3.3,0.1,6.6,0.2,10,0.3c0.5,0,0.8-0.1,1.1-0.3C333.3,119.5,319.5,133.9,305.3,147.9z M333.1,98.7c-0.4-1-1-2-1.2-2.8
	c-6.7-17.3-17.9-38.3-27.8-54c15.3,15.2,32.1,37.1,40.7,57C341.3,98.8,336.4,98.8,333.1,98.7z M327.6,96.1c0.3,0.9,0.7,1.7,1,2.4
	c-5-0.1-10.1-0.2-15.1-0.3c0.1-1.5,0.1-3,0-4.5c-0.5-8.4-2.6-16.9-4-25.1c-0.8-4.6-2.6-13.4-3.3-18C314,63.8,321.9,81.8,327.6,96.1z
	 M313,102.4c5.1,0.1,10.2,0.2,15.4,0.3c-1.2,2.2-20.8,32.7-23.8,38.5c1.7-7.2,3.6-16,5.1-23.2C310.7,113,312.2,107.7,313,102.4z
	 M305.7,117.9c-1.5,7.4-3.2,17.1-4.5,24.5c-1.7-7.1-3.6-16.5-5.5-23.6c-1.4-5.5-3.1-11.1-3.9-16.7c1.9,0,3.7,0,5.6,0.1
	c3.9,0.1,7.7,0.1,11.6,0.2C308.2,107.6,306.7,112.9,305.7,117.9z M298.2,143.9c-6-11.2-16.2-32.2-24.3-42c0.3,0,0.6,0,1,0
	c4.3,0,8.6,0.1,12.8,0.1c0.7,5.4,2.1,10.8,3.5,16.1C292.5,123.2,296.9,138.8,298.2,143.9z M296.9,148.6
	c-14.7-16.3-27.8-31.4-43.2-47.1c4.9,0.8,9,0.4,14.1,0.3C279.7,119.4,288.9,133.7,296.9,148.6z M205.2,166.8
	c1.5,8.8,3.8,17.9,4.4,26.9c0.1,1.5,0.1,3,0,4.5c-4-0.1-8.1-0.1-12.1-0.2c-2,0-4,0-6-0.1c-0.1-1.2-0.1-2.3-0.1-3.5
	c0.1-8.6,2.9-17.1,5-25.4c1.8-7.3,3.8-16.1,5.5-23.4C202.9,152.2,204.1,160.2,205.2,166.8z M192,169.8c-2,8.1-4.5,16.2-4.7,24.6
	c0,1.2,0,2.3,0.1,3.5c-4.1,0-8.3-0.1-12.4-0.1c-1.3,0-2.6,0-3.9-0.1c4.7-9.5,9.4-19,14.3-28.4c4.3-8.3,9-16.5,13.2-24.8
	C196.1,152.9,194.1,161.4,192,169.8z M166.6,197.4c0,0.1,0,0.1-0.1,0.2c-3.5-0.1-7.1-0.1-10.5,0.3c6.8-9.5,13-19.3,19.8-28.8
	c5.6-7.9,13.8-19.4,19.7-27C185.7,158.7,175.1,180.2,166.6,197.4z M101.7,245.6c1.1,6.6,2.2,14.7,3.4,21.3
	c1.5,8.8,3.8,17.9,4.4,26.9c0.1,1.5,0.1,3,0,4.5c-4-0.1-8.1-0.1-12.1-0.2c-2,0-4,0-6-0.1c-0.1-1.2-0.1-2.3-0.1-3.5
	c0.1-8.6,2.9-17.1,5-25.4C98.1,261.7,100.1,252.9,101.7,245.6z M91.9,269.8c-2,8.1-4.5,16.2-4.7,24.6c0,1.2,0,2.3,0.1,3.5
	c-4.1,0-8.3-0.1-12.4-0.1c-1.3,0-2.6,0-3.9-0.1c4.7-9.5,9.4-19,14.3-28.4c4.3-8.3,9-16.5,13.2-24.8C96,252.9,94,261.4,91.9,269.8z
	 M66.5,297.4c0,0.1,0,0.1-0.1,0.2c-3.5-0.1-7.1-0.1-10.5,0.3c6.8-9.5,13-19.3,19.8-28.8c5.6-7.9,13.8-19.4,19.7-27
	C85.6,258.7,74.9,280.2,66.5,297.4z M73.9,301.9c0.3,0,0.6,0,1,0c4.3,0,8.6,0.1,12.8,0.1c0.7,5.4,2.1,10.8,3.5,16.1
	c1.3,5.1,5.7,20.7,7,25.8C92.2,332.7,82,311.7,73.9,301.9z M95.7,318.8c-1.4-5.5-3.1-11.1-3.9-16.7c1.9,0,3.7,0,5.6,0.1
	c3.9,0.1,7.7,0.1,11.6,0.2c-0.8,5.3-2.3,10.6-3.3,15.6c-1.5,7.4-3.2,17.1-4.5,24.5C99.5,335.3,97.6,325.9,95.7,318.8z M101.7,445.6
	c1.1,6.6,2.2,14.7,3.4,21.3c1.5,8.8,3.8,17.9,4.4,26.9c0.1,1.5,0.1,3,0,4.5c-4-0.1-8.1-0.1-12.1-0.2c-2,0-4,0-6-0.1
	c-0.1-1.2-0.1-2.3-0.1-3.5c0.1-8.6,2.9-17.1,5-25.4C98.1,461.7,100.1,452.9,101.7,445.6z M91.9,469.8c-2,8.1-4.5,16.2-4.7,24.6
	c0,1.2,0,2.3,0.1,3.5c-4.1,0-8.3-0.1-12.4-0.1c-1.3,0-2.6,0-3.9-0.1c4.7-9.5,9.4-19,14.3-28.4c4.3-8.3,9-16.5,13.2-24.8
	C96,452.9,94,461.4,91.9,469.8z M66.5,497.4c0,0.1,0,0.1-0.1,0.2c-3.5-0.1-7.1-0.1-10.5,0.3c6.8-9.5,13-19.3,19.8-28.8
	c5.6-7.9,13.8-19.4,19.7-27C85.6,458.7,74.9,480.2,66.5,497.4z M67.7,501.7c12,17.7,21.2,32,29.2,46.8
	c-14.7-16.3-27.8-31.4-43.2-47.1C58.5,502.3,62.6,501.9,67.7,501.7z M73.9,501.9c0.3,0,0.6,0,1,0c4.3,0,8.6,0.1,12.8,0.1
	c0.7,5.4,2.1,10.8,3.5,16.1c1.3,5.1,5.7,20.7,7,25.8C92.2,532.7,82,511.7,73.9,501.9z M95.7,518.8c-1.4-5.5-3.1-11.1-3.9-16.7
	c1.9,0,3.7,0,5.6,0.1c3.9,0.1,7.7,0.1,11.6,0.2c-0.8,5.3-2.3,10.6-3.3,15.6c-1.5,7.4-3.2,17.1-4.5,24.5
	C99.5,535.3,97.6,525.9,95.7,518.8z M167.8,601.7c12,17.7,21.2,32,29.2,46.8c-14.7-16.3-27.8-31.4-43.2-47.1
	C158.6,602.3,162.8,601.9,167.8,601.7z M174.1,601.9c0.3,0,0.6,0,1,0c4.3,0,8.6,0.1,12.8,0.1c0.7,5.4,2.1,10.8,3.5,16.1
	c1.3,5.1,5.7,20.7,7,25.8C192.4,632.7,182.2,611.7,174.1,601.9z M201.3,642.4c-1.7-7.1-3.6-16.5-5.5-23.6
	c-1.4-5.5-3.1-11.1-3.9-16.7c1.9,0,3.7,0,5.6,0.1c3.9,0.1,7.7,0.1,11.6,0.2c-0.8,5.3-2.3,10.6-3.3,15.6
	C204.3,625.3,202.6,635,201.3,642.4z M209.8,618c1-5,2.6-10.3,3.4-15.6c5.1,0.1,10.2,0.2,15.4,0.3c-1.2,2.2-20.8,32.7-23.8,38.5
	C206.4,634,208.2,625.3,209.8,618z M228.5,610.9c1-1.4,4.2-6.4,5-8c3.3,0.1,6.6,0.2,10,0.3c0.5,0,0.8-0.1,1.1-0.3
	c-11.2,16.6-25,31-39.2,45.1C210.2,639.1,225.2,615.5,228.5,610.9z M233.2,598.7c-0.4-1-1-2-1.2-2.8c-6.7-17.3-17.9-38.3-27.8-54
	c15.3,15.2,32.1,37.1,40.7,57C241.5,598.8,236.6,598.8,233.2,598.7z M367.8,601.7c12,17.7,21.2,32,29.2,46.8
	c-14.7-16.3-27.8-31.4-43.2-47.1C358.6,602.3,362.8,601.9,367.8,601.7z M374.1,601.9c0.3,0,0.6,0,1,0c4.3,0,8.6,0.1,12.8,0.1
	c0.7,5.4,2.1,10.8,3.5,16.1c1.3,5.1,5.7,20.7,7,25.8C392.4,632.7,382.2,611.7,374.1,601.9z M401.3,642.4c-1.7-7.1-3.6-16.5-5.5-23.6
	c-1.4-5.5-3.1-11.1-3.9-16.7c1.9,0,3.7,0,5.6,0.1c3.9,0.1,7.7,0.1,11.6,0.2c-0.8,5.3-2.3,10.6-3.3,15.6
	C404.3,625.3,402.6,635,401.3,642.4z M409.8,618c1-5,2.6-10.3,3.4-15.6c5.1,0.1,10.2,0.2,15.4,0.3c-1.2,2.2-20.8,32.7-23.8,38.5
	C406.4,634,408.2,625.3,409.8,618z M428.5,610.9c1-1.4,4.2-6.4,5-8c3.3,0.1,6.6,0.2,10,0.3c0.5,0,0.8-0.1,1.1-0.3
	c-11.2,16.6-25,31-39.2,45.1C410.2,639.1,425.2,615.5,428.5,610.9z M433.2,598.7c-0.4-1-1-2-1.2-2.8c-6.7-17.3-17.9-38.3-27.8-54
	c15.3,15.2,32.1,37.1,40.7,57C441.5,598.8,436.6,598.8,433.2,598.7z M485.2,669.3c4.3-8.3,9-16.5,13.2-24.8
	c-2.4,8.4-4.4,16.9-6.5,25.3c-2,8.1-4.5,16.2-4.7,24.6c0,1.2,0,2.3,0.1,3.5c-4.1,0-8.3-0.1-12.4-0.1c-1.3,0-2.6,0-3.9-0.1
	C475.6,688.2,480.3,678.7,485.2,669.3z M466.5,697.4c0,0.1,0,0.1-0.1,0.2c-3.5-0.1-7.1-0.1-10.5,0.3c6.8-9.5,13-19.3,19.8-28.8
	c5.6-7.9,13.8-19.4,19.7-27C485.6,658.7,474.9,680.2,466.5,697.4z M474.9,701.9c4.3,0,8.6,0.1,12.8,0.1c0.7,5.4,2.1,10.8,3.5,16.1
	c1.3,5.1,5.7,20.7,7,25.8c-6-11.2-16.2-32.2-24.3-42C474.3,701.9,474.6,701.9,474.9,701.9z M501.1,631.4c0.9-12.8,1-25.7,1-38.6
	c0-11.8,0.1-23.6-0.6-35.4c0.2-0.1,0.4-0.2,0.6-0.4c17-16.5,34.5-33.3,47.2-53.6c14.9,11.4,30.7,21.9,46,32.6
	c-15.7,20.2-31.9,41-44.4,63.3c0,0,0,0.1-0.1,0.2c-8.2,5.8-16.5,11.4-25,16.8C517.8,621.5,509.6,627.4,501.1,631.4z M553.9,601.5
	c4.8,0.8,8.9,0.4,13.9,0.2c12,17.7,21.2,32,29.2,46.8c-14.7-16.3-27.7-31.3-43.1-46.9C553.9,601.6,553.9,601.5,553.9,601.5z
	 M574.1,601.9c0.3,0,0.6,0,1,0c4.3,0,8.6,0.1,12.8,0.1c0.7,5.4,2.1,10.8,3.5,16.1c1.3,5.1,5.7,20.7,7,25.8
	C592.4,632.7,582.2,611.7,574.1,601.9z M609.8,618c1-5,2.6-10.3,3.4-15.6c5.1,0.1,10.2,0.2,15.4,0.3c-1.2,2.2-20.8,32.7-23.8,38.5
	C606.4,634,608.2,625.3,609.8,618z M628.5,610.9c1-1.4,4.2-6.4,5-8c3.3,0.1,6.6,0.2,10,0.3c0.5,0,0.8-0.1,1.1-0.3
	c-11.2,16.6-25,31-39.2,45.1C610.2,639.1,625.2,615.5,628.5,610.9z M633.2,598.7c-0.4-1-1-2-1.2-2.8c-6.7-17.3-17.9-38.3-27.8-54
	c15.3,15.2,32.1,37.1,40.7,57C641.5,598.8,636.6,598.8,633.2,598.7z M766.6,597.4c0,0.1,0,0.1-0.1,0.2c-3.5-0.1-7.1-0.1-10.5,0.3
	c6.8-9.5,13-19.3,19.8-28.8c5.6-7.9,13.8-19.4,19.7-27C785.7,558.7,775.1,580.2,766.6,597.4z M767.8,601.7
	c12,17.7,21.2,32,29.2,46.8c-14.7-16.3-27.8-31.4-43.2-47.1C758.6,602.3,762.8,601.9,767.8,601.7z M753.8,401.5
	c4.9,0.8,9,0.4,14.1,0.3c12,17.7,21.2,32,29.2,46.8C782.3,432.3,769.2,417.1,753.8,401.5z M766.6,397.4c0,0.1,0,0.1-0.1,0.2
	c-3.5-0.1-7.1-0.1-10.5,0.3c6.8-9.5,13-19.3,19.8-28.8c5.6-7.9,13.8-19.4,19.7-27C785.7,358.7,775.1,380.2,766.6,397.4z
	 M733.1,298.7c-0.4-1-1-2-1.2-2.8c-6.7-17.3-17.9-38.3-27.8-54c15.3,15.2,32.1,37.1,40.7,57C741.3,298.8,736.4,298.8,733.1,298.7z
	 M705.1,266.8c1.5,8.8,3.8,17.9,4.4,26.9c0.1,1.5,0.1,3,0,4.5c-4-0.1-8.1-0.1-12.1-0.2c-2,0-4,0-6-0.1c-0.1-1.2-0.1-2.3-0.1-3.5
	c0.1-8.6,2.9-17.1,5-25.4c1.8-7.3,3.8-16.1,5.5-23.4C702.8,252.2,703.9,260.2,705.1,266.8z M766.6,197.4c0,0.1,0,0.1-0.1,0.2
	c-3.5-0.1-7.1-0.1-10.5,0.3c6.8-9.5,13-19.3,19.8-28.8c5.6-7.9,13.8-19.4,19.7-27C785.7,158.7,775.1,180.2,766.6,197.4z
	 M767.8,201.7c12,17.7,21.2,32,29.2,46.8c-14.7-16.3-27.8-31.4-43.2-47.1C758.6,202.3,762.8,201.9,767.8,201.7z M701.7,45.6
	c1.1,6.6,2.2,14.7,3.4,21.3c1.5,8.8,3.8,17.9,4.4,26.9c0.1,1.5,0.1,3,0,4.5c-4-0.1-8.1-0.1-12.1-0.2c-2,0-4,0-6-0.1
	c-0.1-1.2-0.1-2.3-0.1-3.5c0.1-8.6,2.9-17.1,5-25.4C698.1,61.7,700.1,52.9,701.7,45.6z M698.4,44.5c-2.4,8.4-4.4,16.9-6.5,25.3
	c-2,8.1-4.5,16.2-4.7,24.6c0,1.2,0,2.3,0.1,3.5c-4.1,0-8.3-0.1-12.4-0.1c-1.3,0-2.6,0-3.9-0.1c4.7-9.5,9.4-19,14.3-28.4
	C689.5,61,694.2,52.9,698.4,44.5z M649.4,3.4c9.1,6.1,18.5,11.9,27.8,17.8c5.1,3.2,10.4,6.3,14.5,10.7c1.3,1.5,2.4,2.9,3.8,3.6
	c-15.8,20.4-32.2,41.3-44.8,63.8c-0.1,0.2-0.6,1-0.9,2c-15.3,12.1-34.7,17.8-49.7,30.2c0.7-12.1,0.6-24.4,1-36.5
	c0.5-12.8,1.5-25.7,1.5-38.5C619.6,40.2,636.9,23.5,649.4,3.4z M643.5,3.1c0.5,0,0.8-0.1,1.1-0.3c-11.2,16.6-25,31-39.2,45.1
	c4.8-8.8,19.8-32.4,23.1-37c1-1.4,4.2-6.4,5-8C636.9,3,640.2,3,643.5,3.1z M613.2,2.4c5.1,0.1,10.2,0.2,15.4,0.3
	c-1.2,2.2-20.8,32.7-23.8,38.5c1.7-7.2,3.6-16,5.1-23.2C610.8,13,612.3,7.7,613.2,2.4z M597.5,2.1c3.9,0.1,7.7,0.1,11.6,0.2
	c-0.8,5.3-2.3,10.6-3.3,15.6c-1.5,7.4-3.2,17.1-4.5,24.5c-1.7-7.1-3.6-16.5-5.5-23.6c-1.4-5.5-3.1-11.1-3.9-16.7
	C593.8,2.1,595.7,2.1,597.5,2.1z M575,1.9c4.3,0,8.6,0.1,12.8,0.1c0.7,5.4,2.1,10.8,3.5,16.1c1.3,5.1,5.7,20.7,7,25.8
	c-6-11.2-16.2-32.2-24.3-42C574.4,1.9,574.7,1.9,575,1.9z M553.8,1.5c4.9,0.8,9,0.4,14.1,0.3c12,17.7,21.2,32,29.2,46.8
	C582.3,32.3,569.2,17.1,553.8,1.5C553.8,1.5,553.8,1.5,553.8,1.5z M551.1,4.3c15.6,17.8,32,35,47.9,52.5
	c-1.2,12.7-1.3,25.5-1.8,38.2c-0.5,12.8-1.5,25.7-1.3,38.6c-14.7-11.6-29.8-23.1-45.9-32.8c-2.7-7.1-28.9-48.2-48.4-65.4
	C519.2,27.2,537.3,18.2,551.1,4.3z M501.7,45.6c1.1,6.6,2.2,14.7,3.4,21.3c1.5,8.8,3.8,17.9,4.4,26.9c0.1,1.5,0.1,3,0,4.5
	c-4-0.1-8.1-0.1-12.1-0.2c-2,0-4,0-6-0.1c-0.1-1.2-0.1-2.3-0.1-3.5c0.1-8.6,2.9-17.1,5-25.4C498.1,61.7,500.1,52.9,501.7,45.6z
	 M498.4,44.5c-2.4,8.4-4.4,16.9-6.5,25.3c-2,8.1-4.5,16.2-4.7,24.6c0,1.2,0,2.3,0.1,3.5c-4.1,0-8.3-0.1-12.4-0.1
	c-1.3,0-2.6,0-3.9-0.1c4.7-9.5,9.4-19,14.3-28.4C489.5,61,494.2,52.9,498.4,44.5z M466.5,97.4c0,0.1,0,0.1-0.1,0.2
	c-3.5-0.1-7.1-0.1-10.5,0.3c6.8-9.5,13-19.3,19.8-28.8c5.6-7.9,13.8-19.4,19.7-27C485.6,58.7,474.9,80.2,466.5,97.4z M449.9,2.6
	c7.8,6.9,16.6,12.9,25,19c5.1,3.7,10.2,7.4,15.4,11c1.4,1,3.1,2.6,4.7,3.6c-14.9,19.3-30.3,39-42.6,60.1c-0.3,0-0.6,0.1-0.9,0.2
	c-17.8,9.4-34.4,21.1-49.3,34.5c0.1-12.5-0.3-25-0.3-37.5c0.1-12.2,0.6-24.5,0.5-36.7C419.7,40.2,437.3,23.2,449.9,2.6z M443.5,3.1
	c0.5,0,0.8-0.1,1.1-0.3c-11.2,16.6-25,31-39.2,45.1c4.8-8.8,19.8-32.4,23.1-37c1-1.4,4.2-6.4,5-8C436.9,3,440.2,3,443.5,3.1z
	 M413.2,2.4c5.1,0.1,10.2,0.2,15.4,0.3c-1.2,2.2-20.8,32.7-23.8,38.5c1.7-7.2,3.6-16,5.1-23.2C410.8,13,412.3,7.7,413.2,2.4z
	 M397.5,2.1c3.9,0.1,7.7,0.1,11.6,0.2c-0.8,5.3-2.3,10.6-3.3,15.6c-1.5,7.4-3.2,17.1-4.5,24.5c-1.7-7.1-3.6-16.5-5.5-23.6
	c-1.4-5.5-3.1-11.1-3.9-16.7C393.8,2.1,395.7,2.1,397.5,2.1z M375,1.9c4.3,0,8.6,0.1,12.8,0.1c0.7,5.4,2.1,10.8,3.5,16.1
	c1.3,5.1,5.7,20.7,7,25.8c-6-11.2-16.2-32.2-24.3-42C374.4,1.9,374.7,1.9,375,1.9z M367.8,1.7c12,17.7,21.2,32,29.2,46.8
	c-14.7-16.3-27.8-31.4-43.2-47.1C358.6,2.3,362.8,1.9,367.8,1.7z M308.6,31.1c4.7-2.9,9.3-5.9,13.9-8.8c9.5-6,19.1-11.9,28.5-18
	c15.5,17.7,31.7,34.7,47.5,52.1c-0.7,12.4-0.4,24.9-0.5,37.3c-0.1,12.5-0.4,25,0,37.5c-4.5-6.2-10.6-10.9-17.3-14.9
	c-10-6-20.6-11.8-31.3-16.6c-4.7-9.7-29.2-47.7-47.8-64.1C304.2,34.3,306.5,32.4,308.6,31.1z M301.7,45.6c1.1,6.6,2.2,14.7,3.4,21.3
	c1.5,8.8,3.8,17.9,4.4,26.9c0.1,1.5,0.1,3,0,4.5c-4-0.1-8.1-0.1-12.1-0.2c-2,0-4,0-6-0.1c-0.1-1.2-0.1-2.3-0.1-3.5
	c0.1-8.6,2.9-17.1,5-25.4C298.1,61.7,300.1,52.9,301.7,45.6z M298.4,44.5c-2.4,8.4-4.4,16.9-6.5,25.3c-2,8.1-4.5,16.2-4.7,24.6
	c0,1.2,0,2.3,0.1,3.5c-4.1,0-8.3-0.1-12.4-0.1c-1.3,0-2.6,0-3.9-0.1c4.7-9.5,9.4-19,14.3-28.4C289.5,61,294.2,52.9,298.4,44.5z
	 M266.5,97.4c0,0.1,0,0.1-0.1,0.2c-3.5-0.1-7.1-0.1-10.5,0.3c6.8-9.5,13-19.3,19.8-28.8c5.6-7.9,13.8-19.4,19.7-27
	C285.6,58.7,274.9,80.2,266.5,97.4z M250,2.6c7.8,7.2,16.6,13.4,24.9,20c4.3,3.5,8.6,7,13,10.4c2.1,1.6,4.3,3.3,6.8,3.8
	c-15.2,19.7-30.9,39.8-43.2,61.5c-0.3,0-0.7,0.1-1,0.3c-17.1,11-33.7,22.7-50.5,34.2c1.2-13,2-26.1,2.6-39.2
	c0.5-12.3,1.3-25,0.7-37.4C220.2,39.7,237.5,22.8,250,2.6z M243.5,3.1c0.5,0,0.8-0.1,1.1-0.3c-11.2,16.6-25,31-39.2,45.1
	c4.8-8.8,19.8-32.4,23.1-37c1-1.4,4.2-6.4,5-8C236.9,3,240.2,3,243.5,3.1z M213.2,2.4c5.1,0.1,10.2,0.2,15.4,0.3
	c-1.2,2.2-20.8,32.7-23.8,38.5c1.7-7.2,3.6-16,5.1-23.2C210.8,13,212.3,7.7,213.2,2.4z M197.5,2.1c3.9,0.1,7.7,0.1,11.6,0.2
	c-0.8,5.3-2.3,10.6-3.3,15.6c-1.5,7.4-3.2,17.1-4.5,24.5c-1.7-7.1-3.6-16.5-5.5-23.6c-1.4-5.5-3.1-11.1-3.9-16.7
	C193.8,2.1,195.7,2.1,197.5,2.1z M175,1.9c4.3,0,8.6,0.1,12.8,0.1c0.7,5.4,2.1,10.8,3.5,16.1c1.3,5.1,5.7,20.7,7,25.8
	c-6-11.2-16.2-32.2-24.3-42C174.4,1.9,174.7,1.9,175,1.9z M167.8,1.7c12,17.7,21.2,32,29.2,46.8c-14.7-16.3-27.8-31.4-43.2-47.1
	C158.6,2.3,162.8,1.9,167.8,1.7z M113.2,28.8c4.7-1.8,9.2-3.9,13.6-6.2c8.9-4.8,17.5-10.6,24.8-17.6c15.5,17.6,31.7,34.7,47.5,52.1
	c-0.6,12.2-0.3,24.4-0.8,36.6c-0.6,12.7-1.4,25.4-2.6,38.1c-14.8-10.4-29.8-21.2-45.5-30.2c-0.9-4.6-28.7-48.8-49-66.4
	C104.4,31.9,109,30.5,113.2,28.8z M101.7,45.6c1.1,6.6,2.2,14.7,3.4,21.3c1.5,8.8,3.8,17.9,4.4,26.9c0.1,1.5,0.1,3,0,4.5
	c-4-0.1-8.1-0.1-12.1-0.2c-2,0-4,0-6-0.1c-0.1-1.2-0.1-2.3-0.1-3.5c0.1-8.6,2.9-17.1,5-25.4C98.1,61.7,100.1,52.9,101.7,45.6z
	 M98.4,44.5C96,52.9,94,61.4,91.9,69.8c-2,8.1-4.5,16.2-4.7,24.6c0,1.2,0,2.3,0.1,3.5c-4.1,0-8.3-0.1-12.4-0.1c-1.3,0-2.6,0-3.9-0.1
	c4.7-9.5,9.4-19,14.3-28.4C89.5,61,94.2,52.9,98.4,44.5z M66.5,97.4c0,0.1,0,0.1-0.1,0.2c-3.5-0.1-7.1-0.1-10.5,0.3
	c6.8-9.5,13-19.3,19.8-28.8c5.6-7.9,13.8-19.4,19.7-27C85.6,58.7,74.9,80.2,66.5,97.4z M43.5,3.1c0.5,0,0.8-0.1,1.1-0.3
	c-11.2,16.6-25,31-39.2,45.1c4.8-8.8,19.8-32.4,23.1-37c1-1.4,4.2-6.4,5-8C36.9,3,40.2,3,43.5,3.1z M9.8,18c1-5,2.6-10.3,3.4-15.6
	c5.1,0.1,10.2,0.2,15.4,0.3C27.3,5,7.7,35.4,4.7,41.2C6.4,34,8.2,25.3,9.8,18z M1.6,132.3c0.1-12,0-23.9,0-35.9
	c0-12.9,0.7-26-0.2-38.9C1.7,57.4,2,57.2,2.3,57C19.6,40.2,37.4,23.1,50.1,2.4C58,7,63.2,15.3,71.1,20.3c8.2,5.1,17.4,8.7,24,15.8
	c-15.7,20.2-31.9,41-44.4,63.3c-0.1,0.1-0.5,0.8-0.8,1.6c-8.5,3.5-16.2,9-23.6,14.3c-4.5,3.2-8.9,6.6-13.4,9.7
	C9.8,127.2,5.7,130.8,1.6,132.3z M9.5,132.1c4.9-3.1,9.6-6.6,14.2-10c8.9-6.5,17.8-12.5,27.5-17.5C66.8,122.4,83.2,139.5,99,157
	c-2.8,24.1-2.6,48.5-3.5,72.7c-13.6-12.5-29.2-23.2-46.1-30.6C44.2,188.7,21,153,2.9,136.4C5.3,135.2,7.6,133.3,9.5,132.1z
	 M4.2,141.9c15.3,15.2,32.1,37.1,40.7,57c-3.4-0.1-8.3-0.1-11.6-0.2c-0.4-1-1-2-1.2-2.8C25.3,178.6,14.1,157.6,4.2,141.9z
	 M44.6,202.9c-11.2,16.6-25,31-39.2,45.1c4.8-8.8,19.8-32.4,23.1-37c1-1.4,4.2-6.4,5-8c3.3,0.1,6.6,0.2,10,0.3
	C44,203.2,44.3,203,44.6,202.9z M9.7,168.6c-0.8-4.6-2.6-13.4-3.3-18c7.8,13.2,15.7,31.2,21.4,45.6c0.3,0.9,0.7,1.7,1,2.4
	c-5-0.1-10.1-0.2-15.1-0.3c0.1-1.5,0.1-3,0-4.5C13.2,185.3,11.1,176.8,9.7,168.6z M9.8,218c1-5,2.6-10.3,3.4-15.6
	c5.1,0.1,10.2,0.2,15.4,0.3c-1.2,2.2-20.8,32.7-23.8,38.5C6.4,234,8.2,225.3,9.8,218z M3.4,255.9c16.7-16.2,33.6-32.7,46-52.5
	c16.8,8.5,32.2,18.8,45.8,31.7c0,0.3,0,0.6,0,0.9c-15.7,20.2-31.9,41-44.5,63.4c0,0.1-0.2,0.4-0.4,0.8c-9,7.1-18,13.9-28.1,19.4
	c-6.8,3.8-14,7-20.1,11.8C4.2,306.4,5.5,280.8,3.4,255.9z M27.4,321.2c8.3-4.8,16.5-10.4,23.6-16.8c15.5,17.7,31.8,34.8,47.6,52.2
	c0.5,25.2,0.6,49.9-2.3,74.9c-6.7-5.4-14.3-9.4-21.7-13.8c-9.3-5.5-16.9-12.5-25.1-19.4c-0.2-0.2-0.4-0.3-0.6-0.4
	c-6.2-11.6-28.7-45.9-46.3-61.8C9.7,329.6,19,326,27.4,321.2z M4.2,341.9c15.3,15.2,32.1,37.1,40.7,57c-3.4-0.1-8.3-0.1-11.6-0.2
	c-0.4-1-1-2-1.2-2.8C25.3,378.6,14.1,357.6,4.2,341.9z M44.6,402.9c-11.2,16.6-25,31-39.2,45.1c4.8-8.8,19.8-32.4,23.1-37
	c1-1.4,4.2-6.4,5-8c3.3,0.1,6.6,0.2,10,0.3C44,403.2,44.3,403,44.6,402.9z M9.7,368.6c-0.8-4.6-2.6-13.4-3.3-18
	c7.8,13.2,15.7,31.2,21.4,45.6c0.3,0.9,0.7,1.7,1,2.4c-5-0.1-10.1-0.2-15.1-0.3c0.1-1.5,0.1-3,0-4.5
	C13.2,385.3,11.1,376.8,9.7,368.6z M9.8,418c1-5,2.6-10.3,3.4-15.6c5.1,0.1,10.2,0.2,15.4,0.3c-1.2,2.2-20.8,32.7-23.8,38.5
	C6.4,434,8.2,425.3,9.8,418z M1.4,532.1c0.7-12.7,1-25.4,1.1-38.1c0-12.1,0.4-24.6-0.8-36.6c0.2-0.1,0.4-0.2,0.6-0.4
	c17.1-16.5,34.5-33.4,47.2-53.7c5.8,6.3,13.1,11.6,20.2,16.1c8.6,5.5,18,9.7,25.6,16.5c-15.7,20.3-32,41.1-44.5,63.5
	c-0.1,0.1-0.4,0.6-0.6,1.3c-9.1,5-17.7,11.3-26.3,17c-4.4,2.9-8.8,5.8-13.2,8.7C7.7,528.3,4.7,531.1,1.4,532.1z M9.7,568.6
	c-0.8-4.6-2.6-13.4-3.3-18c7.8,13.2,15.7,31.2,21.4,45.6c0.3,0.9,0.7,1.7,1,2.4c-5-0.1-10.1-0.2-15.1-0.3c0.1-1.5,0.1-3,0-4.5
	C13.2,585.3,11.1,576.8,9.7,568.6z M9.8,618c1-5,2.6-10.3,3.4-15.6c5.1,0.1,10.2,0.2,15.4,0.3c-1.2,2.2-20.8,32.7-23.8,38.5
	C6.4,634,8.2,625.3,9.8,618z M5.4,647.9c4.8-8.8,19.8-32.4,23.1-37c1-1.4,4.2-6.4,5-8c3.3,0.1,6.6,0.2,10,0.3c0.5,0,0.8-0.1,1.1-0.3
	C33.4,619.5,19.7,633.9,5.4,647.9z M33.2,598.7c-0.4-1-1-2-1.2-2.8c-6.7-17.3-17.9-38.3-27.8-54c15.3,15.2,32.1,37.1,40.7,57
	C41.5,598.8,36.6,598.8,33.2,598.7z M84.6,625.9c-3.5-2.4-7.1-4.8-10.5-7.3c-8.2-5.8-16-12.3-24.1-18.2
	c-3.5-8.1-28.3-46.9-47.3-64.1c2.4-1.1,4.5-3,6.6-4.3c5-3.3,9.9-6.5,14.9-9.8c8.9-5.9,18.3-11.4,26.8-17.9
	c15.7,17.9,32.1,35.1,48.1,52.8c0.1,0.1,0.2,0.1,0.2,0.2c-1.2,12.4-1.2,25.1-1.8,37.6c-0.6,12.8-1.3,25.6-1.9,38.5
	C91.8,631.5,88,628.1,84.6,625.9z M75.7,669.1c5.6-7.9,13.8-19.4,19.7-27c-9.8,16.6-20.5,38.2-28.9,55.4c0,0.1,0,0.1-0.1,0.2
	c-3.5-0.1-7.1-0.1-10.5,0.3C62.7,688.4,68.9,678.5,75.7,669.1z M53.6,701.5c4.9,0.8,9,0.4,14.1,0.3c12,17.7,21.2,32,29.2,46.8
	C82.1,732.3,69,717.1,53.6,701.5z M73.9,701.9c0.3,0,0.6,0,1,0c4.3,0,8.6,0.1,12.8,0.1c0.7,5.4,2.1,10.8,3.5,16.1
	c1.3,5.1,5.7,20.7,7,25.8C92.2,732.7,82,711.7,73.9,701.9z M101.2,742.4c-1.7-7.1-3.6-16.5-5.5-23.6c-1.4-5.5-3.1-11.1-3.9-16.7
	c1.9,0,3.7,0,5.6,0.1c3.9,0.1,7.7,0.1,11.6,0.2c-0.8,5.3-2.3,10.6-3.3,15.6C104.2,725.3,102.5,735,101.2,742.4z M109.6,718
	c1-5,2.6-10.3,3.4-15.6c5.1,0.1,10.2,0.2,15.4,0.3c-1.2,2.2-20.8,32.7-23.8,38.5C106.2,734,108.1,725.3,109.6,718z M105.3,747.9
	c4.8-8.8,19.8-32.4,23.1-37c1-1.4,4.2-6.4,5-8c3.3,0.1,6.6,0.2,10,0.3c0.5,0,0.8-0.1,1.1-0.3C133.3,719.5,119.5,733.9,105.3,747.9z
	 M133.1,698.7c-0.4-1-1-2-1.2-2.8c-6.7-17.3-17.9-38.3-27.8-54c15.3,15.2,32.1,37.1,40.7,57C141.3,698.8,136.4,698.8,133.1,698.7z
	 M149.4,699.4c-4.8-9.8-27.8-45.3-45.9-62.3c1.1-0.7,2.1-1.4,3.2-2.1c5-3.2,10-6.4,15-9.6c10-6.4,20-12.8,30.1-19.2
	c0.3-0.2,0.5-0.4,0.6-0.6c15,17.1,30.7,33.6,46,50.4c0.2,12.3,1,24.6,0.8,37c-0.2,13.4-1,26.8-2.3,40.1
	C182.4,720.4,166.6,708.3,149.4,699.4z M166.6,797.6c-3.5-0.1-7.1-0.1-10.5,0.3c6.8-9.5,13-19.3,19.8-28.8
	c5.6-7.9,13.8-19.4,19.7-27c-9.8,16.6-20.5,38.2-28.9,55.4C166.6,797.5,166.6,797.5,166.6,797.6z M175,797.8c-1.3,0-2.6,0-3.9-0.1
	c4.7-9.5,9.4-19,14.3-28.4c4.3-8.3,9-16.5,13.2-24.8c-2.4,8.4-4.4,16.9-6.5,25.3c-2,8.1-4.5,16.2-4.7,24.6c0,1.2,0,2.3,0.1,3.5
	C183.3,797.8,179.2,797.8,175,797.8z M213.6,798.2c0.1-1.5,0.1-3,0-4.5c-0.5-8.4-2.6-16.9-4-25.1c-0.8-4.6-2.6-13.4-3.3-18
	c7.8,13.2,15.7,31.2,21.4,45.6c0.3,0.9,0.7,1.7,1,2.4C223.7,798.4,218.7,798.3,213.6,798.2z M244.8,798.9c-3.4-0.1-8.3-0.1-11.6-0.2
	c-0.4-1-1-2-1.2-2.8c-6.7-17.3-17.9-38.3-27.8-54C219.5,757,236.3,779,244.8,798.9z M205.2,766.8c1.5,8.8,3.8,17.9,4.4,26.9
	c0.1,1.5,0.1,3,0,4.5c-4-0.1-8.1-0.1-12.1-0.2c-2,0-4,0-6-0.1c-0.1-1.2-0.1-2.3-0.1-3.5c0.1-8.6,2.9-17.1,5-25.4
	c1.8-7.3,3.8-16.1,5.5-23.4C202.9,752.2,204.1,760.2,205.2,766.8z M249.2,699c-14.6,13.3-30.5,24.5-48.2,33.1
	c1.3-13.3,2-26.6,2.2-40c0.2-11.6,0.2-23.5-0.9-35.2c16.7-16.2,33.9-32.8,46.5-52.5c16.2,9.7,32,19.4,46.6,31.3
	c-15.6,20.1-31.7,40.7-44.2,62.8C250.6,698.4,249.9,698.4,249.2,699z M253.6,701.5c4.9,0.8,9,0.4,14.1,0.3
	c12,17.7,21.2,32,29.2,46.8C282.1,732.3,269,717.1,253.6,701.5z M273.9,701.9c0.3,0,0.6,0,1,0c4.3,0,8.6,0.1,12.8,0.1
	c0.7,5.4,2.1,10.8,3.5,16.1c1.3,5.1,5.7,20.7,7,25.8C292.2,732.7,282,711.7,273.9,701.9z M301.2,742.4c-1.7-7.1-3.6-16.5-5.5-23.6
	c-1.4-5.5-3.1-11.1-3.9-16.7c1.9,0,3.7,0,5.6,0.1c3.9,0.1,7.7,0.1,11.6,0.2c-0.8,5.3-2.3,10.6-3.3,15.6
	C304.2,725.3,302.5,735,301.2,742.4z M309.6,718c1-5,2.6-10.3,3.4-15.6c5.1,0.1,10.2,0.2,15.4,0.3c-1.2,2.2-20.8,32.7-23.8,38.5
	C306.2,734,308.1,725.3,309.6,718z M305.3,747.9c4.8-8.8,19.8-32.4,23.1-37c1-1.4,4.2-6.4,5-8c3.3,0.1,6.6,0.2,10,0.3
	c0.5,0,0.8-0.1,1.1-0.3C333.3,719.5,319.5,733.9,305.3,747.9z M333.1,698.7c-0.4-1-1-2-1.2-2.8c-6.7-17.3-17.9-38.3-27.8-54
	c15.3,15.2,32.1,37.1,40.7,57C341.3,698.8,336.4,698.8,333.1,698.7z M394,728.8c-2.2-1.5-4.4-2.9-6.5-4.4l-13.1-8.7
	c-8.2-5.5-16.4-11.4-25-16.3c-4.9-10-28.9-47-47.2-63.4c16.8-9.4,33.8-19.6,48.9-31.6c15.4,17.6,31.6,34.5,47.3,51.8
	c0.2,12.3,1.4,24.6,1.5,36.9c0.1,13-0.4,25.9-0.9,38.9C397.1,731.4,395.4,729.8,394,728.8z M366.6,797.6c-3.5-0.1-7.1-0.1-10.5,0.3
	c6.8-9.5,13-19.3,19.8-28.8c5.6-7.9,13.8-19.4,19.7-27c-9.8,16.6-20.5,38.2-28.9,55.4C366.6,797.5,366.6,797.5,366.6,797.6z
	 M375,797.8c-1.3,0-2.6,0-3.9-0.1c4.7-9.5,9.4-19,14.3-28.4c4.3-8.3,9-16.5,13.2-24.8c-2.4,8.4-4.4,16.9-6.5,25.3
	c-2,8.1-4.5,16.2-4.7,24.6c0,1.2,0,2.3,0.1,3.5C383.3,797.8,379.2,797.8,375,797.8z M413.6,798.2c0.1-1.5,0.1-3,0-4.5
	c-0.5-8.4-2.6-16.9-4-25.1c-0.8-4.6-2.6-13.4-3.3-18c7.8,13.2,15.7,31.2,21.4,45.6c0.3,0.9,0.7,1.7,1,2.4
	C423.7,798.4,418.7,798.3,413.6,798.2z M444.8,798.9c-3.4-0.1-8.3-0.1-11.6-0.2c-0.4-1-1-2-1.2-2.8c-6.7-17.3-17.9-38.3-27.8-54
	C419.5,757,436.3,779,444.8,798.9z M405.2,766.8c1.5,8.8,3.8,17.9,4.4,26.9c0.1,1.5,0.1,3,0,4.5c-4-0.1-8.1-0.1-12.1-0.2
	c-2,0-4,0-6-0.1c-0.1-1.2-0.1-2.3-0.1-3.5c0.1-8.6,2.9-17.1,5-25.4c1.8-7.3,3.8-16.1,5.5-23.4C402.9,752.2,404.1,760.2,405.2,766.8z
	 M451.2,698.4c-8.7,5.7-17.4,11.5-26.1,17.3c-4.3,2.9-8.7,5.8-13,8.7c-2.2,1.4-4.3,2.9-6.5,4.3c-0.8,0.5-1.7,1.3-2.7,2
	c0.9-12.9,1-25.8,0.9-38.7c-0.1-11.6-0.1-23.5-1.4-35.1c17.1-16.6,34.7-33.5,47.3-53.9c7.7,6.1,15.7,11.7,23.6,17.6
	c4.7,3.5,9.4,7,14.2,10.4c2,1.5,4.6,4.3,7.3,5.6c-15.3,19.7-31.1,40-43.4,61.7C451.3,698.3,451.3,698.4,451.2,698.4z M453.6,701.5
	C453.6,701.5,453.6,701.5,453.6,701.5c4.9,0.8,9,0.4,14.1,0.3c12,17.7,21.2,32,29.2,46.8C482.1,732.3,469,717.1,453.6,701.5z
	 M501.2,742.4c-1.7-7.1-3.6-16.5-5.5-23.6c-1.4-5.5-3.1-11.1-3.9-16.7c1.9,0,3.7,0,5.6,0.1c3.9,0.1,7.7,0.1,11.6,0.2
	c-0.8,5.3-2.3,10.6-3.3,15.6C504.2,725.3,502.5,735,501.2,742.4z M509.6,718c1-5,2.6-10.3,3.4-15.6c5.1,0.1,10.2,0.2,15.4,0.3
	c-1.2,2.2-20.8,32.7-23.8,38.5C506.2,734,508.1,725.3,509.6,718z M505.3,747.9c4.8-8.8,19.8-32.4,23.1-37c1-1.4,4.2-6.4,5-8
	c3.3,0.1,6.6,0.2,10,0.3c0.5,0,0.8-0.1,1.1-0.3C533.3,719.5,519.5,733.9,505.3,747.9z M533.1,698.7c-0.4-1-1-2-1.2-2.8
	c-6.7-17.3-17.9-38.3-27.8-54c15.3,15.2,32.1,37.1,40.7,57C541.3,698.8,536.4,698.8,533.1,698.7z M549.5,698.6
	c-0.2-0.2-0.5-0.3-0.7-0.3c-6-11.4-29-46.6-46.8-62.4c2.8-1.5,5.7-3.8,7.9-5.1c4.9-2.9,9.8-5.9,14.6-8.9c9-5.6,17.8-11.5,26.5-17.6
	c15.7,17.9,32.1,35.1,48,52.6c0,12,0.4,23.9,0.1,35.9c-0.3,13-1,25.9-2,38.9C580.2,722.1,564.9,710.6,549.5,698.6z M566.6,797.6
	c-3.5-0.1-7.1-0.1-10.5,0.3c6.8-9.5,13-19.3,19.8-28.8c5.6-7.9,13.8-19.4,19.7-27c-9.8,16.6-20.5,38.2-28.9,55.4
	C566.6,797.5,566.6,797.5,566.6,797.6z M575,797.8c-1.3,0-2.6,0-3.9-0.1c4.7-9.5,9.4-19,14.3-28.4c4.3-8.3,9-16.5,13.2-24.8
	c-2.4,8.4-4.4,16.9-6.5,25.3c-2,8.1-4.5,16.2-4.7,24.6c0,1.2,0,2.3,0.1,3.5C583.3,797.8,579.2,797.8,575,797.8z M613.6,798.2
	c0.1-1.5,0.1-3,0-4.5c-0.5-8.4-2.6-16.9-4-25.1c-0.8-4.6-2.6-13.4-3.3-18c7.8,13.2,15.7,31.2,21.4,45.6c0.3,0.9,0.7,1.7,1,2.4
	C623.7,798.4,618.7,798.3,613.6,798.2z M644.8,798.9c-3.4-0.1-8.3-0.1-11.6-0.2c-0.4-1-1-2-1.2-2.8c-6.7-17.3-17.9-38.3-27.8-54
	C619.5,757,636.3,779,644.8,798.9z M601.8,745.6c1.1,6.6,2.2,14.7,3.4,21.3c1.5,8.8,3.8,17.9,4.4,26.9c0.1,1.5,0.1,3,0,4.5
	c-4-0.1-8.1-0.1-12.1-0.2c-2,0-4,0-6-0.1c-0.1-1.2-0.1-2.3-0.1-3.5c0.1-8.6,2.9-17.1,5-25.4C598.2,761.7,600.2,752.9,601.8,745.6z
	 M601.3,731.2c2-24.7,3.6-50.2,1.8-75c16.4-15.9,33.1-32.1,45.5-51.5c1.2,1.1,2.8,1.9,4.5,2.7c5.1,2.5,10,5.1,14.9,8
	c9.9,5.8,19.2,12.4,28,19.7c-15.7,20.3-32.1,41.2-44.7,63.5C633.8,708.1,617.2,719.4,601.3,731.2z M653.9,701.7
	c0.1,0,0.2-0.1,0.2-0.1c0,0,0,0,0.1,0c4.6,0.7,8.7,0.3,13.5,0.2c12,17.7,21.2,32,29.2,46.8C682.2,732.3,669.2,717.3,653.9,701.7z
	 M673.9,701.9c0.3,0,0.6,0,1,0c4.3,0,8.6,0.1,12.8,0.1c0.7,5.4,2.1,10.8,3.5,16.1c1.3,5.1,5.7,20.7,7,25.8
	C692.2,732.7,682,711.7,673.9,701.9z M701.2,742.4c-1.7-7.1-3.6-16.5-5.5-23.6c-1.4-5.5-3.1-11.1-3.9-16.7c1.9,0,3.7,0,5.6,0.1
	c3.9,0.1,7.7,0.1,11.6,0.2c-0.8,5.3-2.3,10.6-3.3,15.6C704.2,725.3,702.5,735,701.2,742.4z M709.6,718c1-5,2.6-10.3,3.4-15.6
	c5.1,0.1,10.2,0.2,15.4,0.3c-1.2,2.2-20.8,32.7-23.8,38.5C706.2,734,708.1,725.3,709.6,718z M705.3,747.9c4.8-8.8,19.8-32.4,23.1-37
	c1-1.4,4.2-6.4,5-8c3.3,0.1,6.6,0.2,10,0.3c0.5,0,0.8-0.1,1.1-0.3C733.3,719.5,719.5,733.9,705.3,747.9z M733.1,698.7
	c-0.4-1-1-2-1.2-2.8c-6.7-17.3-17.9-38.3-27.8-54c15.3,15.2,32.1,37.1,40.7,57C741.3,698.8,736.4,698.8,733.1,698.7z M766.6,797.6
	c-3.5-0.1-7.1-0.1-10.5,0.3c6.8-9.5,13-19.3,19.8-28.8c5.6-7.9,13.8-19.4,19.7-27c-9.8,16.6-20.5,38.2-28.9,55.4
	C766.6,797.5,766.6,797.5,766.6,797.6z M792,769.8c-2,8.1-4.5,16.2-4.7,24.6c0,1.2,0,2.3,0.1,3.5c-4.1,0-8.3-0.1-12.4-0.1
	c-1.3,0-2.6,0-3.9-0.1c4.7-9.5,9.4-19,14.3-28.4c4.3-8.3,9-16.5,13.2-24.8C796.1,752.9,794.1,761.4,792,769.8z M797.1,694.8
	c-0.5,12.6-0.9,25.3-1.2,37.9c-9.6-6.8-35.1-27-46-32.3c-3.6-8.3-29.2-48.3-48.4-65c15.4-9.6,34.3-21.2,49.7-30.9
	c15.5,17.7,31.8,34.8,47.6,52.2C797.6,669.3,797.6,682.2,797.1,694.8z M798.3,643.9c-6-11.2-16.2-32.2-24.3-42c0.3,0,0.6,0,1,0
	c4.3,0,8.6,0.1,12.8,0.1c0.7,5.4,2.1,10.8,3.5,16.1C792.7,623.2,797,638.8,798.3,643.9z M792,569.8c-2,8.1-4.5,16.2-4.7,24.6
	c0,1.2,0,2.3,0.1,3.5c-4.1,0-8.3-0.1-12.4-0.1c-1.3,0-2.6,0-3.9-0.1c4.7-9.5,9.4-19,14.3-28.4c4.3-8.3,9-16.5,13.2-24.8
	C796.1,552.9,794.1,561.4,792,569.8z M798.3,443.9c-6-11.2-16.2-32.2-24.3-42c0.3,0,0.6,0,1,0c4.3,0,8.6,0.1,12.8,0.1
	c0.7,5.4,2.1,10.8,3.5,16.1C792.7,423.2,797,438.8,798.3,443.9z M792,369.8c-2,8.1-4.5,16.2-4.7,24.6c0,1.2,0,2.3,0.1,3.5
	c-4.1,0-8.3-0.1-12.4-0.1c-1.3,0-2.6,0-3.9-0.1c4.7-9.5,9.4-19,14.3-28.4c4.3-8.3,9-16.5,13.2-24.8
	C796.1,352.9,794.1,361.4,792,369.8z M799.7,257.4c0.1,25.4,0.4,50.5-1.5,75.9c-0.4,0-0.8,0.2-1.1,0.5c-16.3-8-32.2-21-46.8-32.1
	c0-3.3-27.8-47.8-48.4-66c0,0,0-0.1,0-0.1c0-0.1,0-0.2,0-0.3c13.2-8.8,41.8-26.9,48.9-31.3c15.8,18,32.3,35.4,48.4,53.1
	C799.3,257.2,799.5,257.3,799.7,257.4z M798.3,243.9c-6-11.2-16.2-32.2-24.3-42c0.3,0,0.6,0,1,0c4.3,0,8.6,0.1,12.8,0.1
	c0.7,5.4,2.1,10.8,3.5,16.1C792.7,223.2,797,238.8,798.3,243.9z M792,169.8c-2,8.1-4.5,16.2-4.7,24.6c0,1.2,0,2.3,0.1,3.5
	c-4.1,0-8.3-0.1-12.4-0.1c-1.3,0-2.6,0-3.9-0.1c4.7-9.5,9.4-19,14.3-28.4c4.3-8.3,9-16.5,13.2-24.8
	C796.1,152.9,794.1,161.4,792,169.8z M798.3,43.9c-6-11.2-16.2-32.2-24.3-42c0.3,0,0.6,0,1,0c4.3,0,8.6,0.1,12.8,0.1
	c0.7,5.4,2.1,10.8,3.5,16.1C792.7,23.2,797,38.8,798.3,43.9z"/>
</svg>
