<?xml version="1.0" encoding="utf-8"?>
<!-- Generator: Adobe Illustrator 21.1.0, SVG Export Plug-In . SVG Version: 6.00 Build 0)  -->
<svg version="1.1" id="Ebene_1" xmlns="http://www.w3.org/2000/svg" xmlns:xlink="http://www.w3.org/1999/xlink" x="0px" y="0px"
	 viewBox="0 0 800 800" style="enable-background:new 0 0 800 800;" xml:space="preserve">
<style type="text/css">
	.st0{fill:#FFFFFF;}
</style>
<g>
	<path class="st0" d="M46.3,507.4c1.5-2.9-0.4-6.5-3.8-6.5c-11.5,0.2-22.6-3.3-34.1-3c-1.6,0-3.1,0.1-4.7,0.2
		c-1.1-15.9,0.9-56.5,1.5-57.6C18.9,415.9,32.2,391,45,365.9c1.5-2.9-0.4-6.5-3.8-6.5c-11.5,0.2-22.6-3.3-34.1-3
		c-2.2,0-4.3,0.2-6.4,0.4c0.6-14,4.1-43.4,4.5-44.3C18.9,287.9,32.2,263,45,237.9c1.5-2.9-0.4-6.5-3.8-6.5
		c-11.5,0.2-22.6-3.3-34.1-3c-1.4,0-2.9,0.1-4.3,0.2c0.3-15.2,2-46.6,2.1-46.9c13.7-24.7,26.9-49.5,39.8-74.6
		c1.5-2.9-0.4-6.5-3.8-6.5c-11.5,0.2-22.6-3.3-34.1-3c-1.4,0-2.7,0.1-4.1,0.2c0,0,0,0,0,0C2.5,83.8,4,55,4.2,54.5
		C14.3,36.5,24,18.3,33.6,0h-9.8C17.1,12.8,10.3,25.5,3.4,38.1C3.4,32.6,8.9,11.3,12.3,0H0v106.8c1.1-0.1,2.2-0.2,3.3-0.3
		c10.4-0.7,20.5,1.7,30.7,2.6c-9.6,18.6-19.4,37-29.4,55.3c0-6.6,7.9-36.9,10.2-43.2c0.8-2.2-1.3-5.1-3.7-4.9
		c-3.7,0.3-7.5,0.5-11.2,0.8v120.4c1.2-0.1,2.4-0.2,3.6-0.3c10.4-0.7,20.5,1.7,30.7,2.6c-10,19.4-20.3,38.7-30.8,57.8
		c0.2-7.3,9.3-39.4,11.6-45.7c0.8-2.2-1.3-5.1-3.7-4.9c-3.8,0.3-7.6,0.6-11.4,0.8v117.7c1.2-0.1,2.4-0.2,3.6-0.3
		c10.4-0.7,20.5,1.7,30.7,2.6C24.1,387.6,13.7,407.2,3,426.7c0.5-7.7,9.8-40.4,12.1-46.7c0.8-2.2-1.3-5.1-3.7-4.9
		c-3.8,0.3-7.6,0.6-11.4,0.8v131.2c1.6-0.2,3.2-0.3,4.8-0.4c10.4-0.7,20.5,1.7,30.7,2.6C25.3,529.2,14.7,549,3.9,568.7
		c0.1-7.8,10.1-41,12.4-47.3c0.8-2.2-1.3-5.1-3.7-4.9c-4.2,0.3-8.4,0.6-12.7,0.9v121.1c1.2-0.1,2.4-0.2,3.6-0.3
		c10.4-0.7,20.5,1.7,30.7,2.6c-9.9,19.1-20,38-30.3,56.9c0-7,8.7-38.5,11.1-44.7c0.8-2.2-1.3-5.1-3.7-4.9c-3.8,0.3-7.6,0.6-11.4,0.8
		v130.6c0.9-0.1,1.7-0.1,2.6-0.2c10.4-0.7,20.5,1.7,30.7,2.6c-3.1,6.1-6.3,12.1-9.5,18.2h9.8c3.5-6.7,7-13.4,10.4-20.1
		c1.5-2.9-0.4-6.5-3.8-6.5c-11.5,0.2-22.6-3.3-34.1-3c-1.1,0-2.3,0.1-3.4,0.2c0.2-18.5,2.2-56.5,2.5-57
		C18.9,688.9,32.2,664,45,638.9c1.5-2.9-0.4-6.5-3.8-6.5c-11.5,0.2-22.6-3.3-34.1-3c-1.6,0-3.2,0.1-4.8,0.2
		C2.5,614.5,5.9,583,6.5,582C20.1,557.3,33.4,532.5,46.3,507.4z"/>
	<path class="st0" d="M14.1,793.9c0.8-2.2-1.3-5.1-3.7-4.9c-3.5,0.3-7,0.5-10.4,0.8V800h12.3C13,797.3,13.7,795.2,14.1,793.9z"/>
	<path class="st0" d="M800,789.8c-1.5,0.1-3,0.2-4.6,0.3c-2.4,0.2-4.6,2.4-3.8,4.9c0.4,1.1,0.8,2.8,1.3,4.9h7.1V789.8z"/>
	<path class="st0" d="M800,106.8V0h-7.1c2.4,10.5,5.6,31,5.3,36.4c-5.3-12.2-10.9-24.5-16.9-36.4h-10c8.6,18.1,17.5,36.1,25.4,54.6
		c0.2,0.5,1.5,29.6,2.4,43.3c0,0.1-20.2,3.3-30.5,1c-2.2-0.5-3.9,0.6-4.7,2.1c-1.6,0.9-2.6,2.8-1.7,5c11.4,25.5,24.3,50.2,35.3,75.9
		c0.3,0.7,1.6,32.1,1.5,47.2c-10.1,1-20,2.9-30.2,0.6c-2.2-0.5-3.9,0.6-4.7,2.1c-1.6,0.9-2.6,2.8-1.7,5c11.3,25.3,24,49.8,35,75.3
		c-0.4,15.2-0.4,30.3-0.9,45.3c-9.3,1-18.4,2.4-27.8,0.3c-2.2-0.5-3.9,0.6-4.7,2.1c-1.6,0.9-2.6,2.8-1.7,5
		c11.3,25.4,24.2,50.1,35.2,75.7c0,2.7,0,5.4,0,8c-0.1,16.7,0.5,33.5,1.8,50.1c-9.8,1-19.5,2.7-29.4,0.5c-2.2-0.5-3.9,0.6-4.7,2.1
		c-1.6,0.9-2.6,2.8-1.7,5c11.1,24.8,23.5,48.9,34.4,73.8c-0.4,16.8,0,33.7,0.2,50.1c-9.8,1-19.5,2.8-29.5,0.5
		c-2.2-0.5-3.9,0.6-4.7,2.1c-1.6,0.9-2.6,2.8-1.7,5c11.4,25.5,35.6,76.3,35.7,76.5c-0.3,19,0,38,0.2,56.8c-10.2,1-20.2,2.9-30.5,0.6
		c-2.2-0.5-3.9,0.6-4.7,2.1c-1.6,0.9-2.6,2.8-1.7,5c3.2,7.2,6.5,14.3,9.9,21.3h10c-3.3-6.5-6.6-12.9-10.2-19.1
		c9.7,1.1,19.1-0.6,28.8-1.4V648.9c-1.2,0.1-2.4,0.2-3.6,0.3c-2.4,0.2-4.6,2.4-3.8,4.9c2.2,6.8,6.4,33.7,6.1,40.2
		c-8.1-18.5-16.6-37-26.6-54.4c9.3,1,18.4-0.5,27.8-1.3V517.5c-0.8,0.1-1.6,0.1-2.3,0.2c-2.4,0.2-4.6,2.4-3.8,4.9
		c2.1,6.5,5.5,31.8,5.1,37.9c-7.8-17.7-16-35.4-25.6-52.1c8.9,1,17.6-0.3,26.6-1.2V375.9c-1.2,0.1-2.4,0.2-3.6,0.3
		c-2.4,0.2-4.6,2.4-3.8,4.9c2.2,6.8,5.9,33,5.6,39c-7.9-18.1-16.3-36.1-26.1-53.2c9.3,1,18.4-0.5,27.8-1.3V247.9
		c-1.2,0.1-2.4,0.2-3.6,0.3c-2.4,0.2-4.6,2.4-3.8,4.9c2.2,6.8,6.1,33.1,5.7,39.2c-8-18.2-16.4-36.3-26.2-53.5
		c9.3,1,18.4-0.5,27.8-1.3V117.1c-1.3,0.1-2.5,0.2-3.8,0.3c-2.4,0.2-4.6,2.4-3.8,4.9c2.2,6.8,7.1,35.2,6.8,41.8
		c-8.3-19-17-38.1-27.3-56.1C781.3,109.1,790.5,107.6,800,106.8z"/>
	<path class="st0" d="M97.4,38c5-0.4,10-0.7,15-1.1c2.4-0.2,4.6-2.4,3.8-4.9c-1.6-4.8-4.4-20.7-6-32h-8c-2.5,11.7-6.9,28.6-8.5,33.1
		C92.9,35.4,95.1,38.2,97.4,38z"/>
	<path class="st0" d="M140,55.5c2.2,0.5,3.9-0.6,4.7-2.1c1.6-0.9,2.6-2.8,1.7-5c-7.3-16.3-15.2-32.3-22.8-48.4h-9.9
		c7,15.7,14.5,31.3,23,46.2c-10.5-1.1-20.7,0.9-31.4,1.6c-10.4,0.7-20.5-1.7-30.7-2.6C82.4,30.1,90.4,15,98.5,0h-9.9
		C80.2,15.6,72,31.3,63.8,47.1c-1.5,2.9,0.4,6.5,3.8,6.5c11.5-0.2,22.6,3.3,34.1,3c1.1,0,2.3-0.1,3.4-0.2c-0.2,18.5-2.2,56.5-2.5,57
		c-13.7,24.7-26.9,49.5-39.8,74.6c-1.5,2.9,0.4,6.5,3.8,6.5c11.5-0.2,22.6,3.3,34.1,3c1.6,0,3.2-0.1,4.8-0.2
		c-0.1,15.2-3.5,46.6-4.1,47.7c-13.7,24.7-26.9,49.5-39.8,74.6c-1.5,2.9,0.4,6.5,3.8,6.5c11.5-0.2,22.6,3.3,34.1,3
		c1.6,0,3.1-0.1,4.7-0.2c1.1,15.9-0.9,56.5-1.5,57.6c-13.7,24.7-26.9,49.5-39.8,74.6c-1.5,2.9,0.4,6.5,3.8,6.5
		c11.5-0.2,22.6,3.3,34.1,3c2.2,0,4.3-0.2,6.4-0.4c-0.6,14-4.1,43.4-4.5,44.3c-13.7,24.7-26.9,49.5-39.8,74.6
		c-1.5,2.9,0.4,6.5,3.8,6.5c11.5-0.2,22.6,3.3,34.1,3c1.4,0,2.9-0.1,4.3-0.2c-0.3,15.2-2,46.6-2.1,46.9
		c-13.7,24.7-26.9,49.5-39.8,74.6c-1.5,2.9,0.4,6.5,3.8,6.5c11.5-0.2,22.6,3.3,34.1,3c1.4,0,2.7-0.1,4.1-0.2c0,0,0,0,0,0
		c0.4,14-1.2,42.8-1.4,43.3c-5.1,9.1-10,18.3-15,27.5h9.9c2-3.7,4-7.4,6-11.1c0,2-1.1,6.1-2.2,11.1h8c-0.5-4.2-0.7-7.6-0.6-9.3
		c1.4,3.1,2.7,6.2,4.1,9.3h9.9c-4.3-9.1-8.5-18.2-12.5-27.5c-0.2-0.5-1.5-29.6-2.4-43.3c0-0.1,20.2-3.3,30.5-1
		c2.2,0.5,3.9-0.6,4.7-2.1c1.6-0.9,2.6-2.8,1.7-5c-11.4-25.5-24.3-50.2-35.3-75.9c-0.3-0.7-1.6-32.1-1.5-47.2
		c10.1-1,20-2.9,30.2-0.6c2.2,0.5,3.9-0.6,4.7-2.1c1.6-0.9,2.6-2.8,1.7-5c-11.3-25.3-24-49.8-35-75.3c0.4-15.2,0.4-30.3,0.9-45.3
		c9.3-1,18.4-2.4,27.8-0.3c2.2,0.5,3.9-0.6,4.7-2.1c1.6-0.9,2.6-2.8,1.7-5c-11.3-25.4-24.2-50.1-35.2-75.7c0-2.7,0-5.4,0-8
		c0.1-16.7-0.5-33.5-1.8-50.1c9.8-1,19.5-2.7,29.4-0.5c2.2,0.5,3.9-0.6,4.7-2.1c1.6-0.9,2.6-2.8,1.7-5
		c-11.1-24.8-23.5-48.9-34.4-73.8c0.4-16.8,0-33.7-0.2-50.1c9.8-1,19.5-2.8,29.5-0.5c2.2,0.5,3.9-0.6,4.7-2.1c1.6-0.9,2.6-2.8,1.7-5
		c-11.4-25.5-35.6-76.3-35.7-76.5c0.3-19,0-38-0.2-56.8C119.7,55.1,129.7,53.2,140,55.5z M136,719c-10.5-1.1-20.7,0.9-31.4,1.6
		c-10.4,0.7-20.5-1.7-30.7-2.6c9.6-18.6,19.4-37,29.4-55.3c0,6.6-7.9,36.9-10.2,43.2c-0.8,2.2,1.3,5.1,3.7,4.9c5-0.4,10-0.7,15-1.1
		c2.4-0.2,4.6-2.4,3.8-4.9c-2.2-6.8-7.1-35.2-6.8-41.8C116.9,681.9,125.7,701,136,719z M135.7,588.2c-10.5-1.1-20.7,0.9-31.4,1.6
		c-10.4,0.7-20.5-1.7-30.7-2.6c10-19.4,20.3-38.7,30.8-57.8c-0.2,7.3-9.3,39.4-11.6,45.7c-0.8,2.2,1.3,5.1,3.7,4.9
		c5-0.4,10-0.7,15-1.1c2.4-0.2,4.6-2.4,3.8-4.9c-2.2-6.8-6.1-33.1-5.7-39.2C117.5,552.9,125.9,571.1,135.7,588.2z M115.2,446
		c-2.2-6.8-5.9-33-5.6-39c7.9,18.1,16.3,36.1,26.1,53.2c-10.5-1.1-20.7,0.9-31.4,1.6c-10.4,0.7-20.5-1.7-30.7-2.6
		c10.2-19.7,20.6-39.3,31.3-58.8c-0.5,7.7-9.8,40.4-12.1,46.7c-0.8,2.2,1.3,5.1,3.7,4.9c5-0.4,10-0.7,15-1.1
		C113.8,450.7,116.1,448.5,115.2,446z M134.5,318.7c-10.5-1.1-20.7,0.9-31.4,1.6c-10.4,0.7-20.5-1.7-30.7-2.6
		c10.3-19.9,20.8-39.7,31.6-59.4c-0.1,7.8-10.1,41-12.4,47.3c-0.8,2.2,1.3,5.1,3.7,4.9c5-0.4,10-0.7,15-1.1c2.4-0.2,4.6-2.4,3.8-4.9
		c-2.1-6.5-5.5-31.8-5.1-37.9C116.7,284.3,124.9,302,134.5,318.7z M135.7,187.2c-10.5-1.1-20.7,0.9-31.4,1.6
		c-10.4,0.7-20.5-1.7-30.7-2.6c9.9-19.1,20-38,30.3-56.9c0,7-8.7,38.5-11.1,44.7c-0.8,2.2,1.3,5.1,3.7,4.9c5-0.4,10-0.7,15-1.1
		c2.4-0.2,4.6-2.4,3.8-4.9c-2.2-6.8-6.4-33.7-6.1-40.2C117.2,151.3,125.7,169.8,135.7,187.2z"/>
	<path class="st0" d="M246.3,507.4c1.5-2.9-0.4-6.5-3.8-6.5c-11.5,0.2-22.6-3.3-34.1-3c-1.6,0-3.1,0.1-4.7,0.2
		c-1.1-15.9,0.9-56.5,1.5-57.6c13.7-24.7,26.9-49.5,39.8-74.6c1.5-2.9-0.4-6.5-3.8-6.5c-11.5,0.2-22.6-3.3-34.1-3
		c-2.2,0-4.3,0.2-6.4,0.4c0.6-14,4.1-43.4,4.5-44.3c13.7-24.7,26.9-49.5,39.8-74.6c1.5-2.9-0.4-6.5-3.8-6.5
		c-11.5,0.2-22.6-3.3-34.1-3c-1.4,0-2.9,0.1-4.3,0.2c0.3-15.2,2-46.6,2.1-46.9c13.7-24.7,26.9-49.5,39.8-74.6
		c1.5-2.9-0.4-6.5-3.8-6.5c-11.5,0.2-22.6-3.3-34.1-3c-1.4,0-2.7,0.1-4.1,0.2c0,0,0,0,0,0c-0.4-14,1.2-42.8,1.4-43.3
		c10-18.1,19.8-36.2,29.4-54.5h-9.8c-6.7,12.8-13.5,25.5-20.4,38.1c0.1-5.6,5.5-26.8,8.9-38.1h-19.3c2.4,10.5,5.6,31,5.3,36.4
		c-5.3-12.2-10.9-24.5-16.9-36.4h-10c8.6,18.1,17.5,36.1,25.4,54.6c0.2,0.5,1.5,29.6,2.4,43.3c0,0.1-20.2,3.3-30.5,1
		c-2.2-0.5-3.9,0.6-4.7,2.1c-1.6,0.9-2.6,2.8-1.7,5c11.4,25.5,24.3,50.2,35.3,75.9c0.3,0.7,1.6,32.1,1.5,47.2
		c-10.1,1-20,2.9-30.2,0.6c-2.2-0.5-3.9,0.6-4.7,2.1c-1.6,0.9-2.6,2.8-1.7,5c11.3,25.3,24,49.8,35,75.3c-0.4,15.2-0.4,30.3-0.9,45.3
		c-9.3,1-18.4,2.4-27.8,0.3c-2.2-0.5-3.9,0.6-4.7,2.1c-1.6,0.9-2.6,2.8-1.7,5c11.3,25.4,24.2,50.1,35.2,75.7c0,2.7,0,5.4,0,8
		c-0.1,16.7,0.5,33.5,1.8,50.1c-9.8,1-19.5,2.7-29.4,0.5c-2.2-0.5-3.9,0.6-4.7,2.1c-1.6,0.9-2.6,2.8-1.7,5
		c11.1,24.8,23.5,48.9,34.4,73.8c-0.4,16.8,0,33.7,0.2,50.1c-9.8,1-19.5,2.8-29.5,0.5c-2.2-0.5-3.9,0.6-4.7,2.1
		c-1.6,0.9-2.6,2.8-1.7,5c11.4,25.5,35.6,76.3,35.7,76.5c-0.3,19,0,38,0.2,56.8c-10.2,1-20.2,2.9-30.5,0.6c-2.2-0.5-3.9,0.6-4.7,2.1
		c-1.6,0.9-2.6,2.8-1.7,5c3.2,7.2,6.5,14.3,9.9,21.3h10c-3.3-6.5-6.6-12.9-10.2-19.1c10.5,1.1,20.7-0.9,31.4-1.6
		c10.4-0.7,20.5,1.7,30.7,2.6c-3.1,6.1-6.3,12.1-9.5,18.2h9.8c3.5-6.7,7-13.4,10.4-20.1c1.5-2.9-0.4-6.5-3.8-6.5
		c-11.5,0.2-22.6-3.3-34.1-3c-1.1,0-2.3,0.1-3.4,0.2c0.2-18.5,2.2-56.5,2.5-57c13.7-24.7,26.9-49.5,39.8-74.6
		c1.5-2.9-0.4-6.5-3.8-6.5c-11.5,0.2-22.6-3.3-34.1-3c-1.6,0-3.2,0.1-4.8,0.2c0.1-15.2,3.5-46.6,4.1-47.7
		C220.1,557.3,233.4,532.5,246.3,507.4z M171.9,108.1c10.5,1.1,20.7-0.9,31.4-1.6c10.4-0.7,20.5,1.7,30.7,2.6
		c-9.6,18.6-19.4,37-29.4,55.3c0-6.6,7.9-36.9,10.2-43.2c0.8-2.2-1.3-5.1-3.7-4.9c-5,0.4-10,0.7-15,1.1c-2.4,0.2-4.6,2.4-3.8,4.9
		c2.2,6.8,7.1,35.2,6.8,41.8C190.9,145.2,182.2,126.1,171.9,108.1z M172.2,238.9c10.5,1.1,20.7-0.9,31.4-1.6
		c10.4-0.7,20.5,1.7,30.7,2.6c-10,19.4-20.3,38.7-30.8,57.8c0.2-7.3,9.3-39.4,11.6-45.7c0.8-2.2-1.3-5.1-3.7-4.9
		c-5,0.4-10,0.7-15,1.1c-2.4,0.2-4.6,2.4-3.8,4.9c2.2,6.8,6.1,33.1,5.7,39.2C190.4,274.1,182,256,172.2,238.9z M192.7,381.1
		c2.2,6.8,5.9,33,5.6,39c-7.9-18.1-16.3-36.1-26.1-53.2c10.5,1.1,20.7-0.9,31.4-1.6c10.4-0.7,20.5,1.7,30.7,2.6
		c-10.2,19.7-20.6,39.3-31.3,58.8c0.5-7.7,9.8-40.4,12.1-46.7c0.8-2.2-1.3-5.1-3.7-4.9c-5,0.4-10,0.7-15,1.1
		C194.1,376.3,191.8,378.5,192.7,381.1z M203.6,638.3c10.4-0.7,20.5,1.7,30.7,2.6c-9.9,19.1-20,38-30.3,56.9c0-7,8.7-38.5,11.1-44.7
		c0.8-2.2-1.3-5.1-3.7-4.9c-5,0.4-10,0.7-15,1.1c-2.4,0.2-4.6,2.4-3.8,4.9c2.2,6.8,6.4,33.7,6.1,40.2c-8.1-18.5-16.6-37-26.6-54.4
		C182.7,641,192.9,639,203.6,638.3z M212.7,516.5c-5,0.4-10,0.7-15,1.1c-2.4,0.2-4.6,2.4-3.8,4.9c2.1,6.5,5.5,31.8,5.1,37.9
		c-7.8-17.7-16-35.4-25.6-52.1c10.5,1.1,20.7-0.9,31.4-1.6c10.4-0.7,20.5,1.7,30.7,2.6c-10.3,19.9-20.8,39.7-31.6,59.4
		c0.1-7.8,10.1-41,12.5-47.3C217.2,519.2,215,516.4,212.7,516.5z"/>
	<path class="st0" d="M214.1,793.9c0.8-2.2-1.3-5.1-3.7-4.9c-5,0.4-10,0.7-15,1.1c-2.4,0.2-4.6,2.4-3.8,4.9c0.4,1.1,0.8,2.8,1.3,4.9
		l14.5,0h4.8C213,797.3,213.7,795.2,214.1,793.9z"/>
	<path class="st0" d="M297.4,38c5-0.4,10-0.7,15-1.1c2.4-0.2,4.6-2.4,3.8-4.9c-1.6-4.8-4.4-20.7-6-32h-8
		c-2.5,11.7-6.9,28.6-8.5,33.1C292.9,35.4,295.1,38.2,297.4,38z"/>
	<path class="st0" d="M340,55.5c2.2,0.5,3.9-0.6,4.7-2.1c1.6-0.9,2.6-2.8,1.7-5c-7.3-16.3-15.2-32.3-22.8-48.4h-9.9
		c7,15.7,14.5,31.3,23,46.2c-10.5-1.1-20.7,0.9-31.4,1.6c-10.4,0.7-20.5-1.7-30.7-2.6c7.8-15.2,15.9-30.2,24-45.2h-9.9
		c-8.4,15.6-16.7,31.3-24.8,47.1c-1.5,2.9,0.4,6.5,3.8,6.5c11.5-0.2,22.6,3.3,34.1,3c1.1,0,2.3-0.1,3.4-0.2
		c-0.2,18.5-2.2,56.5-2.5,57c-13.7,24.7-26.9,49.5-39.8,74.6c-1.5,2.9,0.4,6.5,3.8,6.5c11.5-0.2,22.6,3.3,34.1,3
		c1.6,0,3.2-0.1,4.8-0.2c-0.1,15.2-3.5,46.6-4.1,47.7c-13.7,24.7-26.9,49.5-39.8,74.6c-1.5,2.9,0.4,6.5,3.8,6.5
		c11.5-0.2,22.6,3.3,34.1,3c1.6,0,3.1-0.1,4.7-0.2c1.1,15.9-0.9,56.5-1.5,57.6c-13.7,24.7-26.9,49.5-39.8,74.6
		c-1.5,2.9,0.4,6.5,3.8,6.5c11.5-0.2,22.6,3.3,34.1,3c2.2,0,4.3-0.2,6.4-0.4c-0.6,14-4.1,43.4-4.5,44.3
		c-13.7,24.7-26.9,49.5-39.8,74.6c-1.5,2.9,0.4,6.5,3.8,6.5c11.5-0.2,22.6,3.3,34.1,3c1.4,0,2.9-0.1,4.3-0.2
		c-0.3,15.2-2,46.6-2.1,46.9c-13.7,24.7-26.9,49.5-39.8,74.6c-1.5,2.9,0.4,6.5,3.8,6.5c11.5-0.2,22.6,3.3,34.1,3
		c1.4,0,2.7-0.1,4.1-0.2c0,0,0,0,0,0c0.4,14-1.2,42.8-1.4,43.3c-5.1,9.1-10,18.3-15,27.5h9.9c2-3.7,4-7.4,6-11.1
		c0,2-1.1,6.1-2.2,11.1h8c-0.5-4.2-0.7-7.6-0.6-9.3c1.4,3.1,2.7,6.2,4.1,9.3h9.9c-4.3-9.1-8.5-18.2-12.5-27.5
		c-0.2-0.5-1.5-29.6-2.4-43.3c0-0.1,20.2-3.3,30.5-1c2.2,0.5,3.9-0.6,4.7-2.1c1.6-0.9,2.6-2.8,1.7-5c-11.4-25.5-24.3-50.2-35.3-75.9
		c-0.3-0.7-1.6-32.1-1.5-47.2c10.1-1,20-2.9,30.2-0.6c2.2,0.5,3.9-0.6,4.7-2.1c1.6-0.9,2.6-2.8,1.7-5c-11.3-25.3-24-49.8-35-75.3
		c0.4-15.2,0.4-30.3,0.9-45.3c9.3-1,18.4-2.4,27.8-0.3c2.2,0.5,3.9-0.6,4.7-2.1c1.6-0.9,2.6-2.8,1.7-5
		c-11.3-25.4-24.2-50.1-35.2-75.7c0-2.7,0-5.4,0-8c0.1-16.7-0.5-33.5-1.8-50.1c9.8-1,19.5-2.7,29.4-0.5c2.2,0.5,3.9-0.6,4.7-2.1
		c1.6-0.9,2.6-2.8,1.7-5c-11.1-24.8-23.5-48.9-34.4-73.8c0.4-16.8,0-33.7-0.2-50.1c9.8-1,19.5-2.8,29.5-0.5c2.2,0.5,3.9-0.6,4.7-2.1
		c1.6-0.9,2.6-2.8,1.7-5c-11.4-25.5-35.6-76.3-35.7-76.5c0.3-19,0-38-0.2-56.8C319.7,55.1,329.7,53.2,340,55.5z M336,719
		c-10.5-1.1-20.7,0.9-31.4,1.6c-10.4,0.7-20.5-1.7-30.7-2.6c9.6-18.6,19.4-37,29.4-55.3c0,6.6-7.9,36.9-10.2,43.2
		c-0.8,2.2,1.3,5.1,3.7,4.9c5-0.4,10-0.7,15-1.1c2.4-0.2,4.6-2.4,3.8-4.9c-2.2-6.8-7.1-35.2-6.8-41.8C316.9,681.9,325.7,701,336,719
		z M335.7,588.2c-10.5-1.1-20.7,0.9-31.4,1.6c-10.4,0.7-20.5-1.7-30.7-2.6c10-19.4,20.3-38.7,30.8-57.8c-0.2,7.3-9.3,39.4-11.6,45.7
		c-0.8,2.2,1.3,5.1,3.7,4.9c5-0.4,10-0.7,15-1.1c2.4-0.2,4.6-2.4,3.8-4.9c-2.2-6.8-6.1-33.1-5.7-39.2
		C317.5,552.9,325.9,571.1,335.7,588.2z M315.2,446c-2.2-6.8-5.9-33-5.6-39c7.9,18.1,16.3,36.1,26.1,53.2
		c-10.5-1.1-20.7,0.9-31.4,1.6c-10.4,0.7-20.5-1.7-30.7-2.6c10.2-19.7,20.6-39.3,31.3-58.8c-0.5,7.7-9.8,40.4-12.1,46.7
		c-0.8,2.2,1.3,5.1,3.7,4.9c5-0.4,10-0.7,15-1.1C313.8,450.7,316.1,448.5,315.2,446z M334.5,318.7c-10.5-1.1-20.7,0.9-31.4,1.6
		c-10.4,0.7-20.5-1.7-30.7-2.6c10.3-19.9,20.8-39.7,31.6-59.4c-0.1,7.8-10.1,41-12.4,47.3c-0.8,2.2,1.3,5.1,3.7,4.9
		c5-0.4,10-0.7,15-1.1c2.4-0.2,4.6-2.4,3.8-4.9c-2.1-6.5-5.5-31.8-5.1-37.9C316.7,284.3,324.9,302,334.5,318.7z M335.7,187.2
		c-10.5-1.1-20.7,0.9-31.4,1.6c-10.4,0.7-20.5-1.7-30.7-2.6c9.9-19.1,20-38,30.3-56.9c0,7-8.7,38.5-11.1,44.7
		c-0.8,2.2,1.3,5.1,3.7,4.9c5-0.4,10-0.7,15-1.1c2.4-0.2,4.6-2.4,3.8-4.9c-2.2-6.8-6.4-33.7-6.1-40.2
		C317.2,151.3,325.7,169.8,335.7,187.2z"/>
	<path class="st0" d="M412.3,800c0.8-2.7,1.4-4.8,1.9-6.1c0.8-2.2-1.3-5.1-3.7-4.9c-5,0.4-10,0.7-15,1.1c-2.4,0.2-4.6,2.4-3.8,4.9
		c0.4,1.1,0.8,2.8,1.3,4.9l0,0L412.3,800L412.3,800z"/>
	<path class="st0" d="M423.8,800h9.8l0,0c3.5-6.7,7-13.4,10.4-20.1c1.5-2.9-0.4-6.5-3.8-6.5c-11.5,0.2-22.6-3.3-34.1-3
		c-1.1,0-2.3,0.1-3.4,0.2c0.2-18.5,2.2-56.5,2.5-57c13.7-24.7,26.9-49.5,39.8-74.6c1.5-2.9-0.4-6.5-3.8-6.5
		c-11.5,0.2-22.6-3.3-34.1-3c-1.6,0-3.2,0.1-4.8,0.2c0.1-15.2,3.5-46.6,4.1-47.7c13.7-24.7,26.9-49.5,39.8-74.6
		c1.5-2.9-0.4-6.5-3.8-6.5c-11.5,0.2-22.6-3.3-34.1-3c-1.6,0-3.1,0.1-4.7,0.2c-1.1-15.9,0.9-56.5,1.5-57.6
		c13.7-24.7,26.9-49.5,39.8-74.6c1.5-2.9-0.4-6.5-3.8-6.5c-11.5,0.2-22.6-3.3-34.1-3c-2.2,0-4.3,0.2-6.4,0.4
		c0.6-14,4.1-43.4,4.5-44.3c13.7-24.7,26.9-49.5,39.8-74.6c1.5-2.9-0.4-6.5-3.8-6.5c-11.5,0.2-22.6-3.3-34.1-3
		c-1.4,0-2.9,0.1-4.3,0.2c0.3-15.2,2-46.6,2.1-46.9c13.7-24.7,26.9-49.5,39.8-74.6c1.5-2.9-0.4-6.5-3.8-6.5
		c-11.5,0.2-22.6-3.3-34.1-3c-1.4,0-2.7,0.1-4.1,0.2c0,0,0,0,0,0c-0.4-14,1.2-42.8,1.4-43.3c10-18.1,19.8-36.2,29.4-54.5h0h-9.8l0,0
		c-6.7,12.8-13.5,25.5-20.4,38.1c0.1-5.6,5.6-26.8,8.9-38.1h-19.3h0c2.4,10.5,5.6,31,5.3,36.4c-5.3-12.2-10.9-24.5-16.9-36.4h0h-10
		l0,0c8.6,18.1,17.5,36.1,25.4,54.6c0.2,0.5,1.5,29.6,2.4,43.3c0,0.1-20.2,3.3-30.5,1c-2.2-0.5-3.9,0.6-4.7,2.1
		c-1.6,0.9-2.6,2.8-1.7,5c11.4,25.5,24.3,50.2,35.3,75.9c0.3,0.7,1.6,32.1,1.5,47.2c-10.1,1-20,2.9-30.2,0.6
		c-2.2-0.5-3.9,0.6-4.7,2.1c-1.6,0.9-2.6,2.8-1.7,5c11.3,25.3,24,49.8,35,75.3c-0.4,15.2-0.4,30.3-0.9,45.3
		c-9.3,1-18.4,2.4-27.8,0.3c-2.2-0.5-3.9,0.6-4.7,2.1c-1.6,0.9-2.6,2.8-1.7,5c11.3,25.4,24.2,50.1,35.2,75.7c0,2.7,0,5.4,0,8
		c-0.1,16.7,0.5,33.5,1.8,50.1c-9.8,1-19.5,2.7-29.4,0.5c-2.2-0.5-3.9,0.6-4.7,2.1c-1.6,0.9-2.6,2.8-1.7,5
		c11.1,24.8,23.5,48.9,34.4,73.8c-0.4,16.8,0,33.7,0.2,50.1c-9.8,1-19.5,2.8-29.5,0.5c-2.2-0.5-3.9,0.6-4.7,2.1
		c-1.6,0.9-2.6,2.8-1.7,5c11.4,25.5,35.6,76.3,35.7,76.5c-0.3,19,0,38,0.2,56.8c-10.2,1-20.2,2.9-30.5,0.6c-2.2-0.5-3.9,0.6-4.7,2.1
		c-1.6,0.9-2.6,2.8-1.7,5c3.2,7.2,6.5,14.3,9.9,21.3v0h10l0,0c-3.3-6.5-6.6-12.9-10.2-19.1c10.5,1.1,20.7-0.9,31.4-1.6
		c10.4-0.7,20.5,1.7,30.7,2.6C430.2,787.9,427,793.9,423.8,800L423.8,800z M371.9,108.1c10.5,1.1,20.7-0.9,31.4-1.6
		c10.4-0.7,20.5,1.7,30.7,2.6c-9.6,18.6-19.4,37-29.4,55.3c0-6.6,7.9-36.9,10.2-43.2c0.8-2.2-1.3-5.1-3.7-4.9c-5,0.4-10,0.7-15,1.1
		c-2.4,0.2-4.6,2.4-3.8,4.9c2.2,6.8,7.1,35.2,6.8,41.8C390.9,145.2,382.2,126.1,371.9,108.1z M372.2,238.9
		c10.5,1.1,20.7-0.9,31.4-1.6c10.4-0.7,20.5,1.7,30.7,2.6c-10,19.4-20.3,38.7-30.8,57.8c0.2-7.3,9.3-39.4,11.6-45.7
		c0.8-2.2-1.3-5.1-3.7-4.9c-5,0.4-10,0.7-15,1.1c-2.4,0.2-4.6,2.4-3.8,4.9c2.2,6.8,6.1,33.1,5.7,39.2
		C390.4,274.1,382,256,372.2,238.9z M392.7,381.1c2.2,6.8,5.9,33,5.6,39c-7.9-18.1-16.3-36.1-26.1-53.2c10.5,1.1,20.7-0.9,31.4-1.6
		c10.4-0.7,20.5,1.7,30.7,2.6c-10.2,19.7-20.6,39.3-31.3,58.8c0.5-7.7,9.8-40.4,12.1-46.7c0.8-2.2-1.3-5.1-3.7-4.9
		c-5,0.4-10,0.7-15,1.1C394.1,376.3,391.8,378.5,392.7,381.1z M373.4,508.3c10.5,1.1,20.7-0.9,31.4-1.6c10.4-0.7,20.5,1.7,30.7,2.6
		c-10.3,19.9-20.8,39.7-31.6,59.4c0.1-7.8,10.1-41,12.4-47.3c0.8-2.2-1.3-5.1-3.7-4.9c-5,0.4-10,0.7-15,1.1
		c-2.4,0.2-4.6,2.4-3.8,4.9c2.1,6.5,5.5,31.8,5.1,37.9C391.2,542.7,383,525.1,373.4,508.3z M392.7,654.1c2.2,6.8,6.4,33.7,6.1,40.2
		c-8.1-18.5-16.6-37-26.6-54.4c10.5,1.1,20.7-0.9,31.4-1.6c10.4-0.7,20.5,1.7,30.7,2.6c-9.9,19.1-20,38-30.3,56.9
		c0-7,8.7-38.5,11.1-44.7c0.8-2.2-1.3-5.1-3.7-4.9c-5,0.4-10,0.7-15,1.1C394.1,649.3,391.8,651.5,392.7,654.1z"/>
	<path class="st0" d="M497.4,38c5-0.4,10-0.7,15-1.1c2.4-0.2,4.6-2.4,3.8-4.9c-1.6-4.8-4.4-20.7-6-32h-8
		c-2.5,11.7-6.9,28.6-8.5,33.1C492.9,35.4,495.1,38.2,497.4,38z"/>
	<path class="st0" d="M540,55.5c2.2,0.5,3.9-0.6,4.7-2.1c1.6-0.9,2.6-2.8,1.7-5c-7.3-16.3-15.2-32.3-22.8-48.4h-9.9
		c7,15.7,14.5,31.3,23,46.2c-10.5-1.1-20.7,0.9-31.4,1.6c-10.4,0.7-20.5-1.7-30.7-2.6c7.8-15.2,15.9-30.2,24-45.2h-9.9
		c-8.4,15.6-16.7,31.3-24.8,47.1c-1.5,2.9,0.4,6.5,3.8,6.5c11.5-0.2,22.6,3.3,34.1,3c1.1,0,2.3-0.1,3.4-0.2
		c-0.2,18.5-2.2,56.5-2.5,57c-13.7,24.7-26.9,49.5-39.8,74.6c-1.5,2.9,0.4,6.5,3.8,6.5c11.5-0.2,22.6,3.3,34.1,3
		c1.6,0,3.2-0.1,4.8-0.2c-0.1,15.2-3.5,46.6-4.1,47.7c-13.7,24.7-26.9,49.5-39.8,74.6c-1.5,2.9,0.4,6.5,3.8,6.5
		c11.5-0.2,22.6,3.3,34.1,3c1.6,0,3.1-0.1,4.7-0.2c1.1,15.9-0.9,56.5-1.5,57.6c-13.7,24.7-26.9,49.5-39.8,74.6
		c-1.5,2.9,0.4,6.5,3.8,6.5c11.5-0.2,22.6,3.3,34.1,3c2.2,0,4.3-0.2,6.4-0.4c-0.6,14-4.1,43.4-4.5,44.3
		c-13.7,24.7-26.9,49.5-39.8,74.6c-1.5,2.9,0.4,6.5,3.8,6.5c11.5-0.2,22.6,3.3,34.1,3c1.4,0,2.9-0.1,4.3-0.2
		c-0.3,15.2-2,46.6-2.1,46.9c-13.7,24.7-26.9,49.5-39.8,74.6c-1.5,2.9,0.4,6.5,3.8,6.5c11.5-0.2,22.6,3.3,34.1,3
		c1.4,0,2.7-0.1,4.1-0.2c0,0,0,0,0,0c0.4,14-1.2,42.8-1.4,43.3c-5.1,9.1-10,18.3-15,27.5h9.9c2-3.7,4-7.4,6-11.1
		c0,2-1.1,6.1-2.2,11.1h8c-0.5-4.2-0.7-7.6-0.6-9.3c1.4,3.1,2.7,6.2,4.1,9.3h9.9c-4.3-9.1-8.5-18.2-12.5-27.5
		c-0.2-0.5-1.5-29.6-2.4-43.3c0-0.1,20.2-3.3,30.5-1c2.2,0.5,3.9-0.6,4.7-2.1c1.6-0.9,2.6-2.8,1.7-5c-11.4-25.5-24.3-50.2-35.3-75.9
		c-0.3-0.7-1.6-32.1-1.5-47.2c10.1-1,20-2.9,30.2-0.6c2.2,0.5,3.9-0.6,4.7-2.1c1.6-0.9,2.6-2.8,1.7-5c-11.3-25.3-24-49.8-35-75.3
		c0.4-15.2,0.4-30.3,0.9-45.3c9.3-1,18.4-2.4,27.8-0.3c2.2,0.5,3.9-0.6,4.7-2.1c1.6-0.9,2.6-2.8,1.7-5
		c-11.3-25.4-24.2-50.1-35.2-75.7c0-2.7,0-5.4,0-8c0.1-16.7-0.5-33.5-1.8-50.1c9.8-1,19.5-2.7,29.4-0.5c2.2,0.5,3.9-0.6,4.7-2.1
		c1.6-0.9,2.6-2.8,1.7-5c-11.1-24.8-23.5-48.9-34.4-73.8c0.4-16.8,0-33.7-0.2-50.1c9.8-1,19.5-2.8,29.5-0.5c2.2,0.5,3.9-0.6,4.7-2.1
		c1.6-0.9,2.6-2.8,1.7-5c-11.4-25.5-35.6-76.3-35.7-76.5c0.3-19,0-38-0.2-56.8C519.7,55.1,529.7,53.2,540,55.5z M536,719
		c-10.5-1.1-20.7,0.9-31.4,1.6c-10.4,0.7-20.5-1.7-30.7-2.6c9.6-18.6,19.4-37,29.4-55.3c0,6.6-7.9,36.9-10.2,43.2
		c-0.8,2.2,1.3,5.1,3.7,4.9c5-0.4,10-0.7,15-1.1c2.4-0.2,4.6-2.4,3.8-4.9c-2.2-6.8-7.1-35.2-6.8-41.8C516.9,681.9,525.7,701,536,719
		z M535.7,588.2c-10.5-1.1-20.7,0.9-31.4,1.6c-10.4,0.7-20.5-1.7-30.7-2.6c10-19.4,20.3-38.7,30.8-57.8c-0.2,7.3-9.3,39.4-11.6,45.7
		c-0.8,2.2,1.3,5.1,3.7,4.9c5-0.4,10-0.7,15-1.1c2.4-0.2,4.6-2.4,3.8-4.9c-2.2-6.8-6.1-33.1-5.7-39.2
		C517.5,552.9,525.9,571.1,535.7,588.2z M515.2,446c-2.2-6.8-5.9-33-5.6-39c7.9,18.1,16.3,36.1,26.1,53.2
		c-10.5-1.1-20.7,0.9-31.4,1.6c-10.4,0.7-20.5-1.7-30.7-2.6c10.2-19.7,20.6-39.3,31.3-58.8c-0.5,7.7-9.8,40.4-12.1,46.7
		c-0.8,2.2,1.3,5.1,3.7,4.9c5-0.4,10-0.7,15-1.1C513.8,450.7,516.1,448.5,515.2,446z M534.5,318.7c-10.5-1.1-20.7,0.9-31.4,1.6
		c-10.4,0.7-20.5-1.7-30.7-2.6c10.3-19.9,20.8-39.7,31.6-59.4c-0.1,7.8-10.1,41-12.5,47.3c-0.8,2.2,1.3,5.1,3.7,4.9
		c5-0.4,10-0.7,15-1.1c2.4-0.2,4.6-2.4,3.8-4.9c-2.1-6.5-5.5-31.8-5.1-37.9C516.7,284.3,524.9,302,534.5,318.7z M535.7,187.2
		c-10.5-1.1-20.7,0.9-31.4,1.6c-10.4,0.7-20.5-1.7-30.7-2.6c9.9-19.1,20-38,30.3-56.9c0,7-8.7,38.5-11.1,44.7
		c-0.8,2.2,1.3,5.1,3.7,4.9c5-0.4,10-0.7,15-1.1c2.4-0.2,4.6-2.4,3.8-4.9c-2.2-6.8-6.4-33.7-6.1-40.2
		C517.2,151.3,525.7,169.8,535.7,187.2z"/>
	<path class="st0" d="M595.4,790.2c-2.4,0.2-4.6,2.4-3.8,4.9c0.4,1.1,0.8,2.8,1.3,4.9h19.4c0.8-2.7,1.4-4.8,1.9-6.1
		c0.8-2.2-1.3-5.1-3.7-4.9C605.4,789.4,600.4,789.8,595.4,790.2z"/>
	<path class="st0" d="M646.3,507.4c1.5-2.9-0.4-6.5-3.8-6.5c-11.5,0.2-22.6-3.3-34.1-3c-1.6,0-3.1,0.1-4.7,0.2
		c-1.1-15.9,0.9-56.5,1.5-57.6c13.7-24.7,26.9-49.5,39.8-74.6c1.5-2.9-0.4-6.5-3.8-6.5c-11.5,0.2-22.6-3.3-34.1-3
		c-2.2,0-4.3,0.2-6.4,0.4c0.6-14,4.1-43.4,4.5-44.3c13.7-24.7,26.9-49.5,39.8-74.6c1.5-2.9-0.4-6.5-3.8-6.5
		c-11.5,0.2-22.6-3.3-34.1-3c-1.4,0-2.9,0.1-4.3,0.2c0.3-15.2,2-46.6,2.1-46.9c13.7-24.7,26.9-49.5,39.8-74.6
		c1.5-2.9-0.4-6.5-3.8-6.5c-11.5,0.2-22.6-3.3-34.1-3c-1.4,0-2.7,0.1-4.1,0.2c0,0,0,0,0,0c-0.4-14,1.2-42.8,1.4-43.3
		c10-18.1,19.8-36.2,29.4-54.5h-9.8c-6.7,12.8-13.5,25.5-20.4,38.1c0.1-5.6,5.6-26.8,8.9-38.1h-19.3c2.4,10.5,5.6,31,5.3,36.4
		c-5.3-12.2-10.9-24.5-16.9-36.4h-10c8.6,18.1,17.5,36.1,25.4,54.6c0.2,0.5,1.5,29.6,2.4,43.3c0,0.1-20.2,3.3-30.5,1
		c-2.2-0.5-3.9,0.6-4.7,2.1c-1.6,0.9-2.6,2.8-1.7,5c11.4,25.5,24.3,50.2,35.3,75.9c0.3,0.7,1.6,32.1,1.5,47.2
		c-10.1,1-20,2.9-30.2,0.6c-2.2-0.5-3.9,0.6-4.7,2.1c-1.6,0.9-2.6,2.8-1.7,5c11.3,25.3,24,49.8,35,75.3c-0.4,15.2-0.4,30.3-0.9,45.3
		c-9.3,1-18.4,2.4-27.8,0.3c-2.2-0.5-3.9,0.6-4.7,2.1c-1.6,0.9-2.6,2.8-1.7,5c11.3,25.4,24.2,50.1,35.2,75.7c0,2.7,0,5.4,0,8
		c-0.1,16.7,0.5,33.5,1.8,50.1c-9.8,1-19.5,2.7-29.4,0.5c-2.2-0.5-3.9,0.6-4.7,2.1c-1.6,0.9-2.6,2.8-1.7,5
		c11.1,24.8,23.5,48.9,34.4,73.8c-0.4,16.8,0,33.7,0.2,50.1c-9.8,1-19.5,2.8-29.5,0.5c-2.2-0.5-3.9,0.6-4.7,2.1
		c-1.6,0.9-2.6,2.8-1.7,5c11.4,25.5,35.6,76.3,35.7,76.5c-0.3,19,0,38,0.2,56.8c-10.2,1-20.2,2.9-30.5,0.6c-2.2-0.5-3.9,0.6-4.7,2.1
		c-1.6,0.9-2.6,2.8-1.7,5c3.2,7.2,6.5,14.3,9.9,21.3h10c-3.3-6.5-6.6-12.9-10.2-19.1c10.5,1.1,20.7-0.9,31.4-1.6
		c10.4-0.7,20.5,1.7,30.7,2.6c-3.1,6.1-6.3,12.1-9.5,18.2h9.8c3.5-6.7,7-13.4,10.4-20.1c1.5-2.9-0.4-6.5-3.8-6.5
		c-11.5,0.2-22.6-3.3-34.1-3c-1.1,0-2.3,0.1-3.4,0.2c0.2-18.5,2.2-56.5,2.5-57c13.7-24.7,26.9-49.5,39.8-74.6
		c1.5-2.9-0.4-6.5-3.8-6.5c-11.5,0.2-22.6-3.3-34.1-3c-1.6,0-3.2,0.1-4.8,0.2c0.1-15.2,3.5-46.6,4.1-47.7
		C620.1,557.3,633.4,532.5,646.3,507.4z M571.9,108.1c10.5,1.1,20.7-0.9,31.4-1.6c10.4-0.7,20.5,1.7,30.7,2.6
		c-9.6,18.6-19.4,37-29.4,55.3c0-6.6,7.9-36.9,10.2-43.2c0.8-2.2-1.3-5.1-3.7-4.9c-5,0.4-10,0.7-15,1.1c-2.4,0.2-4.6,2.4-3.8,4.9
		c2.2,6.8,7.1,35.2,6.8,41.8C590.9,145.2,582.2,126.1,571.9,108.1z M572.2,238.9c10.5,1.1,20.7-0.9,31.4-1.6
		c10.4-0.7,20.5,1.7,30.7,2.6c-10,19.4-20.3,38.7-30.8,57.8c0.2-7.3,9.3-39.4,11.6-45.7c0.8-2.2-1.3-5.1-3.7-4.9
		c-5,0.4-10,0.7-15,1.1c-2.4,0.2-4.6,2.4-3.8,4.9c2.2,6.8,6.1,33.1,5.7,39.2C590.4,274.1,582,256,572.2,238.9z M592.7,381.1
		c2.2,6.8,5.9,33,5.6,39c-7.9-18.1-16.3-36.1-26.1-53.2c10.5,1.1,20.7-0.9,31.4-1.6c10.4-0.7,20.5,1.7,30.7,2.6
		c-10.2,19.7-20.6,39.3-31.3,58.8c0.5-7.7,9.8-40.4,12.1-46.7c0.8-2.2-1.3-5.1-3.7-4.9c-5,0.4-10,0.7-15,1.1
		C594.1,376.3,591.8,378.5,592.7,381.1z M603.6,638.3c10.4-0.7,20.5,1.7,30.7,2.6c-9.9,19.1-20,38-30.3,56.9c0-7,8.7-38.5,11.1-44.7
		c0.8-2.2-1.3-5.1-3.7-4.9c-5,0.4-10,0.7-15,1.1c-2.4,0.2-4.6,2.4-3.8,4.9c2.2,6.8,6.4,33.7,6.1,40.2c-8.1-18.5-16.6-37-26.6-54.4
		C582.7,641,592.9,639,603.6,638.3z M612.7,516.5c-5,0.4-10,0.7-15,1.1c-2.4,0.2-4.6,2.4-3.8,4.9c2.1,6.5,5.5,31.8,5.1,37.9
		c-7.8-17.7-16-35.4-25.6-52.1c10.5,1.1,20.7-0.9,31.4-1.6c10.4-0.7,20.5,1.7,30.7,2.6c-10.3,19.9-20.8,39.7-31.6,59.4
		c0.1-7.8,10.1-41,12.5-47.3C617.2,519.2,615,516.4,612.7,516.5z"/>
	<path class="st0" d="M697.4,38c5-0.4,10-0.7,15-1.1c2.4-0.2,4.6-2.4,3.8-4.9c-1.6-4.8-4.4-20.7-6-32h-8
		c-2.5,11.7-6.9,28.6-8.5,33.1C692.9,35.4,695.1,38.2,697.4,38z"/>
	<path class="st0" d="M740,55.5c2.2,0.5,3.9-0.6,4.7-2.1c1.6-0.9,2.6-2.8,1.7-5c-7.3-16.3-15.2-32.3-22.8-48.4h-9.9
		c7,15.7,14.5,31.3,23,46.2c-10.5-1.1-20.7,0.9-31.4,1.6c-10.4,0.7-20.5-1.7-30.7-2.6c7.8-15.2,15.9-30.2,24-45.2h-9.9
		c-8.4,15.6-16.7,31.3-24.8,47.1c-1.5,2.9,0.4,6.5,3.8,6.5c11.5-0.2,22.6,3.3,34.1,3c1.1,0,2.3-0.1,3.4-0.2
		c-0.2,18.5-2.2,56.5-2.5,57c-13.7,24.7-26.9,49.5-39.8,74.6c-1.5,2.9,0.4,6.5,3.8,6.5c11.5-0.2,22.6,3.3,34.1,3
		c1.6,0,3.2-0.1,4.8-0.2c-0.1,15.2-3.5,46.6-4.1,47.7c-13.7,24.7-26.9,49.5-39.8,74.6c-1.5,2.9,0.4,6.5,3.8,6.5
		c11.5-0.2,22.6,3.3,34.1,3c1.6,0,3.1-0.1,4.7-0.2c1.1,15.9-0.9,56.5-1.5,57.6c-13.7,24.7-26.9,49.5-39.8,74.6
		c-1.5,2.9,0.4,6.5,3.8,6.5c11.5-0.2,22.6,3.3,34.1,3c2.2,0,4.3-0.2,6.4-0.4c-0.6,14-4.1,43.4-4.5,44.3
		c-13.7,24.7-26.9,49.5-39.8,74.6c-1.5,2.9,0.4,6.5,3.8,6.5c11.5-0.2,22.6,3.3,34.1,3c1.4,0,2.9-0.1,4.3-0.2
		c-0.3,15.2-2,46.6-2.1,46.9c-13.7,24.7-26.9,49.5-39.8,74.6c-1.5,2.9,0.4,6.5,3.8,6.5c11.5-0.2,22.6,3.3,34.1,3
		c1.4,0,2.7-0.1,4.1-0.2c0,0,0,0,0,0c0.4,14-1.2,42.8-1.4,43.3c-5.1,9.1-10,18.3-15,27.5h9.9c2-3.7,4-7.4,6-11.1
		c0,2-1.1,6.1-2.2,11.1h8c-0.5-4.2-0.7-7.6-0.6-9.3c1.4,3.1,2.7,6.2,4.1,9.3h9.9c-4.3-9.1-8.5-18.2-12.5-27.5
		c-0.2-0.5-1.5-29.6-2.4-43.3c0-0.1,20.2-3.3,30.5-1c2.2,0.5,3.9-0.6,4.7-2.1c1.6-0.9,2.6-2.8,1.7-5c-11.4-25.5-24.3-50.2-35.3-75.9
		c-0.3-0.7-1.6-32.1-1.5-47.2c10.1-1,20-2.9,30.2-0.6c2.2,0.5,3.9-0.6,4.7-2.1c1.6-0.9,2.6-2.8,1.7-5c-11.3-25.3-24-49.8-35-75.3
		c0.4-15.2,0.4-30.3,0.9-45.3c9.3-1,18.4-2.4,27.8-0.3c2.2,0.5,3.9-0.6,4.7-2.1c1.6-0.9,2.6-2.8,1.7-5
		c-11.3-25.4-24.2-50.1-35.2-75.7c0-2.7,0-5.4,0-8c0.1-16.7-0.5-33.5-1.8-50.1c9.8-1,19.5-2.7,29.4-0.5c2.2,0.5,3.9-0.6,4.7-2.1
		c1.6-0.9,2.6-2.8,1.7-5c-11.1-24.8-23.5-48.9-34.4-73.8c0.4-16.8,0-33.7-0.2-50.1c9.8-1,19.5-2.8,29.5-0.5c2.2,0.5,3.9-0.6,4.7-2.1
		c1.6-0.9,2.6-2.8,1.7-5c-11.4-25.5-35.6-76.3-35.7-76.5c0.3-19,0-38-0.2-56.8C719.7,55.1,729.7,53.2,740,55.5z M736,719
		c-10.5-1.1-20.7,0.9-31.4,1.6c-10.4,0.7-20.5-1.7-30.7-2.6c9.6-18.6,19.4-37,29.4-55.3c0,6.6-7.9,36.9-10.2,43.2
		c-0.8,2.2,1.3,5.1,3.7,4.9c5-0.4,10-0.7,15-1.1c2.4-0.2,4.6-2.4,3.8-4.9c-2.2-6.8-7.1-35.2-6.8-41.8C716.9,681.9,725.7,701,736,719
		z M735.7,588.2c-10.5-1.1-20.7,0.9-31.4,1.6c-10.4,0.7-20.5-1.7-30.7-2.6c10-19.4,20.3-38.7,30.8-57.8c-0.2,7.3-9.3,39.4-11.6,45.7
		c-0.8,2.2,1.3,5.1,3.7,4.9c5-0.4,10-0.7,15-1.1c2.4-0.2,4.6-2.4,3.8-4.9c-2.2-6.8-6.1-33.1-5.7-39.2
		C717.5,552.9,725.9,571.1,735.7,588.2z M715.2,446c-2.2-6.8-5.9-33-5.6-39c7.9,18.1,16.3,36.1,26.1,53.2
		c-10.5-1.1-20.7,0.9-31.4,1.6c-10.4,0.7-20.5-1.7-30.7-2.6c10.2-19.7,20.6-39.3,31.3-58.8c-0.5,7.7-9.8,40.4-12.1,46.7
		c-0.8,2.2,1.3,5.1,3.7,4.9c5-0.4,10-0.7,15-1.1C713.8,450.7,716.1,448.5,715.2,446z M734.5,318.7c-10.5-1.1-20.7,0.9-31.4,1.6
		c-10.4,0.7-20.5-1.7-30.7-2.6c10.3-19.9,20.8-39.7,31.6-59.4c-0.1,7.8-10.1,41-12.5,47.3c-0.8,2.2,1.3,5.1,3.7,4.9
		c5-0.4,10-0.7,15-1.1c2.4-0.2,4.6-2.4,3.8-4.9c-2.1-6.5-5.5-31.8-5.1-37.9C716.7,284.3,724.9,302,734.5,318.7z M735.7,187.2
		c-10.5-1.1-20.7,0.9-31.4,1.6c-10.4,0.7-20.5-1.7-30.7-2.6c9.9-19.1,20-38,30.3-56.9c0,7-8.7,38.5-11.1,44.7
		c-0.8,2.2,1.3,5.1,3.7,4.9c5-0.4,10-0.7,15-1.1c2.4-0.2,4.6-2.4,3.8-4.9c-2.2-6.8-6.4-33.7-6.1-40.2
		C717.2,151.3,725.7,169.8,735.7,187.2z"/>
</g>
</svg>
